<svg xmlns="http://www.w3.org/2000/svg" viewBox="0 0 294 86"><defs><style>.cls-1{isolation:isolate;}.cls-2{fill:#50e0c0;}.cls-3{fill:#8932d8;mix-blend-mode:multiply;}.cls-4{fill:#fff;}</style></defs><title>button-1</title><g class="cls-1"><g id="レイヤー_1" data-name="レイヤー 1"><rect class="cls-2" x="9" y="9" width="285" height="77" rx="8" ry="8"/><rect class="cls-3" width="285" height="77" rx="8" ry="8"/><path class="cls-4" d="M71.53,44.7c0,1-1.47,1.62-2.08,1.62-.4,0-.53-.28-.72-.7-.29-.59-1.1-1.49-1.52-1.49a1,1,0,0,0-.61.32c-.14.13-.36.33-.47.33-.39,0-1.46-2-1.46-2.42,0-.21.17-.28.38-.39.45-.24,3.37-2,3.57-2.22a1.12,1.12,0,0,0,.14-.65v-.7a.42.42,0,0,0-.41-.45c-.07,0-.51.07-.61.09a6.17,6.17,0,0,1-1,.15c-.36,0-.72,0-.72-1.9,0-.68,0-.71.7-.75.52,0,1-.06,1.57-.11a.58.58,0,0,0,.46-.25,6.22,6.22,0,0,0,.13-1.62v-.31c0-.38,0-.77,0-.88a.25.25,0,0,1,.27-.29c.4,0,2.16.38,2.67.47.16,0,.34.09.34.23s-.11.17-.18.2a1,1,0,0,0-.38.65c-.07.4-.11.67-.11.72a.36.36,0,0,0,.35.36,5,5,0,0,0,.57-.16,1.79,1.79,0,0,1,.49-.13c.31,0,.47.4.54,1.1a9.47,9.47,0,0,1,.09,1.06c0,.45-.2.47-1.71.72-.31.06-.54.2-.54.58s.07.47.36.47a1.56,1.56,0,0,0,.41-.11,8,8,0,0,1,2.42-.4c2.21,0,4.3,1.25,4.3,3.68a3.57,3.57,0,0,1-1.46,2.88,7.25,7.25,0,0,1-3.89,1c-.49,0-.86,0-1-.27a4.94,4.94,0,0,1-.3-1.69c0-.32,0-.68.43-.68.11,0,.5,0,.63.07l.76,0c.77,0,2.08-.21,2.08-1.2a1.46,1.46,0,0,0-1.62-1.32,6.23,6.23,0,0,0-2.77.76.76.76,0,0,0-.23.61c0,.22,0,.77,0,1S71.53,44.49,71.53,44.7Zm-2.66-1.37c0-.21,0-.45-.18-.45a.79.79,0,0,0-.41.24.25.25,0,0,0-.15.21c0,.15.06.2.38.42a.6.6,0,0,0,.22.11c.12,0,.14-.11.14-.22Zm9.25-7.88c.42.34,1.07.88,1.44,1.26a.55.55,0,0,1,.24.36c0,.47-1.08,1.71-1.53,1.71-.16,0-.29-.13-.43-.25a31.42,31.42,0,0,0-2.54-2.07c-.2-.15-.4-.27-.4-.47s.51-.85.69-1l.1-.12c.24-.26.49-.54.71-.54A7.18,7.18,0,0,1,78.12,35.45Z"/><path class="cls-4" d="M85.48,37.59a.53.53,0,0,0-.5.51V44c0,.92,0,1.83,0,2.77,0,.45-.18.5-.74.5H83.16c-.58,0-.76,0-.76-.5,0-.94,0-1.85,0-2.77V34.35c0-.65,0-1.3,0-1.93s.27-1,1-1,1.17,0,1.74,0h1.66c.58,0,1.15,0,1.73,0s1,.16,1,1c0,.63,0,1.28,0,1.93v.36c0,.65,0,1.3,0,1.93s-.25,1-1,1-1.16-.06-1.75-.06ZM87,33.49a.24.24,0,0,0-.24-.24H85.21a.24.24,0,0,0-.23.24v0a.23.23,0,0,0,.23.23h1.55a.22.22,0,0,0,.24-.23Zm0,2a.23.23,0,0,0-.24-.23H85.21a.24.24,0,0,0-.23.23v.1a.24.24,0,0,0,.23.23h1.55a.24.24,0,0,0,.24-.23Zm2.62,9.08c-.23,0-.41.11-.41.36v.13c0,.41-.16.45-.77.45H87.5c-.54,0-.76,0-.76-.4s.06-1.1.06-1.68V41c0-.42,0-.85,0-1.26,0-.69.56-.72,1.1-.72l1.58,0h1.1c.54,0,1.06,0,1.61,0s1.08,0,1.08.72c0,.39,0,.81,0,1.26v2.44c0,1.21,0,1.41.4,1.41h.09l.95,0c.43,0,.45-.31.45-.76v-6a.51.51,0,0,0-.5-.51H93.26c-.57,0-1.15.06-1.73.06s-1-.17-1-1c0-.63,0-1.28,0-1.93v-.36c0-.65,0-1.3,0-1.93s.25-1,1-1c.57,0,1.17,0,1.74,0h1.68c.57,0,1.15,0,1.72,0s1,.18,1,1c0,.63,0,1.28,0,1.93V43c0,.58,0,1.17,0,1.76a2,2,0,0,1-.79,1.91,4.52,4.52,0,0,1-2.46.6c-.78,0-1.05-.15-1.19-1.44a.37.37,0,0,0-.36-.38l-.38,0h-.54c-.87,0-1.05,0-1.05-.42a1.32,1.32,0,0,1,0-.16.35.35,0,0,0-.39-.36Zm1.32-3a.52.52,0,0,0-.51-.51h-.77a.52.52,0,0,0-.5.51V42a.52.52,0,0,0,.5.51h.77a.51.51,0,0,0,.51-.51Zm4.14-8.12a.23.23,0,0,0-.23-.24H93.28a.23.23,0,0,0-.23.24v0a.23.23,0,0,0,.23.23h1.57a.22.22,0,0,0,.23-.23Zm0,2a.22.22,0,0,0-.23-.23H93.28a.23.23,0,0,0-.23.23v.06a.23.23,0,0,0,.23.23h1.57a.23.23,0,0,0,.23-.23Z"/><path class="cls-4" d="M104.69,34.51c.18,0,.38.09.38.25s-.06.13-.18.22a1.21,1.21,0,0,0-.34.79,12.72,12.72,0,0,0-.24,2.52,8.33,8.33,0,0,0,.65,3.46c.14.31.47.88.86.88s.83-.74,1-1,.29-.45.56-.45c.54,0,1.88,1,1.88,1.46s-.83,1.38-1.14,1.72a3,3,0,0,1-2.25,1.3,3.81,3.81,0,0,1-2.9-1.82c-1.33-1.87-1.46-4.5-1.46-6.71,0-.35.07-2.53.09-2.78s.11-.29.31-.29S104.24,34.42,104.69,34.51Zm6.59-.57c.49,0,1.91,1.11,2.7,2.39A9.94,9.94,0,0,1,115.31,40a8.94,8.94,0,0,1,.09.94c0,.38-.09.54-.45.65a6.27,6.27,0,0,1-1.71.3c-.66,0-.68-.23-.74-.92a6.38,6.38,0,0,0-2.62-5.09.37.37,0,0,1-.18-.31C109.7,35.18,110.74,33.94,111.28,33.94Z"/><path class="cls-4" d="M124.36,38.8l-1.72,0c-.31,0-.4-.1-.4-.75v-.15c0-.12,0-.32-.22-.32s-.21.11-.3.16a9.17,9.17,0,0,1-2.16,1.37c-.47,0-1.64-1.4-1.64-1.89,0-.22.23-.31.48-.43A16.25,16.25,0,0,0,124.72,31c.09-.16.15-.23.33-.23s2.43.34,2.74.41c.14,0,.28.11.28.29a.23.23,0,0,1-.09.18.45.45,0,0,0-.1.22,2.88,2.88,0,0,0,.5.73,14.94,14.94,0,0,0,5.54,4.11c.37.16.4.2.4.36a4.39,4.39,0,0,1-.57,1.46c-.17.3-.4.7-.67.7a14.42,14.42,0,0,1-2.86-1.67.43.43,0,0,0-.18-.09c-.22,0-.24.18-.24.45v.36c0,.41-.09.55-.39.55-.49,0-1,0-1.73,0Zm-.86,7.45a.29.29,0,0,0-.32.27v.15c0,.55-.15.55-1.26.55h-.58c-.65,0-.9,0-.9-.5,0-.25,0-1,0-1.6v-3c0-.49,0-1,0-1.48,0-.9.7-1,1.42-1s1.15.07,1.75.07h4.8c.58,0,1.17-.07,1.75-.07s1.42.07,1.42,1c0,.44,0,.94,0,1.5v3c0,.66.05,1.38.05,1.58,0,.49-.25.52-.88.52h-1.06c-.6,0-.83,0-.83-.5,0-.07,0-.13,0-.18a.29.29,0,0,0-.31-.29ZM128.4,44a.49.49,0,0,0,.5-.5v-.89a.48.48,0,0,0-.5-.5h-4.77a.5.5,0,0,0-.51.5v.89a.5.5,0,0,0,.51.5Zm-.49-7.58c.24,0,.43,0,.43-.2a.53.53,0,0,0-.25-.41A22.24,22.24,0,0,1,126.42,34c-.09-.11-.22-.27-.38-.27a.42.42,0,0,0-.34.21c-.51.62-1.19,1.3-1.75,1.86a.64.64,0,0,0-.27.41c0,.2,0,.22.68.22Z"/><path class="cls-4" d="M143.16,31.67c.18,0,.28.09.28.23a.25.25,0,0,1-.1.22c-.29.23-.29.29-.36,1,0,.18-.06.52-.11.9,0,.07,0,.14,0,.21,0,.25.11.34.29.51s.61.61.61.86-.27.43-.54.74-.49.61-.49.7a.1.1,0,0,0,.09.11,3,3,0,0,0,.51-.4l.12-.1a5.48,5.48,0,0,1,3.61-1.46,4.55,4.55,0,0,1,4.53,4.73c0,2.43-1.44,4.09-3.51,5.19a7.73,7.73,0,0,1-2.64.9c-.78,0-1.3-1.62-1.3-2.07s.3-.47.63-.54a8.75,8.75,0,0,0,2.32-.81A3,3,0,0,0,148.77,40a2,2,0,0,0-1.9-2.21,5.87,5.87,0,0,0-4.07,2.44,1.19,1.19,0,0,0-.13.6V41c0,.95,0,1.91.05,2.85,0,.32.17,2.43.17,2.5s-.06.2-.33.23a14.07,14.07,0,0,1-1.6.07c-.76,0-1,0-1-.36a1.23,1.23,0,0,1,0-.28c.07-.54.11-1.88.11-2.45,0-.15,0-.34-.24-.34s-.9,1.06-1,1.29-.16.29-.32.29c-.42,0-1.88-1.57-1.88-2,0-.2.2-.38.38-.54l.11-.11a19,19,0,0,0,3-3.85,1.05,1.05,0,0,0,.14-.38c0-.18,0-.36-.25-.36a.87.87,0,0,0-.3.07,9.75,9.75,0,0,1-1.73.38c-.31,0-.42-.33-.49-.58a16.66,16.66,0,0,1-.38-1.92c0-.38.27-.42.54-.42h.25a6.13,6.13,0,0,0,2.27-.31c.11-.09.18-.25.18-.57,0-.7,0-1.41,0-2.11v-.43c0-.23.13-.31.34-.31S142.83,31.6,143.16,31.67Z"/><path class="cls-4" d="M160.69,33.49c.11,0,.29.09.29.21s-.13.25-.2.34a3,3,0,0,0-.29,1.77c0,.18,0,.57.38.57.18,0,1.74-.26,2.09-.32s.5-.18.5-.52a22.65,22.65,0,0,0-.3-2.83,1.8,1.8,0,0,1-.06-.32.26.26,0,0,1,.29-.27c.21,0,2.07.29,2.77.45.18,0,.29.11.29.21s-.09.15-.2.26a2.67,2.67,0,0,0-.16,1.18v.56c0,.07,0,.16,0,.26,0,.26.11.48.42.48s.9-.09,1.24-.14a11.69,11.69,0,0,1,1.35-.18c.34,0,.45.1.45,1.46s0,1.47-.63,1.47h-.4c-.34,0-1.85.06-2.1.11s-.4.29-.44.63c-.25,2.36-1,3.67-3.56,3.67-.29,0-.51,0-.65-.29a6.79,6.79,0,0,1-.34-1.92c0-.2.09-.38.32-.38l.54,0a.86.86,0,0,0,1-.56,2.92,2.92,0,0,0,.12-.49.25.25,0,0,0-.27-.25c-.1,0-.45.06-1.44.22-1.24.2-1.26.29-1.26.92V40a15.87,15.87,0,0,0,.15,2.32c.27,1,1.17,1,2.3,1a21.5,21.5,0,0,0,3.21-.27c.12,0,.5-.07.63-.07s.34.23.34.9a4,4,0,0,1-.24,1.78,15.13,15.13,0,0,1-3.49.32,11.32,11.32,0,0,1-3.2-.37,3.22,3.22,0,0,1-2-2,12.71,12.71,0,0,1-.33-3.35c0-.27-.05-.58-.41-.58s-2,.49-2.38.59a.93.93,0,0,1-.23,0c-.26,0-.33-.11-.44-1.42,0-.43-.07-.9-.07-1.24s.2-.47.6-.47,1.78-.2,2.18-.25.66-.2.66-.69a23.36,23.36,0,0,0-.14-2.52c0-.09,0-.22,0-.31s.14-.32.36-.32S160.35,33.41,160.69,33.49Z"/><path class="cls-4" d="M182.7,33.38c.44,0,1.62,0,2,0a3.35,3.35,0,0,1,.4-.05,1.13,1.13,0,0,1,.76.48l.28.33c.27.29.51.54.51.74a5.68,5.68,0,0,1-.22.74c-.09.32-.14.66-.21,1A11.6,11.6,0,0,1,179.91,45a10.23,10.23,0,0,1-2.72,1.12c-.39,0-.82-.78-1-1.12a3.23,3.23,0,0,1-.47-1.12c0-.19.2-.23.36-.27a11.83,11.83,0,0,0,5.19-3,8.05,8.05,0,0,0,2-4.13c0-.3-.34-.36-.81-.36h-5.55c-.75,0-1.53,0-2.29,0s-.72-.09-.72-.92V34.19c0-.74.11-.85.62-.85.81,0,1.64,0,2.45,0Z"/><path class="cls-4" d="M197.57,37.9c.4,0,.49-.33.49-.65v-.2c0-.56,0-1.12-.09-1.67,0-.08,0-.17,0-.26s.2-.28.39-.28,1.48.12,1.79.16.36.09.36.27-.07.18-.15.27a.6.6,0,0,0-.14.49c0,.35,0,.73,0,1.09v.17a.49.49,0,0,0,.48.55H201l2-.07c.45,0,.49.24.49,1.33,0,.56,0,.89-.54.89h-2.18a.51.51,0,0,0-.49.51l0,2.59c0,.38,0,.76,0,1.14a1.87,1.87,0,0,1-.69,1.71,4,4,0,0,1-2,.45h-.09c-.29,0-.6,0-.74-.29a5.24,5.24,0,0,1-.4-1.66c0-.2.09-.34.29-.34s.61.09,1,.09.52-.11.52-.58v-.37l0-1.23c0-.14,0-.27-.22-.27a.42.42,0,0,0-.32.2c-.52.58-3.19,3.19-3.84,3.19-.3,0-1.54-1-1.54-1.43,0-.18.17-.27.3-.34a17.19,17.19,0,0,0,3.31-2.45c.13-.12.47-.45.47-.61s-.12-.22-.25-.22l-1.13,0c-.36,0-1.64.07-1.84.07-.47,0-.51-.39-.51-.77v-.79c0-.45.06-.69.46-.69l.72,0C195.05,38,196.74,37.9,197.57,37.9Z"/><path class="cls-4" d="M220.5,37.48c1.07,0,2.22-.07,2.38-.07.47,0,.54.2.54.72V39c0,1,0,1.29-.59,1.29s-1.53,0-2.33,0h-8.28c-.79,0-1.64,0-2.3,0S209.3,40,209.3,39v-.83c0-.54.06-.76.53-.76.25,0,1.26.07,2.39.07Z"/><path class="cls-4" d="M235.32,33l.16.07c.27.11.56.22.56.4s-.15.18-.24.23a1.87,1.87,0,0,0-.68.83s-.07.13-.11.18c-1.12,2-2.09,4.16-3.19,6.23a.58.58,0,0,0-.09.29.33.33,0,0,0,.35.32l.43,0c1-.09,2-.2,3-.31.36,0,.66-.07.66-.34a.73.73,0,0,0-.25-.42c-.36-.37-.76-.72-1.14-1.06a.51.51,0,0,1-.19-.34c0-.31.59-.81.82-1s.67-.65.94-.65a.72.72,0,0,1,.49.26,29.81,29.81,0,0,1,2.57,2.7c.38.45,2,2.43,2,2.9s-.53.82-.83,1.06a2.53,2.53,0,0,1-1.14.63c-.23,0-.41-.31-.75-.88l-.22-.36a.67.67,0,0,0-.56-.37l-.82.11c-1.14.13-8.58,1-9.19,1.14a.47.47,0,0,0-.39.25c-.08.07-.13.14-.24.14s-.29-.34-.38-.72c-.14-.59-.25-1.18-.39-1.76a1.8,1.8,0,0,1-.06-.45c0-.25.24-.25.42-.25h.93c.71,0,.74-.07,1.26-1.15.11-.23.26-.5.42-.83.72-1.42,2.92-5.94,3.33-7.25.05-.2.11-.4.34-.4A14.09,14.09,0,0,1,235.32,33Z"/><path class="cls-4" d="M253.48,36.75a19.12,19.12,0,0,0,5.78,4.82c.16.09.41.22.41.45,0,.45-1.22,2.36-1.78,2.36A8.11,8.11,0,0,1,255.68,43a27.83,27.83,0,0,1-4.42-4.46c-.18-.2-.37-.44-.66-.44s-.65.33-.87.53c-.66.61-1.31,1.22-2,1.8a7.72,7.72,0,0,0-1,1c-.09.11-.25.27-.4.27-.31,0-.86-.74-1-1a7.05,7.05,0,0,1-1-1.55c0-.16.27-.31.47-.4l.09,0a16.84,16.84,0,0,0,3.09-2.27c1-.88,1.77-1.53,2.72-1.53C251.88,34.91,252.6,35.74,253.48,36.75Z"/><path class="cls-4" d="M38,48.83,25.59,36.41a2,2,0,0,1,2.82-2.82L38,43.17l9.59-9.58a2,2,0,0,1,2.82,2.82Z"/></g></g></svg>