<svg id="レイヤー_1" data-name="レイヤー 1" xmlns="http://www.w3.org/2000/svg" viewBox="0 0 287.42 64.52"><title>contact-title</title><path d="M87.91,5c.2,0,.7.12.7.37a1.06,1.06,0,0,1-.28.56,5.23,5.23,0,0,0-.47,2.71c0,.34,0,.9.59.9.25,0,3-.45,3.19-.48.56-.11.78-.3.78-.84a29.88,29.88,0,0,0-.53-4.39,2.63,2.63,0,0,1-.06-.48c0-.33.28-.45.56-.45s3.11.45,3.64.56c.17,0,.56.09.56.31a2.07,2.07,0,0,1-.08.42,8.28,8.28,0,0,0-.08,1.57V7c0,.75,0,1.2.64,1.2.25,0,1.6-.19,2-.25s1.79-.28,2.18-.28a.62.62,0,0,1,.65.64c0,.65,0,1.24,0,2.13,0,1.71,0,1.77-1,1.77h-.61a30.93,30.93,0,0,0-3.31.19c-.53.14-.64.48-.7,1C96,17,94.89,19.12,90.85,19.12c-.44,0-.78,0-1-.47a11.47,11.47,0,0,1-.51-3c0-.34.14-.62.48-.62s.56.06.84.06c.73,0,1.2-.17,1.46-.9a4.13,4.13,0,0,0,.19-.75c0-.06,0-.39-.36-.39a20,20,0,0,0-2.44.39c-1.54.28-1.76.33-1.76,1.29v.42a16.05,16.05,0,0,0,.36,4c.39,1,1.43,1.2,3.45,1.2a30,30,0,0,0,5-.42c.2,0,.78-.11.95-.11.45,0,.56.53.56.87,0,1.65-.08,3.08-.36,3.33s-3.14.48-5.43.48a16.73,16.73,0,0,1-5-.59,5.18,5.18,0,0,1-3.08-3.08,19.07,19.07,0,0,1-.5-5.18c0-.45-.09-.9-.65-.9-.33,0-3.19.76-3.69.9a1,1,0,0,1-.37.08c-.42,0-.5-.42-.61-1.65-.09-.84-.17-2-.17-2.49,0-.7.28-.76.87-.76h0c.54,0,2.78-.28,3.39-.39s1-.28,1-1.06c0-1.12-.08-2.8-.2-3.92,0-.14,0-.31,0-.48,0-.36.19-.5.56-.5C84.36,4.54,87.3,4.87,87.91,5ZM99.28,2.16a12.57,12.57,0,0,1,1.93,2.71c0,.56-1.51,1.43-1.79,1.43s-.28-.2-.42-.39a28.4,28.4,0,0,0-1.73-2.35A1.12,1.12,0,0,1,97,3.08c0-.39,1.54-1.26,1.84-1.26S99.14,2,99.28,2.16Zm3-1.82a12.09,12.09,0,0,1,2,2.71c0,.56-1.49,1.43-1.79,1.43s-.28-.17-.42-.36a23.46,23.46,0,0,0-1.82-2.47.73.73,0,0,1-.2-.36c0-.45,1.6-1.29,1.85-1.29S102.19.22,102.28.34Z"/><path d="M119.19,5.8a1.11,1.11,0,0,1-.48.72c-2.88,2.66-5.82,7-5.82,11.06,0,2.1.87,3.62,3.14,3.62a5.19,5.19,0,0,0,4.11-2.1c1.4-1.94,1.71-5,1.71-7.4a16.72,16.72,0,0,0-1.26-6.91,1.74,1.74,0,0,1-.11-.56c0-.84,2.71-1.37,3.39-1.37.86,0,.95.47,1.06,1.23.5,3.05,2.24,5.71,4.12,8.12,0,0,.08.11.11.17a1.72,1.72,0,0,1,.45.89c0,.42-.51.76-1.1,1.15a6.35,6.35,0,0,1-1.87,1c-.39,0-.7-.5-.87-.81-.06-.11-.17-.34-.34-.34s-.28.23-.3.67a14.36,14.36,0,0,1-1.29,5.63,8.68,8.68,0,0,1-7.67,4.65c-4.43,0-7.23-3.05-7.23-7.39a14.54,14.54,0,0,1,1.6-6.41,1,1,0,0,0,.11-.34.21.21,0,0,0-.2-.22.87.87,0,0,0-.39.14,1.21,1.21,0,0,1-.53.16c-.7,0-1.79-3.27-1.79-3.94,0-.45.31-.51,1.15-.59a17.83,17.83,0,0,0,4-.7,3.71,3.71,0,0,0,2.32-2c.2-.34.48-.81.9-.81C117,3.11,119.19,5,119.19,5.8Z"/><path d="M142.21,22.71c0,.81-2,3-2.8,3-.28,0-.48-.28-.62-.48a22.24,22.24,0,0,0-4.59-4.12.49.49,0,0,1-.28-.39c0-.53,2-2.71,2.63-2.71S142.21,22,142.21,22.71Z"/><path d="M171.4,11.56c1.4,0,2.83-.08,4.23-.08.81,0,.89.42.89,1.48v1.91c0,1.15-.08,1.51-.89,1.51-1.4,0-2.83-.11-4.23-.11H157.12c-1.4,0-2.8.11-4.23.11-.81,0-.9-.39-.9-1.51V13c0-1.06.09-1.48.9-1.48,1.4,0,2.8.08,4.23.08Z"/><path d="M186.74,11a.82.82,0,0,0-.92.84V12a46.23,46.23,0,0,1-.56,7.9A19.87,19.87,0,0,1,183,26.1a.72.72,0,0,1-.59.33c-.7,0-2.88-1.17-2.88-2a2.46,2.46,0,0,1,.22-.7c2-4.59,2.08-8.62,2.08-13.55V7.17c0-1-.09-1.88-.09-2.58,0-1.06.7-1.23,1.63-1.23s2,.06,2.94.06h3.19a.82.82,0,0,0,.92-.82c0-.16,0-.75,0-.92a.72.72,0,0,1,0-.25c0-.37.28-.42.59-.42s3.08.17,3.58.22c.31,0,.95,0,.95.48,0,.19-.17.28-.42.45a.58.58,0,0,0-.28.5.8.8,0,0,0,.9.76h4.62c1.15,0,2.29-.09,3.44-.09.7,0,.76.23.76,1V5.74c0,.78-.06,1-.76,1-.92,0-1.85-.09-2.74-.09-.23,0-.23.14-.23.23s-.22.25-.3.31a.57.57,0,0,0-.26.42.46.46,0,0,0,.51.42h.14C202,8,203.07,8,204.21,8c.59,0,.65.25.65,1v1.12c0,.7-.06,1-.62,1-1,0-2.07-.08-3.11-.08-.58,0-1,.19-1,.86v.62c0,.56.05,1.09.05,1.65,0,.76-.58.87-1.23.87-.92,0-1.85-.06-2.77-.06h-3.08c-1,0-2.07.06-3.11.06-.64,0-1.15-.14-1.15-.9,0-.53,0-1.06,0-1.62v-.59A.81.81,0,0,0,188,11Zm10.81,4.73c.81,0,1.62-.06,2.44-.06a2.14,2.14,0,0,1,1.62.48c.28.25.84.75.84,1.12,0,.89-2.88,3.47-3.64,4.06a.59.59,0,0,0-.28.45c0,.33.48.36,1.09.47a22.68,22.68,0,0,0,4.59.45c.45,0,.62.06.62.78,0,1-.62,2.89-1.57,2.89-.45,0-2.71-.39-3.27-.51a27.42,27.42,0,0,1-4.93-1.48,2.06,2.06,0,0,0-.81-.17,2.19,2.19,0,0,0-1,.23,37.14,37.14,0,0,1-6.69,1.87c-.75,0-1-.53-1.31-1.62a7.07,7.07,0,0,1-.4-1.6c0-.5.54-.5,1.54-.61a35.08,35.08,0,0,0,3.48-.56c.19-.06.39-.14.39-.37a.46.46,0,0,0-.17-.31c-.36-.33-1.74-1.73-1.74-2.18a.49.49,0,0,1,.23-.34.2.2,0,0,0,.08-.14c0-.14-.14-.16-.39-.16s-.73.05-1.32.05-.58-.28-.58-.87V16.52c0-.64.05-.87.58-.87.93,0,1.85.06,2.78.06Zm-11.17-9a.56.56,0,0,0-.56.54v.28a.57.57,0,0,0,.56.56h1.82a.57.57,0,0,0,.61-.59c0-.45-.14-.79-.64-.79ZM193,18.4c-.19,0-.33.08-.33.25s.19.28.36.45,1.12,1,1.49,1,2-1.15,2-1.54c0-.17-.28-.19-.7-.19Zm.42-7.42a.58.58,0,0,0-.58.56v.19a.53.53,0,0,0,.56.53h2.4a.52.52,0,0,0,.54-.53v-.19a.54.54,0,0,0-.54-.56Zm.31-4.32c-.22,0-.25,0-.28.17s-.19.2-.31.28a.46.46,0,0,0-.22.39.54.54,0,0,0,.59.54h2.18a.58.58,0,0,0,.62-.56,1.38,1.38,0,0,0,0-.34.55.55,0,0,0-.62-.48Z"/><path d="M10.67,60.46C10.67,62,8.37,63,7.42,63c-.62,0-.81-.45-1.12-1.1C5.85,61,4.59,59.56,4,59.56a1.58,1.58,0,0,0-1,.5c-.23.2-.56.51-.73.51C1.65,60.57,0,57.46,0,56.82c0-.34.25-.45.59-.62.7-.36,5.23-3.08,5.54-3.44a1.69,1.69,0,0,0,.23-1V50.66a.65.65,0,0,0-.65-.7c-.11,0-.78.11-1,.14a11.17,11.17,0,0,1-1.57.22c-.56,0-1.12,0-1.12-2.94,0-1.06,0-1.12,1.09-1.18.82,0,1.63-.08,2.44-.16a.91.91,0,0,0,.73-.4,9.84,9.84,0,0,0,.19-2.52v-.47c0-.59,0-1.21,0-1.37a.39.39,0,0,1,.42-.45c.61,0,3.36.59,4.14.73.25,0,.53.14.53.36s-.16.25-.28.31a1.43,1.43,0,0,0-.58,1,9.24,9.24,0,0,0-.17,1.12.56.56,0,0,0,.53.56,5.93,5.93,0,0,0,.9-.26,3.06,3.06,0,0,1,.75-.19c.48,0,.73.61.84,1.71a15.3,15.3,0,0,1,.14,1.65c0,.7-.31.73-2.66,1.12-.47.08-.84.31-.84.89,0,.4.11.73.56.73a2.6,2.6,0,0,0,.65-.17,12.27,12.27,0,0,1,3.75-.61c3.44,0,6.69,1.93,6.69,5.71A5.54,5.54,0,0,1,19.57,60c-1.48,1.12-4.23,1.48-6.05,1.48-.75,0-1.34,0-1.56-.42a7.69,7.69,0,0,1-.48-2.63c0-.5.06-1.06.67-1.06.17,0,.79.08,1,.11s.87.06,1.18.06c1.2,0,3.25-.34,3.25-1.88a2.28,2.28,0,0,0-2.52-2,9.86,9.86,0,0,0-4.32,1.17,1.21,1.21,0,0,0-.36.95c0,.34.06,1.21.08,1.54C10.47,57.82,10.67,60.12,10.67,60.46ZM6.52,58.33c0-.34,0-.7-.28-.7A1.25,1.25,0,0,0,5.6,58c-.11.09-.22.17-.22.34s.08.31.58.64a.91.91,0,0,0,.34.17c.2,0,.22-.17.22-.34Zm14.4-12.27c.64.54,1.65,1.38,2.24,2a.86.86,0,0,1,.36.56c0,.73-1.68,2.66-2.38,2.66a1.1,1.1,0,0,1-.67-.39,48.66,48.66,0,0,0-3.95-3.22c-.31-.22-.62-.42-.62-.73s.79-1.31,1.07-1.59c.05-.06.11-.14.17-.2.36-.39.75-.84,1.09-.84S20.5,45.73,20.92,46.06Z"/><path d="M32.37,49.4a.82.82,0,0,0-.79.78v9.24c0,1.43.09,2.86.09,4.31,0,.7-.28.79-1.15.79H28.76c-.9,0-1.18-.06-1.18-.79,0-1.45.06-2.88.06-4.31V44.36c0-1-.06-2-.06-3s.42-1.57,1.51-1.57c.93,0,1.82.09,2.72.09h2.57c.9,0,1.8-.09,2.69-.09s1.54.25,1.54,1.57c0,1,0,2,0,3v.56c0,1,0,2,0,3s-.39,1.57-1.51,1.57c-.9,0-1.79-.08-2.72-.08ZM34.72,43a.37.37,0,0,0-.36-.36H32a.37.37,0,0,0-.37.36v.09a.37.37,0,0,0,.37.36h2.41a.35.35,0,0,0,.36-.36Zm0,3.11a.35.35,0,0,0-.36-.36H32a.37.37,0,0,0-.37.36v.14a.37.37,0,0,0,.37.36h2.41a.36.36,0,0,0,.36-.36Zm4.09,14.11c-.37,0-.65.17-.65.56V61c0,.64-.25.7-1.2.7H35.5c-.84,0-1.17-.06-1.17-.62s.08-1.71.08-2.6V54.66c0-.64,0-1.32,0-2,0-1.06.86-1.12,1.7-1.12s1.66.06,2.47.06h1.71c.84,0,1.65-.06,2.49-.06s1.68.06,1.68,1.12c0,.62-.06,1.26-.06,2v3.81c0,1.87,0,2.18.62,2.18h.14c.5,0,1,0,1.48,0,.67,0,.7-.48.7-1.18V50.18a.77.77,0,0,0-.78-.78h-2c-.89,0-1.79.08-2.68.08s-1.54-.25-1.54-1.57c0-1,0-2,0-3v-.56c0-1,0-2,0-3s.39-1.57,1.51-1.57c.89,0,1.82.09,2.71.09h2.61c.89,0,1.79-.09,2.69-.09s1.54.28,1.54,1.57c0,1-.06,2-.06,3V57.85c0,.9.06,1.82.06,2.75a3.15,3.15,0,0,1-1.24,3,7,7,0,0,1-3.83.93c-1.21,0-1.63-.23-1.85-2.24a.57.57,0,0,0-.56-.59s-.31,0-.59,0h-.84c-1.34,0-1.62,0-1.62-.65a2.1,2.1,0,0,1,0-.25.55.55,0,0,0-.62-.56Zm2-4.59a.79.79,0,0,0-.78-.78H38.86a.79.79,0,0,0-.78.78v.62a.79.79,0,0,0,.78.78h1.21a.78.78,0,0,0,.78-.78ZM47.29,43a.35.35,0,0,0-.36-.36H44.49a.37.37,0,0,0-.36.36v.09a.37.37,0,0,0,.36.36h2.44a.34.34,0,0,0,.36-.36Zm0,3.17a.34.34,0,0,0-.36-.37H44.49a.37.37,0,0,0-.36.37v.08a.36.36,0,0,0,.36.36h2.44a.35.35,0,0,0,.36-.36Z"/><path d="M62.24,44.61c.28,0,.59.14.59.39s-.08.2-.28.34A2,2,0,0,0,62,46.57a20.79,20.79,0,0,0-.36,3.92,13.09,13.09,0,0,0,1,5.37c.23.48.73,1.38,1.35,1.38s1.29-1.15,1.54-1.6.45-.7.87-.7c.84,0,2.91,1.6,2.91,2.27S68,59.36,67.56,59.9c-1,1.09-2,2-3.5,2-1.87,0-3.47-1.37-4.5-2.83-2.08-2.91-2.27-7-2.27-10.44,0-.53.11-3.92.14-4.31s.17-.45.47-.45S61.54,44.47,62.24,44.61Zm10.25-.9c.76,0,3,1.74,4.2,3.73a15.08,15.08,0,0,1,2.07,5.74,14.35,14.35,0,0,1,.14,1.45c0,.59-.14.84-.7,1a9.74,9.74,0,0,1-2.66.48c-1,0-1.06-.37-1.14-1.43-.26-3.36-1.43-6-4.09-7.93a.57.57,0,0,1-.28-.47C70,45.64,71.65,43.71,72.49,43.71Z"/><path d="M92.85,51.27c-.9,0-1.91.06-2.69.06-.48,0-.62-.17-.62-1.18v-.22c0-.2-.05-.51-.33-.51s-.34.17-.48.26c-.53.42-2.8,2.12-3.36,2.12-.73,0-2.55-2.18-2.55-2.94,0-.33.37-.47.76-.67a25.24,25.24,0,0,0,9.83-9c.14-.25.22-.37.5-.37s3.78.54,4.26.65c.22,0,.45.17.45.45a.42.42,0,0,1-.14.28.58.58,0,0,0-.17.33,4.59,4.59,0,0,0,.78,1.15A23,23,0,0,0,107.72,48c.56.26.61.31.61.56a6.63,6.63,0,0,1-.89,2.27c-.26.48-.62,1.09-1,1.09-.64,0-3.78-2.12-4.45-2.6a.67.67,0,0,0-.28-.14c-.34,0-.37.28-.37.7v.56c0,.64-.14.87-.61.87-.76,0-1.54-.06-2.69-.06ZM91.5,62.86a.45.45,0,0,0-.5.42v.23c0,.87-.22.87-2,.87h-.9c-1,0-1.4-.06-1.4-.79,0-.39.09-1.51.09-2.49V56.45c0-.75-.06-1.54-.06-2.29,0-1.4,1.09-1.52,2.21-1.52.9,0,1.8.12,2.72.12h7.48c.89,0,1.82-.12,2.71-.12,1.09,0,2.21.12,2.21,1.49,0,.67,0,1.45,0,2.32V61.1c0,1,.08,2.16.08,2.46,0,.76-.39.82-1.37.82h-1.65c-.93,0-1.29-.06-1.29-.79,0-.11,0-.19,0-.28a.46.46,0,0,0-.48-.45Zm7.62-3.47a.76.76,0,0,0,.78-.78V57.24a.76.76,0,0,0-.78-.79H91.7a.78.78,0,0,0-.78.79v1.37a.76.76,0,0,0,.78.78ZM98.36,47.6c.37,0,.68,0,.68-.3a.89.89,0,0,0-.4-.65A35.16,35.16,0,0,1,96,43.82c-.14-.16-.34-.42-.59-.42a.66.66,0,0,0-.53.34c-.78.95-1.85,2-2.72,2.88-.16.14-.42.4-.42.65s.09.33,1.07.33Z"/><path d="M122.08,40.18c.28.06.45.14.45.37a.36.36,0,0,1-.17.33c-.45.37-.45.45-.56,1.57,0,.28-.08.81-.17,1.4,0,.11,0,.23,0,.34,0,.39.17.53.45.78s1,1,1,1.35c0,.22-.42.67-.84,1.14s-.75,1-.75,1.1a.15.15,0,0,0,.14.16,5,5,0,0,0,.78-.61c.09-.09.17-.14.2-.17a8.54,8.54,0,0,1,5.6-2.27A7.08,7.08,0,0,1,135.18,53c0,3.78-2.24,6.35-5.46,8.06a11.94,11.94,0,0,1-4.11,1.4c-1.21,0-2-2.52-2-3.22s.48-.73,1-.84a13.22,13.22,0,0,0,3.61-1.26,4.67,4.67,0,0,0,2.64-4c0-1.73-1.07-3.44-3-3.44-2.3,0-5.49,2.27-6.33,3.81a1.81,1.81,0,0,0-.2.92v.25c0,1.49,0,3,.09,4.43,0,.5.25,3.78.25,3.89s-.08.31-.5.36a22.88,22.88,0,0,1-2.5.12c-1.17,0-1.56,0-1.56-.56a3.17,3.17,0,0,1,0-.45c.12-.84.17-2.91.17-3.81,0-.22,0-.53-.36-.53s-1.4,1.65-1.63,2c-.11.2-.25.45-.5.45-.64,0-2.91-2.43-2.91-3,0-.31.31-.59.59-.84l.16-.17a28.52,28.52,0,0,0,4.62-6,1.48,1.48,0,0,0,.23-.59c0-.28-.09-.56-.39-.56a1.92,1.92,0,0,0-.48.11,15.25,15.25,0,0,1-2.69.59c-.47,0-.64-.5-.75-.89a26,26,0,0,1-.59-3c0-.59.42-.64.84-.64h.39c.7,0,3.05-.06,3.53-.48.17-.14.28-.39.28-.9,0-1.09,0-2.18,0-3.27V40.3c0-.37.19-.48.53-.48C118.69,39.82,121.58,40.07,122.08,40.18Z"/><path d="M149.35,43c.17,0,.45.14.45.34s-.2.39-.31.53c-.36.42-.45,1.32-.45,2.74,0,.28,0,.9.59.9.28,0,2.72-.42,3.25-.5s.78-.28.78-.82a34.43,34.43,0,0,0-.47-4.39,3,3,0,0,1-.09-.51.41.41,0,0,1,.45-.42c.34,0,3.22.45,4.31.7.28.06.45.17.45.34s-.14.22-.31.39a4.19,4.19,0,0,0-.25,1.85V45c0,.11,0,.25,0,.39,0,.42.17.76.65.76.31,0,1.4-.14,1.93-.23s1.74-.28,2.1-.28c.53,0,.7.17.7,2.27,0,2.3,0,2.3-1,2.3h-.62c-.53,0-2.88.08-3.27.16s-.62.45-.67,1c-.4,3.67-1.49,5.72-5.55,5.72-.45,0-.78,0-1-.45a10.73,10.73,0,0,1-.53-3c0-.31.14-.59.51-.59l.84,0a1.32,1.32,0,0,0,1.48-.87,3.47,3.47,0,0,0,.2-.75.39.39,0,0,0-.42-.39c-.17,0-.7.08-2.24.33-1.94.31-2,.45-2,1.43v.34a25,25,0,0,0,.22,3.61c.42,1.57,1.82,1.62,3.58,1.62a33.27,33.27,0,0,0,5-.42c.19,0,.78-.11,1-.11.42,0,.53.36.53,1.4a6.28,6.28,0,0,1-.36,2.77c-.42.39-4.65.51-5.44.51a17.56,17.56,0,0,1-5-.59,5,5,0,0,1-3.08-3.08,19.38,19.38,0,0,1-.5-5.21c0-.42-.09-.9-.65-.9-.33,0-3.08.76-3.69.93a1.64,1.64,0,0,1-.37,0c-.39,0-.5-.16-.67-2.21-.06-.67-.11-1.4-.11-1.93,0-.7.31-.73.92-.73s2.77-.31,3.39-.39,1-.31,1-1.06a36.35,36.35,0,0,0-.23-3.92c0-.14,0-.34,0-.48,0-.36.23-.5.56-.5C145.54,42.54,148.82,42.9,149.35,43Z"/><path d="M182.22,40.13c.48.5,1,1,1.43,1.48l.31.31c.56.59,1.62,1.68,1.62,2s-.16.19-.5.19a1.07,1.07,0,0,0-.7.28c-1.2.9-2.32,1.8-3.5,2.75s-2.55,2.15-3.78,3.27a1.41,1.41,0,0,0-.53.93c0,.47.67,1.2,1.15,1.71a2.26,2.26,0,0,0,.25.28c1.57,1.56,3.22,3,4.87,4.53.9.79,2.3,2.07,2.3,2.66,0,.87-2.52,3.22-3.31,3.22-.17,0-.5-.25-.87-.7a78,78,0,0,0-5.48-5.82,35.05,35.05,0,0,1-3.11-3.39,4.32,4.32,0,0,1-1-2.69A3.52,3.52,0,0,1,172,49a27.24,27.24,0,0,1,3.89-3.53,34.45,34.45,0,0,0,5.32-5.2c.14-.2.28-.42.51-.42A.73.73,0,0,1,182.22,40.13Z"/><path d="M208.8,40c.47.16.58.3.58.42s-.16.22-.28.28c-.39.19-.5.64-.75,1.56-.06.26-.14.56-.25.93a.76.76,0,0,0-.06.25.47.47,0,0,0,.53.5,12.42,12.42,0,0,0,2.27-.72,2.19,2.19,0,0,1,.7-.2c.76,0,.76,2.8.76,3.61,0,.48-.17.56-.56.7-1,.34-2.92.79-4,1s-1.29.31-1.62,1.29A80.09,80.09,0,0,1,200.73,62c-.22.37-.39.68-.87.68s-3.38-1.26-3.38-2.1a2.43,2.43,0,0,1,.56-1.1,46.3,46.3,0,0,0,4.59-9.21,2,2,0,0,0,.19-.64c0-.39-.3-.48-.61-.48-.56,0-1.23.09-1.85.09s-1-.09-1.12-.7a21.06,21.06,0,0,1-.31-3c0-.37.06-.65.51-.65.28,0,1.54.14,3,.14s1.85,0,2.07-.7a31.42,31.42,0,0,0,.82-5.15c0-.19.05-.31.22-.31A39.2,39.2,0,0,1,208.8,40Zm-1.49,17.22c1.15,1.37,3.28,1.68,5,1.68a13.52,13.52,0,0,0,4.23-.59.89.89,0,0,1,.3-.06c.45,0,.51.62.51,1.51v.84c0,1.54,0,1.88-.51,2a31,31,0,0,1-4.73.36c-2,0-4.7-.25-6.35-1.45-.45-.34-1.35-1.12-1.35-1.77,0-.47,1-1.73,1.37-2.12s.73-.82,1.07-.82C207,56.84,207.2,57.1,207.31,57.24Zm2.75-8.52a24,24,0,0,1,6.35.84c.39.12.7.23.7.68a9.8,9.8,0,0,1-.84,3.08.6.6,0,0,1-.53.33,2.45,2.45,0,0,1-.7-.19,12.22,12.22,0,0,0-4.82-.76h-1c-.65,0-.84-.08-.84-.59C208.38,48.72,209.08,48.72,210.06,48.72Zm4.64-7.25c.4.39,2.19,2.16,2.19,2.61s-1.4,1.54-1.71,1.54c-.11,0-.22-.12-.42-.37-.53-.67-1.26-1.51-2-2.24a.88.88,0,0,1-.28-.45c0-.42,1.51-1.37,1.76-1.37S214.62,41.39,214.7,41.47Zm3.08-2c.4.36,2.19,2.12,2.19,2.57s-1.37,1.54-1.68,1.54-.34-.22-.42-.33c-.73-.93-1.35-1.57-2.13-2.41a.37.37,0,0,1-.14-.28c0-.39,1.43-1.4,1.76-1.4C217.48,39.15,217.64,39.32,217.78,39.46Z"/><path d="M236.91,42.82c.31.56.47.86.92.86a5.51,5.51,0,0,0,1.79-.86,3.87,3.87,0,0,1,1.49-.76c.59,0,1.15.73,1.65,1.37a3.63,3.63,0,0,1,1,1.74c0,.36-.62.64-1.29.95s-1.29.59-1.93.87c-.42.17-.84.31-.84.84a2.92,2.92,0,0,0,.45,1,35.57,35.57,0,0,0,2.69,4.39c.7.9,1.51,1.63,1.51,2.07,0,.79-2.13,2.44-2.75,2.44a1.63,1.63,0,0,1-.78-.34,13.85,13.85,0,0,0-6.66-2.57c-1,0-2.27.61-2.27,1.76,0,2.44,4,2.86,5.77,2.86.56,0,1.12-.06,1.62-.06.84,0,.9.7.9,1.37a9.37,9.37,0,0,1-.31,2.3c-.14.5-.39.64-1.09.64a25.92,25.92,0,0,1-5.24-.72c-3.11-.79-5.85-2.64-5.85-6.19s3-5.8,6.38-5.8a12.54,12.54,0,0,1,2,.23.4.4,0,0,0,.45-.37,4.07,4.07,0,0,0-.59-1.23c-.28-.48-.45-.73-1-.73a2.06,2.06,0,0,0-.39.06,38.93,38.93,0,0,1-6.3,1c-.76,0-.87-.26-1.1-.93a11.26,11.26,0,0,1-.58-2.52c0-.36,0-.73.86-.75a43.4,43.4,0,0,0,4.71-.42c.42-.09.73-.23.73-.65a5.81,5.81,0,0,0-1-1.73c-.31-.42-1-1.15-1-1.54s.31-.54.62-.68a10.92,10.92,0,0,1,3.22-1.06c.59,0,.81.45,1.65,2C236.49,42,236.68,42.4,236.91,42.82Z"/><path d="M258.24,44.61c.28,0,.59.14.59.39s-.08.2-.28.34a2,2,0,0,0-.53,1.23,20.79,20.79,0,0,0-.36,3.92,13.09,13.09,0,0,0,1,5.37c.23.48.73,1.38,1.35,1.38s1.29-1.15,1.54-1.6.45-.7.87-.7c.84,0,2.91,1.6,2.91,2.27s-1.29,2.15-1.77,2.69c-1,1.09-2,2-3.5,2-1.87,0-3.47-1.37-4.5-2.83-2.08-2.91-2.27-7-2.27-10.44,0-.53.11-3.92.14-4.31s.17-.45.47-.45S257.54,44.47,258.24,44.61Zm10.25-.9c.76,0,3,1.74,4.2,3.73a15.08,15.08,0,0,1,2.07,5.74,14.35,14.35,0,0,1,.14,1.45c0,.59-.14.84-.7,1a9.74,9.74,0,0,1-2.66.48c-1,0-1.06-.37-1.14-1.43-.26-3.36-1.43-6-4.09-7.93a.57.57,0,0,1-.28-.47C266,45.64,267.65,43.71,268.49,43.71Z"/><path d="M287.42,59.45a4,4,0,1,1-4-4A4,4,0,0,1,287.42,59.45Zm-6.36,0a2.37,2.37,0,1,0,2.36-2.35A2.37,2.37,0,0,0,281.06,59.45Z"/></svg>