<svg xmlns="http://www.w3.org/2000/svg" viewBox="0 0 650 226.43"><defs><style>.a{fill:#fff;}</style></defs><title>employee-h</title><path class="a" d="M3724.61,41.27c0-.58-.17-.81-.8-.81h-.58c-1.55,0-3.1.06-4.65.06-1,0-1.09-.69-1.09-2V37.42c0-1.84.06-2.18,1.49-2.18.86,0,2.19.11,4.25.11h.63c.52,0,.75-.29.75-.8v-.17c0-.29,0-.81-.63-.81-1.09,0-2.18.17-3.27.17-1.61,0-2.42-.51-2.42-2.52,0-1.32.06-2.65.06-4V22.08c0-1.32-.06-2.64-.06-4,0-1.72.58-2.47,2.36-2.47,1.09,0,2.24.12,3.33.12.46,0,.63-.29.63-.75v-.11c0-.52-.17-.81-.69-.81-1.55,0-3.1.12-4.65.12-1,0-1.26-.46-1.26-1.38,0-.23-.06-.63-.35-.63s-.63,1.2-1.15,2.52l-.51,1.38a1.31,1.31,0,0,0-.12.46c0,.46.46.57.75.69a.6.6,0,0,1,.28.52c0,.34-.28.51-.51.74-.52.46-.58,1.73-.58,3.1V44.25c0,2.24.12,4.48.12,6.78,0,1.15-.52,1.26-2.13,1.26h-2.7c-1.6,0-2.18-.11-2.18-1.26,0-2.24.12-4.54.12-6.78V30.7c0-.86,0-1.15-.75-1.61a7.8,7.8,0,0,1-2.3-2.64,9,9,0,0,0-.63-1,4.45,4.45,0,0,1-1-2.47,3,3,0,0,1,.63-1.72,52.31,52.31,0,0,0,6.89-19.07c.12-.69.23-1.72,1.15-1.72a23.62,23.62,0,0,1,3.16.8c.4.12,2.35.69,2.64.69a1.68,1.68,0,0,0,1.15-.51,1.06,1.06,0,0,1,.57-.18h.58c4.08,0,9.7-.23,13.61-1.32a1.47,1.47,0,0,1,.46-.11c.63,0,1.09.86,1.61,2,.17.29.34.63.51,1,.06.11.12.23.23.4a10.51,10.51,0,0,1,1,2.53.7.7,0,0,1-.69.63,2.37,2.37,0,0,1-.92-.29,1.45,1.45,0,0,0-.69-.23l-3.73.58c-.75.11-.87.28-.87.86V8c0,.52.23.75.75.75h.4c1.73,0,3.39-.11,5.11-.11,1.15,0,1.27.57,1.27,1.66,0,.58.06.81.46.81h.17c.69,0,1.61.11,1.61-1.38V7.27c0-2.19-.12-5.46-.12-6,0-.92.58-1,1.15-1,.75,0,5.8.29,6.44.4.45.06.86.23.86.75s-.23.57-.58.75a1.52,1.52,0,0,0-.74,1.6v5.4c0,1.44.57,2,2,2,.86,0,1.66-.05,2.52-.05,3.05,0,3.74,1.49,3.74,4.24V19.5c0,5.8-.23,23.37-2,28.14-1.38,3.56-3.85,4.42-7.47,4.42-2.41,0-3,0-3.39-2.52-.06-.35-.17-1-.63-1s-.86,1-1,1.38c-1.21,2.3-1.44,2.36-2,2.36-1.2,0-5.4-1.44-5.4-2.88,0-.11.06-.28.06-.4a.68.68,0,0,0-.75-.63c-.17,0-.46.06-.68.06-4.14.57-8.39.86-12.52,1.26-.75.06-1,.12-1.33.81-.17.46-.28.63-.8.63s-.8-.46-1.09-1.67c-.23-1-.58-2.41-1-3.85a8,8,0,0,1-.17-1.09c0-.8.57-.86,3.45-.92.86,0,1.55-.05,2.64-.11,1.32-.06,2-.17,2-1.21Zm0-33.49c0-.51-.11-.8-.63-.8s-1,.06-1.55.06c-1.26,0-1.49-.46-2.07-2-.06-.28-.23-.63-.63-.63s-.52.63-.69,1.67c-.11.4-.17.86-.29,1.32a4.05,4.05,0,0,0-.17.75c0,.46.17.57,5.23.57.63,0,.8-.17.8-.8Zm.4,14.71a.68.68,0,0,0,.69-.75v-.8a.71.71,0,0,0-.69-.75h-.51a.76.76,0,0,0-.75.75v.8a.72.72,0,0,0,.75.75Zm-.51,4.19a.76.76,0,0,0-.75.75v1a.71.71,0,0,0,.75.69h.51a.66.66,0,0,0,.69-.69v-1a.71.71,0,0,0-.69-.75Zm7.35-4.19a.68.68,0,0,0,.69-.75v-.8a.71.71,0,0,0-.69-.75h-.58a.75.75,0,0,0-.74.75v.8a.72.72,0,0,0,.74.75Zm-.58,4.19a.76.76,0,0,0-.74.75v1a.71.71,0,0,0,.74.69h.58a.67.67,0,0,0,.69-.69v-1a.71.71,0,0,0-.69-.75Zm1.15-12.58c-.46,0-.75.17-.75.75V15c0,.46.18.81.69.81,1.1,0,2.13-.12,3.22-.12,1.61,0,2.47.52,2.47,2.47,0,1.32-.12,2.64-.12,4v5.17c0,1.32.12,2.65.12,4,0,1.72-.63,2.52-2.41,2.52-1.09,0-2.24-.17-3.28-.17a.66.66,0,0,0-.69.75v.23c0,.51.23.8.75.8h.58c1.55,0,3-.11,4.59-.11,1,0,1.09.46,1.15,1.32,0,.17.06.51.29.51.46,0,.86-2.64,1.09-3.84,0-.23.05-.41.05-.52.41-3.39,1.15-9.82,1.15-13.15,0-.35-.11-.75-.57-.75-.17,0-.35.06-.52.06-1,0-1.26-.4-1.26-2V15c0-.86,0-.92-6.15-.92Zm0,26.36c-.52,0-.75.23-.75.81V42c0,.46.23.81.92.81.18,0,2.19-.23,2.53-.23a4.24,4.24,0,0,1,.86-.12.74.74,0,0,1,.75.4.6.6,0,0,0,.46.12c.69,0,.92-1.26.92-1.61,0-.86-.58-.92-4.08-.92ZM3748.22,21a93.79,93.79,0,0,1-3.16,21.43,2.18,2.18,0,0,0-.18.86c0,.63.58.69,1.61.69,1.61,0,1.9-.18,2.36-3.74.63-4.59,1-14.53,1-19.29,0-1.1-.05-2.19-.91-2.19S3748.27,19.44,3748.22,21Z" transform="translate(-3535 0.14)"/><path class="a" d="M3794.68,2.33c1,1,2,2.07,2.93,3l.63.63c1.15,1.21,3.33,3.45,3.33,4.08,0,.35-.34.4-1,.4a2.14,2.14,0,0,0-1.44.58c-2.47,1.84-4.76,3.67-7.17,5.63q-4,3.27-7.76,6.72a2.81,2.81,0,0,0-1.09,1.89c0,1,1.38,2.47,2.36,3.5a5,5,0,0,0,.51.58c3.22,3.21,6.61,6.26,10,9.3,1.83,1.61,4.7,4.25,4.7,5.46,0,1.78-5.16,6.6-6.77,6.6-.35,0-1-.51-1.78-1.43-3-3.79-7.3-8-11.26-12a71.09,71.09,0,0,1-6.37-6.95,8.87,8.87,0,0,1-2-5.51,7.2,7.2,0,0,1,1.32-4.31c1.55-2.24,5.68-5.28,8-7.24,3.73-3.15,8-6.77,10.91-10.68.29-.4.58-.86,1-.86A1.48,1.48,0,0,1,3794.68,2.33Z" transform="translate(-3535 0.14)"/><path class="a" d="M3829.49,18.35c-2.3,0-4.6.12-6.89.12-1.44,0-1.55-.64-1.55-2.42V12.9c0-1.67.11-2.3,1.49-2.3,2.35,0,4.65.17,6.95.17h10.62c1.61,0,1.84-.86,1.84-2.58,0-.69-.06-1.55-.06-2.53a27.84,27.84,0,0,0-.17-3.79,2.08,2.08,0,0,1-.06-.58c0-.74.58-.86,1.21-.86,1,0,6.61.35,7.87.46.52.06,1.15.12,1.15.75,0,.4-.29.57-.69,1s-.58,1.84-.58,3.45v3c0,1.26,1.1,1.72,2.19,1.72h10.34c2.29,0,4.59-.17,6.94-.17,1.38,0,1.5.63,1.5,2.3v3.15c0,1.78-.12,2.42-1.55,2.42-2.3,0-4.6-.12-6.89-.12h-6c-.86,0-1.55,0-1.55.92,0,1.09,2.65,4.71,3.39,5.74a56.13,56.13,0,0,0,12.29,12.7c.58.4,1,.69,1,1.32,0,2.06-3.39,6.2-5.29,6.2-.8,0-1.66-.92-2.24-1.44-1.55-1.49-3.16-3.1-4.48-4.59-.23-.29-.4-.4-.57-.4-.46,0-.52.46-.52,1,0,3,0,3.73-1.78,3.73s-3.33-.17-5-.17a1.66,1.66,0,0,0-1.72,1.72c0,1.78.12,3.57.12,5.35,0,1.43-.64,1.6-2.59,1.6h-3.33c-2.7,0-3.16-.05-3.16-1.66a7.12,7.12,0,0,1,.06-1c.06-.57.06-1.26.06-2.12s0-1.84,0-2.18a1.79,1.79,0,0,0-1.89-1.67c-1.55,0-3.16.17-4.77.17-1.84,0-1.84-.63-1.84-3.67,0-.29,0-.75-.45-.75s-.75.4-.92.63a53,53,0,0,1-4.37,4.37,3.21,3.21,0,0,1-1.78,1c-1.66,0-5.74-4.25-5.74-5.68,0-.69.63-1.15,1.15-1.55a53.42,53.42,0,0,0,13.26-14.36,3.11,3.11,0,0,0,.29-.52c.63-1.15,1.84-3,1.84-3.73,0-.86-.81-.92-1.5-.92Zm12.4,9c0-.52,0-1-.4-1-.17,0-.28.29-.92,1.44a70.66,70.66,0,0,1-3.9,6.2,1.53,1.53,0,0,0-.4.86c0,.69.68.75,4.07.75,1.15,0,1.55-1,1.55-2Zm8.73,6.49a1.6,1.6,0,0,0,1.56,1.78c3.73,0,4.3-.06,4.3-.81,0-.28-.23-.51-.4-.74-1.26-1.67-3.73-5.52-4.71-7.24-.17-.29-.23-.29-.4-.29-.35,0-.35.35-.35.75Z" transform="translate(-3535 0.14)"/><path class="a" d="M3908.46,3.76v5.8c0,15.45,7.76,27.23,20.45,34.64.51.28,1,.63,1,1.2,0,2.24-3.67,6.55-5.68,6.55s-8.79-6.49-10.28-8A43.38,43.38,0,0,1,3905.3,31c-.17-.4-.46-.92-1-.92s-.69.52-.81.92c-2.35,5.8-7,11.38-11.71,15.45-1.38,1.21-6.49,5.4-8,5.4-2,0-5.63-4.48-5.63-6.37,0-.64.57-1,1.2-1.32a42.89,42.89,0,0,0,13.79-12.29c4.88-6.67,6.49-14.77,6.49-22.92,0-2.3-.23-4.88-.23-6.83,0-1.27.46-1.79,1.78-1.79,1,0,4.82.29,6,.41,1.78.17,2.93.11,2.93,1,0,.52-.57.75-1,.92A1.48,1.48,0,0,0,3908.46,3.76Z" transform="translate(-3535 0.14)"/><path class="a" d="M3965.21,3.07c.52.23.92.52.92.92s-.23.46-.52.58c-.92.4-1.38.63-2.07,2.75l-1,3.16a2.36,2.36,0,0,0-.23.92c0,1.15.8,1.38,2.64,1.5,1.38.11,2.76.17,4.14.17,1.09,0,1.78,0,1.78,1.26a26.76,26.76,0,0,1-.86,5.11c-.41,1.5-.69,2-1.55,2a63,63,0,0,1-7.13-.74,1,1,0,0,0-.46-.06c-1.32,0-1.55,1.09-1.78,2.18l-.11.46a4.83,4.83,0,0,0-.12.92c0,1.49,1.55,1.55,5.69,1.55,1.55,0,2.47.06,2.47,1a20.61,20.61,0,0,1-1,5.52c-.41,1.2-.81,1.84-2.19,1.84a47.06,47.06,0,0,1-4.76-.52,1,1,0,0,0-.41-.06c-1.2,0-1.32,1.15-1.32,1.84v.34a7.88,7.88,0,0,0,.81,3.74c.92,1.83,3.5,2.58,5.45,2.58a13.59,13.59,0,0,0,6.21-1.38,4.14,4.14,0,0,0,1.83-3.73,28.19,28.19,0,0,0-1.72-8.1,4,4,0,0,1-.29-1.32c0-.75.41-1,2.07-1.72a20.25,20.25,0,0,1,4.83-1.21c1,0,1.32,1,1.89,2.87a34.7,34.7,0,0,1,1.84,10.23,11,11,0,0,1-5.11,9.82,22.11,22.11,0,0,1-11.72,3c-9.88,0-15-5.74-15-15.45,0-.69.17-2.41.17-2.53,0-1.26-.92-1.55-1.72-1.83-3.79-1.32-4.54-1.78-4.54-2.82a18.68,18.68,0,0,1,.81-3.9c.4-1.5.8-3.16,2.06-3.16a3.2,3.2,0,0,1,1.67.69,5.82,5.82,0,0,0,2.47,1c.46,0,1-.23,1.32-1.43a14.52,14.52,0,0,0,.4-1.84c0-1-.69-1.5-1.55-1.84-4.71-1.72-4.94-2.36-4.94-3.22,0-1.2,1.38-7,3-7a4.6,4.6,0,0,1,2.06,1,11,11,0,0,0,3.05,1.49c.92,0,1.2-.69,1.43-1.55.46-1.6,1.33-4.48,1.9-6.72.23-.92.29-1.26.8-1.26A79.45,79.45,0,0,1,3965.21,3.07Z" transform="translate(-3535 0.14)"/><path class="a" d="M4005,10.43c1.14,0,2.24-.06,3.38-.06,1.84,0,2.7.75,2.7,2.58,0,6.09-.57,14.65-2.06,20.51a3.36,3.36,0,0,0-.18,1,2.17,2.17,0,0,0,.86,1.55c.52.46,2.07,2,2.07,2.65,0,1-2.93,5.85-4,5.85-.29,0-.63-.34-.92-.69s-.52-.57-.92-.57-.69.34-.86.69a45,45,0,0,1-4.25,6.83c-.52.69-1.32,1.5-2,1.5-1.15,0-5.4-2.93-5.4-4.25a2.23,2.23,0,0,1,.92-1.44c2.13-2,5.69-8,5.69-9.13a.67.67,0,0,0-.64-.75c-.4,0-.51.17-.74.46a1.18,1.18,0,0,1-.86.35c-1,0-5.29-1.21-5.29-2.82a4.48,4.48,0,0,1,.18-1.2c.45-1.78,2.29-12.93,2.29-14.25a1.17,1.17,0,0,0-1.15-1.15c-.57-.17-.63-1.09-.63-2.12V12.61c0-1.72.17-2.36,1.15-2.36.63,0,1.32-.05,1.55-.92.35-1.37.4-7.06.46-7.92s.23-1.09.52-1.09,5.74.57,7,.86c.75.17,1.15.46,1.15.92,0,.29-.28.63-.8.86s-.63.52-.75,1.61c-.05.57-.4,4.36-.4,4.65,0,1,.75,1.21,1.61,1.21Zm-2,16.94a71.75,71.75,0,0,0,.81-8.56c0-.52-.17-.75-.75-.75s-.92.41-1,1.27c-.23,1.72-.81,5.86-1.15,7.75a6.32,6.32,0,0,0-.17,1.15,1.34,1.34,0,0,0,1.14,1.21C4002.66,29.44,4002.77,28.8,4003,27.37Zm34.4,2.93c0,.8.87,1,1.5,1,1.38,0,2.7-.11,4.08-.11,1.09,0,1.2.52,1.2,1.66v1.73c0,1.26-.11,1.72-1.26,1.72-1.9,0-3.79-.06-5.69-.06h-19.29c-1.9,0-3.8.06-5.69.06-1,0-1.26-.46-1.26-1.49V32.65c0-1,.17-1.49,1.26-1.49,1.61,0,3.22.11,4.82.11.46,0,1-.17,1-.69a4.55,4.55,0,0,0-.52-1.32,1.68,1.68,0,0,0-1.26-.63,1.89,1.89,0,0,1-1.44-1.95c0-.86.17-1.9.17-3.33V22.08c0-1.43-.17-2.47-.17-3.33,0-1.95,1.84-2.06,3.33-2.06,2,0,3.91.11,5.86.11h7.12c2,0,3.91-.11,5.8-.11,1.5,0,3.33.11,3.33,2.06,0,.86-.11,1.9-.11,3.33v1.27c0,1.43.11,2.52.11,3.33,0,1.32-.8,1.78-1.95,2.07a.78.78,0,0,0-.63.51A3,3,0,0,0,4037.4,30.3Zm-1.32-26.94c2.19,0,4.37-.06,6.61-.06,1.38,0,1.61.29,1.61,1.38V6.86c0,1.21-.23,1.44-1.67,1.44-2.18,0-4.36-.06-6.55-.06h-3.67a1,1,0,0,0-.92.92v.12a1,1,0,0,0,.92.92h4c1.67,0,3.33-.12,5-.12,1,0,1.15.35,1.15,1.44v2.12c0,1.15-.12,1.49-1.15,1.49-1.67,0-3.33-.05-5-.05h-17.23c-1.72,0-3.39.05-5,.05-1,0-1.15-.34-1.15-1.49V11.52c0-1.09.11-1.44,1.15-1.44,1.66,0,3.33.12,5,.12h3.62a.91.91,0,0,0,.92-.92V9.16a.91.91,0,0,0-.92-.92h-3.39c-2.24,0-4.42.06-6.6.06-1.5,0-1.67-.29-1.67-1.49v-2c0-1.26.12-1.55,1.61-1.55,2.24,0,4.42.06,6.66.06h3.22a.94.94,0,0,0,1-.92c0-.51-.17-1.38-.17-1.66,0-.63.69-.63,1.26-.63,1.09,0,5,.22,6.26.34.58.06,1.72.11,1.72.69,0,.29-.28.46-.51.63s-.52.4-.52.69a.93.93,0,0,0,1,.86Zm-12,46.81c-.75,0-1.26.23-1.38,1s-.74.92-2.3.92h-3c-1.72,0-2.53-.11-2.53-1,0-.22.17-2.18.17-3.15V42.53c0-1.21-.11-2.18-.11-2.93,0-1.89,2.53-1.89,3.9-1.89,1.67,0,3.39.11,5.11.11h7.18c1.73,0,3.45-.11,5.23-.11,1.26,0,3.79,0,3.79,1.83,0,.64-.11,1.55-.11,3V48.1c0,.81.17,2.53.17,3,0,.87-.63,1-2.82,1H4035c-2,0-2.58-.06-2.64-.92s-.63-1-1.38-1Zm-1.55-27.4a1.09,1.09,0,0,0,1.09,1.09h8a1.09,1.09,0,0,0,1.15-1.09v-.28a1.14,1.14,0,0,0-1.15-1.1h-8a1.09,1.09,0,0,0-1.09,1.1Zm0,21.43a1.19,1.19,0,0,0,1.15,1.14h7.69a1.1,1.1,0,0,0,1.1-1.14v-.35a1.06,1.06,0,0,0-1.1-1.09h-7.69a1.11,1.11,0,0,0-1.15,1.09Zm4.19-15.57c-.63,0-1.49.12-1.49,1,0,.57.8,1.66,2.53,1.66h.23a1.81,1.81,0,0,0,1.78-.8,1.71,1.71,0,0,0,.28-.86c0-.86-.8-1-1.43-1Z" transform="translate(-3535 0.14)"/><path class="a" d="M4073.07,5.66c.46.11,1.27.34,1.27.8a.56.56,0,0,1-.4.46c-.92.52-1,1.21-1.33,2.64A108.28,108.28,0,0,0,4070.78,31c0,4.54,0,9.19,4.59,9.19a12.3,12.3,0,0,0,9.25-4.88,18.73,18.73,0,0,0,3.67-8.33c.23-1.15.41-2.18,1.38-2.18,1.26,0,3,1.55,3.91,2.36s2.75,2.47,2.75,3.9c0,1.72-1.6,5.52-2.47,7.07-3.67,6.77-10.16,11.25-18,11.25-4.08,0-8.44-1.38-11.08-4.71-2.88-3.67-3.22-9.76-3.22-14.36,0-6.6.57-13.66,1-19.87.12-1.2.18-3.16.18-4.48s0-2,1-2C4065,4,4071.24,5.26,4073.07,5.66Z" transform="translate(-3535 0.14)"/><path class="a" d="M4122.93,11.52c.57.11,1.2.28,1.2.8,0,.23-.17.4-.57.69a4,4,0,0,0-1.09,2.53,42.08,42.08,0,0,0-.75,8,26.69,26.69,0,0,0,2.07,11c.46,1,1.49,2.82,2.76,2.82s2.64-2.36,3.15-3.27c.41-.69.92-1.44,1.79-1.44,1.72,0,6,3.27,6,4.65s-2.64,4.42-3.62,5.51c-2,2.24-4,4.14-7.18,4.14-3.85,0-7.12-2.81-9.25-5.8-4.25-6-4.65-14.36-4.65-21.42,0-1.09.23-8,.29-8.85.06-.63.34-.92,1-.92S4121.49,11.23,4122.93,11.52Zm21-1.84c1.55,0,6.09,3.56,8.61,7.64a31.25,31.25,0,0,1,4.25,11.77c.12.92.29,2.3.29,3,0,1.2-.29,1.72-1.43,2.07a20.16,20.16,0,0,1-5.46,1c-2.13,0-2.18-.74-2.36-2.93-.51-6.89-2.93-12.35-8.38-16.25a1.19,1.19,0,0,1-.58-1C4138.89,13.64,4142.23,9.68,4144,9.68Z" transform="translate(-3535 0.14)"/><path class="a" d="M4182.78,42a8.19,8.19,0,1,1-8.22-8.22A8.22,8.22,0,0,1,4182.78,42Zm-13,0a4.86,4.86,0,1,0,4.82-4.83A4.85,4.85,0,0,0,4169.74,42Z" transform="translate(-3535 0.14)"/><path class="a" d="M3544.94,104.13c-2.47,0-5,.12-7.47.12-1.44,0-1.55-.63-1.55-2.47V98.62c0-1.61.11-2.3,1.49-2.3,2.53,0,5.06.12,7.53.12h7.63c1.78,0,2.36-1.72,3.56-6.78.18-.63.23-1.26.87-1.26a41.28,41.28,0,0,1,4.48,1c2.18.52,4.07.81,4.07,1.78a1.17,1.17,0,0,1-.8,1c-.92.29-1,.4-1.49,1.66a7,7,0,0,0-.58,1.9c0,.52.58.69,1,.69h14.41c2.47,0,5-.12,7.53-.12,1.38,0,1.49.69,1.49,2.3v3.16c0,1.84-.11,2.47-1.55,2.47-2.47,0-5-.12-7.47-.12H3560c-1.26,0-1.72.75-2.24,1.73a77.65,77.65,0,0,1-5.17,8.15,4.62,4.62,0,0,0-1.09,3.39v15.28c0,2.18.18,4.42.18,6.6,0,1.32-.64,1.44-2.42,1.44h-3.33c-1.61,0-2.24-.12-2.24-1.44,0-2.18.17-4.42.17-6.6v-7.07c0-.17-.11-.4-.28-.4s-.75.46-.92.63c-.63.64-2.18,2.13-3,2.13-1.26,0-4.59-3.68-4.59-4.71,0-.69.69-1.15,1.55-1.84a53.18,53.18,0,0,0,6.72-6.6,2.13,2.13,0,0,0,.46-1.44c0-.4-.06-.8-.06-1.2,0-.75.52-.75,1.09-.75h.23c.81,0,1.09,0,2.13-1.49.46-.69,1-1.61,1.89-3a9.68,9.68,0,0,0,1.27-2.41c0-.35-.46-.41-.69-.41Zm31.7,9.88c2.18,0,4.31-.17,6.49-.17,1.49,0,1.61.69,1.61,2.41v3c0,1.72-.12,2.47-1.55,2.47-2.19,0-4.37-.18-6.55-.18h-1.21a1.68,1.68,0,0,0-1.61,1.56v7.12a1.64,1.64,0,0,0,1.61,1.6H3579c2.13,0,4.31-.11,6.49-.11,1.5,0,1.61.69,1.61,2.41v2.7c0,2-.11,2.64-1.72,2.64-2.13,0-4.25-.11-6.38-.11h-17.74c-2.13,0-4.25.11-6.44.11-1.55,0-1.66-.74-1.66-2.7v-2.47c0-2,.11-2.58,1.72-2.58,2.13,0,4.25.11,6.38.11h2.93a1.63,1.63,0,0,0,1.6-1.6v-7.12a1.59,1.59,0,0,0-1.6-1.56h-1c-2.12,0-4.25.18-6.43.18-1.55,0-1.67-.75-1.67-2.76V116.6c0-1.9.12-2.76,1.61-2.76,2.18,0,4.37.17,6.49.17h1c1.6,0,1.6-1.55,1.6-2.29,0-3-.23-4.77-.23-5.17,0-.69.46-.81,1.1-.81,1.26,0,4.82.29,7.12.58.51.05,1.26.17,1.26.8a1.11,1.11,0,0,1-.57.92c-.64.52-.64,1.84-.64,4,0,1.21.52,2,1.67,2Z" transform="translate(-3535 0.14)"/><path class="a" d="M3597.6,114.47a1,1,0,0,1-.86.63c-.74,0-1-.91-1.43-2.18a49.77,49.77,0,0,1-1.9-5.68c0-.58.52-.75,1.38-.87,1.44-.23,1.95-1,1.95-2.41V98.33c0-1.26,0-2.58,0-3.9,0-2.93,2-3,4.3-3.28A46.33,46.33,0,0,0,3611.16,89a2.83,2.83,0,0,1,.92-.23c.57,0,.8.4,1.38,1.27.91,1.43,1.78,3,2.7,4.48a3.64,3.64,0,0,1,.51,1.37c0,.35-.28.52-.63.52a1.81,1.81,0,0,1-.75-.23,1.81,1.81,0,0,0-.74-.17,11,11,0,0,0-1.38.23c-2.7.46-4.65,1-7.35,1.26-1.27.12-1.67.23-1.67,1.15v4c0,.81.12,1.61,1.09,1.61.75,0,2-.17,2-1.09a2,2,0,0,0-.41-1,3.69,3.69,0,0,1-.51-1.21c0-1.26,4.76-2.93,5.8-2.93.86,0,1.38.92,2.24,2.47s1.66,3.33,2.47,5c.11.28.34.74.74.74,1.38,0,4-5.85,4-8,0-.86-.74-1.15-1.49-1.15-.52,0-1,.06-1.49.06-1.21,0-1.32-.63-1.32-2.12V92.53c0-1.66.11-2.12,1.43-2.12,1.5,0,3.1.11,4.88.11h10.17c1.61,0,3.22,0,4.77,0,2.93,0,3.33,1.09,3.33,3.79,0,4.07-.69,12-2.13,15.73-1.32,3.39-5.28,4.08-8.5,4.08-1.78,0-2.58-.23-3.21-1.89a11,11,0,0,1-.81-3.85c0-.81.18-2.07,1.27-2.07a7.39,7.39,0,0,1,1,.11,10.62,10.62,0,0,0,1.38.06c1.49,0,2.36-.23,2.81-1.84a41,41,0,0,0,.87-6.54c0-1.15-.41-1.15-2.13-1.15h-1c-1.61,0-2.24.86-2.47,2.41a19.41,19.41,0,0,1-3.11,8.84c-.91,1.38-4.59,5.92-6.2,5.92-1,0-2.64-1.67-3.33-2.35a1.81,1.81,0,0,0-1.26-.58,3.91,3.91,0,0,0-1.44.35,4.73,4.73,0,0,1-1.49.34,1,1,0,0,1-1-.57,1.61,1.61,0,0,0-1.26-.92c-.52,0-4.54,1.32-5.34,1.55-2.07.63-4.2,1.2-6.26,1.84C3597.83,113.9,3597.78,114.07,3597.6,114.47Zm1.55,7.7c0-1.67-.11-3.16-.11-4.37,0-2.12,1.44-2.47,3.22-2.47s3.67.06,5.51.06h22.4c1.84,0,3.62-.06,5.45-.06s3.28.35,3.28,2.53c0,1.21-.12,2.64-.12,4.31V134.4c0,1.84.18,4.19.18,5.11,0,1.21-.64,1.44-1.73,1.44h-3.85c-2.23,0-2.69-.06-2.75-1.55a1.09,1.09,0,0,0-1-1.15H3608.4c-1.15,0-1.15,1.55-1.15,1.61,0,1-.86,1.09-1.83,1.09h-4.71c-1.15,0-1.73-.23-1.73-1.44s.17-3.1.17-5.11Zm15.86.92a.94.94,0,0,0-.92-.92h-6a.91.91,0,0,0-.92.92v.17a.94.94,0,0,0,.92.92h6a1,1,0,0,0,.92-.92Zm-.92,8.73a1,1,0,0,0,.92-.92v-.29a1,1,0,0,0-.92-.92h-6a.94.94,0,0,0-.92.92v.29a.91.91,0,0,0,.92.92Zm8.67-8.56a1,1,0,0,0,.92.92h6.2a1,1,0,0,0,.92-.92v-.17a.94.94,0,0,0-.92-.92h-6.2a.94.94,0,0,0-.92.92Zm.92,6.43a1,1,0,0,0-.92.92v.29a1,1,0,0,0,.92.92h6.2a1,1,0,0,0,.92-.92v-.29a1,1,0,0,0-.92-.92Z" transform="translate(-3535 0.14)"/><path class="a" d="M3658.66,116.83c0-1.67-.12-3.28-.12-4.94,0-2.13,1-2.64,2.93-2.64,1,0,2,0,3,0,.63,0,1.78,0,1.78-.92a4.1,4.1,0,0,0-.57-1.66c-.52-1.09-.58-1.38-1.15-1.38a1.74,1.74,0,0,0-1.21.69,76.54,76.54,0,0,1-6.37,4.94c-.58.4-.69.4-.69.92s-.18,1.09-.81,1.09a1.12,1.12,0,0,1-.69-.35c-.86-.91-1.72-1.89-2.52-2.87-.52-.57-1.67-1.84-1.67-2.58,0-.35.35-.58.63-.75a55,55,0,0,0,10.23-7.92c.11-.12.28-.29.45-.29.75,0,2.88,2.12,4.14,4.77a1.08,1.08,0,0,0,.86.63,14.93,14.93,0,0,0,2.07-.52c5-1.38,8.33-4,8.33-4.77,0-.51-.58-.51-1-.51h-.57c-1.44,0-1.9.57-2.7,1.61-.58.68-1.61,2.18-2.53,2.18s-5.63-2.24-5.63-3.22a.77.77,0,0,1,.29-.52c2-1.83,4.71-6.49,5.86-9,.11-.23.23-.46.57-.46.58,0,5.05,1,6.15,1.2.4.12,1.43.35,1.43.92a.66.66,0,0,1-.63.58c-.29.05-.52.05-.52.4,0,.52.63.52,1,.52h15.62c2.47,0,5.11,3,5.11,4s-1.55,3.67-2,4.48c-1.15,2-1.32,2.06-1.9,2.06-1,0-6-1.6-6-2.69,0-.23.18-.41.29-.58a4.92,4.92,0,0,0,.75-1.26c0-.23-.17-.23-.63-.23h-3.51c-.28,0-.92,0-.92.46s2.13,2.18,2.65,2.58c3.33,2.59,8.27,3.91,12.34,4.88.87.17,1.61.23,1.61,1,0,1.2-1.89,5.74-3.33,5.74a12,12,0,0,1-2.35-.63,4.45,4.45,0,0,0-1.5-.35c-1.32,0-1.38.92-1.38,5.29v8c0,1.66.18,3.33.18,5,0,1.9-1,2.65-2.76,2.65-.8,0-2.7-.12-3-.12s-.75.12-.75.4,1,.52,2.18.81a5.42,5.42,0,0,0,1,.23c2.3.46,6.09.86,8.44,1.09,1.67.11,2.07.17,2.07.8s-.86,5.29-2.87,5.29a78.52,78.52,0,0,1-10.05-1.5c-2.47-.46-4.94-1.09-7.36-1.78-.4-.11-1.32-.34-1.32-.92s.64-1.09,1-1.6c.05-.06.17-.23.28-.35a6.31,6.31,0,0,0,1.1-1.78c0-.63-.69-.75-1.15-.75h-8.9c-.52,0-1.27,0-1.27.75,0,.52,2.07,3.22,2.53,3.79a1.07,1.07,0,0,1,.23.58c0,.28-.4.63-.81.63a.76.76,0,0,1-.51-.18,2.11,2.11,0,0,0-.52-.17c-.23,0-1.78.58-2.12.63a73.68,73.68,0,0,1-7.87,1.73,60.42,60.42,0,0,1-7,.8c-1.26,0-1.78-1.15-2.18-2.18a10.94,10.94,0,0,1-.87-3.27c0-.69.41-.69,1.5-.75a76.63,76.63,0,0,0,10.91-1.55c.34-.06.63-.12.63-.4s-.4-.29-.57-.29c-.81,0-1.67.06-2.47.06-1.84,0-3.05-.41-3.05-2.65,0-1.66.12-3.33.12-5Zm-4.25-27.91c.86,0,3.44,1.43,4.31,1.89.69.4,3.67,2.07,3.67,2.81s-2.3,4.89-3.62,4.89a7.75,7.75,0,0,1-2.47-1.27,33.24,33.24,0,0,0-4.71-2.41c-.34-.17-.74-.29-.74-.75C3650.85,93.22,3653.38,88.92,3654.41,88.92Zm30.44,27.22a.66.66,0,0,0,.69-.63v-.35a.66.66,0,0,0-.69-.63h-17.23a.63.63,0,0,0-.63.63v.35a.68.68,0,0,0,.63.63Zm-17.12,3.9a.76.76,0,0,0-.74.75V121a.76.76,0,0,0,.74.75h17.06a.77.77,0,0,0,.75-.75v-.17a.77.77,0,0,0-.75-.75Zm0,5.69a.75.75,0,0,0-.74.75v.17a.76.76,0,0,0,.74.75h17.06a.77.77,0,0,0,.75-.75v-.17a.73.73,0,0,0-.75-.75Zm18-16.37c1,0,2.06,0,3.16-.06.23,0,.63,0,.63-.34,0-.17-.18-.29-.35-.4a34.78,34.78,0,0,1-5.74-4,2.91,2.91,0,0,0-1.61-.69,2.87,2.87,0,0,0-1.89,1,27.34,27.34,0,0,1-6.32,3.73c-.35.18-.46.23-.46.41,0,.34.34.34.86.34Z" transform="translate(-3535 0.14)"/><path class="a" d="M3729.25,124.41c0-.4-.29-.52-.75-.52-1.32,0-2.53-1.89-3-2.81-.11-.23-.28-.4-.4-.4-.29,0-.52.63-1.09.63-.34,0-.8-.58-1.26-1.21-.29-.4-.52-.69-.64-.69-.34,0-.4.35-.4.75V131.3c0,2.64.18,5.28.18,7.93,0,1.32-.52,1.49-2.07,1.49h-3.51c-1.6,0-2.24-.12-2.24-1.38,0-2.64.12-5.34.12-8v-2.24c0-1-.06-1.21-.35-1.21s-.46.52-.68,1.1c-.46,1.14-.92,2.29-1.73,2.29-1.49,0-4.94-3.67-4.94-5.28a4.38,4.38,0,0,1,.75-2c3-5,5.69-16.31,5.69-17.52,0-.63-.41-.86-1-.86s-1.55.11-2.3.11c-1.14,0-1.26-.63-1.26-2v-3.67c0-1.61.12-2.19,1.26-2.19s2.07.18,3.05.18a1.66,1.66,0,0,0,1.55-1.73V91.67a18.38,18.38,0,0,0-.17-1.84v-.51c0-.69.46-.81,1-.81.75,0,5.17.46,6.21.58s1.72.17,1.72.86c0,.34-.23.52-.63.86s-.58,1.49-.58,2.81v2.76a1.61,1.61,0,0,0,1.61,1.61c.35,0,1.21-.12,1.78-.12,1.21,0,1.32.64,1.32,2.42v1.49c0,.34,0,1,.46,1s1.32-1.15,2.3-2.42a36.7,36.7,0,0,0,5.74-11c.12-.4.23-.91.69-.91.81,0,5.8,1.43,7,1.72s1.72.46,1.72,1a1,1,0,0,1-.86.92c-.8.12-1.32.52-1.32,1.32,0,.64.52.81,1,.81h5.69c1.61,0,3.16-.06,4.77-.06,2.52,0,4.42,3.51,4.42,4.25,0,2.47-5.63,9.31-7.58,11.2a2,2,0,0,0-.69,1.26c0,.58.57,1,1.43,1.55a56.1,56.1,0,0,0,7.87,4.31c.69.29,1.15.46,1.15,1.15,0,1.55-2.3,6.2-3.68,6.2a1.42,1.42,0,0,1-.63-.17,1.62,1.62,0,0,0-.57-.17c-.29,0-.58.17-.58.92v9.65c0,1.83.18,4.48.18,5.28,0,1.15-.64,1.26-2.36,1.26H3749c-1.55,0-2.24-.11-2.24-1.2v-.35c0-.4-.23-.92-1.21-.92h-7.06a1,1,0,0,0-1.1.92v.29c0,1.15-.63,1.26-2.18,1.26h-3.73c-1.72,0-2.36-.11-2.36-1.26s.18-2.58.18-4.42Zm-4.37-18c-.46-.8-.46-.8-2.24-.8-.69,0-.92.29-.92.92v.34c0,1.32,3.56,5.12,4.6,6.21.51.57.92,1,.92,1.43,0,.17-.06.46-.06.58a.7.7,0,0,0,.69.63,34.93,34.93,0,0,0,5.57-2.7c2.18-1.21,3.9-2.36,3.9-2.93s-1-1.67-1.72-2.47c-.34-.4-.74-.92-1.26-.92s-1.32,1-2,1.84-1.5,1.72-2.24,1.72C3728.56,110.22,3725.63,107.75,3724.88,106.37Zm20.39,24.87a1.64,1.64,0,0,0,1.61-1.61v-2.18a1.61,1.61,0,0,0-1.61-1.61h-6.43a1.57,1.57,0,0,0-1.61,1.61v2.18a1.57,1.57,0,0,0,1.61,1.61Zm.8-12.46c.35,0,.64-.06.64-.34,0-.12-.12-.23-.75-.75-.46-.35-1.15-.86-1.72-1.32a1.55,1.55,0,0,0-.81-.4,4.81,4.81,0,0,0-1.26.68c-.63.46-1.44,1-1.78,1.27s-.58.4-.58.57.23.29.52.29Zm-4.65-17.69c-.46,0-1.15.06-1.15.69s2.13,3.39,2.93,3.39,2.87-3.28,2.87-3.62-.8-.46-1.72-.46Z" transform="translate(-3535 0.14)"/><path class="a" d="M3773.24,97.7c.29-1.09.58-2.18.75-3.1.17-1.09.23-1.61,1-1.61a74.88,74.88,0,0,1,8.5,3.1c1.14.52,1.49.87,1.49,1.15s-.17.35-.4.46a3.49,3.49,0,0,0-2.13,2.36,46.33,46.33,0,0,0-3.5,16.31c0,3.16,0,4.71.75,4.71.4,0,.68-.46,1-.92s.69-1.21,1.32-1.21,3,2,3,2.82-2.53,5.22-2.53,8.32c0,.41.12,1.84.23,2.7a15.75,15.75,0,0,1,.17,1.67c0,2.12-4.25,3.79-6,3.79-1.09,0-1.6-.75-2.64-2.81-2.81-5.69-3.67-12.12-3.67-18.44A70.65,70.65,0,0,1,3773.24,97.7Zm16.43,24.64c2.41,2.87,4.31,3.85,8,3.85a46.57,46.57,0,0,0,12.58-1.84,5.94,5.94,0,0,1,1.38-.23c.74,0,1.09.75,1.14,1.27a56.51,56.51,0,0,1,.29,6c0,.74-.06,1.15-.8,1.49-2,1-11.6,1.84-14.19,1.84-9.25,0-13.32-4.6-13.32-5.92,0-1.09,2.87-6.89,4.19-6.89C3789.27,121.88,3789.5,122.17,3789.67,122.34Zm-.12-24.87a12.07,12.07,0,0,1,1.78.23,42.06,42.06,0,0,0,7.59.81,35.24,35.24,0,0,0,8.5-1.15,4.68,4.68,0,0,1,1.14-.17c1.1,0,1.44,1.2,1.56,2.06a44.06,44.06,0,0,1,.34,4.71c0,1.38-.17,1.78-1.67,2a67.94,67.94,0,0,1-9.64.69c-1.73,0-9.65-.29-10.75-1.2-.45-.41-.45-2.13-.45-2.76C3788,98.45,3788.17,97.47,3789.55,97.47Z" transform="translate(-3535 0.14)"/><path class="a" d="M3852.39,139.91c-4.88,0-7.93,0-7.93-4.88,0-2.18.12-4.3.12-6.43V116.94c0-.23-.06-.46-.35-.46-.57,0-.74,1.15-.8,1.61a61.21,61.21,0,0,1-3.56,14.93c-.29.75-.58,1.61-1.49,1.61s-5.4-1.15-5.4-2.81a4.42,4.42,0,0,1,.34-1.38,65.74,65.74,0,0,0,3.27-14.19c.29-2.06.29-2.93,1.15-2.93.64,0,4,.81,4.89,1a2.71,2.71,0,0,0,.68.17c.81,0,1.15-.63,1.15-1.38,0-.4-.05-.8-.05-1.26,0-.8.4-1,1.14-1,1.5,0,3,.18,4.54.18.46,0,.92-.06.92-.64s-2-4.48-2.41-5.28a1.73,1.73,0,0,1-.29-.86c0-.69.69-1.09,1.21-1.32.23-.12.4-.29.4-.46,0-.35-.29-.35-.86-.35h-13a1.57,1.57,0,0,0-1.61,1.61v6.09c0,8.79-1.09,19.36-4.54,27.45-1.09,2.64-1.55,3.22-2.7,3.22-2.24,0-6-2.07-6-3.39a5,5,0,0,1,.52-1.44c3.39-6.66,4.25-16.54,4.25-24.12v-8.27c0-2.18-.12-4.25-.12-6,0-2.35,1.33-2.87,3.39-2.87s4.14.11,6.21.11h6.89a1.63,1.63,0,0,0,1.61-1.72c0-.8-.23-3.16-.23-3.73,0-.75.57-.86,1.2-.86a14.47,14.47,0,0,1,1.55.11c2.13.17,4.25.35,6.38.58.46,0,1.38.11,1.38.8,0,.34-.23.57-.64.92a3,3,0,0,0-.57,2.3,1.6,1.6,0,0,0,1.61,1.6h9.7c2.42,0,4.83-.11,7.24-.11,1.55,0,1.67.57,1.67,2.35v3.11c0,1.78-.12,2.35-1.61,2.35-2.41,0-4.88-.12-7.3-.12h-7.4c-.58,0-1.33.12-1.33.87a3.55,3.55,0,0,0,.52,1.26c.92,1.84,5.06,10.39,5.06,12,0,1.78-5.12,2.52-5.75,2.52-1,0-1.32-.51-1.55-1.38s-.52-2-1-2c-.35,0-.4.75-.4,2v11.37c0,2.76.4,2.76,2.35,2.76h2a4.38,4.38,0,0,0,1.9-.23c.68-.52,1-3.68,1-4.59.06-1.1.11-1.73,1.84-1.73a13,13,0,0,1,3.84.69,1.36,1.36,0,0,0,.46.12.74.74,0,0,0,.69-.69c0-1.09-3.16-9.36-3.84-10.86a1.58,1.58,0,0,1-.12-.51c0-1.38,4.6-2.47,5.4-2.47a1.36,1.36,0,0,1,1.32.86,59.41,59.41,0,0,1,3.45,8.9,73,73,0,0,1,2.12,8c0,1.9-5.11,2.87-5.68,2.87-.92,0-1.1-.57-1.21-1.32-.06-.34-.12-.69-.35-.69s-.34.35-.4.86c-.23,2.19-1.2,5.86-2.7,7.58-1.38,1.55-2.87,1.55-6.37,1.55Z" transform="translate(-3535 0.14)"/><path class="a" d="M3902.93,94.31c.75.23,1.32.46,1.32.81s-.17.34-.4.46c-1,.57-1.15,1.61-1.32,2.64a112.1,112.1,0,0,0-1.84,21.48c0,4.48,0,9.19,4.6,9.19a12.31,12.31,0,0,0,9.24-4.88,18.46,18.46,0,0,0,3.68-8.39c.17-1.09.4-2.12,1.38-2.12,1.26,0,3,1.55,3.9,2.35s2.76,2.47,2.76,3.91c0,1.72-1.61,5.51-2.47,7.06-3.67,6.78-10.17,11.26-18,11.26-4.08,0-8.45-1.38-11.09-4.71-2.87-3.68-3.21-9.77-3.21-14.36,0-6.61.57-13.21,1-19.87.11-1.32.17-3.16.17-4.48s0-2,1-2A84.61,84.61,0,0,1,3902.93,94.31Zm11,4.2c.8.74,4.48,4.42,4.48,5.34S3915.63,107,3915,107c-.34,0-.69-.46-.86-.75-1.26-1.61-2.64-3.1-4-4.59-.23-.23-.57-.58-.57-.87,0-.86,3-2.87,3.62-2.87C3913.44,97.93,3913.79,98.33,3914,98.51Zm6.37-4.89c.69.64,1.44,1.44,2.24,2.3,1.27,1.38,2.36,2.7,2.36,3.16,0,1-2.76,3.16-3.39,3.16-.17,0-.46-.17-.86-.69a48.41,48.41,0,0,0-4.14-4.59c-.34-.35-.57-.64-.57-.87,0-.91,3-2.87,3.62-2.87A1.17,1.17,0,0,1,3920.33,93.62Z" transform="translate(-3535 0.14)"/><path class="a" d="M3964.68,90.24c1.09.28,2.81.8,2.81,1.37,0,.29-.35.46-.58.58-.8.4-1,1.32-1.55,3.22q-.17.77-.51,1.89a4.4,4.4,0,0,0-.12.52,1,1,0,0,0,1.09,1,24.69,24.69,0,0,0,4.66-1.49,4.91,4.91,0,0,1,1.43-.4c1.55,0,1.55,5.68,1.55,7.4,0,.81-.23,1.15-1.15,1.44-2.29.75-6,1.61-8.21,2.07-2.47.51-2.64.57-3.33,2.64-2.41,6.95-7.35,19.41-11,25.38-.46.75-.8,1.38-1.78,1.38s-6.95-2.58-6.95-4.3a5.34,5.34,0,0,1,1.15-2.24,90.39,90.39,0,0,0,9.42-18.9,3.93,3.93,0,0,0,.4-1.32c0-.8-.63-1-1.26-1-1.15,0-2.53.18-3.79.18s-1.95-.18-2.3-1.44a42.46,42.46,0,0,1-.63-6.09c0-.74.11-1.32,1-1.32.58,0,3.16.29,6.15.29s3.79,0,4.25-1.44a62.64,62.64,0,0,0,1.66-10.57c0-.34.12-.63.46-.63C3958.3,88.51,3963.64,90,3964.68,90.24Zm-1.44,35.83c2.35,2.82,6.72,3.45,10.16,3.45a27.77,27.77,0,0,0,8.68-1.21,2.29,2.29,0,0,1,.63-.11c.92,0,1,1.26,1,3.1V133c0,3.16,0,3.85-1,4.14a67,67,0,0,1-9.71.74c-4.08,0-9.65-.51-13-3-.92-.69-2.76-2.3-2.76-3.62,0-1,2.12-3.56,2.81-4.36.46-.52,1.5-1.67,2.19-1.67C3962.61,125.27,3963,125.79,3963.24,126.07Zm5.63-17.46a50.47,50.47,0,0,1,13,1.73c.81.23,1.44.46,1.44,1.38a20.2,20.2,0,0,1-1.72,6.31,1.21,1.21,0,0,1-1.09.69,5,5,0,0,1-1.44-.4,25.28,25.28,0,0,0-9.88-1.55h-2.07c-1.32,0-1.72-.17-1.72-1.21C3965.42,109,3966.57,108.61,3968.87,108.61Z" transform="translate(-3535 0.14)"/><path class="a" d="M4036,88.69a1.35,1.35,0,0,1,.63.23c1.73.8,3.56,1.49,5.35,2.12,1.26.46,1.89.69,1.89,1.26s-.52.75-1,.92a1.93,1.93,0,0,0-1.15.86,4.05,4.05,0,0,1-.29.46,9.53,9.53,0,0,0-1.21,2.07c0,.52.46.75.92.75,1,0,2.07-.12,3.11-.12,1.26,0,1.37.58,1.37,1.84v2.41c0,1.5-.11,2.07-1.37,2.07-2,0-4-.11-5.92-.11h-3.68a.75.75,0,0,0-.74.74v.29a.76.76,0,0,0,.74.75h2.65c1.78,0,3.56-.12,5.34-.12,1.38,0,1.49.57,1.49,2.07V109c0,1.26-.11,2-1.38,2-1.84,0-3.62-.12-5.45-.12h-2.65a.76.76,0,0,0-.74.75V112a.72.72,0,0,0,.74.74h4.54c1.95,0,3.91-.11,5.92-.11,1.26,0,1.37.63,1.37,2v2.24c0,1.55-.11,2.06-1.43,2.06-.46,0-.86,0-1.32,0s-.81.11-.81.57,2.13,2.41,2.53,2.82,1,1,1,1.43a.69.69,0,0,1-.69.63h-.35a1.07,1.07,0,0,0-.4-.05,1.42,1.42,0,0,0-.92.34c-.17.12-.34.29-.57.46-.92.75-2.07,1.67-2.07,2.13s.35.68.63.91c1.38,1.27,2.42,2.19,3.91,3.33.92.69,1.38,1,1.38,1.56,0,1.43-3.91,4.7-5.29,4.7s-6-5.74-6.89-6.94c-.17-.23-.4-.52-.69-.52-.52,0-.57.52-.57.86,0,.8.05,1.61.05,2.41,0,1.78-.23,3.68-1.49,5-2,2.07-5.91,2.35-8.61,2.35-.92,0-2.24,0-2.64-.92a14.38,14.38,0,0,1-.87-4.7c0-.92.35-1.79,1.44-1.79.69,0,1.89.29,3.1.29.86,0,1-.29,1-1.61V120.39a1.6,1.6,0,0,0-1.6-1.61h-4.66c-.28,0-.63.06-.63.4,0,.17.29.35.52.46s2.87,2,2.87,2.59a10.27,10.27,0,0,1-1.49,2.93c-.12.17-.29.34-.29.51a.28.28,0,0,0,.29.29,1.66,1.66,0,0,0,.69-.29,11.67,11.67,0,0,1,1.66-.86c.92,0,1.84,3.22,1.84,4.71,0,1-.4,1.26-1.38,1.89-1.38.92-4.65,3-7,4.37-.41.23-.52.4-.58,1.09-.11.4-.29.92-.8.92-.29,0-.58-.34-1-.92a38.84,38.84,0,0,1-2.47-4.77,3.27,3.27,0,0,1-.4-1.26c0-.46.23-.52.57-.63,1.21-.4,3.62-1.49,4.71-2,.86-.4,1.44-.69,1.44-1.15s-.17-.46-.58-.8a28,28,0,0,0-3.73-2.53c-.29-.17-.4-.29-.4-.52,0-.69,1.32-3,1.72-3.79a.82.82,0,0,0,.12-.4c0-.4-.41-.12-.58-.86-.06-.17-.11-.4-.23-.4s-.28.28-.28.4c-.18.34-1.15,2.12-1.44,2.64a1.24,1.24,0,0,1-1,.86c-.58,0-1-.86-1.44-1.43-.17-.23-.23-.35-.4-.35s-.35.35-.35.86v10.63c0,2.64.12,5.28.12,7.92,0,1.32-.58,1.44-2.24,1.44h-3.33c-1.73,0-2.24-.12-2.24-1.49,0-2.65.11-5.29.11-7.87v-4.14c0-.46-.06-.69-.29-.69-.4,0-.68.87-.8,1.21-.4,1-1.32,3.56-2.35,3.56-1.27,0-4.71-3.85-4.71-5.69,0-.51.23-.91.8-1.89a62,62,0,0,0,4.88-12.18,40.19,40.19,0,0,0,1.15-4.53.89.89,0,0,0-.92-.81c-1,0-1.95.12-2.93.12-1.2,0-1.32-.58-1.32-2.13V100.8c0-1.6.12-2.24,1.32-2.24s2.3.12,3.45.12A1.64,1.64,0,0,0,4002,96.9V93.45a22.25,22.25,0,0,0-.17-3.39V89.6c0-.68.46-.8,1-.8a9.12,9.12,0,0,1,1.32.12c.92.11,1.78.17,2.52.22,2.59.18,4.08.29,4.08,1.1,0,.34-.29.57-.63.86s-.52,1.2-.52,2.58V97a1.62,1.62,0,0,0,1.61,1.66c.23,0,1-.06,1.55-.06,1.21,0,1.32.52,1.32,2.19v3.44c0,1.55-.11,2.13-1.26,2.13-.75,0-1.61-.12-2.36-.12a.9.9,0,0,0-.86.92,2.94,2.94,0,0,0,.46,1.55,41.92,41.92,0,0,0,4,5.34c.12.06.18.18.35.18s.23-.29.28-.46c.06-1,.58-1.15,1.44-1.15,2,0,3.85.11,5.8.11h3.22a.69.69,0,0,0,.74-.74v-.35a.72.72,0,0,0-.74-.75h-1.61c-1.78,0-3.62.12-5.4.12-1.32,0-1.43-.63-1.43-2.18v-1.55c0-1.56.17-2.13,1.49-2.13,1.78,0,3.56.12,5.34.12h1.61a.72.72,0,0,0,.74-.75v-.29a.71.71,0,0,0-.74-.74h-2.47c-2,0-3.91.11-5.92.11-1.32,0-1.43-.57-1.43-2.12V99.31c0-1.55.17-2.07,1.55-2.07.46,0,.86.06,1.32.06.63,0,1.26-.23,1.26-1a8.68,8.68,0,0,0-1.09-2.35c-.11-.29-.92-1.9-.92-2.07,0-1.32,5.8-2.81,6.32-2.81s1,.46,2.24,2.87l.29.57a17.34,17.34,0,0,1,1.09,2.65c0,.68-1.32,1.2-1.84,1.32-.23.11-.63.23-.63.51s.23.35.69.35h3.73c2.13,0,3.1-.52,5.63-7.47C4035.26,88.86,4035.38,88.69,4036,88.69Zm-.17,30.09c-.46,0-1.09.11-1.09.69,0,.34,1.32,2.58,2.07,2.58a1.57,1.57,0,0,0,.92-.51c.4-.35,1.37-1.44,1.49-1.55s.4-.41.4-.64c0-.46-.34-.57-1-.57Z" transform="translate(-3535 0.14)"/><path class="a" d="M4092,103.33a6.51,6.51,0,0,0,2.53-.34,3.54,3.54,0,0,1,1.09-.23c2,0,6.38,4.3,6.38,6.2,0,.52-.41.8-.75,1.09-2.87,2.13-10.86,12.12-13.84,15.56a1.65,1.65,0,0,0-.52,1,1.7,1.7,0,0,0,.63,1.15c1,1,4.37,4.48,4.37,5.74s-4.48,5.8-5.86,5.8c-.58,0-1-.57-1.49-1.26-.12-.18-.23-.29-.35-.46a66.69,66.69,0,0,0-8.84-9.19,65.13,65.13,0,0,0-6.44-4.6,1.33,1.33,0,0,1-.8-1.09c0-1,4.37-5.91,6-5.91.69,0,3,1.66,4.37,2.58s1.43,1.09,1.84,1.09.57-.28.8-.57c1.61-1.84,3-3.56,4.54-5.46.51-.63,1.2-1.49,1.2-1.89,0-1-1.2-1.09-2-1.09h-9.07a2.39,2.39,0,0,0-2.53,1.32,68.88,68.88,0,0,1-8.33,9.47c-.92.87-4.08,3.91-5.23,3.91s-2.46-1.61-3.21-2.41-2.58-2.82-2.58-3.79c0-.41.17-.52.91-1s3.33-2.52,3.91-3a74,74,0,0,0,7.87-9c3.1-4.19,6.49-9.94,8-14.93.11-.46.29-1.21,1.15-1.21,1.09,0,3.67,1.32,4.71,1.84,2.47,1.2,3.85,1.84,3.85,2.76s-.75.91-1.33,1.09-.86.28-1.09,1a34.15,34.15,0,0,1-2,4.25,2.11,2.11,0,0,0-.4,1c0,.63.69.63,1.21.63Z" transform="translate(-3535 0.14)"/><path class="a" d="M4136.87,91.38c.69.18,1.32.41,1.32.75s-.4.58-1.09,1c-.35.22-.81,2.24-1,3.21a3.45,3.45,0,0,0-.11.46c0,.17-.06.4-.06.63a.81.81,0,0,0,.69.81,5.58,5.58,0,0,0,1.26-.35,3.24,3.24,0,0,1,1-.23c.52,0,.69.29.8.86a53.7,53.7,0,0,1,.58,6c0,1.32-.81,1.55-5.28,2.35-2,.35-2.07.75-2.76,2.59-1,2.64-2.07,5.22-3.22,7.81-1.49,3.39-3,6.83-4.82,10.11-.46.8-1,1.72-1.38,2.41s-.52.86-1.26.86c-2,0-7.47-2.41-7.47-3.91a9.73,9.73,0,0,1,1.21-2.29c1.14-2,7.4-13.39,7.4-14.82a.9.9,0,0,0-1-.86c-.35,0-1.5.11-1.9.17-.63.06-1.83.17-2.52.17-1.21,0-1.73-.52-2.13-5.4-.06-.46-.17-1.49-.17-2,0-.8.46-1,1.15-1,1,0,2.35.11,3.62.11,5.22,0,6-.11,6.54-1.6a38.27,38.27,0,0,0,1.44-8.91c0-.46,0-.92.4-.92C4128.83,89.37,4135.72,91.1,4136.87,91.38Zm7.69,18c1,.23,1.5.63,1.5,1.66,0,.58-.12,1.61-.12,2.65,0,2.87.23,5.68.4,8.5.06,1.37.35,1.72,1.67,2.24,1.61.63,8.84,4,8.84,5.62,0,1.27-3.21,6-5.05,6-.46,0-1.26-.52-2.53-1.5-.34-.28-.69-.57-1.09-.86a1.29,1.29,0,0,0-.92-.34,1.27,1.27,0,0,0-1.26,1,10.07,10.07,0,0,1-1.95,2.7c-1.78,1.73-4.54,2.19-6.95,2.19-5.46,0-11.14-2.65-11.14-8.85,0-5.74,5.05-8.21,10.16-8.21h.46a1.27,1.27,0,0,0,1.38-1.38c0-1-.52-6.09-.69-7.81a22.35,22.35,0,0,1-.23-2.7c0-1.21.46-1.67,1.72-1.67A32.91,32.91,0,0,1,4144.56,109.42Zm-10.1,21a1.93,1.93,0,0,0,2.12,1.72c1.32,0,1.78-.69,1.78-1.89,0-.75-.06-1.38-1.72-1.38C4135.66,128.83,4134.46,129.23,4134.46,130.38Zm19.75-27.8c1.32,1.21,4.94,4.66,4.94,5.86,0,1.78-4.65,5.75-6.09,5.75-.69,0-1.2-.87-1.6-1.5a37,37,0,0,0-7.18-7.41c-.46-.34-1-.74-1-1.2,0-.92,3.68-5.63,5.29-5.63C4149.62,98.45,4153.29,101.72,4154.21,102.58Z" transform="translate(-3535 0.14)"/><path class="a" d="M3605.87,189.48c.58,0,1.9-.06,1.9-1.32v-2.47c0-2.47-.11-4.94-.11-7.41,0-.4.05-.58.51-.58,1.15,0,4.71.23,6.2.29,1.84.06,3.22.17,3.22.8a1.42,1.42,0,0,1-.34.64,2.55,2.55,0,0,0-.58,1.78V188a1.3,1.3,0,0,0,1.32,1.44h7.13c1,0,1.32-.81,1.32-1.67,0-1.61-.12-8-.23-9.25,0-.23-.06-.46-.06-.68a.79.79,0,0,1,.86-.75c.8,0,4.19.17,5.23.23,2,.06,4,.11,4,.74,0,1-.92.12-.92,2.82v3.22c0,1-.06,2.06-.06,3.15,0,1.67.35,2.19,1.84,2.19h.69c1.43-.06,6.09-.18,6.6-.18,1.27,0,1.55.52,1.55,3.22v2.53c0,1.89-.11,2.75-1.89,2.75-2.07,0-4.2-.11-6.26-.11h-.69c-1.67,0-2,.29-2,2-.06,9.76-1.9,16.25-10.34,22-1.09.74-5.17,3.16-6.37,3.16-.75,0-2.47-1.67-3.51-2.88-.92-.92-2.3-2.29-2.3-3.1s1-1.09,2.7-1.72c8.85-3.68,11-8.5,11-17.75,0-.92-.29-1.72-1.32-1.72h-7a1.34,1.34,0,0,0-1.32,1.32v3c0,2.36.06,5.58.06,6.32,0,2-.06,2.41-2.13,2.41h-4c-2.58,0-2.92-.17-2.92-1.43,0-2.41.11-4.77.11-7.12v-3.1a1.47,1.47,0,0,0-1.49-1.44h-1.15c-2.24,0-4.48.17-6,.17-1.73,0-1.78-1.49-1.78-3.62v-2.12c0-2.36.22-2.82,1.55-2.82s4,.18,6.2.18Z" transform="translate(-3535 0.14)"/><path class="a" d="M3671.29,202.51c.64.35,1.1.81,1.1,1.15s-.35.46-.58.58a4.53,4.53,0,0,0-1.61,1.49c-1.43,1.72-8.9,10.28-10.68,10.28-1.15,0-5.74-4.19-5.74-5.63,0-.57,1-1.26,1.43-1.61a29.29,29.29,0,0,0,7.93-8.67c.23-.4.52-1,1.09-1C3665,199.13,3669.17,201.37,3671.29,202.51Zm1.9-14.58c1.49,0,1.61-1.27,1.61-2.19v-.51a54,54,0,0,0-.29-6.09c0-.23-.06-.52-.06-.81,0-.68.58-.8,1.38-.8s6.83.69,7.87.86c.34.06,1,.17,1,.63s-.35.69-.58.92a2.33,2.33,0,0,0-.69,1.9v.74c0,.87-.06,1.73-.06,2.65v.51c0,.92.18,2.19,1.55,2.19h7.41c2.65,0,6-.18,8.16-.18,1.38,0,1.61.69,1.61,2.82v2.93c0,2.12-.23,2.87-1.84,2.87-2.64,0-5.28-.06-7.93-.06h-7.18a1.75,1.75,0,0,0-1.78,1.72v11.78c0,1.15.06,2.35.06,3.56,0,3-.29,5.86-2.3,7.41s-6.54,2.7-9,2.7c-1,0-1.33-.35-2.19-2-.51-1-1.95-4.25-1.95-5.28,0-.86,1.26-.92,1.9-1,4.48-.23,4.88-.8,4.88-5V198a1.75,1.75,0,0,0-1.78-1.72h-7.64c-2.53,0-5,.12-7.52.12-1.56,0-1.79-1-1.79-3v-2.81c0-2.42.29-2.88,1.61-2.88.75,0,5.17.18,7.7.18Zm25.27,15.62c1.09,1,5.28,5,5.28,6.37,0,1.5-4.42,5.75-5.68,5.75-.63,0-1.5-1.1-2.7-2.65a51.8,51.8,0,0,0-7.3-7.41c-.4-.34-.92-.74-.92-1.26,0-1,1.5-2.58,2.19-3.27,1.26-1.38,2-2.13,2.87-2.13C3693.86,199,3697.25,202.34,3698.46,203.55Zm7.29-23.55a6,6,0,1,1-6-6A6,6,0,0,1,3705.75,180Zm-9,0a3,3,0,0,0,3,3,3,3,0,1,0-3-3Z" transform="translate(-3535 0.14)"/><path class="a" d="M3750.27,194.88c3.39,0,7.06-.23,7.58-.23,1.49,0,1.72.63,1.72,2.29v2.76c0,3.16-.06,4.13-1.89,4.13-2.24,0-4.89-.17-7.41-.17h-26.42c-2.53,0-5.23.17-7.35.17-2,0-2-1.09-2-4.13v-2.64c0-1.72.18-2.41,1.67-2.41.8,0,4,.23,7.64.23Z" transform="translate(-3535 0.14)"/><path class="a" d="M3792.77,216.64c0,1.9.06,3.79.06,5.75,0,2.75-.18,3-3.91,3h-2.58c-2.3,0-3-.28-3-1.78,0-2.3.12-4.54.12-6.83V183.62c0-2.36-.12-5.34-.12-7.12,0-.75.12-1.09.92-1.09a85.24,85.24,0,0,1,8.84,1.14c.35.12.64.35.64.69a1,1,0,0,1-.35.69,3,3,0,0,0-.63,2.07v11.14c0,.29.06.81.69.81.34,0,.69-.23,1-.23a5.94,5.94,0,0,1,2.12.92c1.84,1.14,4.19,3,4.94,3.56a67,67,0,0,1,5.28,4.65,1.48,1.48,0,0,1,.41.92c0,1.15-4.2,5.8-5.52,5.8-.51,0-1.09-.58-1.43-.92-1-.92-5.69-5.17-6.61-5.17s-.86.8-.86,1.38Z" transform="translate(-3535 0.14)"/><path class="a" d="M3852.73,176.32c1,.46,1.78.87,1.78,1.38s-.63.63-1,.75a3.71,3.71,0,0,0-1.55,2.18c0,.46.29.63.69.63a26.2,26.2,0,0,0,4.65-1.26,5.15,5.15,0,0,1,1.61-.4c1.26,0,1.55,1.2,1.78,2.24a25,25,0,0,1,.69,4.65c0,.86-.52,1.09-3.68,1.67s-7.06,1.26-10.62,1.66c-1.84.23-2,1.49-2,1.55,0,.29.28.4.51.4a1.76,1.76,0,0,0,.52-.17,14.42,14.42,0,0,1,4.88-.86,8.42,8.42,0,0,1,4.14.92,5.73,5.73,0,0,1,2.75,3.27,1,1,0,0,0,1,.69c.57,0,3.62-1.72,5.34-2.7l1.15-.63a2.07,2.07,0,0,1,.74-.29c1.44,0,3.45,6.61,3.45,7.93,0,.75-.57.92-1.72,1.32-2.76,1-4.48,1.78-7.12,2.87-1.38.58-1.61,1.09-1.61,2.64,0,.69.06,2.07.06,3.33,0,3.68-.06,3.74-3.28,3.74-4,0-5.17-.17-5.17-2a13.65,13.65,0,0,1,.12-1.56V210a.73.73,0,0,0-.69-.81c-.58,0-3.45,1.84-3.45,3.85,0,2.87,4.88,2.87,6.89,2.87a48.56,48.56,0,0,0,10.69-1.43,6.57,6.57,0,0,1,1.43-.18c1.38,0,1.44,2.07,1.44,5.75,0,2.18-.12,2.76-1.78,3.1a78.05,78.05,0,0,1-11.14.69c-4,0-6.67-.29-10.05-1.84a9.31,9.31,0,0,1-5.86-8.9c0-5.4,4.08-8.5,8.27-11,1-.57,2.12-1.21,3.16-1.72.51-.23,1-.52,1-1.15a1.63,1.63,0,0,0-1.78-1.5c-2.18,0-6.14,2-7.87,3.34-2.69,2.12-4.42,5.16-6.08,8.15a.94.94,0,0,1-.86.63c-1.27,0-7.13-3.21-7.13-4.59,0-.46.35-.81,1-1.55,2.35-2.7,6.09-8.67,7.92-11.26a1.26,1.26,0,0,0,.35-.8.84.84,0,0,0-.86-.81c-.69,0-1.5.06-2.24.06-2,0-2.13-.17-2.13-4.48,0-3.56.23-3.62,2.07-3.62,1.26,0,3.33.12,5.23.12,2.81,0,3.33-.23,3.79-1a28.61,28.61,0,0,0,2.7-7.12c.17-.86.28-1.26.86-1.26A70.74,70.74,0,0,1,3852.73,176.32Z" transform="translate(-3535 0.14)"/><path class="a" d="M3886.28,192.87c0-1.33-.29-2-1.5-2-.74,0-1.55.12-2.29.12-1.5,0-1.61-.63-1.61-2.3v-3c0-1.78.11-2.42,1.61-2.42.74,0,1.43.12,2.18.12,1.43,0,1.61-1,1.61-2.18v-.75c0-3-.18-5.05-.18-5.57,0-.8.64-.86,1.27-.86,1.61,0,4.42.17,6.14.28.58,0,1.9,0,1.9.81,0,.57-.4.75-.81,1-.63.4-.63,1.21-.63,2.76v2.3c0,1.43.35,2.18,1.44,2.18.74,0,1.49-.12,2.18-.12,1.44,0,1.61.58,1.61,2.24v3.22c0,1.67-.12,2.3-1.55,2.3-.69,0-1.38-.12-2.07-.12-1.32,0-1.61,1.09-1.61,2.19V196c0,1,.06,1.56.75,1.56a8.85,8.85,0,0,0,2.53-.87,4.68,4.68,0,0,1,1.43-.46c1.32,0,1.44,3.45,1.44,4.37,0,3-.4,3.1-4.6,4.71-1.32.51-1.55,1.09-1.55,2.41v7.7c0,1.37.12,2.81.12,4.19,0,1.72-.12,3.45-1.55,4.65-1.73,1.49-4.71,1.67-6.95,1.67-1.67,0-2.53-.23-2.93-1a11.86,11.86,0,0,1-1-5.11c0-1.09.17-2.3,1.55-2.3.4,0,1.27.18,1.78.18,1.21,0,1.27-.69,1.27-1.15v-6.61c0-.69,0-1.15-.69-1.15a2.47,2.47,0,0,0-2,1.1,1,1,0,0,1-.91.68c-.69,0-.87-.74-1.5-3.44-.17-.75-.4-1.55-.63-2.59a9.51,9.51,0,0,1-.34-1.72c0-.8.74-1,2.41-1.38.52-.11.86-.17,1.26-.28,2-.52,2.36-.87,2.36-2.93ZM3913,206.36a1.61,1.61,0,0,0-1.61-1.61h-3.62c-1.83,0-3.73.12-5.62.12-1.44,0-1.56-.63-1.56-2.18V200.1c0-1.55.18-2.12,1.67-2.12,1.84,0,3.68.11,5.51.11H3925c1.9,0,3.74-.11,5.57-.11,1.56,0,1.67.57,1.67,2.24v2.35c0,2-.23,2.3-2,2.3-1,0-2.7-.12-5.23-.12h-3.15a1.14,1.14,0,0,0-1.15,1.09v.46a1.1,1.1,0,0,0,1.15,1.1h1.43c1.9,0,3.79-.12,5.69-.12,1,0,1.14.46,1.14,1.78v3.33c0,1.38-.11,1.84-1.14,1.84-1.9,0-3.79-.17-5.69-.17h-1.43a1.14,1.14,0,0,0-1.15,1.15v1c0,1.32.46,1.55,2.58,1.55h1.44c1.15,0,3.61-.17,4.76-.23a4.69,4.69,0,0,1,.86-.05c1.27,0,2,.57,2,1.83,0,1.44-.46,4.31-1.44,5.29a3,3,0,0,1-2.12.52h-7.64c-4.83,0-9.88-.87-13.21-4.71a1.48,1.48,0,0,0-1-.69c-.57,0-.91.86-1.14,1.32-1,2.12-2.13,4.59-3.39,4.59s-6.21-1.2-6.21-3a2.69,2.69,0,0,1,.75-1.38,37,37,0,0,0,5.17-13.61c.06-.69.06-1.21.92-1.21.57,0,4.19.81,5,1,1.89.46,2.7.51,2.7,1.26,0,.4-.35.63-.69.75a1.27,1.27,0,0,0-.81,1.09,8.83,8.83,0,0,0-.28,1.67c0,1.83,2.75,3.9,3.5,3.9.57,0,.63-.34.63-1.44Zm8-31c1.55,0,3.16-.06,4.71-.06,1.09,0,2.3.11,2.3,1.55,0,1.09-.11,2.35-.11,3.67V191c0,1.32.11,2.64.11,3.73,0,1.38-1.15,1.49-2.24,1.49-1.61,0-3.16-.05-4.77-.05h-9.87c-1.56,0-3.11.05-4.66.05-1.09,0-2.29-.11-2.29-1.49,0-1,.05-2.35.05-3.73V180.57c0-1.37-.05-2.64-.05-3.67,0-1.38,1.14-1.55,2.24-1.55,1.55,0,3.15.06,4.71.06Zm-9.19,6.94a.91.91,0,0,0,.92.92h6.67a.9.9,0,0,0,.91-.92V182a.91.91,0,0,0-.91-.92h-6.67a.92.92,0,0,0-.92.92Zm0,7.36a1,1,0,0,0,.92.92h6.67a.94.94,0,0,0,.91-.92v-.52a.9.9,0,0,0-.91-.92h-6.67a.92.92,0,0,0-.92.92Z" transform="translate(-3535 0.14)"/><path class="a" d="M3943.43,202.86c0-.4,0-.86-.46-.86s-.52.57-1.21.57-1.49-1.15-1.9-1.78c-.68-1.09-2.41-4.08-2.41-5.34,0-.57.52-1.32,1.38-2.41,3.5-4.42,7.24-12.29,9-17.69.23-.69.52-1.72,1.43-1.72.41,0,4.25,1.26,6.44,2,1.26.4,2.12.74,2.12,1.43,0,.41-.52.58-.8.69-.69.23-.92.23-1.27,1-1.37,3.16-2.7,6.37-4.3,9.48a3.63,3.63,0,0,0-.58,1.32c0,.51.46.74.86.86s.92.23.92.74-.23.52-.57.81-.46,1.09-.52,1.89c-.06,1.44-.06,2.88-.06,4.31v19.36c0,1.26.06,2.06.75,2.06,1.26,0,7.29-7.18,8.56-9.42.28-.51.46-.91,1-.91.75,0,4.14,2.12,5.92,3.21.92.58,1.2.81,1.2,1.27,0,.63-.51.68-1,.68-.75,0-.92.23-1.32.81a47.51,47.51,0,0,1-8.33,9.53c-.63.58-1.49,1.32-1.9,1.32a9.26,9.26,0,0,1-3.38-1.66,1.71,1.71,0,0,0-.69-.29c-.4,0-.58.35-.63.69-.18,1.15-.75,1.15-3.22,1.15H3945c-1.15,0-1.73-.29-1.73-1.49,0-2.7.18-5.35.18-8Zm16.25-23.61a28.14,28.14,0,0,0-.17-3.84,2.5,2.5,0,0,1-.06-.52c0-.75.46-.86,1.09-.86,1.32,0,4.88.34,7,.63.51.06,1.26.11,1.26.8,0,.35-.23.52-.57.86-.52.46-.58,1.78-.58,3.11v2.75c0,1.27.58,1.9,1.84,1.9h3.56a1.68,1.68,0,0,0,1.9-1.9V178.1c0-1.55-.23-3-.23-3.21,0-.75.46-.86,1.09-.86a69,69,0,0,1,7,.63c.52.06,1.27.11,1.27.8,0,.35-.23.52-.58.86-.51.46-.57,1.78-.57,3.11V182c0,1.15.4,2,1.66,2,.92,0,1.84-.06,2.76-.06,1.61,0,1.67.81,1.67,3v2.3c0,2.06-.29,2.58-1.67,2.58-.92,0-1.84-.06-2.76-.06-1.2,0-1.66.87-1.66,2v4.94c0,1.15.4,2.06,1.72,2.06,1.09,0,2.24-.11,3.39-.11,1.61,0,1.72.57,1.72,2.41V206c0,1.72-.11,2.41-1.6,2.41-2.19,0-4.31-.11-6.49-.11H3961c-2.13,0-4.31.11-6.43.11-1.55,0-1.67-.69-1.67-2.41v-2.13c0-2.58,0-3.21,1.72-3.21,1.1,0,2.24.11,3.34.11,1.32,0,1.72-.86,1.72-2.06v-4.89c0-1.09-.4-2-1.61-2-.69,0-1.38.06-2.07.06-1.6,0-1.78-.46-1.78-2.58v-2.82c0-1.84.12-2.47,1.67-2.47.74,0,1.49.06,2.12.06.81,0,1.67-.4,1.67-2Zm8,19.88a1.57,1.57,0,0,0,1.61,1.6h4.08a1.57,1.57,0,0,0,1.61-1.6v-5.81a1.6,1.6,0,0,0-1.61-1.6h-4.08a1.54,1.54,0,0,0-1.61,1.6Zm12.06,9.93c.29,0,.52.12,1,.92a60.12,60.12,0,0,0,8.9,11c.29.23.86.75.86,1.09,0,1.32-4.76,4.25-5.8,4.25-1.2,0-5.91-5.8-6.78-6.95-.68-.92-4.13-5.86-4.13-6.66C3973.75,211.42,3978.57,209.06,3979.72,209.06Z" transform="translate(-3535 0.14)"/><path class="a" d="M4018.38,179.54c.46.12,1.26.35,1.26.8a.55.55,0,0,1-.4.46c-.92.52-1,1.21-1.32,2.65a107.49,107.49,0,0,0-1.84,21.48c0,4.53,0,9.19,4.6,9.19a12.3,12.3,0,0,0,9.24-4.89,18.76,18.76,0,0,0,3.68-8.32c.23-1.15.4-2.19,1.38-2.19,1.26,0,3,1.55,3.9,2.36s2.76,2.47,2.76,3.9c0,1.73-1.61,5.52-2.47,7.07-3.68,6.77-10.17,11.25-18,11.25-4.08,0-8.45-1.37-11.09-4.7-2.87-3.68-3.22-9.77-3.22-14.36,0-6.61.58-13.67,1-19.87.11-1.21.17-3.16.17-4.48s0-2,1-2C4010.34,177.88,4016.54,179.14,4018.38,179.54Z" transform="translate(-3535 0.14)"/><path class="a" d="M4084.14,177.07c.29.06.81.12.81.58a2,2,0,0,1-.41,1,6.27,6.27,0,0,0-.92,3.62,1.25,1.25,0,0,0,1.27,1.32c1,0,6.6-1.26,8.1-1.61a13.61,13.61,0,0,1,2.35-.46c.8,0,1.09,1.15,1.21,1.78a29.23,29.23,0,0,1,.63,4.89c0,1.37-.69,1.6-2.53,2-2.87.52-5.86,1-8.79,1.38-1.37.17-2,.34-2,1.55a1.26,1.26,0,0,0,1.27,1.43,53.53,53.53,0,0,0,6.09-1.2,6.43,6.43,0,0,1,1.43-.23c.46,0,.75.46,1,1.2a24.14,24.14,0,0,1,.4,5.52c0,1.84-1.78,2.06-7.06,2.64-2.3.23-2.76.52-2.76,1.55,0,3.16.06,3.62,1.84,4.19,2.41.81,10.1,4.08,10.1,6.78,0,1.26-2.41,5.57-4.25,5.57-.8,0-2.29-1.15-4.3-2.64a6.48,6.48,0,0,0-2.53-1.38c-.8,0-1,.63-1.32,1.26-1.84,4.48-6.43,5.75-10.91,5.75a12.9,12.9,0,0,1-7-1.78,8.22,8.22,0,0,1-3.62-6.78,7.91,7.91,0,0,1,3.28-6.32c2.47-1.78,5.91-2.35,8.9-2.35h.63a1.14,1.14,0,0,0,1.21-1.27,1.37,1.37,0,0,0-1.32-1.55c-1,0-4.6.29-7.13.29-2.18,0-2.75-.06-3.1-1.61a23,23,0,0,1-.8-5.34c0-.86.11-1.66,1.15-1.66,1.66,0,4.13.28,6.89.28h1.55c1.44,0,2.53-.11,2.53-1.38a1.31,1.31,0,0,0-1.38-1.43c-2,0-5.46.23-8.16.23h-1.72c-2.3,0-4.14-.06-4.48-.86-.57-1.44-.63-4.37-.63-6,0-.81.06-1.78,1.15-1.78s7.12.51,10.91.51h1.26c1.38,0,2.41-.11,2.41-1.32,0-.52-.28-3.73-.45-4.77a7.27,7.27,0,0,1-.18-1.6c0-.69.4-.86,1.09-.86C4076.9,176.1,4082.71,176.84,4084.14,177.07Zm-14.41,38c0,1.38,2.12,1.44,3.1,1.44,1.55,0,3.44-.4,3.44-2.35,0-.81-.69-.87-1.78-.87S4069.73,213.37,4069.73,215Z" transform="translate(-3535 0.14)"/><path class="a" d="M4141.35,175.69c.46.06,1.32.23,1.32.63,0,.18-.17.35-.4.52a2.36,2.36,0,0,0-.92,1.72c-.06.58-.12,1.78-.12,2.65,0,1.49.06,2.41,1.78,2.41,4.54,0,9.08-.58,13.61-.58.87,0,1.61.06,1.61,4.08a24.31,24.31,0,0,1-.34,4.31c-.17.46-.35.69-.86.69-.29,0-6.49-.4-8.27-.46s-3.85-.06-5.8-.06a1.53,1.53,0,0,0-1.67,1.72v1.38a5.14,5.14,0,0,0,.8,3.16,18.77,18.77,0,0,1,1.55,7.75c0,9.25-6.37,20.45-9.3,20.45-1.2,0-3.5-1-4.65-1.55-1.61-.69-2.93-1.32-2.93-2.12,0-.52.75-1.21,1.21-1.61,1.09-1,3.84-3.62,3.84-4.54,0-.63-.51-.75-1-.75-5.28-.11-7.29-6.08-7.29-10.51,0-5.11,2.35-10.62,7.92-11.66.4,0,1.09-.11,1.09-.63,0-.28-.23-.57-.74-.57s-4.83.46-5.75.57c-1.38.18-9.42,1.5-10.56,1.78a7.59,7.59,0,0,1-1,.18c-.92,0-1.2-1.33-1.49-4.77-.17-1.9-.23-3.22-.23-3.68,0-.86.29-1,1.66-1,5.23-.23,10.4-.63,15-.86,1.5-.06,2.82-.17,2.82-2.07a44.8,44.8,0,0,0-.52-6.26,1.54,1.54,0,0,1-.06-.46.79.79,0,0,1,.87-.86C4133.48,174.66,4140,175.52,4141.35,175.69Zm-10.05,28.78c0,1,.23,4,1.78,4s1.95-2.88,1.95-4-.23-3.74-1.89-3.74S4131.3,203.32,4131.3,204.47Z" transform="translate(-3535 0.14)"/><path class="a" d="M4185,215.84a8.19,8.19,0,1,1-8.21-8.21A8.21,8.21,0,0,1,4185,215.84Zm-13,0a4.86,4.86,0,1,0,4.83-4.83A4.85,4.85,0,0,0,4172,215.84Z" transform="translate(-3535 0.14)"/></svg>