<svg id="レイヤー_1" data-name="レイヤー 1" xmlns="http://www.w3.org/2000/svg" viewBox="0 0 676.27 140.16"><defs><style>.cls-1{fill:#fff;}</style></defs><title>hire-1</title><path class="cls-1" d="M4.06,38.65c-1,0-2,.06-2.72.06S.51,38.36.51,37.4V35.58c0-1,.07-1.35.83-1.35s1.7.1,2.72.1h.39a.9.9,0,0,0,.89-.93v-.7c0-.39-.19-.45-.48-.45s-1.28.13-1.56.16a1.46,1.46,0,0,1-.36,0c-.7,0-1-.48-1.5-1.37a5,5,0,0,1-.7-1.86c0-.45.48-.48,1.15-.54a32.35,32.35,0,0,0,9-2.37,1.54,1.54,0,0,1,.51-.1c.48,0,.71.26,1.38,1,.29.29,1.76,2,2,2.24a.72.72,0,0,1,.2.45c0,.19-.2.26-.39.26a1.44,1.44,0,0,1-.32,0,2.1,2.1,0,0,0-.38,0c-.1,0-2.4.74-2.75.84-1.12.28-1.32.54-1.32,1.15v1.4a.9.9,0,0,0,.9.9h.45c1,0,1.92-.1,2.68-.1s.84.32.84,1.22V37.4c0,1-.07,1.31-.84,1.31s-1.31-.06-1.95-.06c-.19,0-.73,0-.73.29,0,.64,2.56,3.45,3.13,4a.72.72,0,0,1,.29.54c0,.8-1.82,2.75-2.69,2.75-.44,0-1.18-1-1.44-1.44-.09-.09-.28-.38-.44-.38s-.2.22-.2.32V49.5c0,1.5.1,3,.1,4.51,0,.8-.35.86-1.41.86H6.62c-1,0-1.34-.06-1.34-.86,0-1.51.06-3,.06-4.51v-.9c0-.13,0-.29-.12-.29s-.36.42-.39.52c-.25.48-.93,1.75-1.47,1.75S0,48.89,0,48c0-.41.42-.89.8-1.37a24.34,24.34,0,0,0,3.52-6.37A4.93,4.93,0,0,0,4.7,39c0-.29-.22-.32-.44-.32Zm15.3,6.66c-.1.41-.58,2.17-.58,2.46s.13.35.39.35,1.95-.32,2.33-.41.74-.16.74-.55a13.73,13.73,0,0,0-.83-2.4,2.82,2.82,0,0,1-.29-.89c0-.93,3-1.67,3.81-1.67a.8.8,0,0,1,.86.51A45.59,45.59,0,0,1,27.49,47a38.26,38.26,0,0,1,1.6,5.89c0,.86-1.06,1.18-1.8,1.44a7.66,7.66,0,0,1-2.24.48c-.64,0-.76-.45-.89-1-.35-1.8-.42-2.21-.83-2.21a15.32,15.32,0,0,0-1.8.38c-2.4.54-4.8,1.09-7.23,1.5a1.16,1.16,0,0,0-.86.52c-.19.22-.45.54-.8.54s-.54-.77-.86-2.43c-.1-.42-.2-.9-.29-1.44a3.41,3.41,0,0,1-.13-.83c0-.55.26-.55,1.09-.64l.76-.1c1.12-.13,1-.29,1.51-2.43A177.22,177.22,0,0,0,18,27.83c.13-.95.1-1.5.64-1.5a39.37,39.37,0,0,1,4.26.87c.26.06.8.16.8.51s-.26.45-.51.57a1,1,0,0,0-.39.68C21.82,34.43,20.7,39.9,19.36,45.31Z"/><path class="cls-1" d="M47.13,26.75c.61.16,1.57.45,1.57.76,0,.16-.19.26-.32.32-.44.23-.57.74-.86,1.8-.06.29-.16.64-.29,1.05,0,.13-.06.26-.06.29a.55.55,0,0,0,.6.58,13.11,13.11,0,0,0,2.6-.84,2.83,2.83,0,0,1,.8-.22c.86,0,.86,3.17.86,4.13,0,.45-.13.64-.64.8-1.28.41-3.33.89-4.58,1.15S45.34,36.89,45,38c-1.34,3.87-4.1,10.82-6.14,14.15-.26.41-.45.76-1,.76S34,51.51,34,50.55a3,3,0,0,1,.64-1.24,50.76,50.76,0,0,0,5.25-10.53,2.09,2.09,0,0,0,.22-.74c0-.45-.35-.54-.7-.54-.64,0-1.41.09-2.11.09s-1.09-.09-1.28-.8a23.74,23.74,0,0,1-.35-3.39c0-.41.06-.73.57-.73.32,0,1.76.16,3.43.16s2.11,0,2.36-.8a34.29,34.29,0,0,0,.93-5.89c0-.19.07-.35.26-.35C43.58,25.79,46.56,26.59,47.13,26.75Zm-.8,20c1.32,1.57,3.75,1.92,5.67,1.92A15.53,15.53,0,0,0,56.83,48a1.22,1.22,0,0,1,.35-.06c.51,0,.58.7.58,1.72v1c0,1.77,0,2.15-.58,2.31a36.81,36.81,0,0,1-5.41.42c-2.27,0-5.37-.29-7.26-1.67-.51-.38-1.53-1.28-1.53-2,0-.54,1.18-2,1.56-2.43.26-.28.84-.92,1.22-.92C46,46.27,46.21,46.55,46.33,46.71ZM49.47,37a28.1,28.1,0,0,1,7.26,1c.45.12.8.25.8.76a11.1,11.1,0,0,1-1,3.52.66.66,0,0,1-.6.39,2.56,2.56,0,0,1-.8-.23,14.24,14.24,0,0,0-5.51-.86H48.51c-.74,0-1-.1-1-.67C47.55,37.18,48.19,37,49.47,37Z"/><path class="cls-1" d="M74,28.89c0,.19-.13.32-.26.48a4.65,4.65,0,0,0-.9,2.05c0,.35.26.51.58.51a27,27,0,0,0,5.21-1.41,3.68,3.68,0,0,1,.93-.25c.48,0,.58.41.8,1.44a15,15,0,0,1,.35,2.65c0,.67-.38.8-1.63,1.06-1.79.35-4.64.77-6.49,1-.48.06-1,.13-1.28.57A4.83,4.83,0,0,0,71,38.33c0,.26.19.38.44.38a.62.62,0,0,0,.32-.09,9.66,9.66,0,0,1,4.23-1A6.73,6.73,0,0,1,83,44.76c0,7.3-7.81,8.9-13.6,8.9-1.34,0-1.54-.26-1.82-1.51a19.33,19.33,0,0,1-.48-2.68.79.79,0,0,1,.8-.8A30.48,30.48,0,0,0,71,49c2.78,0,7.48-.76,7.48-4.35A2.39,2.39,0,0,0,76.09,42a9.78,9.78,0,0,0-6.33,2.82c-.32.35-.7.86-1,1.24a1.21,1.21,0,0,1-.9.64,5.7,5.7,0,0,1-2.65-1.12c-.52-.38-1-.7-1-1.31A3.18,3.18,0,0,1,64.7,43a24.66,24.66,0,0,0,1.83-5.22.58.58,0,0,0-.61-.57c-.16,0-2.46.29-3.62.29a.94.94,0,0,1-1-.8,16.83,16.83,0,0,1-.55-3.36c0-.48.13-.84.68-.84.25,0,2.49.23,4.86.23,1.44,0,1.73-.1,2.21-4.54.09-.77.16-1.35.7-1.35S74,28,74,28.89Z"/><path class="cls-1" d="M88.16,31.42c.29-1,.58-1.83.83-2.88.07-.29.16-.61.48-.61s4.07,1.66,4.64,1.92.77.45.77.64-.13.26-.29.32c-.83.32-1,.8-1.47,1.63A24.5,24.5,0,0,0,91.2,42c0,.67,0,1.34.32,1.34s.35-.22.45-.41c.32-.77.51-1.15.8-1.15.45,0,2.08,1.05,2.08,1.53s-1.79,4.1-1.79,6.27c0,.36.06.9.09,1.28a4,4,0,0,1,0,.58c0,.86-1,1.34-1.69,1.63a5.59,5.59,0,0,1-1.63.42c-.58,0-.87-.51-1.22-1.22a23.48,23.48,0,0,1-2-10.27A40.6,40.6,0,0,1,88.16,31.42Zm18-2.82c.16,0,.42.1.42.32a1.11,1.11,0,0,1-.26.58,5,5,0,0,0-.57,2.81c0,.45.22.77.7.77a20.1,20.1,0,0,0,2.37-.54,4.4,4.4,0,0,1,.83-.19c.48,0,.61.64.7,1.12a13,13,0,0,1,.39,2.65c0,.8-.29,1-3.81,1.44-.7.1-1.06.26-1.06,1.06,0,.41.2,4.77.23,5.21.06.77.35.84,1.15,1.25a18.42,18.42,0,0,1,3.42,2.43,1.9,1.9,0,0,1,.74,1.35c0,.89-1.57,2.94-2.53,2.94-.48,0-1-.41-1.63-1-.13-.13-.26-.23-.38-.36a1,1,0,0,0-.64-.38c-.29,0-.39.16-.61.51-1,1.6-3.23,2.11-5,2.11-2.92,0-5.83-1.44-5.83-4.73s2.69-4.58,5.51-4.58H101a.7.7,0,0,0,.77-.8c0-.73-.16-2.24-.16-2.75,0-1.09-.13-1.6-.83-1.6s-2.78.13-4.13.13h-.48a2.55,2.55,0,0,1-1.6-.32,16,16,0,0,1-.29-3.59c0-.41.1-.86.61-.86.19,0,1.19.1,1.47.13,1.31.13,2.63.19,3.91.19.51,0,.92-.19.92-.77s-.35-3.84-.35-4.54c0-.38.13-.54.51-.54C102.05,28,105.34,28.47,106.14,28.6ZM98.91,48c0,.64,1,1,1.7,1s1.44-.25,1.44-1.12c0-.64-1-.67-1.48-.67S98.91,47.29,98.91,48Z"/><path class="cls-1" d="M126.14,50.68c0,.93-2.3,3.39-3.2,3.39-.32,0-.54-.32-.7-.54a25.29,25.29,0,0,0-5.25-4.7.59.59,0,0,1-.32-.45c0-.61,2.31-3.11,3-3.11S126.14,49.88,126.14,50.68Z"/><path class="cls-1" d="M155.46,12.83a5,5,0,0,0-2.86.69c-2.48,1.55-12.46,6.69-14.94,6.69-1.86,0-4.27-4.34-4.27-5.7,0-.93.8-1.06,2.35-1.55,6.64-2.05,16.31-6.57,20.77-12,.43-.49.74-1,1.43-1s6.69,1.86,7.93,2.17c.44.12,1.24.37,1.24,1s-.8.87-1.49.93-.86.13-1.55.87c-.12.19-.37.37-.37.62,0,.5.56.56,1.37.56h5.14c2.3,0,4.59-.06,6.88-.06,2,0,2.73.49,4,2,.5.62,1.43,1.68,1.43,2.54,0,2.11-10.17,8.81-12.28,10.11-.55.31-1.36.81-1.36,1.61,0,1,1.43,1.24,5,2.29.5.13,1.37.44,1.37,1.06s-.81.87-1.43.87a2.51,2.51,0,0,0-2.05,1.73c0,.5.31.5,1.31.5h1.11c2.67,0,5.4-.06,8.06-.06a4.52,4.52,0,0,1,4.09,1.73c.5.5,1.8,1.92,1.8,2.73s-1.43,2.29-1.92,2.85a56.4,56.4,0,0,1-14.82,11.66A81.54,81.54,0,0,1,142,56.85c-.68.06-2.54.31-3.16.31-1.3,0-2-1-2.54-2.17a12.29,12.29,0,0,1-1.24-4.4c0-1.36.56-1.43,2.11-1.55,3.16-.31,10.35-1.43,15.37-2.54,2.54-.56,3.6-.81,3.6-1.68,0-.68-.75-1.36-1.18-1.79s-1-1-1-1.37c0-1.42,4.83-3.53,5.95-3.53.87,0,2.79,1.86,3.47,2.54a3.57,3.57,0,0,0,1.86,1.18c1.06,0,7.44-4.16,7.44-5.46,0-.49-1.18-.56-2.35-.56h-6.76a9.18,9.18,0,0,0-5.27,1.49c-2.3,1.24-12.65,6.26-14.76,6.26-1.67,0-4.46-4.15-4.46-5.82,0-1,1-1.18,1.74-1.37a71.3,71.3,0,0,0,14-5.7,62.72,62.72,0,0,0,6.69-4.09.86.86,0,0,0,.44-.68.37.37,0,0,0-.38-.38,12.44,12.44,0,0,0-2.6,1,106.08,106.08,0,0,1-18.85,6.19,17.07,17.07,0,0,1-3,.5c-2.11,0-3.66-4.46-3.66-6s.87-1.55,2.05-1.74c3.16-.56,6.57-1.24,9.67-2.11,2-.55,3.41-.87,3.41-1.73a2.32,2.32,0,0,0-.68-1.31c-.38-.3-1.25-1.17-1.25-1.67,0-1.24,5-3.53,6.14-3.53.81,0,2.85,1.92,3.54,2.6a2,2,0,0,0,1.55.81c.55,0,1-.37,1.79-.75,1-.49,6.58-3.53,6.58-4.46,0-.43-1.74-.5-2.92-.5Z"/><path class="cls-1" d="M225.89,5.33c1.67,0,3.28-.12,5-.12a6.54,6.54,0,0,1,6.2,5c0,.87-1.06,2.11-1.8,3-.62.68-.93,1.17-.93,1.42s.5.44,1.49.44c1.86,0,4.09-.13,5.95-.13s3.84.31,3.84,3.47c0,1.55-.12,3.47-.12,5.58V42.47c0,1.86.19,3.72.19,5.58,0,3.16-.38,6.2-3.54,7.75-2.48,1.24-6.57,1.42-9.42,1.42-3.29,0-4.09-.55-4.59-2.29a16.77,16.77,0,0,1-.56-4.34c0-1.05.06-2.48,1.49-2.48.81,0,1.8.19,3.29.19,3.72,0,4-.44,4-2.55V44.27c0-1.31-.69-1.86-1.93-1.86H213.12c-1.8,0-2.17,1-2.79,2.54A33.18,33.18,0,0,1,202,56.36a2.22,2.22,0,0,1-1.49.55c-2.17,0-6.14-4.34-6.14-5.95,0-.43.44-.74.75-1a25.61,25.61,0,0,0,5.52-6.57,24.29,24.29,0,0,0,2.66-12v-6.2c0-.31,0-.93-.49-.93a3.31,3.31,0,0,0-1.31.68,3.14,3.14,0,0,1-1.61.69c-1.61,0-5.45-4.53-5.45-5.89,0-.37.49-.75,1.48-1.43,5.15-3.41,12.53-10,15.32-16.55.31-.75.49-1.06,1.24-1.06.93,0,6.07,1.24,7.5,1.49.8.13,2.17.37,2.17,1.18,0,.5-.56.74-1.12.87-.31.06-.8.25-.8.62s.62.43.93.43Zm-5.95,18.72a1.21,1.21,0,0,0-1.18-1.17h-5.21a1.23,1.23,0,0,0-1.24,1.17v.13a1.25,1.25,0,0,0,1.24,1.24h5.21a1.24,1.24,0,0,0,1.18-1.24Zm0,9.49a1.19,1.19,0,0,0-1.18-1.18h-5.27c-1.06,0-1.18.81-1.18,1.61a.89.89,0,0,0,1,1h5.46a1.24,1.24,0,0,0,1.18-1.24ZM216,12.77a3,3,0,0,0-2.91,1.86c0,.44.31.44,1,.44h6.57a2.54,2.54,0,0,0,2.67-1.8c0-.44-.44-.5-1.24-.5Zm12.4,11.41a1.24,1.24,0,0,0,1.18,1.24h5.52a1.25,1.25,0,0,0,1.24-1.24v-.13a1.23,1.23,0,0,0-1.24-1.17h-5.52a1.17,1.17,0,0,0-1.18,1.17Zm0,9.55A1.2,1.2,0,0,0,229.61,35h5.52a1.25,1.25,0,0,0,1.24-1.24v-.19a1.2,1.2,0,0,0-1.24-1.18h-5.52a1.18,1.18,0,0,0-1.18,1.18Z"/><path class="cls-1" d="M272.88,9.67a1.79,1.79,0,0,0-.18.81c0,.8.43,1,1.18,1,1.11,0,2.23-.06,3.34-.06,2.3,0,3.29.74,3.29,3.1,0,1.55-.12,3-.12,4.58v.38c0,.24.06.62.37.62s.43-.5.56-.75A50.76,50.76,0,0,0,287.14,2c.13-.74.13-1.3,1-1.3.68,0,4.09.75,5.08.93,2,.37,3.41.5,3.41,1.37,0,.62-.62.8-1.05,1.05-.75.37-.75,1-.93,1.92a36.66,36.66,0,0,1-.87,3.72,1.78,1.78,0,0,0-.06.56c0,.93.8,1,1.42,1h5.77c2.11,0,4.21-.12,6.32-.12,2.91,0,3.16,1.42,3.16,4.77v2.79c0,8.43-.62,23.06-2.91,30.94-.81,2.73-1.74,5-4.46,6.26-2.48,1.18-5.83,1.24-8.56,1.24-1.24,0-2.67-.06-3.35-1.3a16.89,16.89,0,0,1-1.24-6.51c0-1.18.37-1.86,1.61-1.86a9.67,9.67,0,0,1,1.31.12,28.87,28.87,0,0,0,3.34.25c3.23,0,3.72-1.74,4.28-5.39A167.78,167.78,0,0,0,301.9,22.2c0-2.49-.43-2.73-3.29-2.73h-6.32c-1.49,0-2.05.12-2.73,1.49-1.49,3.16-2.23,4.4-3.41,4.4a11,11,0,0,1-4.28-1.43,1.29,1.29,0,0,0-.74-.31c-.68,0-.74.75-.74,1.24V41.79c0,2.85.18,5.7.18,8.55,0,1.43-.74,1.55-2.6,1.55h-3.54c-1.79,0-2.35-.12-2.35-1.67v-.56a1.7,1.7,0,0,0-1.86-1.74h-2a1.66,1.66,0,0,0-1.79,1.68c0,.8.06,1.61.06,2.42,0,1.42-.62,1.61-2.67,1.61h-3.9c-1.43,0-2.23-.13-2.23-1.49,0-2.91.18-5.77.18-8.68V20.65c0-2-.12-4-.12-6.08,0-2.91,1.61-3.16,3.35-3.16.74,0,1.42.06,2.17.06a1.55,1.55,0,0,0,1.61-1.24,71.45,71.45,0,0,0,1.36-7.81c.06-.62.06-1.55,1-1.55S273.5,2,274.62,2.23c.93.19,2.05.31,2.05,1.18s-.87,1-1.43,1.12a1.05,1.05,0,0,0-.87.86A38.18,38.18,0,0,1,272.88,9.67Zm-2.41,15.69a1.73,1.73,0,0,0,1.73-1.74V21.14a1.69,1.69,0,0,0-1.73-1.73h-2.42a1.73,1.73,0,0,0-1.74,1.73v2.48a1.7,1.7,0,0,0,1.74,1.74Zm-2.42,7.87A1.78,1.78,0,0,0,266.31,35v3.16a1.77,1.77,0,0,0,1.74,1.73h2.42a1.72,1.72,0,0,0,1.73-1.73V35a1.77,1.77,0,0,0-1.73-1.74Zm25.73-4.84c.12.25.25.62.43,1.12,1.06,2.54,3.1,7.63,3.1,8.87,0,1.55-4.9,3-6.2,3s-1.24-.68-1.61-1.73a106.85,106.85,0,0,0-4-10.48,6,6,0,0,1-.31-.93c0-1.37,5.52-3.16,6.33-3.16C292.54,25.05,292.66,25.73,293.78,28.39Z"/><path class="cls-1" d="M347.47,3.66c.74.18,1.43.43,1.43.8s-.44.62-1.18,1.12c-.37.25-.87,2.42-1.12,3.47a2.81,2.81,0,0,0-.12.5c0,.18-.06.43-.06.68s.31.87.74.87a6.62,6.62,0,0,0,1.36-.37,3.2,3.2,0,0,1,1.06-.25c.56,0,.74.31.87.93a61.5,61.5,0,0,1,.62,6.45c0,1.42-.87,1.67-5.71,2.54-2.17.37-2.23.8-3,2.79-1.06,2.85-2.24,5.64-3.48,8.43-1.61,3.66-3.28,7.38-5.2,10.91-.5.87-1.12,1.86-1.49,2.6a1.3,1.3,0,0,1-1.37.93c-2.1,0-8.05-2.6-8.05-4.21a10.51,10.51,0,0,1,1.3-2.48c1.24-2.11,8-14.45,8-16a1,1,0,0,0-1.06-.93c-.37,0-1.61.13-2,.19-.69.06-2,.19-2.73.19-1.3,0-1.86-.56-2.3-5.83-.06-.5-.18-1.61-.18-2.17,0-.87.49-1.12,1.24-1.12,1.05,0,2.54.13,3.9.13,5.64,0,6.45-.13,7.07-1.74a41.17,41.17,0,0,0,1.55-9.61c0-.5,0-1,.43-1C338.79,1.49,346.23,3.35,347.47,3.66Zm8.31,19.46c1.05.25,1.61.69,1.61,1.8,0,.62-.12,1.74-.12,2.85,0,3.11.24,6.14.43,9.18.06,1.49.37,1.86,1.8,2.42,1.73.68,9.54,4.34,9.54,6.07,0,1.37-3.47,6.45-5.45,6.45-.5,0-1.36-.56-2.73-1.61-.37-.31-.74-.62-1.18-.93a1.38,1.38,0,0,0-1-.37A1.36,1.36,0,0,0,357.33,50,11.35,11.35,0,0,1,355.22,53c-1.92,1.85-4.9,2.35-7.5,2.35-5.89,0-12-2.85-12-9.55,0-6.2,5.46-8.86,11-8.86h.5a1.37,1.37,0,0,0,1.49-1.49c0-1-.56-6.57-.75-8.43a24,24,0,0,1-.24-2.92c0-1.3.49-1.79,1.86-1.79A36.38,36.38,0,0,1,355.78,23.12ZM344.87,45.75a2.09,2.09,0,0,0,2.29,1.86c1.43,0,1.92-.74,1.92-2,0-.81-.06-1.49-1.86-1.49C346.17,44.08,344.87,44.51,344.87,45.75Zm21.32-30c1.43,1.3,5.33,5,5.33,6.32,0,1.92-5,6.2-6.57,6.2-.74,0-1.3-.93-1.73-1.61a39.67,39.67,0,0,0-7.75-8c-.5-.37-1.12-.8-1.12-1.3,0-1,4-6.08,5.71-6.08C361.23,11.28,365.2,14.82,366.19,15.75Z"/><path class="cls-1" d="M391.18,17.54c.62,0,2.05-.06,2.05-1.42V13.45c0-2.66-.13-5.33-.13-8,0-.44.07-.62.56-.62,1.24,0,5.08.24,6.7.31,2,.06,3.47.18,3.47.86a1.55,1.55,0,0,1-.37.69,2.73,2.73,0,0,0-.62,1.92V16a1.39,1.39,0,0,0,1.42,1.54H412c1.05,0,1.43-.86,1.43-1.79,0-1.74-.13-8.62-.25-10,0-.25-.06-.5-.06-.75a.85.85,0,0,1,.93-.8c.86,0,4.52.18,5.64.24,2.11.07,4.34.13,4.34.81,0,1.05-1,.12-1,3v3.47c0,1.12-.06,2.23-.06,3.41,0,1.8.38,2.35,2,2.35h.74c1.55-.06,6.57-.18,7.13-.18,1.37,0,1.67.56,1.67,3.47v2.73c0,2-.12,3-2,3-2.23,0-4.53-.13-6.76-.13h-.74c-1.8,0-2.17.31-2.17,2.17-.06,10.54-2.05,17.55-11.16,23.75-1.18.8-5.58,3.41-6.88,3.41-.81,0-2.67-1.8-3.79-3.1-1-1-2.48-2.48-2.48-3.35s1.12-1.18,2.92-1.86c9.55-4,11.9-9.18,11.9-19.16,0-1-.31-1.86-1.42-1.86h-7.57a1.44,1.44,0,0,0-1.42,1.43v3.28c0,2.54.06,6,.06,6.82,0,2.17-.06,2.61-2.3,2.61h-4.34c-2.78,0-3.16-.19-3.16-1.55,0-2.61.13-5.15.13-7.69V28a1.59,1.59,0,0,0-1.61-1.55h-1.24c-2.42,0-4.84.19-6.45.19-1.86,0-1.92-1.62-1.92-3.91V20.4c0-2.54.24-3,1.67-3s4.34.18,6.7.18Z"/><path class="cls-1" d="M461.8,31.62c.68.37,1.18.87,1.18,1.24s-.38.49-.62.62a4.83,4.83,0,0,0-1.74,1.61c-1.55,1.86-9.61,11.1-11.53,11.1-1.24,0-6.2-4.53-6.2-6.08,0-.62,1.05-1.36,1.55-1.73A31.62,31.62,0,0,0,453,29c.24-.43.55-1.05,1.17-1.05C455,28,459.5,30.38,461.8,31.62Zm2-15.75c1.62,0,1.74-1.36,1.74-2.35V13a57.79,57.79,0,0,0-.31-6.57c0-.25-.06-.56-.06-.87,0-.75.62-.87,1.49-.87s7.37.74,8.49.93c.37.06,1.05.19,1.05.68s-.37.75-.62,1a2.5,2.5,0,0,0-.74,2.05v.81c0,.93-.06,1.86-.06,2.85v.56c0,1,.18,2.35,1.67,2.35h8c2.85,0,6.45-.18,8.8-.18,1.49,0,1.74.74,1.74,3v3.16c0,2.3-.25,3.1-2,3.1-2.85,0-5.7-.06-8.55-.06h-7.75a1.88,1.88,0,0,0-1.92,1.86V39.49c0,1.24.06,2.54.06,3.85,0,3.22-.31,6.32-2.48,8s-7.07,2.92-9.67,2.92c-1.12,0-1.43-.37-2.36-2.11-.56-1.12-2.1-4.59-2.1-5.7,0-.93,1.36-1,2-1.06,4.84-.25,5.27-.87,5.27-5.45V26.78a1.88,1.88,0,0,0-1.92-1.86h-8.25c-2.72,0-5.39.13-8.12.13-1.67,0-1.92-1.12-1.92-3.23v-3c0-2.61.31-3.1,1.74-3.1.8,0,5.58.18,8.3.18Zm27.28,16.86c1.18,1.12,5.71,5.46,5.71,6.89,0,1.61-4.78,6.2-6.14,6.2-.68,0-1.61-1.18-2.92-2.86a55.67,55.67,0,0,0-7.87-8c-.43-.38-1-.81-1-1.37,0-1.05,1.61-2.79,2.36-3.53,1.36-1.49,2.1-2.3,3.1-2.3C486.16,27.77,489.82,31.43,491.12,32.73ZM499,7.32A6.45,6.45,0,1,1,492.55.87,6.46,6.46,0,0,1,499,7.32Zm-9.74,0a3.26,3.26,0,0,0,3.29,3.28,3.29,3.29,0,1,0-3.29-3.28Z"/><path class="cls-1" d="M547.11,23.37c3.66,0,7.62-.25,8.18-.25,1.61,0,1.86.69,1.86,2.48v3c0,3.41-.06,4.46-2,4.46-2.42,0-5.27-.18-8-.18H518.59c-2.73,0-5.64.18-7.93.18-2.11,0-2.11-1.17-2.11-4.46V25.73c0-1.86.18-2.61,1.8-2.61.86,0,4.34.25,8.24.25Z"/><path class="cls-1" d="M591,46.87c0,2.05.06,4.09.06,6.2,0,3-.19,3.22-4.22,3.22h-2.79c-2.48,0-3.22-.31-3.22-1.92,0-2.48.12-4.9.12-7.38V11.22c0-2.54-.12-5.76-.12-7.69,0-.8.12-1.17,1-1.17a90.7,90.7,0,0,1,9.55,1.24.84.84,0,0,1,.68.74,1.08,1.08,0,0,1-.37.74A3.25,3.25,0,0,0,591,7.32v12c0,.31.06.87.74.87.37,0,.74-.25,1-.25a6.39,6.39,0,0,1,2.3,1c2,1.24,4.52,3.22,5.33,3.84a71.76,71.76,0,0,1,5.7,5,1.59,1.59,0,0,1,.44,1c0,1.24-4.53,6.26-6,6.26-.56,0-1.18-.62-1.55-1-1.06-1-6.14-5.58-7.13-5.58S591,31.37,591,32Z"/><path class="cls-1" d="M621.82,32.38c0-1,.36-1,3.88-1.22.64,0,1.37-.06,2.27-.12,4-.26,13.31-1.32,17.21-2.05a1.31,1.31,0,0,1,.32,0c.58,0,.67.44.8,1.05a22.61,22.61,0,0,1,.42,3.55c0,.61-.35.61-1.73.64a13,13,0,0,0-4.58.58,10,10,0,0,0-6.62,9.34c0,3,1.6,3.87,4.42,3.87.8,0,1.85-.09,2.3-.09.61,0,.83.09.83.7a14.58,14.58,0,0,1-.54,3.75c-.26.64-.7.73-1.38.73-5.92,0-10.88-1.54-10.88-8.45a13.39,13.39,0,0,1,2.76-8.16.92.92,0,0,0,.19-.48c0-.28-.23-.48-.58-.48a12.49,12.49,0,0,0-1.73.29c-1.69.32-3.9.8-5.56,1.28a2.34,2.34,0,0,1-.45.07c-.67,0-.9-1.44-1.06-2.44A17.24,17.24,0,0,1,621.82,32.38Zm21.25,5.31c.42.48,2.18,2.66,2.18,3.14,0,.64-1.73,1.63-2,1.63-.16,0-.22-.1-.64-.74-.61-.93-1.25-1.76-1.95-2.65a.54.54,0,0,1-.16-.36c0-.44,1.79-1.4,2.14-1.4C642.75,37.31,642.94,37.53,643.07,37.69Zm6.37,1.18c0,.64-1.7,1.67-2.05,1.67s-.38-.29-.48-.45a24.28,24.28,0,0,0-2-2.78,1.06,1.06,0,0,1-.25-.48c0-.42,1.76-1.41,2.14-1.41A12.17,12.17,0,0,1,649.44,38.87Z"/><path class="cls-1" d="M46.54,127.76c0,3.66.13,7.32.13,11,0,1.17-.62,1.3-2.61,1.3h-4c-1.79,0-2.48-.13-2.48-1.3,0-3.66.19-7.32.19-11V115.24a4.53,4.53,0,0,0-1.18-3.35c-1.24-1.3-3.47-3.91-4.59-5.33-.24-.31-.55-.74-1-.74-.68,0-.8.8-.93,1.3a55.25,55.25,0,0,1-11.47,23.43c-1.48,1.8-8.61,9.3-10.66,9.3-1.49,0-5.39-5-5.39-6.14,0-.62.55-1,1.42-1.48a2.26,2.26,0,0,1,.44-.31c5.45-3.54,10.41-10.3,10.41-11.23,0-.74-.56-1.11-3.28-3.22a1.56,1.56,0,0,1-.81-1.3c0-1.18,3.16-6.51,4.34-6.51.68,0,2.42,1.36,3,1.8a1.83,1.83,0,0,0,.94.37c.8,0,1.05-1.06,1.42-2.17a36.23,36.23,0,0,0,1.24-5.7.84.84,0,0,0,.06-.38c0-.49-.55-.55-1.42-.55h-3c-1.36,0-2,.24-2.54,1.55a85,85,0,0,1-6.39,11.59c-.37.62-1,1.73-1.86,1.73-1.24,0-5.45-3.72-5.45-5,0-.74,1.24-2.42,2.1-3.59.25-.37.5-.69.62-.87a49.27,49.27,0,0,0,2.79-5.27,63.39,63.39,0,0,0,3.79-9.8,67.22,67.22,0,0,0,2-8.61c0-.44.19-.87.68-.87,1.06,0,6.82,1.8,8.25,2.23.43.12.74.25.74.74A1.33,1.33,0,0,1,21,88c-.75.25-.87.62-1.24,2-.19.62-.44,1.49-.81,2.67a3.21,3.21,0,0,0-.18.81c0,.93.93,1,1.61,1h1.73c1.49,0,2.92-.06,4.41-.06a5.66,5.66,0,0,1,3.53,1.36,1.53,1.53,0,0,0,1,.5,2,2,0,0,0,1-.44,3.14,3.14,0,0,1,1.74-.87c.68,0,.93.38,1.8,1.68.18.31.43.62.68,1s.62.75,1,.75.56-.38.56-1.18V91.12a56,56,0,0,0-.19-6,2.43,2.43,0,0,1-.06-.68c0-.62.37-.69,1.49-.69s6.39.19,7.5.25c.44,0,1.55.13,1.55.75,0,.43-.37.62-.62.8a1.78,1.78,0,0,0-.87,1.74c-.06,2.23-.06,4.46-.06,6.76v13.39a3,3,0,0,0,1,2.54,67.7,67.7,0,0,0,9.55,6.57c.62.37,1.36.68,1.36,1.3,0,1.06-4.09,6.82-5.76,6.82-.68,0-2.91-1.42-4.09-2.17a5.08,5.08,0,0,0-.56-.37,1.37,1.37,0,0,0-.81-.37c-.68,0-.68.37-.68,1.55Z"/><path class="cls-1" d="M76.24,137.31c-1.3,0-1.67.56-1.8,1.73-.12,1-1,1.12-2.66,1.12H68.06c-2.3,0-3-.12-3-1.67,0-3,.19-6.08.19-9.12V95.59c0-2.17-.19-4.41-.19-6.64,0-2.54,1.12-3.41,3.54-3.41,2.1,0,4.21.13,6.32.13h33c2.11,0,4.16-.13,6.26-.13s3.6.37,3.6,3.41c0,2.23-.13,4.47-.13,6.64v33.78c0,3,.19,6,.19,9,0,1.55-.62,1.74-2.73,1.74h-3.9c-2.11,0-2.73-.12-2.85-1.49-.13-1-.75-1.36-1.68-1.36Zm-1.92-9.92a1.78,1.78,0,0,0,1.74,1.92h30.75a1.72,1.72,0,0,0,1.73-1.73V95.28a1.73,1.73,0,0,0-1.73-1.74H76.06a1.73,1.73,0,0,0-1.74,1.74ZM97,102.78a1.5,1.5,0,0,0-1.49,1.48v1.43a.69.69,0,0,0,.68.68h.93c2,0,3.91-.12,5.83-.12,1.43,0,1.55.62,1.55,2.42v2.48c0,.86-.06,1.61-.68,1.92a.42.42,0,0,0-.31.43c0,.13.06.25.25.5.56.68,2.6,3.41,2.6,4.09a1.73,1.73,0,0,1-.56,1c-.12.13-.24.25-.24.38s.12.31.49.37c.81.12.87,1,.87,2.23v2.6c0,1.62-.12,2.42-1.49,2.42-2.11,0-4.28-.12-6.38-.12H84c-2.17,0-4.28.12-6.45.12-1.36,0-1.48-.8-1.48-2.48v-1.42c0-2.79.06-3.41,1.61-3.41,2.1,0,4.21.12,6.32.12h.74A1.79,1.79,0,0,0,86.66,118v-3a1.75,1.75,0,0,0-1.74-1.92c-1.67,0-3.35.12-5,.12-.74,0-1.55-.06-1.55-2.17V108.6c0-1.73.19-2.35,1.61-2.35,1.67,0,3.35.12,5.08.12h.5c.81,0,1.12-.49,1.12-1.24v-1.36a1.07,1.07,0,0,0-1-1H84.3c-2.17,0-4.28.18-6.45.18-1.3,0-1.42-.74-1.42-2.17V98.07c0-1.68.12-2.36,1.55-2.36,2.1,0,4.21.12,6.32.12H98.62c2.17,0,4.34-.12,6.45-.12,1.36,0,1.49.81,1.49,2.36v2.47c0,1.68-.13,2.42-1.49,2.42-2.17,0-4.28-.18-6.45-.18Zm-.81,10.35a.69.69,0,0,0-.68.68v4.65A1.51,1.51,0,0,0,97,120h.37a.73.73,0,0,0,.81-.74,10.3,10.3,0,0,0-1.74-2.67,1,1,0,0,1-.37-.74c0-.62,1.43-1.62,1.92-1.92.19-.13.31-.25.31-.44s-.25-.31-.43-.31Z"/><path class="cls-1" d="M158.51,87.77V94c0,16.67,8.37,29.38,22.07,37.38.56.31,1.12.68,1.12,1.3,0,2.42-4,7.07-6.14,7.07s-9.48-7-11.09-8.68a47,47,0,0,1-9.37-13.89c-.18-.43-.49-1-1-1s-.74.56-.87,1c-2.54,6.26-7.56,12.28-12.64,16.68-1.49,1.3-7,5.83-8.68,5.83-2.17,0-6.08-4.84-6.08-6.88,0-.69.62-1.06,1.3-1.43A46.17,46.17,0,0,0,142,118.15c5.27-7.19,7-15.93,7-24.73,0-2.48-.25-5.27-.25-7.38,0-1.37.49-1.92,1.92-1.92,1.12,0,5.21.31,6.45.43,1.92.19,3.16.12,3.16,1,0,.56-.62.81-1.05,1A1.57,1.57,0,0,0,158.51,87.77Z"/><path class="cls-1" d="M219.58,119c-1.48,0-2.1.31-2.54,1.8a25.49,25.49,0,0,1-5.83,10,32.72,32.72,0,0,1-14.87,8.87,6.69,6.69,0,0,1-1.86.3c-2.73,0-5.46-5.45-5.46-7,0-.93.87-1.05,1.61-1.24,5.89-1.3,11.91-3.84,15.44-8.93a8.86,8.86,0,0,0,1.42-2.85c0-.81-.8-1-1.73-1H203c-2.29,0-4.59.18-6.88.18-1.55,0-1.68-.62-1.68-2.6v-2.48c0-1.36-.8-1.86-2-1.86h-.31c-1.8,0-2.85-.06-2.85-2,0-1.24.18-2.79.18-4.28v-1.55c0-1.92-.12-4.09-.12-5,0-2.61,2.11-2.79,4.15-2.79.87,0,1.86.06,2.17.06.62,0,1.24-.25,1.24-.93,0-.93-2.85-5.77-3.47-6.82a1.68,1.68,0,0,1-.5-1c0-1.43,5.52-3.41,6.51-3.41s2,1.73,3.29,4.09c.12.18.25.49.43.8.75,1.43,2,3.79,2,4.72s-1.37,1.42-2.05,1.73c-.25.13-.68.25-.68.62s.56.37.81.37h21.38c.19,0,.69,0,.69-.37A.36.36,0,0,0,225,96c-.44-.31-1.12-.81-1.12-1.36a2.69,2.69,0,0,1,.56-1.12,60,60,0,0,0,4.84-8.68c.24-.56.43-1.18,1.11-1.18a20.35,20.35,0,0,1,3.91,1.49c.31.12.49.25.68.31,3.16,1.43,4.15,1.74,4.15,2.54,0,.5-.43.62-.86.68-.63,0-.94.07-1.18.56a48.09,48.09,0,0,1-2.67,5,3.36,3.36,0,0,0-.56,1.49c0,.68.75,1,1.31,1,.93,0,1.79-.12,2.66-.12,2,0,3.91.31,3.91,2.73,0,1-.13,3.16-.13,5.08v1.55c0,1.49.19,3,.19,4.28,0,1.86-1,1.92-2.54,1.92h-.44c-.68,0-1.55.06-1.55,1v.31a15.08,15.08,0,0,1,.06,1.67c0,5.15-.92,15.57-3.28,20.09S227.21,140,221.44,140c-4.52,0-5.39-.19-5.39-6.95,0-1.86.37-2.23,1.24-2.23,1.67,0,3.29.25,5,.25,3.29,0,3.72-.43,4.34-2.23a29.51,29.51,0,0,0,1.43-8.37c0-1.37-.38-1.55-4-1.55Zm1.18-8.12h7.69c3.78,0,4.34-.07,4.34-4.16a1.73,1.73,0,0,0-1.92-1.8H200.24a1.79,1.79,0,0,0-2,1.74c0,3.22.24,4.15,2.41,4.15h.13c.74,0,1.49.07,2.23.07h4.65a1.75,1.75,0,0,0,1.92-1.74c0-.62-.06-1.24-.06-1.8,0-.93.37-1.18,1.3-1.18s5.52.25,6.7.31,2.85.19,2.85.94c0,.49-.75.8-1.06,1a.74.74,0,0,0-.49.8C218.78,110.84,220.08,110.84,220.76,110.84ZM214.87,83.5c1.06,0,1.61.55,3.47,5.33a26.25,26.25,0,0,1,1.49,4.4c0,1.8-6,2.85-6.63,2.85A1.41,1.41,0,0,1,211.71,95a50.91,50.91,0,0,0-2.91-7.26,2.58,2.58,0,0,1-.38-1.11C208.42,85,214.19,83.5,214.87,83.5Z"/><path class="cls-1" d="M270.05,128.26c0-.62-.18-.87-.86-.87h-.63c-1.67,0-3.34.06-5,.06-1.11,0-1.17-.74-1.17-2.11V124.1c0-2,.06-2.35,1.61-2.35.93,0,2.35.12,4.58.12h.69c.55,0,.8-.31.8-.87v-.18c0-.31,0-.87-.68-.87-1.18,0-2.35.19-3.53.19-1.74,0-2.61-.56-2.61-2.73,0-1.43.07-2.85.07-4.28v-5.58c0-1.43-.07-2.85-.07-4.28,0-1.86.62-2.66,2.54-2.66,1.18,0,2.42.12,3.6.12.5,0,.68-.31.68-.8V99.8c0-.56-.18-.87-.74-.87-1.68,0-3.35.13-5,.13-1.12,0-1.37-.5-1.37-1.49,0-.25-.06-.68-.37-.68s-.68,1.3-1.24,2.73l-.56,1.48a1.52,1.52,0,0,0-.12.5c0,.49.5.62.81.74a.67.67,0,0,1,.31.56c0,.37-.31.56-.56.81-.56.49-.62,1.86-.62,3.34v24.43c0,2.42.12,4.84.12,7.32,0,1.24-.56,1.36-2.29,1.36h-2.92c-1.73,0-2.35-.12-2.35-1.36,0-2.42.12-4.9.12-7.32V116.85c0-.93,0-1.24-.8-1.74a8.06,8.06,0,0,1-2.48-2.85,10.5,10.5,0,0,0-.69-1.05,4.91,4.91,0,0,1-1.11-2.67,3.27,3.27,0,0,1,.68-1.86,56.53,56.53,0,0,0,7.44-20.58c.12-.74.25-1.86,1.24-1.86a24.41,24.41,0,0,1,3.41.87c.43.12,2.54.74,2.85.74a1.78,1.78,0,0,0,1.24-.56,1.23,1.23,0,0,1,.62-.18h.62c4.4,0,10.48-.25,14.69-1.43a1.58,1.58,0,0,1,.5-.12c.68,0,1.18.93,1.74,2.11.18.31.37.68.55,1,.07.12.13.25.25.43a11.67,11.67,0,0,1,1.12,2.73.75.75,0,0,1-.75.68,2.55,2.55,0,0,1-1-.31,1.51,1.51,0,0,0-.74-.24l-4,.62c-.81.12-.93.31-.93.93v.8c0,.56.25.81.8.81h.44c1.86,0,3.66-.13,5.52-.13,1.24,0,1.36.62,1.36,1.8,0,.62.06.87.5.87h.18c.75,0,1.74.12,1.74-1.49V91.56c0-2.36-.13-5.89-.13-6.51,0-1,.62-1.06,1.24-1.06.81,0,6.27.31,6.95.44.49.06.93.24.93.8s-.25.62-.62.81a1.65,1.65,0,0,0-.81,1.73V93.6c0,1.55.62,2.17,2.17,2.17.93,0,1.8-.06,2.73-.06,3.28,0,4,1.61,4,4.59v4.46c0,6.26-.25,25.23-2.17,30.38-1.49,3.84-4.15,4.77-8.06,4.77-2.6,0-3.29,0-3.66-2.72-.06-.38-.18-1.12-.68-1.12s-.93,1.05-1.12,1.49c-1.3,2.48-1.55,2.54-2.1,2.54-1.31,0-5.83-1.55-5.83-3.1,0-.12.06-.31.06-.43a.73.73,0,0,0-.81-.69c-.18,0-.49.07-.74.07-4.46.62-9.05.93-13.52,1.36-.8.06-1.11.12-1.42.87-.19.49-.31.68-.87.68s-.87-.5-1.18-1.8c-.24-1.11-.62-2.6-1.05-4.15a8,8,0,0,1-.19-1.18c0-.87.62-.93,3.72-1,.93,0,1.68-.06,2.85-.13,1.43-.06,2.11-.18,2.11-1.3Zm0-36.15c0-.55-.12-.86-.68-.86s-1.12.06-1.67.06c-1.37,0-1.62-.5-2.24-2.11-.06-.31-.24-.68-.68-.68s-.55.68-.74,1.8c-.12.43-.19.93-.31,1.42a4,4,0,0,0-.19.81c0,.49.19.62,5.65.62.68,0,.86-.19.86-.87Zm.44,15.87a.73.73,0,0,0,.74-.8v-.87a.77.77,0,0,0-.74-.81h-.56a.83.83,0,0,0-.81.81v.87a.78.78,0,0,0,.81.8Zm-.56,4.53a.82.82,0,0,0-.81.81v1.11a.77.77,0,0,0,.81.75h.56a.72.72,0,0,0,.74-.75v-1.11a.77.77,0,0,0-.74-.81Zm7.93-4.53a.73.73,0,0,0,.75-.8v-.87a.78.78,0,0,0-.75-.81h-.62a.82.82,0,0,0-.8.81v.87a.78.78,0,0,0,.8.8Zm-.62,4.53a.82.82,0,0,0-.8.81v1.11a.77.77,0,0,0,.8.75h.62a.72.72,0,0,0,.75-.75v-1.11a.77.77,0,0,0-.75-.81Zm1.24-13.58c-.49,0-.8.19-.8.81v.12c0,.5.18.87.74.87,1.18,0,2.3-.12,3.47-.12,1.74,0,2.67.56,2.67,2.66,0,1.43-.12,2.85-.12,4.28v5.58c0,1.43.12,2.85.12,4.28,0,1.86-.68,2.73-2.6,2.73-1.18,0-2.42-.19-3.54-.19-.56,0-.74.37-.74.81V121c0,.56.25.87.8.87h.62c1.68,0,3.29-.12,5-.12,1.06,0,1.18.49,1.24,1.42,0,.19.07.56.31.56.5,0,.93-2.85,1.18-4.15,0-.25.06-.44.06-.56.44-3.66,1.24-10.6,1.24-14.2,0-.37-.12-.8-.62-.8-.18,0-.37.06-.55.06-1.12,0-1.37-.43-1.37-2.11v-2c0-.93,0-1-6.63-1Zm0,28.46c-.55,0-.8.25-.8.87v.8c0,.5.25.87,1,.87.19,0,2.36-.25,2.73-.25a4.94,4.94,0,0,1,.93-.12.78.78,0,0,1,.8.43.66.66,0,0,0,.5.13c.74,0,1-1.37,1-1.74,0-.93-.62-1-4.4-1Zm17-21a99.59,99.59,0,0,1-3.41,23.13,2.56,2.56,0,0,0-.18.93c0,.68.62.74,1.73.74,1.74,0,2.05-.18,2.55-4,.68-5,1-15.68,1-20.83,0-1.18-.06-2.35-1-2.35S295.6,104.7,295.53,106.37Z"/><path class="cls-1" d="M328,110.23c.57.25,1,.48,1,.77s-.35.35-.57.41a2.05,2.05,0,0,0-.87,1.22c0,.25.16.35.39.35a14.93,14.93,0,0,0,2.59-.7,2.66,2.66,0,0,1,.89-.23c.71,0,.87.67,1,1.25a14.09,14.09,0,0,1,.39,2.59c0,.48-.29.61-2,.93s-3.94.7-5.92.93c-1,.13-1.09.83-1.09.86s.16.22.29.22a1.08,1.08,0,0,0,.29-.09,8,8,0,0,1,2.72-.48,4.71,4.71,0,0,1,2.3.51,3.21,3.21,0,0,1,1.54,1.82.58.58,0,0,0,.54.39,17.89,17.89,0,0,0,3-1.51l.64-.35a1.24,1.24,0,0,1,.41-.16c.8,0,1.92,3.68,1.92,4.42,0,.41-.32.51-1,.73-1.53.58-2.49,1-4,1.6-.77.32-.9.61-.9,1.48,0,.38,0,1.15,0,1.85,0,2.05,0,2.08-1.82,2.08-2.21,0-2.88-.09-2.88-1.09a8.48,8.48,0,0,1,.06-.86V129a.41.41,0,0,0-.38-.45c-.32,0-1.92,1-1.92,2.15,0,1.6,2.72,1.6,3.84,1.6a27.38,27.38,0,0,0,6-.8,3.56,3.56,0,0,1,.8-.1c.77,0,.8,1.15.8,3.2,0,1.22-.06,1.54-1,1.73a44.94,44.94,0,0,1-6.21.38,12,12,0,0,1-5.6-1,5.2,5.2,0,0,1-3.26-5c0-3,2.27-4.74,4.61-6.11.54-.32,1.18-.68,1.75-1,.29-.13.55-.29.55-.64a.92.92,0,0,0-1-.84,9.83,9.83,0,0,0-4.39,1.86,14.52,14.52,0,0,0-3.39,4.54.51.51,0,0,1-.48.36c-.7,0-4-1.8-4-2.56,0-.26.2-.45.58-.87,1.31-1.5,3.39-4.83,4.42-6.27a.7.7,0,0,0,.19-.45.47.47,0,0,0-.48-.45c-.39,0-.83,0-1.25,0-1.09,0-1.18-.1-1.18-2.5,0-2,.12-2,1.15-2,.7,0,1.85.06,2.91.06,1.57,0,1.86-.13,2.11-.58a16,16,0,0,0,1.51-4c.09-.48.16-.71.48-.71A37.73,37.73,0,0,1,328,110.23Z"/><path class="cls-1" d="M380.4,103.4a1.43,1.43,0,0,0,1.49,1.48h2.23c2,0,3.91-.06,5.89-.06a4,4,0,0,1,3.54,1.3c.8.93,2.23,2.36,2.23,3.6,0,2.85-8,11.59-10.23,13.76-.31.31-.74.69-.74,1.12,0,.87,1.3,1.24,2.23,1.61a76.5,76.5,0,0,0,15.19,4.28c1.3.25,1.86.5,1.86,2,0,2-1.86,7.25-4.22,7.25-1.73,0-10-2.6-12-3.35a68,68,0,0,1-10.17-4.52,4.1,4.1,0,0,0-1.74-.56,4.91,4.91,0,0,0-2.17.8,2.68,2.68,0,0,1-.43.25,68.25,68.25,0,0,1-13.27,5.39,65.56,65.56,0,0,1-8.24,2c-2.3,0-3.79-5.14-3.79-6.94s.87-1.74,4.22-2.48a85.56,85.56,0,0,0,14.14-4.4c.55-.19,1.11-.5,1.11-1.18a1.3,1.3,0,0,0-.62-1,48.19,48.19,0,0,1-3.28-3.72c-.62-.81-3.35-4.72-3.35-5.52,0-.31.43-.5.68-.62s.81-.31.81-.62-.56-.37-.75-.37c-2.23,0-4.46.12-6.69.12-1.62,0-1.74-.68-1.74-2.54V107.3c0-1.92.12-2.54,1.8-2.54,2.79,0,5.58.12,8.37.12h6.51a1.69,1.69,0,0,0,1.73-1.73v-2a1.69,1.69,0,0,0-1.73-1.74H358c-2.72,0-5.39.12-8.12.12-1.49,0-1.61-.74-1.61-2.54V93.54c0-2,.12-2.67,1.67-2.67,2.67,0,5.4.19,8.06.19h11.29a1.83,1.83,0,0,0,1.79-1.92c0-1.37-.24-3.29-.24-4.22s.55-.93,1.24-.93,7.5.37,8.49.44c.56.06,1.43.18,1.43.86,0,.5-.44.75-.87,1.06-.68.49-.75,1.36-.75,2.91a1.74,1.74,0,0,0,1.68,1.8h11.34c2.73,0,5.4-.19,8.12-.19,1.49,0,1.62.75,1.62,2.61V97c0,1.86-.13,2.54-1.62,2.54-2.72,0-5.45-.12-8.12-.12H382.14a1.7,1.7,0,0,0-1.74,1.74ZM372,113c-.56,0-1.11.06-1.11.74s3.53,5.64,5.2,5.64c1,0,3.54-2.85,4.28-3.72.44-.43,1.37-1.42,1.37-2s-.69-.68-1.93-.68Z"/><path class="cls-1" d="M424.05,127.7c0,1.55.13,3.1.13,4.59,0,6.69-4.71,7.5-10.17,7.5-2.67,0-3-2.17-3-6.63,0-1.06.19-2.24,1.49-2.24.44,0,1.12.07,1.61.07,1.62,0,1.62-.56,1.62-3.17v-4.21c0-.87-.38-1.61-1.37-1.61a1.69,1.69,0,0,0-1.73,1,1.3,1.3,0,0,1-1,.68c-.62,0-.74-1-.86-1.55-.19-1-1.37-6.82-1.37-7.32,0-.86,1-1,1.74-1.17,3.35-.81,4.59-1,4.59-3.41v-6.45a1.72,1.72,0,0,0-1.68-1.68c-.74,0-1.49.07-2.23.07-1.36,0-1.55-.62-1.55-2.17V96.08c0-1.61.12-2.29,1.49-2.29.68,0,1.8.12,2.35.12,1.24,0,1.62-1,1.62-2.11V89c0-1.79-.19-3.78-.19-4.15,0-.93.56-1,1.3-1,1.37,0,5,.18,6.57.31.75.06,1.92.06,1.92,1,0,.56-.3.74-.8,1s-.5,1.06-.5,2.17v4a1.61,1.61,0,0,0,1.74,1.49c.56,0,1.43-.12,2-.12,1.42,0,1.55.68,1.55,2.54V99.8c0,1.74-.13,2.36-1.62,2.36-.55,0-1.42-.07-2-.07a1.69,1.69,0,0,0-1.74,1.68v3.72c0,.74.19,1.61,1.12,1.61a11.42,11.42,0,0,0,1.61-.62,1.19,1.19,0,0,1,.5-.12c1,0,1.11,1,1.24,1.79a29.91,29.91,0,0,1,.43,4c0,1.86-.68,2-3.6,3.41-1.17.56-1.3,1.24-1.3,2.48Zm36.09-26.84a.76.76,0,0,0,.8.74c.25,0,.5-.06.81-.06,1.61,0,1.61.49,1.61,3v1.43c0,1.8-.13,2.42-1.36,2.42-2.17,0-4.34-.13-6.51-.13h-8.75a.73.73,0,0,0-.74.81.77.77,0,0,0,.74.8h10.42c2.36,0,4.77-.12,7.19-.12,1.24,0,1.43.62,1.43,2.11v2.6c0,1.55-.19,2.11-1.49,2.11-2.42,0-4.77-.12-7.13-.12H445.07a.77.77,0,0,0-.74.8.75.75,0,0,0,.68.75h6.57c1.67,0,3.41-.07,5.08-.07a4.11,4.11,0,0,1,3.72,1.62c.56.68,1.55,1.92,1.55,2.79,0,1.3-2.41,4.83-3.22,5.95a2.75,2.75,0,0,0-.74,1.61c0,.87,1.48,1.3,2.23,1.49,1.11.31,3.22.87,4.4,1,.8.13,1,.25,1,.87,0,2.23-2.91,6.63-4.59,6.63-1.36,0-6.63-2.23-7.93-2.91a5.7,5.7,0,0,0-2.61-.87,5.9,5.9,0,0,0-2.85,1.06c-1.11.61-5.76,2.78-6.88,2.78-.68,0-1.12-.61-1.43-1.11s-1.36-2.11-1.61-2.61c-.37-.8-.68-1.61-1.61-1.61-.43,0-.68.31-.93.62-.8,1.06-2.91,4.1-4.21,4.1-1.49,0-6.21-3.6-6.21-4.84a2,2,0,0,1,.75-1.3,47.76,47.76,0,0,0,6.88-9.55c.62-1.12,2.48-5,2.48-6.14,0-.8-.74-1-1.43-1s-1.48.06-2.23.06c-1.36,0-1.49-.74-1.49-2.48v-2.35c0-1.43.25-2,1.49-2s2.61.12,3.91.12h1.05a.79.79,0,0,0,.87-.8.72.72,0,0,0-.81-.81c-1.36,0-2.66.13-4,.13s-1.37-.69-1.37-3V104c0-2.17.37-2.3,1.05-2.42a1,1,0,0,0,.81-.93,30.93,30.93,0,0,0-1.73-4.59c-.25-.49-.25-.56-.25-.8,0-1.06,5.39-1.68,6.32-1.68s1.36.31,2.36,3a16.83,16.83,0,0,1,.8,3.22c0,.75-1.11,1.06-1.67,1.18-.25.06-.62.19-.62.44s.68.24.87.24H449c2,0,2.91-.8,5.7-8.49.37-1.12.5-1.49,1-1.49s5.21,1.55,5.95,1.8c1.55.5,2.61.81,2.61,1.36s-.56.69-1.06.75-.68.49-1.11,1.36A27.55,27.55,0,0,0,460.14,100.86Zm1.61-14.64c.56.87,2.23,3.35,2.23,4,0,.38-.31.56-.68.56a1.68,1.68,0,0,1-.69-.12,5.12,5.12,0,0,0-1.17-.31,9.57,9.57,0,0,0-1.18.18,172.68,172.68,0,0,1-23.75,2.36h-1.86c-1.48,0-3.22-.06-3.59-.5-.87-1-1.18-3.47-1.18-4.83,0-1.68.25-1.8,1.55-1.8h1.86c5.83,0,19.53-.43,24.74-2.17a4.34,4.34,0,0,1,1.05-.25C459.83,83.37,460.88,84.92,461.75,86.22Zm-19,44.27a4.54,4.54,0,0,0-2.35-2.54c-.5,0-.81.49-1.37,1.42a9.38,9.38,0,0,1-.86,1.49,1.49,1.49,0,0,0-.25.75c0,.55.49.68.93.68S442.71,131.61,442.71,130.49Zm5-37.45c1.49,0,1.62.69,2.42,3.66a26.28,26.28,0,0,1,.56,3c0,1.24-5.46,1.55-6.45,1.55-1.18,0-1.18-.44-1.55-2.11a31.46,31.46,0,0,0-1-3.91,2,2,0,0,1-.13-.49C441.47,93.54,446.74,93,447.67,93Zm.25,30.57c-.37,0-.74.06-.74.56s1.49,1.92,2.35,1.92,1.8-1.3,1.8-1.86-.56-.62-1.92-.62Z"/><path class="cls-1" d="M496.41,89.82c.49.12,1.36.37,1.36.87a.59.59,0,0,1-.43.49c-1,.56-1.12,1.31-1.43,2.86a116.28,116.28,0,0,0-2,23.18c0,4.9,0,9.92,5,9.92,3.9,0,7.62-2.29,10-5.27a20.37,20.37,0,0,0,4-9c.24-1.24.43-2.35,1.48-2.35,1.37,0,3.23,1.67,4.22,2.54s3,2.66,3,4.21c0,1.86-1.74,6-2.67,7.63-4,7.32-11,12.15-19.47,12.15-4.4,0-9.11-1.49-12-5.08-3.1-4-3.47-10.54-3.47-15.5,0-7.13.61-14.76,1.11-21.45.13-1.3.19-3.41.19-4.84s0-2.17,1.05-2.17C487.73,88,494.42,89.39,496.41,89.82Z"/><path class="cls-1" d="M567.4,87.15c.31.07.86.13.86.62a2.11,2.11,0,0,1-.43,1.06,6.66,6.66,0,0,0-1,3.9,1.35,1.35,0,0,0,1.36,1.43c1.12,0,7.13-1.36,8.74-1.74a15.55,15.55,0,0,1,2.55-.49c.86,0,1.17,1.24,1.3,1.92a30.67,30.67,0,0,1,.68,5.27c0,1.49-.74,1.74-2.73,2.11-3.1.56-6.32,1-9.48,1.48-1.49.19-2.17.38-2.17,1.68,0,.87.43,1.55,1.36,1.55a55.56,55.56,0,0,0,6.57-1.3,7,7,0,0,1,1.55-.25c.5,0,.81.49,1.06,1.3a26.08,26.08,0,0,1,.43,6c0,2-1.92,2.24-7.63,2.85-2.48.25-3,.56-3,1.68,0,3.41.06,3.9,2,4.52,2.61.87,10.91,4.41,10.91,7.32,0,1.36-2.6,6-4.58,6-.87,0-2.48-1.24-4.65-2.85-.56-.43-2-1.49-2.73-1.49s-1.12.69-1.43,1.37c-2,4.83-6.94,6.2-11.78,6.2a14,14,0,0,1-7.56-1.92,8.89,8.89,0,0,1-3.91-7.32,8.52,8.52,0,0,1,3.54-6.82c2.66-1.92,6.38-2.54,9.61-2.54h.68a1.22,1.22,0,0,0,1.3-1.37,1.47,1.47,0,0,0-1.43-1.67c-1.11,0-4.95.31-7.68.31-2.36,0-3-.06-3.35-1.74a24.63,24.63,0,0,1-.87-5.76c0-.93.13-1.8,1.24-1.8,1.8,0,4.47.31,7.44.31h1.67c1.55,0,2.73-.12,2.73-1.49a1.42,1.42,0,0,0-1.49-1.55c-2.1,0-5.88.25-8.8.25h-1.86c-2.48,0-4.46-.06-4.83-.93-.62-1.55-.69-4.71-.69-6.51,0-.87.07-1.92,1.24-1.92s7.69.56,11.78.56h1.37c1.48,0,2.6-.13,2.6-1.43,0-.56-.31-4-.5-5.14a8.57,8.57,0,0,1-.18-1.74c0-.74.43-.93,1.18-.93C559.58,86.1,565.85,86.91,567.4,87.15Zm-15.56,41c0,1.49,2.29,1.55,3.34,1.55,1.68,0,3.72-.43,3.72-2.54,0-.87-.74-.93-1.92-.93S551.84,126.34,551.84,128.13Z"/><path class="cls-1" d="M629.15,85.67c.49.06,1.42.24,1.42.68,0,.18-.18.37-.43.56a2.53,2.53,0,0,0-1,1.86c-.06.62-.13,1.92-.13,2.85,0,1.61.07,2.6,1.93,2.6,4.89,0,9.79-.62,14.69-.62.93,0,1.74.06,1.74,4.4a25.87,25.87,0,0,1-.38,4.65c-.18.5-.37.75-.93.75-.31,0-7-.44-8.92-.5s-4.16-.06-6.27-.06a1.65,1.65,0,0,0-1.79,1.86v1.49a5.56,5.56,0,0,0,.86,3.41,20.34,20.34,0,0,1,1.68,8.37c0,10-6.88,22.07-10,22.07-1.3,0-3.78-1.12-5-1.68-1.73-.74-3.16-1.42-3.16-2.29,0-.56.81-1.3,1.3-1.74,1.18-1.11,4.16-3.9,4.16-4.89,0-.69-.56-.81-1.12-.81-5.7-.12-7.87-6.57-7.87-11.35,0-5.51,2.54-11.46,8.55-12.58.44-.06,1.18-.12,1.18-.68,0-.31-.25-.62-.81-.62s-5.2.49-6.19.62c-1.49.18-10.17,1.61-11.41,1.92a8.62,8.62,0,0,1-1.12.18c-1,0-1.3-1.42-1.61-5.14-.19-2-.25-3.47-.25-4,0-.93.31-1.05,1.8-1.11,5.64-.25,11.22-.69,16.18-.93,1.61-.07,3-.19,3-2.24a48.77,48.77,0,0,0-.56-6.75,1.85,1.85,0,0,1-.06-.5.84.84,0,0,1,.93-.93C620.65,84.55,627.72,85.48,629.15,85.67ZM618.3,116.73c0,1.11.25,4.34,1.92,4.34s2.11-3.1,2.11-4.34-.25-4-2.05-4S618.3,115.49,618.3,116.73Z"/><path class="cls-1" d="M676.27,129a8.84,8.84,0,1,1-8.87-8.86A8.87,8.87,0,0,1,676.27,129Zm-14.07,0a5.24,5.24,0,1,0,5.2-5.21A5.24,5.24,0,0,0,662.2,129Z"/></svg>