<svg xmlns="http://www.w3.org/2000/svg" viewBox="0 0 712.17 178.35"><defs><style>.a{fill:#51e0c0;}.b{fill:#2b2ba2;}</style></defs><title>issue-c</title><rect class="a" y="127.35" width="519" height="51"/><path class="b" d="M212,178.87c1.49.37,2.42.55,2.42,1.3a.79.79,0,0,1-.62.74c-.87.31-.8.56-1.36,3a43.82,43.82,0,0,1-2.36,7.44c-.25.49-.56,1-1.24,1-.93,0-5.7-1.43-5.7-2.67a6.79,6.79,0,0,1,.43-1.3,52.07,52.07,0,0,0,2.92-9.92c.06-.37.06-.8.68-.8S211.11,178.68,212,178.87Zm-.49-24.43c-2.17,0-4.16.12-5.64.12-1.18,0-1.31-.68-1.31-2V149c0-1.86.13-2.48,1.12-2.48,2,0,3.91.19,5.83.19h1.24c1.18,0,2-.5,2-1.8,0-.93-.06-1.92-.12-2.91a1.27,1.27,0,0,1-.06-.44c0-.74.68-.8,1.3-.8,1.05,0,4.28.25,5.45.37.75.06.93.06,1.43.12,1.12.13,1.8.19,1.8.81,0,.31-.19.44-.44.62-1,.62-1.05.68-1.05,2.29s1.55,1.74,2.36,1.74h.49c1.55,0,3.16-.19,4.78-.19,1,0,1.11.62,1.11,2.42v3.78c0,1.24-.12,1.8-1.3,1.8-1.55,0-3.41-.12-5.64-.12Zm-4.4,9.05c0-1.55-.19-2.73-.19-3.72,0-2.17,2.23-2.29,3.84-2.29s3.23.12,4.84.12h6.08c1.61,0,3.22-.12,4.83-.12s3.84.12,3.84,2.29c0,.81-.12,2.17-.12,3.72v6.82c0,1.55.12,2.85.12,3.72,0,2.05-2,2.29-3.65,2.29-.5,0-1.06-.06-1.62-.06-1.3,0-2,.37-2,1.8v8.24c0,1.31.12,2.55.12,3.85,0,2.6-.12,4.59-2.6,6a11.65,11.65,0,0,1-5.64,1.12c-2.36,0-4-.06-4-5.71v-.74c0-1.05.06-2.05.93-2.05.19,0,1.43.19,2.05.19,1,0,1.11-.56,1.11-2.54v-8.37c0-1.43-.68-1.8-2-1.8-.81,0-1.55.06-2.3.06-1.61,0-3.84-.12-3.84-2.29,0-1.05.19-2.23.19-3.72Zm14.13,6.2A1.73,1.73,0,0,0,223,168v-2.17a1.77,1.77,0,0,0-1.74-1.73h-5.27a1.76,1.76,0,0,0-1.73,1.73V168a1.66,1.66,0,0,0,1.73,1.74Zm27.47-7.32c-.93,0-2.3.13-2.3,1.37s1.43,1.11,3.16,1.24,3.85.12,3.85,1c0,.43-.62.62-.93.74-.69.31-.69.5-.69,2.48v18.29c0,.44,0,.5.44.5h.31c.19,0,.31,0,.5-.56a28.11,28.11,0,0,0,.49-4.09c.06-1.18.25-1.49,1.05-1.49a19.86,19.86,0,0,1,4.84.74c1.18.38,1.36,1.06,1.36,2.3A30.45,30.45,0,0,1,259,194c-1.18,2.48-2.73,2.79-5.34,2.79H250c-4.4,0-6.32-.49-6.32-5.39v-8.06c0-.5,0-1.12-.44-1.12s-.62.75-.74,1.12a61.84,61.84,0,0,1-4.4,9.79,28.75,28.75,0,0,1-2.3,3.6,1.51,1.51,0,0,1-1.3.74c-2,0-7-2.17-7-3.9a4.36,4.36,0,0,1,.87-1.68,10.8,10.8,0,0,0,1.43-2.35.52.52,0,0,0-.56-.56,8.27,8.27,0,0,0-1.18.25,2.62,2.62,0,0,1-.68.12c-.5,0-.56-.37-.68-.74a59.68,59.68,0,0,0-2.73-7.88,2.62,2.62,0,0,1-.31-.74c0-.56,1.12-.93,1.86-1.18a17.54,17.54,0,0,1,4.09-1.05c.87,0,1.24,1,2.54,4.28.25.55.38.93.75.93s.62-.38.8-.81c.56-1.36,1.06-2.79,1.49-4.22,1-3.1,2.61-10.47,2.61-13.63a1.84,1.84,0,0,0-1.74-1.86c-.37,0-1.12.06-1.86.06-1.86,0-2.11-.56-2.11-2.61v-3.34c0-2.05.25-2.61,2.11-2.61.87,0,1.8.06,2.17.06.93,0,1.74-.62,1.74-2v-3.47c0-2.48-.13-6.27-.13-6.33,0-.93.62-1.11,1.37-1.11s7.06.37,7.81.49c.49.06,1,.19,1,.81,0,.43-.37.62-.68.74a1.47,1.47,0,0,0-.87,1.62v7.68a1.73,1.73,0,0,0,1.74,1.74h2.54c.86,0,1.61-.06,1.61-.75,0-1-3.47-6.2-4.28-7.25a1.16,1.16,0,0,1-.31-.68c0-1.3,5.21-3.85,5.95-3.85.93,0,3,3.41,3.54,4.22s2.48,4,2.48,4.77c0,1-2.55,2.11-3.29,2.48-.25.13-.5.31-.5.5s.38.43.62.43.69-.06,1.06-.06c1.73,0,1.86.87,1.86,2.73v3.1c0,1.92-.19,2.73-1.92,2.73-2.11,0-4.22-.13-6.33-.13Z" transform="translate(-188 -40.65)"/><path class="b" d="M301.19,158.78c0,.62.68.87,1.24.87h.81c1.36,0,1.67-1.12,1.67-2.24,0-5-.12-9.85-.12-14.81,0-1.12.49-1.49,1.61-1.49.25,0,5.76.43,6.38.49,1.12.13,1.49.25,1.49,1s-.43.86-.93,1.11a1.47,1.47,0,0,0-.62,1.37c0,.31.06.68.5.68a2.38,2.38,0,0,0,.93-.25,13.84,13.84,0,0,1,3.1-.74c1.36,0,2.54,3.34,3,4.65a35.47,35.47,0,0,1,1.86,5.33c0,.93-.8,1.42-1.61,1.67a29.76,29.76,0,0,1-3.53,1c-.75,0-.87-.68-1.12-1.42-.62-1.74-1.3-3.6-2-5.27-.25-.62-.43-1.06-.74-1.06s-.44.44-.44.69v7.19a1.88,1.88,0,0,0,2.17,2.17c1.74,0,3.41-.19,5.08-.19,1.49,0,1.62.62,1.62,2.3v2.79c0,1.55-.25,1.86-2,1.86-1.05,0-2.66-.13-5.08-.13a1.86,1.86,0,0,0-1.74,1.92c0,.75.13,2.61.13,3.54,0,.18.06.62.37.62s2-3.6,2.17-4.16.56-1.42,1.11-1.42a3.52,3.52,0,0,1,1.55.68,30.53,30.53,0,0,1,4.41,3.41c.37.37.55.62.55.87s-.24.8-1.11.8-1.06.44-1.61,1.55a62.61,62.61,0,0,1-4.53,7.88,4.88,4.88,0,0,0-1.3,2.66c0,.25.25,2.3.93,2.3.87,0,1.49-3.48,1.55-4.53.06-.81.19-1.42,1.18-1.42s4.46,1.11,4.46,3.16a37.09,37.09,0,0,1-2.11,8.74c-1,2.6-2.35,5-5.58,5-2.66,0-4.46-1.86-5.76-4-.31-.5-.81-1.3-1.49-1.3s-1.49.86-1.92,1.24c-.75.68-3.72,3.47-4.53,3.47-1.36,0-4.71-3.35-4.71-5,0-.81.87-1.37,1.49-1.8.25-.19.62-.37.62-.74s-.56-.62-1.43-.62h-1.55c-1.36,0-1.55.62-1.55,1.36V191c0,1-.25,1.06-2.29,1.06h-3c-1.3,0-1.86-.19-1.86-1.12,0-1.18.06-2.42.06-3.66V174.46c0-1.24-.12-2.42-.12-3.53,0-1.86,1-2.36,2.67-2.36s3.1.19,4.58.19h1.74c1.55,0,3-.19,4.59-.19s2.73.5,2.73,2.36c0,1-.13,2.17-.13,3.53v9.18c0,.8,0,1.61.56,1.61a3.88,3.88,0,0,0,2.17-3.22,8.54,8.54,0,0,0-.12-1.24A113,113,0,0,1,305,169c0-1-.06-2.61-1.73-2.61H288.36c-1.8,0-3.35.19-3.35,1.74v19.15c0,2.86.18,5.65.18,8.5,0,1.42-.49,1.61-2.23,1.61h-3.53c-1.49,0-2.05-.12-2.05-1.55,0-2.6.13-5.27.13-7.87,0-1-.13-2-1.3-2-.56,0-4.84,1.12-5.71,1.3a1.27,1.27,0,0,0-.87.68c-.24.56-.55,1.12-1.24,1.12-.49,0-.68-.43-.93-1.3-.43-1.49-.86-3.29-1.55-6a7.08,7.08,0,0,1-.24-1.48c0-.69.68-.75,1.48-.81s1.49-.31,1.49-1.24V151.59a1,1,0,0,0-1.05-1c-1.06-.12-1.18-.74-1.18-2.17V145.2c0-2.11.12-2.66,1.67-2.66s3.29.12,5.09.12h7.13c1.79,0,3.59-.12,5.14-.12s1.61.8,1.61,2.1c0,1.49,1.24,1.61,2.36,1.61a1.67,1.67,0,0,0,1.61-1.73c0-.62-.25-2.23-.25-2.73,0-.68.62-.74,1.18-.74,1.3,0,4.22.18,5.52.31s2.6.12,2.6.86c0,.32-.24.44-.62.69a2.3,2.3,0,0,0-.62,1.86,1.64,1.64,0,0,0,1.68,1.48c.68,0,1.3-.06,2-.06.87,0,1,.5,1,1.86v2.73c0,1.18-.12,1.74-1,1.74-.37,0-1.05-.07-1.18-.07-.31,0-.37.19-.37.38a.6.6,0,0,0,.37.43c.75.37,1.74.74,2.11.93a.84.84,0,0,1,.56.74c0,.5-.43.62-.87.69s-.56.12-.74.37A8.46,8.46,0,0,0,301.19,158.78Zm-25-8.31a1.24,1.24,0,0,0-1.18,1.24v2.23a1.18,1.18,0,0,0,1.18,1.18h.12a1.15,1.15,0,0,0,1.18-1.18v-2.23a1.2,1.2,0,0,0-1.18-1.24Zm0,11.41a1.24,1.24,0,0,0-1.18,1.24v2.35a1.18,1.18,0,0,0,1.18,1.18h.12a1.14,1.14,0,0,0,1.18-1.18v-2.35a1.23,1.23,0,0,0-1.18-1.24Zm0,11.34A1.18,1.18,0,0,0,275,174.4v2.91c0,.5.25,1.06.87,1.06,1.24,0,1.61-1.37,1.61-2.42V174.4a1.15,1.15,0,0,0-1.18-1.18Zm16.18-20.83c-1.49,0-3,.13-4.53.13-.56,0-1-.19-1-.87,0-.5-.13-1.06-.81-1.06-.49,0-1.05.25-1.05.75v6.82a1.55,1.55,0,0,0,1.55,1.42,1.43,1.43,0,0,0,1.49-1.48,12.61,12.61,0,0,0-.81-2.92,3.36,3.36,0,0,1-.19-.74c0-1.12,3.48-1.61,4.34-1.61,1.06,0,1.18.86,1.8,2.72a20.91,20.91,0,0,1,.62,2.55,1.18,1.18,0,0,1-.49.93c-.13.06-.38.18-.38.37s.07.25.44.25c1.11,0,1.67-.87,2-1.8a29.44,29.44,0,0,0,1.12-4.16c0-1.17-1-1.3-1.92-1.3Zm3.72,24.31a.74.74,0,0,0,.8-.75v-.49a.78.78,0,0,0-.8-.81h-1.37a.77.77,0,0,0-.74.81V176a.72.72,0,0,0,.74.75ZM295,181.16a1,1,0,0,0-1,1v.12a1,1,0,0,0,1,1h.93a1,1,0,0,0,1-1v-.12a1,1,0,0,0-1-1Z" transform="translate(-188 -40.65)"/><path class="b" d="M346.45,145.7c0-.62.12-1.18.87-1.18s7.62,1.67,8.8,2c.5.13,1.61.38,1.61,1,0,.44-.43.62-1,.87-1,.5-1.24,2.17-1.49,3.91l-.12.87c-.06.37-.19,1.05-.19,1.24,0,1.42,1.31,1.48,2.11,1.48a10.89,10.89,0,0,1,5.15,1.37c4.4,2.54,5.21,6.2,5.21,10.6,0,5.46-1.18,14.51-3.91,19.28-2.85,5-7.44,6.94-13.08,6.94-1.8,0-2.67-.24-3.23-1.73a25.06,25.06,0,0,1-1.36-6.26c0-.81.25-1.49,1.18-1.49s1.73.06,2.6.06c3.66,0,4.65-.25,5.89-2.6,1.8-3.35,2.79-10,2.79-13.77,0-2.85-.43-3.78-2.85-3.78-2.05,0-2.6.25-3.16,2.3a82.19,82.19,0,0,1-9.55,20.64c-.81,1.3-3.35,5.15-4.4,6a1.36,1.36,0,0,1-1.05.44c-1.43,0-7.32-3.29-7.32-5.27,0-.62.56-1.24,1.55-2.23a48.51,48.51,0,0,0,10.79-17.05,3.55,3.55,0,0,0,.31-1.06.87.87,0,0,0-1-.93,40,40,0,0,0-5.27,1.74,3.11,3.11,0,0,1-1.24.43c-1,0-1.74-2.41-2.3-4.83a33.68,33.68,0,0,1-.8-4.28c0-.81.43-1,2.29-1.18a66.61,66.61,0,0,0,9.49-1.55c1.61-.31,2-.8,2.16-2.48a78.18,78.18,0,0,0,.5-8.55Zm25.23,6.13a47.18,47.18,0,0,1,5,6.2c.92,1.31,5.08,7.38,5.08,8.56,0,2-5.64,5.27-7.38,5.27-.68,0-1-.56-1.55-1.67-2.35-4.9-4.71-9.74-8.62-13.89a2,2,0,0,1-.68-1.12c0-1.3,4.78-4.46,6.2-4.46A2.82,2.82,0,0,1,371.68,151.83Zm6.08-5.08c1.61,1.61,2.85,3,2.85,3.53,0,1.24-2.91,3.54-3.66,3.54-.24,0-.62-.37-.93-.75a65.23,65.23,0,0,0-4.46-4.83c-.37-.31-.68-.62-.68-.93,0-.87,3.1-3.23,3.84-3.23C375.16,144.08,376.64,145.63,377.76,146.75Zm4.52-6.26c.87.8,4.47,4.15,4.47,5,0,1.24-3,3.6-3.66,3.6-.37,0-.74-.5-.93-.81a63.4,63.4,0,0,0-4.53-4.77c-.24-.25-.68-.62-.68-1,0-.87,3.16-3.17,3.85-3.17C381.23,139.37,382.1,140.3,382.28,140.49Z" transform="translate(-188 -40.65)"/><path class="b" d="M391.9,155.12c0-1.8-.13-3.6-.13-5.46,0-2.1,1.12-2.6,3.1-2.6,1.74,0,3.54.12,5.34.12h3.34c1.74,0,3.47-.12,5.27-.12,1.61,0,3.16.19,3.16,2.6,0,1.86-.12,3.66-.12,5.46V177c0,2.48.12,5,.12,7.44,0,1.24-.31,1.37-2.29,1.37H405.1c-1.18,0-1.79-.13-1.79-1.37V184a1.51,1.51,0,0,0-1.49-1.49h-.25a1.31,1.31,0,0,0-1.3,1.3c0,.81.06,1.62.06,2.42,0,1.3-.56,1.43-2.67,1.43H394c-1.55,0-2.24-.13-2.24-1.37,0-2.48.13-5,.13-7.5Zm8.31,17.67a1.51,1.51,0,0,0,1.48,1.49h.25a1.51,1.51,0,0,0,1.49-1.49V157a1.51,1.51,0,0,0-1.49-1.49h-.25a1.47,1.47,0,0,0-1.48,1.49Zm22.38-12.9a1.81,1.81,0,0,0,1.73-1.73v-10a53.65,53.65,0,0,0-.18-5.71,1.85,1.85,0,0,1-.07-.62c0-.74.56-.93,1.24-.93a14.5,14.5,0,0,1,1.55.13c1.12.12,2.17.18,3.1.24,2.92.25,4.72.44,4.72,1.31,0,.37-.31.56-.69.93s-.49,1.05-.55,1.86-.07,1.42-.07,2.41v10.36a1.77,1.77,0,0,0,1.74,1.73H439c2.11,0,4-.18,5.4-.18s1.48.68,1.48,2.48V166c0,2-.12,2.67-1.48,2.67s-3.29-.13-5.4-.13h-3.84a1.74,1.74,0,0,0-1.74,1.74v15.87c0,3.16.19,6.32.19,9.49,0,1.61-.62,1.79-2.54,1.79H426.8c-1.92,0-2.66-.18-2.66-1.67,0-3.22.18-6.45.18-9.61V170.31a1.73,1.73,0,0,0-1.73-1.74H420c-2.1,0-4,.13-5.45.13s-1.43-.68-1.43-2.61v-4c0-1.74.13-2.42,1.43-2.42s3.35.18,5.45.18Z" transform="translate(-188 -40.65)"/><path class="b" d="M477.08,143.65c.62.12,1,.31,1,.81a.81.81,0,0,1-.38.74c-1,.81-1,1-1.24,3.47-.06.62-.18,1.8-.37,3.1,0,.25-.06.5-.06.75,0,.86.37,1.17,1,1.73s2.11,2.11,2.11,3c0,.49-.93,1.49-1.86,2.54-1.18,1.36-1.67,2.11-1.67,2.42a.35.35,0,0,0,.31.37,10.55,10.55,0,0,0,1.73-1.36c.19-.19.37-.31.44-.38a18.94,18.94,0,0,1,12.4-5c9.17,0,15.62,7.38,15.62,16.31,0,8.37-5,14.07-12.09,17.85-2.23,1.18-6.7,3.1-9.11,3.1-2.67,0-4.47-5.58-4.47-7.13s1.06-1.61,2.17-1.86a29.56,29.56,0,0,0,8-2.79c3.29-2,5.83-4.77,5.83-8.8,0-3.84-2.36-7.63-6.57-7.63-5.09,0-12.16,5-14,8.44a4.07,4.07,0,0,0-.43,2v.56c0,3.28.06,6.57.19,9.79.06,1.12.55,8.37.55,8.62,0,.5-.18.68-1.11.81-1.86.18-3.6.25-5.52.25-2.6,0-3.47,0-3.47-1.24a5.27,5.27,0,0,1,.06-1c.25-1.86.37-6.44.37-8.43,0-.49-.06-1.18-.8-1.18s-3.1,3.66-3.6,4.47c-.25.43-.56,1-1.11,1-1.43,0-6.45-5.39-6.45-6.76,0-.68.68-1.3,1.3-1.86l.37-.37a63.86,63.86,0,0,0,10.23-13.27,3.4,3.4,0,0,0,.5-1.3c0-.62-.19-1.24-.87-1.24a3.78,3.78,0,0,0-1.05.25,34.38,34.38,0,0,1-6,1.3c-1.05,0-1.42-1.11-1.67-2a56.61,56.61,0,0,1-1.3-6.64c0-1.3.93-1.42,1.86-1.42h.87c1.55,0,6.75-.13,7.81-1.06a2.4,2.4,0,0,0,.62-2c.06-2.42.06-4.84.06-7.25V143.9c0-.81.43-1.06,1.18-1.06C469.58,142.84,476,143.4,477.08,143.65Z" transform="translate(-188 -40.65)"/><path class="b" d="M547.52,143c.93.12,1.42.37,1.42.68s-.18.37-.43.56a2.38,2.38,0,0,0-1.06,1.86c-.06,1-.06,1.92-.06,2.91,0,1.49,0,2.54,1.92,2.54,4.9,0,9.8-.62,14.7-.62.87,0,1.73.07,1.73,4.41a23.86,23.86,0,0,1-.43,4.71.77.77,0,0,1-.87.68c-.5,0-8.43-.56-10.91-.56-1.36,0-2.91.06-4.28.06a1.68,1.68,0,0,0-1.86,1.8c0,.31.06.62.06.87,0,2.36.13,2.6.87,4a20.14,20.14,0,0,1,1.68,8.37c0,10-7,22.07-10.11,22.07-.87,0-2.23-.5-4.59-1.49-1.61-.68-3.53-1.49-3.53-2.48,0-.62,1.11-1.61,1.61-2,.81-.75,3.84-3.54,3.84-4.59,0-.68-.62-.81-1.11-.81-5.77-.06-7.88-6.57-7.88-11.28,0-5.58,2.55-11.53,8.56-12.59.56-.12,1.12-.24,1.12-.74,0-.31-.25-.56-.75-.56-.74,0-5.21.44-6.26.56-1.42.19-10.1,1.61-11.41,1.92a4.32,4.32,0,0,1-1,.19c-1.24,0-1.43-2.36-1.61-5.15-.13-1.67-.25-3.41-.25-4,0-.93.31-1.05,1.86-1.11,6.2-.25,11.16-.62,16.12-.93,1.67-.13,3-.19,3-2.23a41,41,0,0,0-.55-6.76c0-.19-.07-.37-.07-.5a.93.93,0,0,1,1-.93C539,141.85,545.9,142.78,547.52,143ZM536.67,174c0,1.18.24,4.4,1.86,4.4s2.17-3.16,2.17-4.4-.25-4-2.05-4S536.67,172.79,536.67,174Zm25-27.53c0,1.18-3,3.47-3.72,3.47-.24,0-.62-.37-.8-.62-1.8-2.17-2.67-3.16-4.59-5.14-.25-.25-.62-.56-.62-.93,0-.81,3.22-3.1,3.91-3.1S561.71,145.57,561.71,146.5Zm4.65-7.38c.62.63,1.49,1.49,2.36,2.42,1.49,1.62,2.73,3,2.73,3.6,0,1.18-3,3.47-3.72,3.47-.38,0-1.06-.93-1.68-1.73-1.17-1.49-2.54-2.92-3.9-4.34a1.1,1.1,0,0,1-.38-.69c0-.86,3.29-3.1,4-3.1A1.17,1.17,0,0,1,566.36,139.12Z" transform="translate(-188 -40.65)"/><path class="b" d="M584.47,158.84a86,86,0,0,1-1.67,16.92c-.19.81-.5,1.68-1.49,1.68-1.37,0-5.64-1.8-5.64-3.35a7.55,7.55,0,0,1,.31-1.67c1.17-4.71,1.36-12,1.36-17,0-1.3-.06-2.6-.06-4,0-.93.12-1.36,1.18-1.36.74,0,5.58.37,6.44.49.5.07.87.31.87.87a1,1,0,0,1-.56.93c-.55.19-.62.37-.68.93-.06.81-.06,1.68-.06,2.54Zm1.8-10.54c0-2.36-.13-6-.13-6.2,0-.93.56-1,1.31-1s7,.43,7.62.55a1,1,0,0,1,.93.94,1,1,0,0,1-.68.86c-.68.37-.87.56-.87,1.49v14.82a148.76,148.76,0,0,1-.62,16.61,38.83,38.83,0,0,1-7.69,20.34,1.4,1.4,0,0,1-1.3.68c-2,0-6.45-3.1-6.45-4.77,0-.5.56-1.12.93-1.62a34.58,34.58,0,0,0,4.78-9.42c2-6,2.17-13,2.17-19.65Zm41.91,34.1c0,1.49.12,3,.12,4.46,0,4.84-1.11,6.57-7.19,6.57-.43,0-.87-.06-1.3-.06a1.78,1.78,0,0,0-2,1.8v.56c0,1.49-.8,1.61-2.6,1.61h-3.16c-2.23,0-3-.12-3-1.61,0-1.24.13-3.54.13-5.46v-8.43a1,1,0,0,0-1-1H608a1,1,0,0,0-1,1v2.54c0,2.36.13,4.78.13,7.13,0,1.61-.68,1.74-2.17,1.74h-4.71c-1.24,0-1.68-.5-1.68-1.74,0-2.42.13-4.77.13-7.13V181.9c0-2-.13-4-.13-5.2,0-.25.06-.56.06-.75,0-1-1.05-1-1.24-1a1.26,1.26,0,0,1-1.3-1.24c0-.37.13-1.43.13-2.36v-2.17c0-1.36-.13-2.17-.13-2.79,0-2.35,2.48-2.35,4.16-2.35,2,0,4,.12,5.95.12H621c2,0,4-.12,6-.12,1.61,0,4.15,0,4.15,2.29,0,.62-.12,1.55-.12,2.85v2.42c0,.56.12,1.8.12,2.36,0,1.11-.93,1.11-2.05,1.3-.37.06-.62.37-.68,1.3C628.24,179,628.18,179.73,628.18,182.4Zm-8.62-26.47a.86.86,0,0,0-.81-.81H607.1c-2,0-4,.12-6,.12-.93,0-1.12-.37-1.12-1.36v-1.74c0-1.11.12-1.55,1.12-1.55,2,0,4,.07,6,.07h11.65a.77.77,0,0,0,.81-.75v-.49a.82.82,0,0,0-.81-.81H606.48c-2.05,0-4,.12-6,.12-1.17,0-1.3-.43-1.3-1.92v-2.42c0-1.3.13-1.79,1.24-1.79,2,0,4,.12,6.08.12h14.26c1.55,0,3-.12,4.59-.12,1.73,0,2.72.49,2.72,2.41,0,1.37-.06,2.73-.06,4.1v7.68c0,1.06.06,2.17.06,3.29,0,1.86-.93,2.36-2.66,2.36-1.55,0-3.1-.07-4.65-.07H606.29c-2,0-4,.13-6,.13-1.18,0-1.3-.5-1.3-1.8v-1.92c0-1.24.18-1.68,1.3-1.68,2,0,4,.13,6,.13h12.46a.82.82,0,0,0,.81-.81ZM605.49,171a1.27,1.27,0,0,0-1.18,1.18c0,2,.31,2.23,2.42,2.23h1a1.4,1.4,0,0,0,1.49-1.3c0-.93-.13-2.11-1.24-2.11Zm12.15,13.95c0,.5.37,1,1.3,1,1.18,0,1.18-.25,1.18-1.73v-2.36a1,1,0,0,0-1-1h-.5a1,1,0,0,0-1,1ZM620.12,171a1,1,0,0,0-1,.81c-.07.31-.07.31-.5.62s-.87.62-.87,1.17.56.81,1.18.81,1.36-.06,2.42-.06c1.24,0,1.55-1.18,1.55-2.23a1.18,1.18,0,0,0-1.24-1.12Z" transform="translate(-188 -40.65)"/><path class="b" d="M650.81,194.61c-1.3,0-1.67.56-1.8,1.74-.12,1-1,1.11-2.66,1.11h-3.72c-2.3,0-3-.12-3-1.67,0-3,.19-6.08.19-9.11V152.89c0-2.17-.19-4.4-.19-6.64,0-2.54,1.12-3.41,3.53-3.41,2.11,0,4.22.13,6.33.13h33c2.11,0,4.15-.13,6.26-.13s3.6.38,3.6,3.41c0,2.24-.13,4.47-.13,6.64v33.79c0,3,.19,6,.19,9,0,1.55-.62,1.73-2.73,1.73h-3.91c-2.1,0-2.72-.12-2.85-1.48-.12-1.06-.74-1.37-1.67-1.37Zm-1.92-9.92a1.78,1.78,0,0,0,1.73,1.92h30.75a1.73,1.73,0,0,0,1.74-1.73v-32.3a1.74,1.74,0,0,0-1.74-1.74H650.62a1.73,1.73,0,0,0-1.73,1.74Zm22.69-24.61a1.51,1.51,0,0,0-1.49,1.49V163a.69.69,0,0,0,.68.69h.93c2,0,3.91-.13,5.83-.13,1.43,0,1.55.62,1.55,2.42v2.48c0,.87-.06,1.61-.68,1.92a.42.42,0,0,0-.31.44c0,.12.06.24.25.49.55.68,2.6,3.41,2.6,4.09a1.78,1.78,0,0,1-.56,1.06c-.12.12-.25.25-.25.37s.13.31.5.37c.81.12.87,1.06.87,2.23V182c0,1.61-.13,2.41-1.49,2.41-2.11,0-4.28-.12-6.39-.12H658.56c-2.17,0-4.28.12-6.45.12-1.36,0-1.49-.8-1.49-2.48v-1.42c0-2.79.07-3.41,1.61-3.41,2.11,0,4.22.12,6.33.12h.74a1.79,1.79,0,0,0,1.92-1.92v-3a1.75,1.75,0,0,0-1.73-1.93c-1.68,0-3.35.13-5,.13-.75,0-1.55-.06-1.55-2.17v-2.48c0-1.74.18-2.36,1.61-2.36,1.67,0,3.35.13,5.08.13h.5c.8,0,1.11-.5,1.11-1.24v-1.37a1.06,1.06,0,0,0-1-1h-1.36c-2.17,0-4.28.19-6.45.19-1.3,0-1.42-.75-1.42-2.17v-2.73c0-1.68.12-2.36,1.54-2.36,2.11,0,4.22.13,6.33.13h14.32c2.17,0,4.34-.13,6.45-.13,1.36,0,1.49.81,1.49,2.36v2.48c0,1.67-.13,2.42-1.49,2.42-2.17,0-4.28-.19-6.45-.19Zm-.81,10.35a.69.69,0,0,0-.68.69v4.64a1.51,1.51,0,0,0,1.49,1.49H672a.73.73,0,0,0,.81-.74,10.47,10.47,0,0,0-1.74-2.67,1,1,0,0,1-.37-.74c0-.62,1.42-1.61,1.92-1.92.19-.13.31-.25.31-.44s-.25-.31-.43-.31Z" transform="translate(-188 -40.65)"/><path d="M711.33,169.32c.26.07.71.19.71.45s-.13.22-.23.26c-.51.28-.57.67-.73,1.47a60,60,0,0,0-1,12c0,2.53,0,5.12,2.55,5.12a6.86,6.86,0,0,0,5.16-2.72,10.38,10.38,0,0,0,2-4.64c.13-.64.23-1.21.77-1.21.71,0,1.67.86,2.18,1.31s1.53,1.38,1.53,2.18a12,12,0,0,1-1.37,3.93,11.37,11.37,0,0,1-10,6.27,7.78,7.78,0,0,1-6.17-2.62c-1.6-2.05-1.8-5.44-1.8-8,0-3.68.32-7.62.58-11.07.06-.67.1-1.76.1-2.5s0-1.12.54-1.12C706.86,168.39,710.31,169.1,711.33,169.32Z" transform="translate(-188 -40.65)"/><path d="M732.42,176.11a22,22,0,0,1-.51-3.43c0-1,.45-1,2.15-1.09,4.7-.25,9.37-.7,14.07-1.28,2.31-.28,4.87-.6,7.17-1a1,1,0,0,1,.29,0c.58,0,.74.54.83,1.05a26.91,26.91,0,0,1,.39,3.56c0,.6-.39.6-1.7.63a13.32,13.32,0,0,0-4.61.58,9.92,9.92,0,0,0-6.59,9.34c0,3,1.57,3.88,4.38,3.88.84,0,1.86-.1,2.34-.1s.8.1.8.7a14.15,14.15,0,0,1-.54,3.75c-.29.67-.68.73-1.35.73-5.95,0-10.91-1.53-10.91-8.44a13.45,13.45,0,0,1,2.62-7.94,1.42,1.42,0,0,0,.33-.7c0-.29-.23-.48-.58-.48a14.15,14.15,0,0,0-1.73.29c-1.69.31-3.87.8-5.53,1.27a2.06,2.06,0,0,1-.48.07C732.71,177.45,732.52,176.55,732.42,176.11Z" transform="translate(-188 -40.65)"/><path d="M770.82,172.59c.32.06.68.16.68.44,0,.13-.1.23-.32.39a2.22,2.22,0,0,0-.61,1.41,23.33,23.33,0,0,0-.42,4.47,15,15,0,0,0,1.15,6.15c.26.54.84,1.57,1.54,1.57s1.47-1.32,1.76-1.83.51-.8,1-.8c1,0,3.33,1.83,3.33,2.59s-1.47,2.47-2,3.08c-1.12,1.24-2.24,2.3-4,2.3-2.14,0-4-1.57-5.15-3.23-2.37-3.33-2.59-8-2.59-11.94,0-.61.13-4.48.16-4.92s.19-.52.54-.52S770,172.43,770.82,172.59Zm11.71-1c.87,0,3.4,2,4.8,4.26a17.28,17.28,0,0,1,2.37,6.56,16.16,16.16,0,0,1,.16,1.66c0,.67-.16,1-.8,1.15a11,11,0,0,1-3,.55c-1.18,0-1.21-.42-1.31-1.64-.29-3.84-1.63-6.87-4.67-9a.67.67,0,0,1-.32-.55C779.72,173.77,781.57,171.56,782.53,171.56Z" transform="translate(-188 -40.65)"/><path d="M815.56,171.91c0,.2-.19.36-.35.45a26.45,26.45,0,0,0-3.94,3.23.86.86,0,0,0-.29.58.71.71,0,0,0,.74.67c.09,0,.22,0,.35,0a10.7,10.7,0,0,1,2.24.38,7.55,7.55,0,0,1,5.6,7.46c0,6.11-5.28,9.15-10.85,9.15-3,0-7.07-1.22-7.07-4.9a4.68,4.68,0,0,1,4.8-4.44,5.65,5.65,0,0,1,4.32,2,5.41,5.41,0,0,1,.86,1.6.9.9,0,0,0,.77.61c.77,0,2.31-1.6,2.31-3.71,0-2.72-2.21-3.94-4.68-3.94a9.13,9.13,0,0,0-6.17,2.47,42.79,42.79,0,0,0-3.94,4c-.44.58-.7.8-.83.8-.73,0-3.23-2.62-3.23-3.23,0-.39.32-.67,1-1.19s6.11-5.91,7.23-7c.61-.61,1.09-1.19,1.64-1.79.22-.23.44-.42.44-.74s-.51-.45-.64-.45-3.58.64-4.41.77a1.71,1.71,0,0,1-.39,0c-.73,0-.92-3.61-.92-4.22v-.32c0-.48.09-.48,1-.48h.74c2.08,0,6.65-.39,8.47-1.15a4.87,4.87,0,0,1,1.38-.52C813.13,168.07,815.56,171.21,815.56,171.91ZM806.82,188a.92.92,0,0,0-1,.86c0,.87,1.09,1.28,1.82,1.28a.75.75,0,0,0,.8-.7A1.59,1.59,0,0,0,806.82,188Z" transform="translate(-188 -40.65)"/><path d="M829.7,180.71a.82.82,0,0,0-.8-.83l-1.08,0c-.64,0-.71-.38-.71-1.24V177c0-1,.07-1.28.77-1.28l1,0a.85.85,0,0,0,.83-.86v-2a.83.83,0,0,0-.89-.89c-.55,0-1.09.06-1.63.06s-.68-.35-.68-1.09v-2c0-.87.07-1.19.74-1.19s1.82.1,2.94.1h3.3c1.12,0,2.24-.1,2.91-.1s.77.32.77,1.38v1.6c0,1-.06,1.34-.7,1.34s-1,0-1.51,0a.79.79,0,0,0-.77.83v2a.83.83,0,0,0,.74.86c.16,0,.48-.06.74-.06.89,0,1,.13,1,1.34v1.64c0,.92-.07,1.24-.74,1.24-.29,0-.55,0-.83,0a.79.79,0,0,0-.87.87v1.95c0,.32.07.76.52.76a8.93,8.93,0,0,0,1.08-.32,3.76,3.76,0,0,1,.77-.19c.61,0,.7.71.7,2.21,0,1.22,0,1.47-.73,1.79a70.25,70.25,0,0,1-7.3,2.5c-.67.19-.8.32-1,.73-.09.26-.25.48-.54.48s-.48-.44-.86-1.79l-.48-1.66a5.9,5.9,0,0,1-.29-1.28c0-.48.51-.55,1-.61,2.08-.35,2.65-.32,2.65-1.66Zm9.38,12.67a13.85,13.85,0,0,1-4.64,1.67c-1,0-2.05-2.31-2.05-3.43,0-.44.26-.44.8-.6a10.57,10.57,0,0,0,5.86-3.43,4.63,4.63,0,0,0,.83-1.66c0-.48-.45-.48-.8-.51-.8-.07-1-.8-1-1.51,0-.93,0-1.85,0-2.75v-9.95c0-.93,0-1.86,0-2.75,0-1.09.38-1.54,1.47-1.54.86,0,1.72.07,2.59.07h7.81c.86,0,1.72-.07,2.59-.07,1.09,0,1.5.42,1.5,1.54,0,.93-.06,1.82-.06,2.75v9.95c0,.9.06,1.82.06,2.75,0,1.19-.48,1.54-1.5,1.54-.67,0-1.35-.07-2-.07a.9.9,0,0,0-1,.87v3.42c0,.39,0,.55.48.55h.26c.54,0,.57-.71.8-2.15.09-.61.25-.73.86-.73a5.46,5.46,0,0,1,2.34.51c.61.29,1,.54,1,1.28a10.31,10.31,0,0,1-1.21,4.35,2.4,2.4,0,0,1-2.53,1.31H848c-2.34,0-3-.45-3-2.85v-5.66a.88.88,0,0,0-.9-.9h-1.41c-.19,0-.44,0-.44.2a4,4,0,0,0,1.44.8c.51.22,1,.35,1,.7s-.42.38-.61.51a1,1,0,0,0-.39.45A10.65,10.65,0,0,1,839.08,193.38Zm9.76-21.27a.51.51,0,0,0,.51-.52v-.19a.5.5,0,0,0-.51-.51h-5.63a.53.53,0,0,0-.52.51v.19a.54.54,0,0,0,.52.52Zm-5.63,3.39a.55.55,0,0,0-.52.51v.22a.54.54,0,0,0,.52.52h5.63a.51.51,0,0,0,.51-.52V176a.52.52,0,0,0-.51-.51Zm0,4.73a.54.54,0,0,0-.52.52V181a.53.53,0,0,0,.52.51h5.63a.5.5,0,0,0,.51-.51v-.22a.51.51,0,0,0-.51-.52Z" transform="translate(-188 -40.65)"/><path d="M866.09,178.19c-1.15,0-2.31.09-3.46.09-.8,0-.83-.41-.83-1.09v-.09a.92.92,0,0,0-.9-1c-.09,0-.19,0-.32,0-.92,0-1.63,0-1.63-.87,0-.45.1-1.28.1-1.92v-.77c0-1-.07-2-.07-2.33,0-1.22,1.28-1.25,2.18-1.25,1.22,0,2.46.06,3.68.06h4.35c.58,0,1-.22,1-.86s-.12-1.34-.12-1.54c0-.41.35-.44.7-.44.86,0,2.66.12,3.55.19a2,2,0,0,0,.42,0c.61.06,1,.1,1,.48,0,.16-.16.29-.35.45a1.19,1.19,0,0,0-.29.86c0,.67.61.83,1.16.83h4.25c1.22,0,2.47-.06,3.68-.06.9,0,2.21,0,2.21,1.25,0,.22-.1,1.34-.1,2.33v.87c0,.7.1,1.47.1,1.92,0,.77-.48.86-1.44.86h-.61a.93.93,0,0,0-1,.87v.12c0,.77-.1,1.09-.87,1.09-1.15,0-2.27-.09-3.42-.09h-3.68a.43.43,0,0,0-.42.41v.19a.43.43,0,0,0,.42.42h2.75c1.15,0,2.31-.07,3.46-.07.77,0,.83.32.83,1.22v1.25c0,.93-.06,1.25-.83,1.25-1.15,0-2.31-.07-3.46-.07H875.4c-.55,0-.64.35-.64.51,0,.45.41.45.64.45h6.94c1.25,0,2.5-.06,3.75-.06.76,0,.83.32.83,1.34v1.31c0,.84-.07,1.16-.83,1.16-1.25,0-2.5-.07-3.75-.07h-3.71c-.42,0-.7,0-.7.32s1.4,1,1.79,1.22a21.53,21.53,0,0,0,6.08,1.92c.67.09,1.25.09,1.25.83a4.63,4.63,0,0,1-.8,2.37c-.61.86-.9,1.28-1.57,1.28a4.69,4.69,0,0,1-1.15-.23,25,25,0,0,1-6-2.24,15.7,15.7,0,0,1-3.94-3.07,1.56,1.56,0,0,0-.93-.54,1.38,1.38,0,0,0-.89.57c-2.34,2.47-6.21,4.13-9.47,4.87a15.82,15.82,0,0,1-2,.32c-1.22,0-2-2.69-2-3.39s.67-.77,1.79-1a18.11,18.11,0,0,0,6.31-2.12c.22-.12,1-.6,1-.83s-.28-.32-.7-.32H863c-1.24,0-2.52.07-3.77.07-.74,0-.8-.29-.8-1.25V185c0-1,.06-1.28.83-1.28,1.25,0,2.5.06,3.74.06h6.5c.45,0,.61-.25.61-.51s-.23-.45-.51-.45h-2.44c-1.15,0-2.27.07-3.42.07-.8,0-.86-.36-.86-1.32v-1.18c0-.9.09-1.22.86-1.22,1.15,0,2.3.07,3.42.07H870a.42.42,0,0,0,.42-.42v-.19a.42.42,0,0,0-.42-.41Zm3.71-3.65c.32,0,.61-.13.61-.48,0-.74-.07-1-.74-1h-5.34c-.35,0-.64.09-.64.51,0,.67.09.92.8.92h.06c.51,0,1,0,1.54,0Zm9.31,0c.64,0,1.28,0,1.92,0s.7-.31.7-.89-.28-.54-.67-.54h-4.77c-.25,0-.41,0-.41.19v.16c0,.22-.19.35-.39.45s-.22.12-.22.28.13.39.54.39Z" transform="translate(-188 -40.65)"/><path d="M900.17,189.54a4.56,4.56,0,1,1-4.58-4.57A4.58,4.58,0,0,1,900.17,189.54Zm-7.27,0a2.71,2.71,0,1,0,2.69-2.68A2.7,2.7,0,0,0,892.9,189.54Z" transform="translate(-188 -40.65)"/><path d="M233.66,93.7c.77.2,1.25.29,1.25.68a.41.41,0,0,1-.32.38c-.45.16-.41.29-.7,1.57a22.88,22.88,0,0,1-1.22,3.84c-.13.25-.29.51-.64.51s-2.94-.74-2.94-1.38a3.72,3.72,0,0,1,.22-.67,27,27,0,0,0,1.51-5.12c0-.19,0-.41.35-.41S233.22,93.61,233.66,93.7Zm-.25-12.6c-1.12,0-2.15.06-2.91.06s-.68-.35-.68-1V78.31c0-1,.07-1.28.58-1.28,1,0,2,.1,3,.1h.64c.61,0,1-.26,1-.93,0-.48,0-1-.06-1.5a.69.69,0,0,1,0-.23c0-.38.35-.41.67-.41.54,0,2.21.13,2.82.19l.73.06c.58.07.93.1.93.42,0,.16-.1.22-.22.32-.52.32-.55.35-.55,1.18s.8.9,1.22.9h.25c.8,0,1.64-.1,2.47-.1.51,0,.57.32.57,1.25v2c0,.64-.06.93-.67.93-.8,0-1.76-.06-2.91-.06Zm-2.27,4.67c0-.8-.1-1.41-.1-1.92,0-1.12,1.15-1.18,2-1.18s1.67.06,2.5.06h3.14c.83,0,1.66-.06,2.49-.06s2,.06,2,1.18c0,.42-.06,1.12-.06,1.92v3.52c0,.8.06,1.47.06,1.92,0,1.05-1,1.18-1.88,1.18-.26,0-.55,0-.83,0-.68,0-1.06.19-1.06.93v4.25c0,.68.06,1.32.06,2,0,1.34-.06,2.37-1.34,3.1a6,6,0,0,1-2.91.58c-1.22,0-2,0-2-2.95v-.38c0-.54,0-1.06.48-1.06.1,0,.74.1,1.06.1.54,0,.57-.29.57-1.31V93.29c0-.74-.35-.93-1-.93-.42,0-.8,0-1.19,0-.83,0-2-.06-2-1.18,0-.54.1-1.15.1-1.92Zm7.29,3.2a.9.9,0,0,0,.9-.9V87a.91.91,0,0,0-.9-.89h-2.72a.91.91,0,0,0-.89.89v1.12a.86.86,0,0,0,.89.9Zm14.18-3.78c-.48,0-1.19.07-1.19.71s.74.57,1.63.64,2,.06,2,.51c0,.22-.32.32-.48.38-.35.16-.35.26-.35,1.28v9.44c0,.23,0,.26.22.26h.16c.1,0,.16,0,.26-.29A14.88,14.88,0,0,0,255.1,96c0-.61.13-.77.55-.77a10.22,10.22,0,0,1,2.49.38c.61.2.71.55.71,1.19a15.7,15.7,0,0,1-.93,4.7c-.61,1.28-1.41,1.44-2.75,1.44h-1.86c-2.27,0-3.26-.25-3.26-2.78V96c0-.26,0-.58-.23-.58s-.32.39-.38.58a32,32,0,0,1-2.27,5,14.42,14.42,0,0,1-1.19,1.86.77.77,0,0,1-.67.38c-1,0-3.62-1.12-3.62-2,0-.26.33-.67.45-.87a5.55,5.55,0,0,0,.74-1.21.27.27,0,0,0-.29-.29,4.42,4.42,0,0,0-.61.13,1.35,1.35,0,0,1-.35.06c-.25,0-.29-.19-.35-.38a29.68,29.68,0,0,0-1.41-4.07,1.32,1.32,0,0,1-.16-.38c0-.29.58-.48,1-.61a9.19,9.19,0,0,1,2.11-.54c.45,0,.64.51,1.31,2.21.13.28.2.48.39.48s.32-.2.41-.42a22.48,22.48,0,0,0,.77-2.18,33.82,33.82,0,0,0,1.35-7,1,1,0,0,0-.9-1c-.19,0-.58,0-1,0-1,0-1.09-.29-1.09-1.35V82.19c0-1.06.13-1.35,1.09-1.35.45,0,.93,0,1.12,0,.48,0,.9-.32.9-1.05V78c0-1.28-.07-3.24-.07-3.27,0-.48.32-.57.71-.57s3.64.19,4,.25.51.1.51.42-.19.32-.35.38a.76.76,0,0,0-.45.83v4a.9.9,0,0,0,.9.9h1.31c.45,0,.83,0,.83-.39a18.2,18.2,0,0,0-2.21-3.74.62.62,0,0,1-.16-.35c0-.67,2.69-2,3.07-2s1.57,1.76,1.83,2.18a12.63,12.63,0,0,1,1.28,2.46c0,.52-1.31,1.09-1.7,1.28-.13.07-.25.16-.25.26s.19.22.32.22.35,0,.54,0c.9,0,1,.45,1,1.41v1.6c0,1-.1,1.41-1,1.41-1.09,0-2.18-.07-3.27-.07Z" transform="translate(-188 -40.65)"/><path d="M278.14,92.36c-.77,0-1.09.16-1.31.93a13.21,13.21,0,0,1-3,5.18,16.8,16.8,0,0,1-7.68,4.58,3.57,3.57,0,0,1-1,.16c-1.4,0-2.81-2.82-2.81-3.62,0-.48.45-.54.83-.64,3-.67,6.14-2,8-4.61a4.5,4.5,0,0,0,.73-1.47c0-.41-.41-.51-.89-.51h-1.44c-1.19,0-2.37.1-3.55.1-.8,0-.87-.32-.87-1.35V89.83c0-.7-.41-1-1-1h-.16c-.93,0-1.48,0-1.48-1,0-.64.1-1.44.1-2.21v-.8c0-1-.06-2.11-.06-2.59,0-1.34,1.08-1.44,2.14-1.44.45,0,1,0,1.12,0,.32,0,.64-.13.64-.48a20.52,20.52,0,0,0-1.79-3.52.86.86,0,0,1-.26-.54c0-.74,2.85-1.76,3.36-1.76s1.06.89,1.7,2.11c.06.1.13.26.22.42a8.82,8.82,0,0,1,1,2.43c0,.45-.71.73-1.06.89-.13.07-.35.13-.35.32s.29.2.41.2h11c.1,0,.35,0,.35-.2a.19.19,0,0,0-.12-.19c-.23-.16-.58-.41-.58-.7a1.38,1.38,0,0,1,.29-.58,30.21,30.21,0,0,0,2.49-4.48c.13-.29.23-.61.58-.61a10.44,10.44,0,0,1,2,.77c.16.07.25.13.35.16,1.63.74,2.14.9,2.14,1.31s-.22.32-.45.36-.48,0-.6.28a25.1,25.1,0,0,1-1.38,2.56,1.78,1.78,0,0,0-.29.77c0,.35.39.51.67.51.48,0,.93-.06,1.38-.06,1,0,2,.16,2,1.41,0,.54-.07,1.63-.07,2.62v.8c0,.77.1,1.57.1,2.21,0,1-.51,1-1.31,1h-.23c-.35,0-.8,0-.8.51v.16a8.14,8.14,0,0,1,0,.87c0,2.65-.48,8-1.69,10.36s-3.52,2.5-6.5,2.5c-2.33,0-2.78-.1-2.78-3.58,0-1,.19-1.16.64-1.16.86,0,1.69.13,2.56.13,1.69,0,1.92-.22,2.24-1.15a15.52,15.52,0,0,0,.73-4.32c0-.7-.19-.8-2-.8Zm.61-4.19h4c1.95,0,2.24,0,2.24-2.14a.89.89,0,0,0-1-.93H268.16c-.7,0-1.06.41-1.06.89,0,1.67.13,2.15,1.25,2.15h.07c.38,0,.76,0,1.15,0H272a.9.9,0,0,0,1-.9c0-.32,0-.64,0-.93,0-.47.19-.6.67-.6s2.85.13,3.45.16,1.48.09,1.48.48-.39.41-.55.54a.39.39,0,0,0-.25.42C277.73,88.17,278.4,88.17,278.75,88.17Zm-3-14.11c.54,0,.83.29,1.79,2.75a13.52,13.52,0,0,1,.77,2.27c0,.93-3.07,1.47-3.42,1.47a.73.73,0,0,1-.77-.57,27.15,27.15,0,0,0-1.5-3.75,1.3,1.3,0,0,1-.2-.57C272.38,74.83,275.36,74.06,275.71,74.06Z" transform="translate(-188 -40.65)"/><path d="M303.52,101.19c-.58,0-1.09.26-1.09.9v.22c0,.87-.32,1-1.73,1h-2.33c-.64,0-1.09-.06-1.09-1,0-1.37.1-2.78.1-4.19V80.2c0-1.12-.1-2.21-.1-3.33,0-1.31.64-1.69,1.86-1.69s2.24.09,3.36.09h11c1.12,0,2.21-.09,3.33-.09s1.89.35,1.89,1.69c0,1.12-.06,2.21-.06,3.33V98.12c0,1.41.09,2.82.09,4.19,0,.87-.41,1-1.15,1h-2.5c-1.37,0-1.53-.13-1.53-1.15,0-.67-.42-.93-1.09-.93Zm-1.18-19.61a.93.93,0,0,0,.89.89h9.57a.91.91,0,0,0,.89-.89v-1a.91.91,0,0,0-.89-.9h-9.57a.91.91,0,0,0-.89.9Zm0,7a.91.91,0,0,0,.89.9h9.57a.91.91,0,0,0,.89-.9v-1a.91.91,0,0,0-.89-.9h-9.57a.93.93,0,0,0-.89.9Zm0,7.14a.91.91,0,0,0,.89.9h9.57a.91.91,0,0,0,.89-.9V94.57a.89.89,0,0,0-.89-.9h-9.57a.91.91,0,0,0-.89.9Z" transform="translate(-188 -40.65)"/><path d="M334.14,78.79a1,1,0,0,0-.09.42c0,.42.22.51.61.51l1.72,0c1.19,0,1.7.38,1.7,1.6,0,.8-.06,1.57-.06,2.37v.19c0,.13,0,.32.19.32s.22-.26.29-.38a26.5,26.5,0,0,0,3-9c.07-.39.07-.68.51-.68s2.12.39,2.63.48c1.05.2,1.76.26,1.76.71s-.32.41-.55.54c-.38.19-.38.55-.48,1a16.77,16.77,0,0,1-.44,1.92.75.75,0,0,0,0,.29c0,.48.42.51.74.51h3c1.08,0,2.17-.06,3.26-.06,1.5,0,1.63.74,1.63,2.46v1.44c0,4.36-.32,11.91-1.5,16-.42,1.41-.9,2.56-2.31,3.23a10.75,10.75,0,0,1-4.41.64c-.64,0-1.38,0-1.73-.67a8.65,8.65,0,0,1-.64-3.36c0-.61.19-1,.83-1a5.05,5.05,0,0,1,.67.06,14.54,14.54,0,0,0,1.73.13c1.67,0,1.92-.89,2.21-2.78a86.21,86.21,0,0,0,.77-10.43c0-1.28-.23-1.41-1.7-1.41h-3.26c-.77,0-1.06.06-1.41.77-.77,1.63-1.15,2.27-1.76,2.27a5.67,5.67,0,0,1-2.21-.74.7.7,0,0,0-.38-.16c-.35,0-.38.39-.38.64v8.74c0,1.47.09,2.94.09,4.41,0,.74-.38.8-1.34.8h-1.83c-.92,0-1.21-.06-1.21-.86v-.29a.87.87,0,0,0-1-.89h-1a.85.85,0,0,0-.92.86c0,.42,0,.83,0,1.25,0,.73-.32.83-1.38.83h-2c-.74,0-1.16-.06-1.16-.77,0-1.5.1-3,.1-4.48V84.46c0-1.06-.06-2.08-.06-3.14,0-1.5.83-1.63,1.72-1.63.39,0,.74,0,1.12,0a.8.8,0,0,0,.84-.64,36.59,36.59,0,0,0,.7-4c0-.32,0-.8.51-.8s3.23.58,3.81.7,1.06.16,1.06.61-.45.51-.74.58a.54.54,0,0,0-.45.45A19.2,19.2,0,0,1,334.14,78.79Zm-1.24,8.1a.89.89,0,0,0,.89-.9V84.71a.87.87,0,0,0-.89-.89h-1.25a.89.89,0,0,0-.9.89V86a.88.88,0,0,0,.9.9ZM331.65,91a.92.92,0,0,0-.9.9v1.63a.92.92,0,0,0,.9.9h1.25a.89.89,0,0,0,.89-.9V91.85a.92.92,0,0,0-.89-.9Zm13.28-2.49c.06.12.12.32.22.57a26.79,26.79,0,0,1,1.6,4.58c0,.8-2.53,1.53-3.2,1.53s-.64-.35-.83-.89a55.14,55.14,0,0,0-2.05-5.41,2.7,2.7,0,0,1-.16-.48c0-.7,2.85-1.63,3.26-1.63S344.35,87.08,344.93,88.46Z" transform="translate(-188 -40.65)"/><path d="M359.07,80.68c0-1,.35-1,3.87-1.21l2.28-.13c4-.26,13.31-1.31,17.21-2a1.27,1.27,0,0,1,.32,0c.58,0,.67.45.8,1a22.74,22.74,0,0,1,.42,3.56c0,.6-.36.6-1.73.63a13.15,13.15,0,0,0-4.58.58A10,10,0,0,0,371,92.42c0,3,1.6,3.88,4.41,3.88.8,0,1.86-.1,2.31-.1.61,0,.83.1.83.7a14.52,14.52,0,0,1-.54,3.75c-.26.64-.71.73-1.38.73-5.92,0-10.88-1.53-10.88-8.44a13.42,13.42,0,0,1,2.75-8.16.87.87,0,0,0,.19-.48c0-.29-.22-.48-.57-.48a11,11,0,0,0-1.73.29c-1.69.31-3.9.8-5.57,1.27a1.68,1.68,0,0,1-.44.07c-.68,0-.9-1.44-1.06-2.43A17.54,17.54,0,0,1,359.07,80.68ZM380.32,86c.41.48,2.17,2.66,2.17,3.14,0,.64-1.72,1.63-2,1.63-.16,0-.23-.09-.64-.74-.61-.92-1.25-1.76-2-2.65a.6.6,0,0,1-.16-.35c0-.45,1.8-1.41,2.15-1.41C380,85.61,380.19,85.83,380.32,86Zm6.37,1.19c0,.64-1.7,1.66-2.05,1.66s-.39-.29-.48-.45a24.28,24.28,0,0,0-2.05-2.78,1,1,0,0,1-.26-.48c0-.42,1.76-1.41,2.15-1.41A12.08,12.08,0,0,1,386.69,87.18Z" transform="translate(-188 -40.65)"/><path d="M412.41,86.76c0,.29.23.35.64.35h.8c1.22,0,2.4-.06,3.59-.06.73,0,.8.38.8,1.25v1.76c0,.89-.07,1.28-.8,1.28-1.41,0-2.82-.1-4.23-.1h-2.72c-.32,0-.57.06-.57.38s.45.71.8,1a32.84,32.84,0,0,0,7,5.15c.61.32.77.38.77.77,0,.83-1.7,3.2-2.6,3.2-.67,0-3.58-2.18-4.25-2.69a33.06,33.06,0,0,1-4.51-4.16c-.13-.13-.36-.45-.55-.45s-.29.23-.29.61V97c0,1.76.1,3.52.1,5.28,0,.8-.35.86-1.44.86h-1.92c-1.05,0-1.44-.06-1.44-.86,0-1.76.1-3.52.1-5.28V95.14c0-.32-.1-.48-.29-.48s-.23.13-.29.23a24.75,24.75,0,0,1-6.49,5.5,12.75,12.75,0,0,1-2.76,1.35c-.83,0-2.46-2.44-2.46-3.24,0-.35.32-.51,1.31-1a23.81,23.81,0,0,0,6.79-5.06c.22-.22.54-.57.54-.83s-.35-.35-.74-.35h-2.49c-1.41,0-2.82.1-4.23.1-.76,0-.83-.39-.83-1.41V88.46c0-1,.07-1.41.83-1.41,1.41,0,2.82.06,4.23.06h.35c.35,0,.48-.09.48-.32a25.89,25.89,0,0,0-1.66-3.1,1.08,1.08,0,0,1-.2-.45c0-.29.45-.61.68-.74a.27.27,0,0,0,.22-.25c0-.13-.16-.16-.45-.16l-1.66,0c-.87,0-.93-.32-.93-1.37V79c0-1,.06-1.31.86-1.31,1.28,0,2.6.06,3.91.06h4.25c.74,0,1-.38,1-1.18v-.42c0-.48-.13-1.25-.13-1.57s.35-.45.67-.45c1.15,0,2.5.07,3.65.13.54,0,1.05.07,1.05.45,0,.22-.16.32-.32.48a1.61,1.61,0,0,0-.28,1.15v.32c0,.77.28,1.09,1.08,1.09h4.16c1.32,0,2.6-.06,3.91-.06.8,0,.86.35.86,1.31v1.73c0,1-.06,1.37-.83,1.37s-1.28,0-1.92,0c-.13,0-.35,0-.35.19s.19.26.32.29c.61.26,1.53.58,1.53,1s-.28.42-.54.45a1,1,0,0,0-.8.48c-.06.09-.16.26-.32.48A11.74,11.74,0,0,0,412.41,86.76ZM399,82.06c-.48,0-.8.09-.8.44a1.75,1.75,0,0,0,.38.87,10.29,10.29,0,0,1,1.15,2.43c0,.35-.6.7-.89.87-.13.06-.29.16-.29.28s.16.16.42.16h1.85a.89.89,0,0,0,.9-.89V83a.9.9,0,0,0-.93-.89Zm8.22,0a.89.89,0,0,0-.9.89V86.7c0,.29.23.41.48.41.58,0,.87-.54,1.12-1a25.64,25.64,0,0,0,1.76-3.52c0-.51-.54-.51-.92-.51Z" transform="translate(-188 -40.65)"/><path d="M432.45,100.71c-.61,0-1,.26-1.06.93,0,.83-.38.86-1.85.86h-1.67c-1.31,0-1.73-.06-1.73-.89,0-1.6.1-3.2.1-4.8V81.45c0-1.12-.06-2.27-.06-3.42,0-1.38.67-1.76,1.95-1.76s2.33.06,3.52.06h8.7c1.15,0,2.3-.06,3.49-.06s2,.28,2,1.76c0,1.15-.06,2.3-.06,3.42V96.81c0,1.6.09,3.17.09,4.77,0,.8-.38.89-1.4.89h-2.37c-1.19,0-1.47-.09-1.47-1,0-.35-.32-.8-1.16-.8ZM431.3,85.16a.92.92,0,0,0,.89.93h7.62a.91.91,0,0,0,.89-.9V81.71a.91.91,0,0,0-.89-.9h-7.62a.91.91,0,0,0-.89.9Zm0,10a.89.89,0,0,0,.89.89h7.62a.89.89,0,0,0,.89-.89V91.34a.89.89,0,0,0-.89-.9h-7.62a.9.9,0,0,0-.89.93Z" transform="translate(-188 -40.65)"/><path d="M466.33,77.32c.26.07.71.19.71.45s-.13.22-.23.26c-.51.28-.57.67-.73,1.47a60,60,0,0,0-1,12c0,2.53,0,5.12,2.55,5.12a6.86,6.86,0,0,0,5.16-2.72,10.38,10.38,0,0,0,2-4.64c.13-.64.23-1.21.77-1.21.71,0,1.67.86,2.18,1.31s1.53,1.38,1.53,2.18a12,12,0,0,1-1.37,3.93,11.37,11.37,0,0,1-10.05,6.27,7.78,7.78,0,0,1-6.17-2.62c-1.6-2-1.8-5.44-1.8-8,0-3.68.32-7.62.58-11.07.06-.67.1-1.76.1-2.5s0-1.12.54-1.12C461.86,76.39,465.31,77.1,466.33,77.32Z" transform="translate(-188 -40.65)"/><path d="M500.7,75.05c.61.16,1.57.45,1.57.77,0,.16-.19.25-.32.32-.45.22-.58.73-.86,1.79-.07.29-.16.64-.29,1.06,0,.12-.07.25-.07.28a.55.55,0,0,0,.61.58,13.66,13.66,0,0,0,2.59-.83,2.72,2.72,0,0,1,.8-.23c.87,0,.87,3.17.87,4.13,0,.45-.13.64-.64.8a47.19,47.19,0,0,1-4.58,1.15c-1.37.29-1.47.32-1.85,1.47-1.35,3.88-4.1,10.82-6.15,14.15-.25.41-.44.77-1,.77s-3.87-1.44-3.87-2.4a3,3,0,0,1,.64-1.25,50.51,50.51,0,0,0,5.25-10.53,2.25,2.25,0,0,0,.22-.74c0-.44-.35-.54-.7-.54-.64,0-1.41.1-2.11.1s-1.09-.1-1.28-.8a23.9,23.9,0,0,1-.36-3.39c0-.42.07-.74.58-.74.32,0,1.76.16,3.42.16s2.12,0,2.37-.8a34.29,34.29,0,0,0,.93-5.89c0-.19.06-.35.25-.35C497.15,74.09,500.13,74.89,500.7,75.05Zm-.8,20c1.31,1.56,3.75,1.92,5.67,1.92a15.25,15.25,0,0,0,4.83-.68,1.16,1.16,0,0,1,.35-.06c.51,0,.58.7.58,1.73v1c0,1.76,0,2.14-.58,2.3a36.81,36.81,0,0,1-5.41.42c-2.27,0-5.37-.29-7.26-1.67-.51-.38-1.54-1.28-1.54-2,0-.55,1.19-2,1.57-2.43s.83-.93,1.22-.93C499.55,94.57,499.77,94.86,499.9,95ZM503,85.29a28.1,28.1,0,0,1,7.26,1c.45.13.8.25.8.77a11.17,11.17,0,0,1-1,3.52.69.69,0,0,1-.61.38,3,3,0,0,1-.8-.22,14,14,0,0,0-5.5-.87h-1.15c-.74,0-1-.09-1-.67C501.12,85.48,501.76,85.29,503,85.29Z" transform="translate(-188 -40.65)"/><path d="M540.83,96.9c0,1.89.06,3.78.06,5.67,0,.61-.32.67-1.34.67h-2c-.93,0-1.28-.06-1.28-.67,0-1.89.1-3.78.1-5.67V90.44a2.38,2.38,0,0,0-.61-1.73c-.64-.67-1.79-2-2.37-2.75-.13-.16-.29-.38-.51-.38s-.41.41-.48.67a28.54,28.54,0,0,1-5.92,12.09c-.77.93-4.45,4.8-5.5,4.8-.77,0-2.79-2.56-2.79-3.16,0-.32.29-.52.74-.77a1,1,0,0,1,.22-.16c2.82-1.83,5.38-5.31,5.38-5.79s-.29-.58-1.7-1.67a.81.81,0,0,1-.41-.67c0-.61,1.63-3.36,2.24-3.36a4.63,4.63,0,0,1,1.53.93,1,1,0,0,0,.48.19c.42,0,.55-.54.74-1.12a18.58,18.58,0,0,0,.64-2.94.46.46,0,0,0,0-.2c0-.25-.29-.28-.73-.28h-1.57c-.71,0-1,.13-1.31.8a44.66,44.66,0,0,1-3.3,6c-.19.32-.54.9-1,.9-.64,0-2.82-1.92-2.82-2.6a5.6,5.6,0,0,1,1.09-1.85c.13-.19.26-.35.32-.45a27.74,27.74,0,0,0,1.44-2.72,32.3,32.3,0,0,0,1.95-5,35,35,0,0,0,1-4.45c0-.23.09-.45.35-.45a40.45,40.45,0,0,1,4.26,1.15c.22.07.38.13.38.39a.68.68,0,0,1-.51.57c-.39.13-.45.32-.64,1l-.42,1.37a1.73,1.73,0,0,0-.09.42c0,.48.48.51.83.51h.89c.77,0,1.51,0,2.28,0a3,3,0,0,1,1.82.7.79.79,0,0,0,.51.26,1,1,0,0,0,.51-.23,1.63,1.63,0,0,1,.9-.44c.35,0,.48.19.93.86.09.16.22.32.35.54s.32.39.51.39.29-.2.29-.61V78a28.36,28.36,0,0,0-.1-3.1,1.27,1.27,0,0,1,0-.35c0-.32.19-.35.77-.35s3.29.09,3.87.12c.22,0,.8.07.8.39s-.19.32-.32.41a.92.92,0,0,0-.45.9c0,1.15,0,2.3,0,3.49v6.91a1.58,1.58,0,0,0,.51,1.31,33.69,33.69,0,0,0,4.93,3.39c.32.19.7.35.7.68,0,.54-2.11,3.51-3,3.51a8.28,8.28,0,0,1-2.11-1.12L541.6,94a.77.77,0,0,0-.42-.19c-.35,0-.35.19-.35.8Z" transform="translate(-188 -40.65)"/><path d="M556.16,101.83c-.67,0-.86.29-.93.9s-.54.57-1.37.57h-1.92c-1.19,0-1.54-.06-1.54-.86,0-1.57.1-3.14.1-4.7V80.3c0-1.12-.1-2.27-.1-3.43,0-1.31.58-1.76,1.82-1.76,1.09,0,2.18.07,3.27.07h17c1.09,0,2.14-.07,3.23-.07s1.86.2,1.86,1.76c0,1.16-.07,2.31-.07,3.43V97.74c0,1.53.1,3.1.1,4.67,0,.8-.32.89-1.41.89h-2c-1.09,0-1.41-.06-1.48-.76s-.38-.71-.86-.71Zm-1-5.12a.91.91,0,0,0,.89,1h15.87a.89.89,0,0,0,.9-.89V80.14a.9.9,0,0,0-.9-.9H556.06a.89.89,0,0,0-.89.9ZM566.88,84a.78.78,0,0,0-.77.77v.73a.36.36,0,0,0,.35.36h.48c1,0,2-.07,3-.07.74,0,.8.32.8,1.25v1.28c0,.45,0,.83-.35,1a.21.21,0,0,0-.16.22c0,.07,0,.13.13.26a8.84,8.84,0,0,1,1.34,2.11.93.93,0,0,1-.29.55c-.06.06-.13.12-.13.19s.07.16.26.19c.42.06.45.54.45,1.15v1.35c0,.83-.07,1.24-.77,1.24-1.09,0-2.21-.06-3.3-.06h-7.77c-1.12,0-2.21.06-3.33.06-.7,0-.77-.41-.77-1.28v-.73c0-1.44,0-1.76.84-1.76,1.08,0,2.17.06,3.26.06h.38a.93.93,0,0,0,1-1V90.34a.91.91,0,0,0-.9-1c-.86,0-1.73.07-2.59.07-.39,0-.8,0-.8-1.12V87c0-.9.09-1.22.83-1.22s1.73.07,2.62.07H561c.42,0,.58-.26.58-.64v-.71A.56.56,0,0,0,561,84h-.7c-1.12,0-2.21.1-3.33.1-.67,0-.73-.39-.73-1.12V81.58c0-.87.06-1.22.8-1.22,1.08,0,2.17.07,3.26.07h7.39c1.12,0,2.24-.07,3.33-.07.7,0,.77.42.77,1.22v1.28c0,.86-.07,1.25-.77,1.25-1.12,0-2.21-.1-3.33-.1Zm-.42,5.34a.36.36,0,0,0-.35.36V92.1a.78.78,0,0,0,.77.77h.19a.38.38,0,0,0,.42-.38,5.28,5.28,0,0,0-.9-1.38.49.49,0,0,1-.19-.38c0-.32.73-.83,1-1,.1-.07.16-.13.16-.23s-.13-.16-.22-.16Z" transform="translate(-188 -40.65)"/><path d="M598.62,76.27V79.5c0,8.6,4.32,15.16,11.39,19.29.29.16.58.35.58.67,0,1.25-2.05,3.65-3.17,3.65s-4.89-3.61-5.73-4.48a24.08,24.08,0,0,1-4.83-7.17c-.09-.22-.25-.51-.54-.51s-.38.29-.45.51a24.07,24.07,0,0,1-6.53,8.61c-.76.67-3.61,3-4.48,3-1.12,0-3.13-2.5-3.13-3.55,0-.35.32-.55.67-.74a23.71,23.71,0,0,0,7.68-6.85c2.72-3.71,3.61-8.22,3.61-12.76,0-1.28-.12-2.72-.12-3.81,0-.7.25-1,1-1,.57,0,2.69.16,3.33.22,1,.1,1.63.07,1.63.55,0,.28-.32.41-.55.51A.82.82,0,0,0,598.62,76.27Z" transform="translate(-188 -40.65)"/><path d="M637.53,80.84a11.24,11.24,0,0,1,3.4,8.22,12,12,0,0,1-6.44,10.63,12.24,12.24,0,0,1-3.8,1.44c-1.12,0-2.82-2.95-2.82-3.84,0-.29.29-.42,1.22-.64,3.71-1,6.75-3.3,6.75-7.39,0-5-3.84-7-4.8-7-.55,0-.61.58-.64,1.15-.35,4.45-1.63,9.89-4.58,13.41a6.19,6.19,0,0,1-4.64,2.65,5.7,5.7,0,0,1-4.86-3.29,10.78,10.78,0,0,1-1.06-4.8,13.56,13.56,0,0,1,13.63-13.79A11.86,11.86,0,0,1,637.53,80.84ZM620,91.3c0,.77.19,3.11,1.31,3.11.77,0,1.86-2.11,2.18-2.79a28.92,28.92,0,0,0,2-8.19.43.43,0,0,0-.42-.48C624.19,83,620,85.9,620,91.3Z" transform="translate(-188 -40.65)"/><path class="b" d="M675.52,85.09c-1.39,3.77-2.7,7.38-5.08,14.19-.74,2-1.15,2.29-3.28,2.29H656.5c-1.31,0-1.89-.16-1.89-.9a4.85,4.85,0,0,1,.41-1.39c2.71-6.56,4.18-10.33,5.58-13.94l11-28.87a3.72,3.72,0,0,0,.32-1.39c0-.74-.57-.9-1.88-.9H659c-4.35,0-13.28.24-14.35.24-1.72,0-2.05-.57-2.05-2.46V43.52c0-1.89.33-2.38,2.05-2.38.57,0,10,.16,14.35.16h13.61c4.35,0,13.78-.16,14.35-.16,1.72,0,2,.49,2,2.38v4a11.61,11.61,0,0,1-.9,4.75c-1.72,4.18-3.36,8.45-4.59,11.73Z" transform="translate(-188 -40.65)"/><path class="b" d="M749.24,69.92c0,20.34-12.14,32.15-27.39,32.15-14.76,0-26.16-10.34-26.16-29.77,0-17.47,9.27-31.65,27.39-31.65C737.51,40.65,749.24,50.49,749.24,69.92Zm-39.52,2.79c0,11,4.51,16.65,12.13,16.65,8,0,13.45-7.55,13.45-19,0-11-4.84-16.31-12.22-16.31C713.57,54.1,709.72,62.79,709.72,72.71Z" transform="translate(-188 -40.65)"/><path class="b" d="M789.67,58c0,12.22-6.65,18.78-16.57,18.78-8.85,0-15.58-6.4-15.58-17.3,0-12.14,6.56-18.86,16.81-18.86C783,40.65,789.67,47.13,789.67,58Zm-20.91,1.64c0,5.09,2,7.71,4.67,7.71,3.12,0,5.25-2.79,5.25-8.36,0-5.09-2.13-8-4.76-8C770.64,51.06,768.76,54.1,768.76,59.67Zm7.79,41.9c-1.23,0-1.81-.16-1.81-.73a3.93,3.93,0,0,1,.49-1.48c1.4-2.71,2.79-5.49,3.94-7.87l19.19-39.94c1.31-2.7,2.54-5.41,3.77-8.11.9-2,1.31-2.3,3.44-2.3H813c1.23,0,1.81.16,1.81.74a3.84,3.84,0,0,1-.49,1.47c-1.56,3-3,5.83-4.35,8.7l-19,39.6c-1.23,2.54-2.38,5.09-3.53,7.63-.9,2-1.31,2.29-3.44,2.29ZM832,83.29c0,12.22-6.64,18.78-16.57,18.78-8.85,0-15.58-6.4-15.58-17.31,0-12.13,6.56-18.86,16.81-18.86C825.34,65.9,832,72.38,832,83.29Zm-20.91,1.64c0,5.08,2,7.71,4.67,7.71,3.12,0,5.25-2.79,5.25-8.37,0-5.08-2.13-8-4.76-8C813,76.32,811.07,79.35,811.07,84.93Z" transform="translate(-188 -40.65)"/><path d="M853.07,76.59c0-.32.07-.61.45-.61s3.94.86,4.54,1c.26.07.83.19.83.51s-.22.32-.51.45c-.51.26-.64,1.12-.77,2l-.06.45c0,.19-.09.54-.09.64,0,.73.67.76,1.08.76a5.65,5.65,0,0,1,2.66.71c2.27,1.31,2.69,3.2,2.69,5.47,0,2.82-.61,7.49-2,9.95s-3.84,3.58-6.75,3.58c-.93,0-1.38-.12-1.66-.89a12.73,12.73,0,0,1-.71-3.23c0-.42.13-.77.61-.77s.89,0,1.34,0c1.89,0,2.4-.13,3-1.34a18.54,18.54,0,0,0,1.44-7.11c0-1.47-.22-2-1.47-2-1.06,0-1.34.13-1.63,1.18a42.49,42.49,0,0,1-4.93,10.66,20.47,20.47,0,0,1-2.27,3.1.7.7,0,0,1-.54.23c-.74,0-3.78-1.7-3.78-2.72,0-.32.29-.64.8-1.15a25.09,25.09,0,0,0,5.57-8.8,1.91,1.91,0,0,0,.16-.55.45.45,0,0,0-.51-.48,20.57,20.57,0,0,0-2.72.9,1.53,1.53,0,0,1-.64.22c-.52,0-.9-1.25-1.19-2.49a17.72,17.72,0,0,1-.41-2.21c0-.42.22-.51,1.18-.61a34.07,34.07,0,0,0,4.9-.8c.83-.16,1-.41,1.12-1.28a40.31,40.31,0,0,0,.25-4.41Zm13,3.16a25.16,25.16,0,0,1,2.6,3.2c.48.67,2.62,3.81,2.62,4.42,0,1-2.91,2.72-3.81,2.72-.35,0-.51-.29-.8-.87a26.83,26.83,0,0,0-4.45-7.16,1,1,0,0,1-.35-.58c0-.67,2.47-2.3,3.2-2.3A1.45,1.45,0,0,1,866.09,79.75Zm3.14-2.62c.83.83,1.47,1.54,1.47,1.82,0,.64-1.5,1.83-1.89,1.83-.12,0-.32-.19-.48-.39A33.57,33.57,0,0,0,866,77.9c-.19-.16-.35-.32-.35-.48,0-.45,1.6-1.67,2-1.67S868.65,76.55,869.23,77.13Zm2.34-3.23c.44.41,2.3,2.14,2.3,2.59,0,.64-1.54,1.86-1.89,1.86-.19,0-.38-.26-.48-.42a33.63,33.63,0,0,0-2.33-2.46c-.13-.13-.36-.32-.36-.52,0-.44,1.64-1.63,2-1.63S871.47,73.8,871.57,73.9Z" transform="translate(-188 -40.65)"/></svg>