<svg xmlns="http://www.w3.org/2000/svg" viewBox="0 0 521.4 102.1"><defs><style>.cls-1{fill:#fff;}</style></defs><title>レイヤー 1</title><g id="レイヤー_2" data-name="レイヤー 2"><g id="レイヤー_1-2" data-name="レイヤー 1"><path class="cls-1" d="M62,50.12a35.57,35.57,0,0,1-2,12A26,26,0,0,1,44.41,78,36.46,36.46,0,0,1,31,80.31,36.77,36.77,0,0,1,17.54,78,26.84,26.84,0,0,1,7.83,71.7,26.52,26.52,0,0,1,2,62.16a35.57,35.57,0,0,1-2-12V5H16.19V49.5a17.83,17.83,0,0,0,1.09,6.33,15,15,0,0,0,3.06,5,13.92,13.92,0,0,0,4.72,3.32,14.9,14.9,0,0,0,6,1.19,14.55,14.55,0,0,0,5.91-1.19,14.12,14.12,0,0,0,4.67-3.32,15.33,15.33,0,0,0,3.06-5,17.83,17.83,0,0,0,1.09-6.33V5H62Z"/><path class="cls-1" d="M69.89,28H84.21v6.64h.2a17.54,17.54,0,0,1,2.44-2.75,18,18,0,0,1,3.53-2.54,21.27,21.27,0,0,1,4.41-1.87,17.14,17.14,0,0,1,5.08-.73A26,26,0,0,1,110,28.69a22.63,22.63,0,0,1,7.84,5.4,24,24,0,0,1,5,8.25,30.13,30.13,0,0,1,1.76,10.48,31.53,31.53,0,0,1-1.61,10.11,27.77,27.77,0,0,1-4.56,8.56,22.4,22.4,0,0,1-7.21,6,20.46,20.46,0,0,1-9.65,2.23,26.82,26.82,0,0,1-9.08-1.5,14.54,14.54,0,0,1-6.9-5.14h-.21V102.1H69.89ZM84.21,53.23a13.08,13.08,0,0,0,3.26,9.24Q90.74,66,96.66,66t9.18-3.52a13,13,0,0,0,3.27-9.24A13,13,0,0,0,105.84,44q-3.27-3.53-9.18-3.53T87.47,44A13.08,13.08,0,0,0,84.21,53.23Z"/><path class="cls-1" d="M129.34,28h14.32v6.64h.21a16.57,16.57,0,0,1,2.44-2.75,18.26,18.26,0,0,1,3.52-2.54,21.13,21.13,0,0,1,4.42-1.87,17.14,17.14,0,0,1,5.08-.73,26,26,0,0,1,10.17,1.92,22.68,22.68,0,0,1,7.83,5.4,24,24,0,0,1,5,8.25,30.13,30.13,0,0,1,1.76,10.48,31.81,31.81,0,0,1-1.61,10.11A27.77,27.77,0,0,1,178,71.49a22.33,22.33,0,0,1-7.22,6,20.41,20.41,0,0,1-9.65,2.23,26.86,26.86,0,0,1-9.08-1.5,14.54,14.54,0,0,1-6.9-5.14h-.2V102.1H129.34Zm14.32,25.21a13,13,0,0,0,3.27,9.24Q150.2,66,156.11,66t9.19-3.52a13,13,0,0,0,3.27-9.24A13,13,0,0,0,165.3,44q-3.27-3.53-9.19-3.53T146.93,44A13,13,0,0,0,143.66,53.23Z"/><path class="cls-1" d="M237.26,69.73a24.85,24.85,0,0,1-9.45,7.37A28.22,28.22,0,0,1,216,79.69a31.65,31.65,0,0,1-11-1.87,26.24,26.24,0,0,1-8.93-5.34,25.12,25.12,0,0,1-6-8.35A26.33,26.33,0,0,1,188,53.23a26.28,26.28,0,0,1,2.18-10.89,25.16,25.16,0,0,1,6-8.36A26.4,26.4,0,0,1,205,28.64a31.65,31.65,0,0,1,11-1.87,24.81,24.81,0,0,1,9.8,1.87A20.42,20.42,0,0,1,233.26,34,24.47,24.47,0,0,1,238,42.34a33.55,33.55,0,0,1,1.66,10.89v4.88H203.53a12.38,12.38,0,0,0,4.05,7.11,11.47,11.47,0,0,0,7.68,2.64,11.67,11.67,0,0,0,6.48-1.71,17.25,17.25,0,0,0,4.62-4.41ZM224.08,47.52a9,9,0,0,0-2.6-6.74,9.21,9.21,0,0,0-6.95-2.8,11.7,11.7,0,0,0-4.56.83,11.32,11.32,0,0,0-3.38,2.13,9.15,9.15,0,0,0-2.17,3,10,10,0,0,0-.89,3.58Z"/><path class="cls-1" d="M246.08,28h15.56v8.09h.21a19.1,19.1,0,0,1,5.91-7,15,15,0,0,1,8.62-2.34c.89,0,1.79,0,2.69.11a12.45,12.45,0,0,1,2.49.41V41.51a22.13,22.13,0,0,0-3.27-.78,21.42,21.42,0,0,0-3.37-.26,16.53,16.53,0,0,0-7.05,1.24,9.35,9.35,0,0,0-4,3.48,13.19,13.19,0,0,0-1.81,5.34,51.51,51.51,0,0,0-.42,6.85V78.45H246.08Z"/><path class="cls-1" d="M313.31,5H362.6V19.92H329.5V34.87h30.61V49.81H329.5V78.45H313.31Z"/><path class="cls-1" d="M366.65,12.14a8.7,8.7,0,0,1,2.64-6.38,9,9,0,0,1,12.77,0,8.7,8.7,0,0,1,2.64,6.38,8.7,8.7,0,0,1-2.64,6.38,9,9,0,0,1-12.77,0A8.7,8.7,0,0,1,366.65,12.14ZM367.89,28h15.57V78.45H367.89Z"/><path class="cls-1" d="M438.66,69.73a24.89,24.89,0,0,1-9.44,7.37,28.3,28.3,0,0,1-11.83,2.59,31.69,31.69,0,0,1-10.95-1.87,26.19,26.19,0,0,1-8.92-5.34,25,25,0,0,1-6-8.35,26.49,26.49,0,0,1-2.18-10.9,26.44,26.44,0,0,1,2.18-10.89,25,25,0,0,1,6-8.36,26.35,26.35,0,0,1,8.92-5.34,31.69,31.69,0,0,1,10.95-1.87,24.86,24.86,0,0,1,9.81,1.87A20.42,20.42,0,0,1,434.67,34a24.47,24.47,0,0,1,4.72,8.36,33.83,33.83,0,0,1,1.66,10.89v4.88H404.94a12.36,12.36,0,0,0,4,7.11,11.48,11.48,0,0,0,7.68,2.64,11.73,11.73,0,0,0,6.49-1.71,17.55,17.55,0,0,0,4.62-4.41ZM425.48,47.52a9,9,0,0,0-2.59-6.74,9.22,9.22,0,0,0-6.95-2.8,11.76,11.76,0,0,0-4.57.83A11.27,11.27,0,0,0,408,40.94a9.18,9.18,0,0,0-2.18,3,10,10,0,0,0-.88,3.58Z"/><path class="cls-1" d="M446.32,0h15.57V78.45H446.32Z"/><path class="cls-1" d="M521.4,78.45H507.08V71.81h-.21a16.54,16.54,0,0,1-2.44,2.74,18.29,18.29,0,0,1-3.52,2.55A21.4,21.4,0,0,1,496.44,79a17.29,17.29,0,0,1-5,.73,26,26,0,0,1-10.17-1.92,22.79,22.79,0,0,1-7.83-5.39,24,24,0,0,1-5-8.25,29.94,29.94,0,0,1-1.77-10.48,31.87,31.87,0,0,1,1.61-10.12A27.58,27.58,0,0,1,472.79,35,22.29,22.29,0,0,1,480,29a20.53,20.53,0,0,1,9.65-2.23,26.62,26.62,0,0,1,9.08,1.51,14.52,14.52,0,0,1,6.9,5.13h.2V0H521.4ZM507.08,53.23A13,13,0,0,0,503.81,44q-3.27-3.53-9.18-3.53T485.44,44a13.08,13.08,0,0,0-3.26,9.23,13.08,13.08,0,0,0,3.26,9.24Q488.71,66,494.63,66t9.18-3.52A13,13,0,0,0,507.08,53.23Z"/></g></g></svg>