<svg id="レイヤー_1" data-name="レイヤー 1" xmlns="http://www.w3.org/2000/svg" viewBox="0 0 797.58 149.04"><defs><style>.cls-1{fill:#8932d8;}</style></defs><title>mana-text</title><path class="cls-1" d="M19.71,52.82c-1.11,0-2.1.5-2.1,1.74V55c0,1.68-.62,1.86-3.35,1.86H9.73c-1.24,0-2.1-.12-2.1-1.86,0-2.66.18-5.39.18-8.12V12.15c0-2.17-.18-4.28-.18-6.45,0-2.54,1.24-3.28,3.59-3.28,2.17,0,4.34.18,6.51.18H39.12c2.17,0,4.28-.18,6.45-.18,2.35,0,3.66.68,3.66,3.28,0,2.17-.13,4.28-.13,6.45V46.87c0,2.73.19,5.46.19,8.12,0,1.68-.81,1.86-2.23,1.86H42.22c-2.67,0-3-.25-3-2.23,0-1.3-.8-1.8-2.1-1.8Zm-2.29-38a1.82,1.82,0,0,0,1.74,1.73H37.69a1.77,1.77,0,0,0,1.74-1.73V13a1.78,1.78,0,0,0-1.74-1.74H19.16A1.78,1.78,0,0,0,17.42,13Zm0,13.57a1.78,1.78,0,0,0,1.74,1.74H37.69a1.78,1.78,0,0,0,1.74-1.74v-2a1.78,1.78,0,0,0-1.74-1.74H19.16a1.82,1.82,0,0,0-1.74,1.74Zm0,13.83A1.78,1.78,0,0,0,19.16,44H37.69a1.78,1.78,0,0,0,1.74-1.74V40a1.74,1.74,0,0,0-1.74-1.74H19.16A1.77,1.77,0,0,0,17.42,40Z"/><path class="cls-1" d="M78.61,44.14c0,1.37.13,2.79.13,4.16,0,6.32-4.22,7.87-9.8,7.87-2.85,0-3.65-.56-4.34-2.36a18.53,18.53,0,0,1-.8-4.89c0-1.06.18-2.05,1.42-2.05a6.28,6.28,0,0,1,.93.06,14.94,14.94,0,0,0,1.55.13c2.17,0,2.24-.19,2.24-3.17V39.06c0-.62-.19-1.3-1-1.3a11.24,11.24,0,0,0-2.23.68c-.56.18-.68.25-1,1.18-.25.49-.56,1.11-1.18,1.11-.8,0-1-1-1.42-3.53-.19-.93-.38-2.05-.69-3.41A15.12,15.12,0,0,1,61.94,31c0-1.06.62-1.18,3.72-1.74.74-.12,1.55-.25,2.48-.43s1.8-.37,1.8-1.8V20.27a1.78,1.78,0,0,0-1.8-1.73c-1.12,0-2.23.12-3.35.12-1.61,0-1.74-.68-1.74-2.54V14.45c0-3.54,0-4.1,1.74-4.1,1.12,0,2.23.13,3.35.13a1.77,1.77,0,0,0,1.8-1.92V5.39c0-1.67-.19-3.53-.19-3.9,0-.93.74-.93,1.43-.93,1.73,0,5,.18,6.82.25.68.06,2,.06,2,1,0,.56-.43.8-.81,1.05-.62.44-.62,1.3-.62,2.92V8.49a1.77,1.77,0,0,0,1.8,1.93c.68,0,1.61-.07,2.36-.07,1.61,0,1.73.62,1.73,2.48v3.54c0,1.67-.18,2.29-1.67,2.29-.74,0-1.67-.12-2.42-.12a1.75,1.75,0,0,0-1.8,1.73v4.1c0,.61.25,1.23,1,1.23a23.8,23.8,0,0,0,3-1,1.94,1.94,0,0,1,.75-.18c1.24,0,1.24,2.79,1.24,4.58,0,2.86-.31,3-4,4.53-1.43.56-2,.87-2,2.54ZM96.84,12.9c-1.18.18-2,.43-2,1.79,0,2,.49,2.11,2.29,2.11H106c2.17,0,3.47,0,4.09-3.59.12-.93.25-1.68,1.49-1.68a15.79,15.79,0,0,1,4.77,1c1,.38,1.74.87,1.74,2a19.56,19.56,0,0,1-2,6.63c-1.86,3.35-3.91,3.53-7.44,3.53H95.85c-1.86,0-5.89,0-7.38-1-1.67-1.18-2.11-3.53-2.11-5.45,0-1.61.13-3.29.13-4.9V8.56c0-3.54-.25-6.58-.25-6.82,0-.93.56-1.06,1.36-1.06,1.62,0,5.65.25,7.26.37.68.07,1.55.19,1.55,1,0,.49-.37.68-.81,1.05a2,2,0,0,0-.68,1.74,1,1,0,0,0,1,1.11c1.24,0,10.91-3.16,13.21-4.65.25-.18.74-.68,1-.68a1,1,0,0,1,.68.31c.31.31,2.05,2.6,2.3,3a7.51,7.51,0,0,0,.43.62c.81,1.18,2.3,3.28,2.3,3.84a.83.83,0,0,1-.87.75,4.43,4.43,0,0,1-1.24-.38,1.29,1.29,0,0,0-.69-.18,2.82,2.82,0,0,0-.86.31A77.07,77.07,0,0,1,96.84,12.9Zm-.12,40.54a1,1,0,0,0-1,1c0,.25.06.44.06.62,0,1.43-.44,1.55-2.79,1.55H89c-1.18,0-2-.12-2-1.42,0-1.74.12-3.54.12-5.27V35c0-1.68-.12-3.41-.12-5.09s.86-2.23,2.48-2.23c1.79,0,3.59.13,5.39.13h12.65c1.8,0,3.53-.13,5.33-.13,1.55,0,2.54.44,2.54,2.17s-.12,3.47-.12,5.15V50.09c0,1.74.12,3.48.12,5.27,0,1.31-.62,1.43-3.1,1.43h-3.59c-1.18,0-2-.12-2-1.37,0-.3.06-.74.06-1.05a1,1,0,0,0-1-.93ZM95.6,36.58a.81.81,0,0,0,.81.74h9.67a.71.71,0,0,0,.74-.74v-.31a.77.77,0,0,0-.74-.81H96.41a.82.82,0,0,0-.81.81Zm0,8.62a.77.77,0,0,0,.81.74h9.67a.71.71,0,0,0,.74-.74v-.5a.71.71,0,0,0-.74-.74H96.41a.81.81,0,0,0-.81.74Z"/><path class="cls-1" d="M147.87,9.36c.37.06,1,.31,1,.75s-.43.86-.68,1.17c-.81.93-1,2.92-1,6.08,0,.62,0,2,1.3,2,.62,0,6-.93,7.19-1.11s1.74-.62,1.74-1.8a72.9,72.9,0,0,0-1.06-9.73,7.45,7.45,0,0,1-.18-1.12.89.89,0,0,1,1-.93c.74,0,7.13,1,9.55,1.55.62.12,1,.37,1,.74s-.31.5-.68.87c-.5.56-.56,2.61-.56,4.09v1.93c0,.24-.06.55-.06.86,0,.93.37,1.68,1.42,1.68.68,0,3.1-.31,4.28-.5,1-.18,3.84-.62,4.65-.62,1.18,0,1.55.37,1.55,5,0,5.09-.06,5.09-2.17,5.09h-1.37c-1.17,0-6.38.18-7.25.37-1.05.25-1.36,1-1.49,2.17-.86,8.12-3.28,12.65-12.27,12.65-1,0-1.74-.07-2.23-1-.62-1.11-1.18-5.33-1.18-6.63,0-.68.31-1.3,1.11-1.3.62,0,1.24.06,1.86.06,1.55,0,2.67-.31,3.29-1.92a8.64,8.64,0,0,0,.43-1.68.87.87,0,0,0-.93-.86c-.37,0-1.55.18-5,.74-4.27.68-4.34,1-4.34,3.16v.75a56.11,56.11,0,0,0,.5,8c.93,3.48,4,3.6,7.94,3.6a72.64,72.64,0,0,0,11-.93c.44-.06,1.74-.25,2.17-.25.93,0,1.18.81,1.18,3.1,0,2.67-.19,5.52-.81,6.14-.93.87-10.29,1.11-12,1.11-3.41,0-7.88-.24-11-1.3a11.09,11.09,0,0,1-6.82-6.82c-1.05-3.22-1.05-7.93-1.11-11.53,0-.93-.19-2-1.43-2-.74,0-6.82,1.67-8.18,2a3.26,3.26,0,0,1-.81.13c-.87,0-1.12-.37-1.49-4.9-.12-1.49-.25-3.1-.25-4.28,0-1.55.69-1.61,2-1.61,1.18,0,6.14-.68,7.5-.87,1.61-.25,2.3-.68,2.3-2.35a80.58,80.58,0,0,0-.5-8.68c0-.31-.06-.75-.06-1.06,0-.8.49-1.11,1.24-1.11C139.44,8.31,146.69,9.11,147.87,9.36Z"/><path class="cls-1" d="M206.09,48.54c0,1.8-4.47,6.58-6.2,6.58-.62,0-1.06-.62-1.37-1.06A49,49,0,0,0,188.36,45a1.13,1.13,0,0,1-.62-.87c0-1.18,4.46-6,5.82-6S206.09,47,206.09,48.54Z"/><path class="cls-1" d="M266.82,14.69a1.71,1.71,0,0,0-1.8,1.74v2.29a1.79,1.79,0,0,0,2,2h1.31c2.79,0,5.58-.19,8.37-.19,1.67,0,1.79.68,1.79,2.91v2.92c0,2.29-.12,3-1.79,3-2.79,0-5.58-.18-8.37-.18h-1.24A1.8,1.8,0,0,0,265,31.06v2.67a1.77,1.77,0,0,0,1.74,1.73h7.93c2.79,0,5.58-.18,8.37-.18,1.67,0,1.8.68,1.8,2.66v3.47c0,2.05-.13,2.67-1.8,2.67-2.79,0-5.58-.12-8.37-.12h-7.75c-1.55,0-1.92.93-1.92,2.29,0,2.91.19,5.83.19,8.74,0,1.61-.69,1.8-2.92,1.8h-4.52c-2,0-2.79-.19-2.79-1.74,0-2.91.24-5.82.24-8.74v-.49A1.77,1.77,0,0,0,253.3,44H240c-2.79,0-5.58.12-8.31.12-1.68,0-1.8-.62-1.8-2.67V38.62c0-3,.12-3.34,1.92-3.34.87,0,2.17.12,4.09.12,1.37,0,1.68-1,1.68-2.11V28.21c0-.81-.06-1.37-.75-1.37a1,1,0,0,0-.68.25,1.45,1.45,0,0,1-.93.44c-1.67,0-6.2-4.65-6.2-6.27,0-.49.62-1,1.24-1.48A39,39,0,0,0,242.08,1.49c.31-1.06.44-1.49,1.06-1.49,1.05,0,7.19,1.74,8.61,2.11.68.18,1.49.37,1.49,1s-.56.74-.93.87c-.19.06-1.3.37-1.3,1.24,0,.62.68.74,1.11.74h20.71c2.67,0,5.33-.12,8-.12,1.61,0,1.73.74,1.73,2.73v3.53c0,2.05-.12,2.79-1.73,2.79-2.67,0-5.33-.19-8-.19Zm-18.73,0c-2,0-2.41.62-3.47,2.3-.37.55-.87,1.24-1.48,2.1a1.39,1.39,0,0,0-.38.81c0,.81,1.12.81,2.92.81h7.81A1.77,1.77,0,0,0,255.22,19V16.43a1.7,1.7,0,0,0-1.73-1.74ZM248,29.14a1.72,1.72,0,0,0-1.73,1.73v2.86A1.72,1.72,0,0,0,248,35.46h5.46a1.76,1.76,0,0,0,1.73-1.73V30.87a1.83,1.83,0,0,0-1.86-1.73Z"/><path class="cls-1" d="M334.52,17.17c0,.5.56.56.93.56,1.55,0,3-.12,4.59-.12,1.92,0,3.66.31,3.66,3.47,0,2.23-.19,4.46-.19,6.63V43.34c0,1.92.12,3.84.12,5.82,0,2.48-.31,5.15-2.85,6.39-1.61.81-5,1.18-7.06,1.18-2.92,0-3.54-.81-4.22-4-.19-.93-.62-1-1.49-1h-.74c-2,0-4.16-.13-6.2-.13h-2.79c-1.12,0-1.61.07-1.61.93,0,1.43-.31,1.62-2.48,1.62h-3.66c-1.49,0-2-.25-2-1.37V42.72c0-5.27-.12-5-2-6.14a6.34,6.34,0,0,1-1.18-.87,1.18,1.18,0,0,0-.8-.37c-.5,0-.62.68-.62,1v9.49c0,3,.18,5.95.18,8.92,0,1.74-.62,1.87-2.85,1.87h-3.6c-2,0-2.79-.13-2.79-1.8,0-3,.19-6,.19-9V27.71c0-2.23-.12-4.4-.12-6.63,0-2.54,1-3.47,3.53-3.47,1.8,0,3.6.12,5.39.12.69,0,1.37,0,1.37-.56A8.72,8.72,0,0,0,304,14.76a3.16,3.16,0,0,1-.37-1.37c-.07-.62-.25-.62-2.67-.62s-5,.13-7.5.13c-1.49,0-1.61-.56-1.61-2.3V7.5c0-1.55.12-2.17,1.55-2.17,2.48,0,5,.13,7.56.13h12a1.62,1.62,0,0,0,1.73-1.74c0-.37-.12-1.55-.18-2a1.1,1.1,0,0,1-.07-.44c0-.74.87-.74,1.43-.74,1.55,0,5.27.25,6.88.37,1.24.12,2.67.12,2.67.81,0,.31-.19.43-.62.68a1.48,1.48,0,0,0-.62,1.42A1.73,1.73,0,0,0,326,5.46h11.9c2.54,0,5-.13,7.5-.13,1.49,0,1.61.56,1.61,2.17v3.1c0,1.74-.12,2.3-1.61,2.3-2.48,0-5-.13-7.5-.13h-.81c-.18,0-.43.06-.43.25s.19.25.31.31c.37.19.68.37.68.87s-.43.68-1.18.87A1.8,1.8,0,0,0,335,16.18,2.28,2.28,0,0,0,334.52,17.17Zm-28.89,7.75a1.77,1.77,0,0,0-1.73,1.74v4.09c0,.37.12,1.05.68,1.05,1.11,0,5.51-4.09,5.51-6.13,0-.69-.74-.75-1.3-.75ZM335.2,36.58c0-1.24-.74-1.74-1.92-1.74-.12,0-2.11.13-4,.13h-.74c-8,0-8.93-.38-8.93-4.22v-4c0-1.24-.43-1.8-1.67-1.8H314.5c-.25,0-.87.06-.87.44s.93.74,1.3.86c.56.19,3.47,1.43,3.47,2.05,0,.43-.49.62-.87.74-.74.25-.86.56-1.73,1.93a21.06,21.06,0,0,1-3.23,4.15,1.58,1.58,0,0,0-.49.87c0,.43.43.56,1.86.56s2.85.06,4.15.06h3c2.11,0,4.28-.13,6.45-.13,1.67,0,3.22.19,3.22,2.3,0,1.3-.12,2.66-.12,4v2.85c0,1.42.12,2.42,3,2.42,1.49,0,1.61-1.31,1.61-3.54ZM313.75,12.77c-.43,0-.93.06-.93.62a11,11,0,0,0,.75,2,5.47,5.47,0,0,0,.31.68c.37.87.62,1.61,1.67,1.61h8.06c2,0,2.85-4.09,2.85-4.28,0-.62-.56-.68-1-.68Zm2.85,31.81a1.51,1.51,0,0,0,1.49,1.48H321a1.5,1.5,0,0,0,1.48-1.48v-.87A1.5,1.5,0,0,0,321,42.22h-2.92a1.52,1.52,0,0,0-1.49,1.49Zm11-17.61c0,1.3.06,1.61.81,1.61H329c1.06,0,1.43,0,1.68-1.49.06-.43.18-.62.8-.62.44,0,1.86.13,2.3.19a5.12,5.12,0,0,0,.62.12.71.71,0,0,0,.8-.8v-.25a.82.82,0,0,0-.8-.81h-5.95a.83.83,0,0,0-.81.87Z"/><path class="cls-1" d="M374.33,40.48c0,3.29.18,10.42.18,10.85,0,1.3-.37,1.55-1.8,1.55h-7.19c-1.42,0-1.79-.25-1.79-1.55,0-.43.18-7.56.18-10.85V20.65c0-1.12-.18-1.56-.74-1.56a2.9,2.9,0,0,0-1,.25c-2.11.75-4,1.49-5.65,2.24a2.85,2.85,0,0,1-1.17.37c-.56,0-.81-.44-1.12-1.37l-2.17-6.13a3.27,3.27,0,0,1-.25-1.18c0-.56.37-.81,1.43-1.12A109.93,109.93,0,0,0,365,7.94a8.19,8.19,0,0,1,3.65-.75h4.09c1.43,0,1.8.25,1.8,1.55,0,.44-.18,7.57-.18,10.85Z"/><path class="cls-1" d="M389.15,62.31c-.87,0-1.31-.13-1.31-.5a2.33,2.33,0,0,1,.5-1c1.49-2.17,2.91-5.21,2.91-6.57,0-1-.56-1.37-1.55-1.62a5.65,5.65,0,0,1-4.52-5.57c0-3.6,2.29-6.45,6.69-6.45,2.85,0,6.08,1.92,6.08,6.94a30.19,30.19,0,0,1-3.66,13.21,2.42,2.42,0,0,1-2.67,1.55Z"/><path class="cls-1" d="M443.7,29c0,15.38-9.17,24.3-20.71,24.3-11.15,0-19.77-7.81-19.77-22.5,0-13.21,7-23.93,20.7-23.93C434.84,6.82,443.7,14.26,443.7,29Zm-29.88,2.11c0,8.31,3.41,12.59,9.17,12.59,6.08,0,10.17-5.71,10.17-14.33,0-8.3-3.66-12.33-9.24-12.33C416.73,17,413.82,23.56,413.82,31.06Z"/><path class="cls-1" d="M491.07,29c0,15.38-9.18,24.3-20.71,24.3-11.16,0-19.77-7.81-19.77-22.5,0-13.21,7-23.93,20.7-23.93C482.2,6.82,491.07,14.26,491.07,29Zm-29.88,2.11c0,8.31,3.41,12.59,9.17,12.59,6.08,0,10.17-5.71,10.17-14.33,0-8.3-3.66-12.33-9.24-12.33C464.1,17,461.19,23.56,461.19,31.06Z"/><path class="cls-1" d="M538.44,29c0,15.38-9.18,24.3-20.71,24.3-11.16,0-19.78-7.81-19.78-22.5,0-13.21,7-23.93,20.71-23.93C529.57,6.82,538.44,14.26,538.44,29Zm-29.89,2.11c0,8.31,3.41,12.59,9.18,12.59,6.08,0,10.17-5.71,10.17-14.33,0-8.3-3.66-12.33-9.24-12.33C511.47,17,508.55,23.56,508.55,31.06Z"/><path class="cls-1" d="M555.49,11.41c-2.85,0-5.64.12-8.43.12-1.62,0-1.74-.74-1.74-2.73V5.33c0-2.11.12-2.79,1.8-2.79,2.79,0,5.58.19,8.37.19h34.78c2.79,0,5.58-.19,8.37-.19,1.67,0,1.8.68,1.8,2.79V8.8c0,2-.13,2.73-1.74,2.73-2.79,0-5.58-.12-8.43-.12H573.59c-1.55,0-2,.93-2,1.73v4.72a1.83,1.83,0,0,0,2,1.73H586.3c1.61,0,4-.12,6-.12,2.92,0,3,1.24,3,4.83,0,7.38-.62,20-3.1,26.78-2.05,5.59-8.06,5.59-13.51,5.59-2.79,0-3.85-.44-4.41-2.67a17.89,17.89,0,0,1-.49-4.4c0-1.12,0-2.23,1.18-2.23,1.42,0,3.34.24,4.95.24s2.86-.37,3.54-1.92c1.36-3.22,2-11.9,2-15.56,0-2.05-.24-2.05-4.21-2.05h-7.81c-2.17,0-2.61.69-3,2.73A43.6,43.6,0,0,1,561.19,50c-1.24,1.43-5.39,6.39-7.19,6.39-2,0-6.94-4.16-6.94-6,0-.74,1-1.61,1.48-2.1,5.52-5.27,10.36-10.42,12.28-18,1-4.16,1.24-6.95,1.24-15.63V13.21c0-.87-.62-1.8-2.23-1.8Z"/><path class="cls-1" d="M619.78,45.75c0,3.1.25,6.2.25,9.24,0,1.68-.74,1.8-3,1.8h-3.84c-2.23,0-3-.12-3-1.74,0-3.1.19-6.2.19-9.3V12.52c0-2.23-.13-4.4-.13-6.63,0-2.6,1.18-3.41,3.66-3.41,2.23,0,4.47.12,6.7.12H649c2.17,0,4.34-.12,6.58-.12,1.92,0,3.78.31,3.78,3.41,0,2.23-.19,4.4-.19,6.63V42.78c0,1.73.13,3.41.13,5.14,0,2.48-.07,4.71-2,6.51-2.23,2-5.76,2.24-8.68,2.24-2.54,0-4-.19-4.9-1.55a11.22,11.22,0,0,1-1-5c0-2.24.31-3.17,1.43-3.17.55,0,2,.19,3.1.19,2.48,0,2.54-.87,2.54-3V35.59a1.78,1.78,0,0,0-1.74-1.74H621.52a1.85,1.85,0,0,0-1.74,1.86Zm10.54-32.54a1.77,1.77,0,0,0-1.73-1.74h-7.07a1.78,1.78,0,0,0-1.74,1.74V23.68a1.78,1.78,0,0,0,1.74,1.74h7.07a1.73,1.73,0,0,0,1.73-1.74Zm9.12,10.47a1.7,1.7,0,0,0,1.73,1.74h6.88a1.78,1.78,0,0,0,1.74-1.74V13.21a1.78,1.78,0,0,0-1.74-1.74h-6.88a1.73,1.73,0,0,0-1.73,1.74Z"/><path class="cls-1" d="M688,45.75a8.84,8.84,0,1,1-8.86-8.86A8.86,8.86,0,0,1,688,45.75Zm-14.07,0a5.24,5.24,0,1,0,5.21-5.2A5.24,5.24,0,0,0,674,45.75Z"/><path class="cls-1" d="M45.51,136.51c0,3.66.12,7.32.12,11,0,1.18-.62,1.3-2.6,1.3h-4c-1.8,0-2.48-.12-2.48-1.3,0-3.66.18-7.32.18-11V124a4.56,4.56,0,0,0-1.17-3.35c-1.24-1.3-3.48-3.9-4.59-5.33-.25-.31-.56-.74-1-.74-.69,0-.81.8-.93,1.3A55.42,55.42,0,0,1,17.61,139.3c-1.49,1.8-8.62,9.3-10.67,9.3-1.48,0-5.39-5-5.39-6.14,0-.61.56-1,1.43-1.48a1.91,1.91,0,0,1,.43-.31c5.46-3.54,10.42-10.29,10.42-11.22,0-.75-.56-1.12-3.29-3.23a1.58,1.58,0,0,1-.81-1.3c0-1.18,3.17-6.51,4.34-6.51.68,0,2.42,1.36,3,1.8a1.8,1.8,0,0,0,.93.37c.8,0,1.05-1,1.42-2.17a34.91,34.91,0,0,0,1.24-5.7.74.74,0,0,0,.07-.38c0-.49-.56-.55-1.43-.55h-3c-1.36,0-2,.25-2.54,1.55a85,85,0,0,1-6.38,11.59c-.38.62-1.06,1.74-1.86,1.74-1.24,0-5.46-3.72-5.46-5,0-.74,1.24-2.41,2.11-3.59.25-.37.49-.68.62-.87a53.16,53.16,0,0,0,2.79-5.27,62.62,62.62,0,0,0,3.78-9.79,65.72,65.72,0,0,0,2-8.62c0-.44.19-.87.69-.87,1,0,6.81,1.8,8.24,2.23.43.13.74.25.74.75a1.31,1.31,0,0,1-1,1.11c-.74.25-.87.62-1.24,2-.18.62-.43,1.48-.8,2.66a2.83,2.83,0,0,0-.19.81c0,.93.93,1,1.61,1h1.74c1.49,0,2.91-.06,4.4-.06A5.72,5.72,0,0,1,29,104.46a1.53,1.53,0,0,0,1,.5,2,2,0,0,0,1-.44,3.07,3.07,0,0,1,1.73-.86c.69,0,.93.37,1.8,1.67.19.31.44.62.68,1s.62.75,1,.75.55-.37.55-1.18V99.87a59.17,59.17,0,0,0-.18-6,2.39,2.39,0,0,1-.06-.68c0-.62.37-.68,1.48-.68s6.39.18,7.51.24c.43,0,1.55.13,1.55.75,0,.43-.38.62-.62.8A1.76,1.76,0,0,0,45.57,96c-.06,2.23-.06,4.46-.06,6.76v13.39a3,3,0,0,0,1,2.54A66.77,66.77,0,0,0,56,125.29c.62.37,1.37.68,1.37,1.3,0,1.06-4.09,6.82-5.77,6.82-.68,0-2.91-1.42-4.09-2.17a4.27,4.27,0,0,0-.56-.37,1.38,1.38,0,0,0-.8-.37c-.68,0-.68.37-.68,1.55Z"/><path class="cls-1" d="M75.21,146.06c-1.31,0-1.68.56-1.8,1.74-.13,1-1.06,1.11-2.67,1.11H67c-2.29,0-3-.12-3-1.67,0-3,.18-6.08.18-9.11V104.34c0-2.17-.18-4.4-.18-6.64,0-2.54,1.11-3.41,3.53-3.41,2.11,0,4.22.13,6.32.13h33c2.1,0,4.15-.13,6.26-.13s3.59.38,3.59,3.41c0,2.24-.12,4.47-.12,6.64v33.79c0,3,.18,6,.18,9.05,0,1.55-.62,1.73-2.72,1.73h-3.91c-2.11,0-2.73-.12-2.85-1.49-.12-1-.74-1.36-1.67-1.36Zm-1.93-9.92A1.78,1.78,0,0,0,75,138.06h30.75a1.73,1.73,0,0,0,1.74-1.73V104a1.74,1.74,0,0,0-1.74-1.74H75A1.74,1.74,0,0,0,73.28,104ZM96,111.53A1.5,1.5,0,0,0,94.49,113v1.42a.7.7,0,0,0,.68.69h.93c2,0,3.9-.13,5.83-.13,1.42,0,1.55.62,1.55,2.42v2.48c0,.87-.07,1.61-.69,1.92a.42.42,0,0,0-.31.43c0,.13.07.25.25.5.56.68,2.61,3.41,2.61,4.09a1.78,1.78,0,0,1-.56,1.06c-.13.12-.25.24-.25.37s.12.31.5.37c.8.12.86,1.05.86,2.23v2.61c0,1.61-.12,2.41-1.48,2.41-2.11,0-4.28-.12-6.39-.12H83c-2.17,0-4.27.12-6.44.12-1.37,0-1.49-.8-1.49-2.48V132c0-2.79.06-3.41,1.61-3.41,2.11,0,4.22.12,6.32.12h.75a1.79,1.79,0,0,0,1.92-1.92v-3a1.75,1.75,0,0,0-1.74-1.92c-1.67,0-3.34.13-5,.13-.74,0-1.55-.07-1.55-2.17v-2.48c0-1.74.19-2.36,1.61-2.36,1.68,0,3.35.13,5.09.13h.49c.81,0,1.12-.5,1.12-1.25v-1.36a1.07,1.07,0,0,0-1-1H83.26c-2.17,0-4.27.18-6.44.18-1.3,0-1.43-.74-1.43-2.17v-2.72c0-1.68.13-2.36,1.55-2.36,2.11,0,4.22.13,6.32.13H97.59c2.17,0,4.34-.13,6.44-.13,1.37,0,1.49.81,1.49,2.36v2.48c0,1.67-.12,2.41-1.49,2.41-2.17,0-4.27-.18-6.44-.18Zm-.8,10.35a.69.69,0,0,0-.68.68v4.65A1.5,1.5,0,0,0,96,128.7h.38a.73.73,0,0,0,.8-.74,10.26,10.26,0,0,0-1.73-2.67,1,1,0,0,1-.38-.74c0-.62,1.43-1.61,1.93-1.92.18-.13.31-.25.31-.44s-.25-.31-.44-.31Z"/><path class="cls-1" d="M157.48,96.53v6.26c0,16.67,8.37,29.38,22.07,37.38.56.31,1.11.68,1.11,1.3,0,2.42-4,7.07-6.13,7.07s-9.49-7-11.1-8.68A46.57,46.57,0,0,1,154.07,126c-.19-.43-.5-1-1.06-1s-.74.56-.86,1c-2.55,6.27-7.57,12.28-12.65,16.68-1.49,1.3-7,5.83-8.68,5.83-2.17,0-6.08-4.84-6.08-6.88,0-.68.62-1.06,1.31-1.43a46,46,0,0,0,14.87-13.27c5.27-7.19,7-15.93,7-24.73,0-2.48-.25-5.27-.25-7.38,0-1.36.5-1.92,1.92-1.92,1.12,0,5.21.31,6.45.43,1.92.19,3.16.13,3.16,1.06,0,.55-.62.8-1.05,1A1.58,1.58,0,0,0,157.48,96.53Z"/><path class="cls-1" d="M195.11,119.65c-2.23,0-4.52.12-6.82.12-1.42,0-1.55-.55-1.55-2.41V114c0-1.55.13-2.17,1.49-2.17,1.86,0,3.72.12,5.52.12h1c1.18,0,2.36-.19,2.36-1.73v-1.93a1.55,1.55,0,0,0-1.61-1.55h-.93c-1.31,0-2.67.13-4,.13s-1.55-.56-1.55-2.42v-3.35c0-1.49.12-2,1.49-2s2.91.12,4.4.12a2,2,0,0,0,2.17-2.23c0-.81-.25-2.61-.25-3.41s.68-.93,1.42-.93c1.62,0,5.15.31,6.89.49,1.17.13,2.66.13,2.66,1,0,.43-.37.62-1,1a2.4,2.4,0,0,0-.87,2.23c0,1.74,1.12,1.86,2,1.86h.56c1.24,0,2.41-.12,3.65-.12s1.49.62,1.49,1.86v3.59c0,1.86-.12,2.36-1.49,2.36-1.17,0-2.6-.13-4.09-.13-1.18,0-2.17.38-2.17,1.74v1.74c0,1.61,1.3,1.73,2.42,1.73h.74c1.62,0,3.17-.12,4.72-.12,1.36,0,1.48.62,1.48,1.92v3.66c0,1.92-.12,2.41-1.55,2.41-1.61,0-3.28-.12-4.89-.12-.56,0-1.06.19-1.18.74-.06.38-.06.38-.37.62-.93.56-1.43.81-1.43,2.17a1.2,1.2,0,0,0,1.36,1.31h2c1.42,0,2.85-.19,4-.19,1.3,0,1.42.68,1.42,2.29v3.48c0,1.61-.12,2.23-1.42,2.23-1.12,0-2.55-.13-4-.13h-1.68a1.73,1.73,0,0,0-1.73,1.74v2.91c0,1.62,1.86,1.68,3.28,1.86,4.47.56,12.65.56,17.3.56,3.66,0,9.3-.12,12.9-.49a11.42,11.42,0,0,1,1.55-.07c1.61,0,1.55,1.62,1.55,2.79,0,6.14-1.49,6.51-5.89,6.51-7.13,0-14.26-.06-21.45-.18-5.4-.06-10.48-.31-15.25-3.1a24.08,24.08,0,0,1-3.48-2.54,2.08,2.08,0,0,0-1.11-.69c-.62,0-.87,1.06-1.06,2.11-.8,4.46-1.11,5.09-2.35,5.09-1.55,0-6.14-1.49-6.14-3.35a6.48,6.48,0,0,1,.31-1.49,69.13,69.13,0,0,0,2.36-19.22c0-.5-.07-1-.07-1.49,0-.87.19-1.24.93-1.24a52.92,52.92,0,0,1,6.7,1c.19,0,.37.07.62.07.5,0,.62-.31.62-.81,0-2.42-.5-2.48-1.12-2.48Zm2.11,6.32c0-.43,0-1.11-.56-1.11-.8,0-.86,1-.86,1.86s-.07,1.86-.07,2.79c0,.62.07,2.29.93,2.29.5,0,.56-.62.56-1Zm34.47-21.88a1.66,1.66,0,0,0-1.73-1.74h-5.09c-2.23,0-4.46.13-6.69.13-1.49,0-1.62-.56-1.62-2.3V96.71c0-1.8.13-2.35,1.62-2.35,2.23,0,4.46.12,6.69.12h8.31c1.42,0,2.85-.06,4.28-.06,1.92,0,2.48.49,2.48,2.48,0,1.61-.06,3.28-.06,5V111c0,2.11.18,4.28.18,6.2,0,1.3-.5,1.49-1.92,1.49h-3.85c-2.17,0-2.47-.12-2.66-1-.06-.44-.87-.5-1.24-.5H227.1a1.73,1.73,0,0,0-1.73,1.74v5.89c0,2,0,2.85,1.86,2.85h3.9c2,0,2.67-.13,3-4.65.06-1.3.25-1.74,1.43-1.74a14.52,14.52,0,0,1,4.77,1c1.36.62,2,1.12,2,2.67a18.82,18.82,0,0,1-2.29,8.43c-1.68,2.61-3.91,2.61-6.63,2.61h-7.94c-5.33,0-9.11-.44-9.11-6.08,0-1.24.12-2.42.12-3.6v-10.6c0-1.3-.12-2.6-.12-3.84,0-1.8.93-2.11,2.41-2.11s2.86.06,4.28.06h7a1.69,1.69,0,0,0,1.73-1.73Z"/><path class="cls-1" d="M292.82,93.24a59.66,59.66,0,0,1,6.26,2.36c.5.18,1.49.55,1.49,1.05s-.62.68-.86.68a1.67,1.67,0,0,0-1.25.75,29.26,29.26,0,0,0-1.92,3.59c0,.5.44.75.93.75,1.37,0,2.79-.07,4.16-.07s1.48.56,1.48,2.17v2.42c0,1.55-.12,2.11-1.42,2.11-2.17,0-4.4-.13-6.57-.13-.75,0-.75.44-.81.62s-.68.44-1,.56a2.11,2.11,0,0,0-1.43.87,1,1,0,0,0-.18.5.85.85,0,0,0,.93.8h2.23c1.49,0,3-.06,4.53-.06,1.23,0,1.36.56,1.36,1.86v2.3c0,1.42-.13,2-1.43,2-2.73,0-5.45-.12-8.18-.12h-9a1,1,0,0,0-1,1v.25a1,1,0,0,0,1,1h6.51c2.42,0,4.84-.13,7.25-.13,1.49,0,1.62.56,1.62,2v2.11c0,1.36-.13,2-1.49,2-2.48,0-4.9-.12-7.38-.12h-6.51a1,1,0,0,0-1,1v.12a1,1,0,0,0,1,1h11.9c2.92,0,5.77-.07,8.62-.07,1.36,0,1.49.56,1.49,2.17v2c0,2-.19,2.35-1.49,2.35-2.85,0-5.76-.12-8.62-.12H291.4c-.56,0-.93,0-.93.37s1.24,1,2.48,1.61a75.41,75.41,0,0,0,9.79,4.22c.93.31,1.55.5,1.55,1.18,0,1.55-3.59,5.95-5.33,5.95-1.18,0-5.58-2.23-6.82-2.85a64.17,64.17,0,0,1-9.11-5.89,2.25,2.25,0,0,0-1.12-.62c-.68,0-.74.68-.74,1.24,0,2.29.18,4.52.18,6.82,0,1.8-.68,2-3,2h-4c-2.29,0-3.1-.18-3.1-1.92,0-2.36.19-4.71.19-7.13a.85.85,0,0,0-.75-.93,2.3,2.3,0,0,0-1.11.56,72.86,72.86,0,0,1-12.09,7.19c-1,.5-3.1,1.55-4.09,1.55-1.62,0-5.09-4.77-5.09-6.39,0-.68.81-.86,2.3-1.36A73.37,73.37,0,0,0,262,135.58c.25-.12.31-.24.31-.37,0-.37-.43-.37-.93-.37H259c-2.86,0-5.77.12-8.62.12-1.37,0-1.49-.49-1.49-2.48v-1.86c0-1.61.12-2.17,1.49-2.17,2.85,0,5.7.07,8.62.07H270.5a1,1,0,0,0,1-1v-.12a1,1,0,0,0-1-1h-6.13c-2.42,0-4.84.12-7.32.12-1.36,0-1.49-.56-1.49-2v-2.17c0-1.49.13-2,1.55-2,2.42,0,4.84.13,7.26.13h6.13a1,1,0,0,0,1-1v-.25a1,1,0,0,0-1-1h-8.36c-2.73,0-5.46.12-8.19.12-1.3,0-1.42-.68-1.42-2.11v-1.73c0-2.11,0-2.42,2.1-2.42,1.18,0,3,.12,5.77.12.56,0,1.05-.24,1.05-.86a3,3,0,0,0-.37-1.06c-.56-1-1-1.43-2.17-1.43-2.48,0-5,.13-7.44.13-1.24,0-1.36-.62-1.36-2.17v-2.42c0-1.55.12-2.11,1.42-2.11.93,0,1.8.07,2.67.07.56,0,1.36-.07,1.36-.81s-2.6-3.84-3.16-4.53a1,1,0,0,1-.31-.55c0-.93,5.09-3.17,6.7-3.17.68,0,.8.19,1.48,1.06l.5.68c.5.62,3.66,4.84,3.66,5.33s-.74.93-1.12,1.12c-.18.12-.43.25-.43.56s.43.37.68.37h.56a1.82,1.82,0,0,0,2.05-1.74V99.07c0-1.55-.07-3.35-.19-4.9a2.18,2.18,0,0,1-.06-.62c0-.81.43-1,1.17-1,1.12,0,5.65.43,6.64.56,1.86.18,2.42.37,2.42,1.11,0,.31-.19.62-.75,1.06s-.68,1.79-.68,3.28v3.1a.82.82,0,0,0,.81.81h2a1,1,0,0,0,1-1V98c0-2.41-.18-4-.18-4.52,0-.81.43-1,1.18-1s5,.43,6.13.55c.25,0,.5.07.75.07,1.24.12,2,.18,2,1,0,.43-.31.62-.68,1-.56.5-.62,1.8-.62,3.22v2.55c0,.55,0,1,.37,1,.19,0,.31-.19.62-.68a73.23,73.23,0,0,0,3.91-7.32C292.27,93.61,292.39,93.24,292.82,93.24Zm-20.21,15.68c-1,0-1.73,0-1.73,1,0,.37.06.56.49,1.3a2.6,2.6,0,0,0,2.54,1h5.77a2.64,2.64,0,0,0,2.85-1.61,1.41,1.41,0,0,0,.19-.74c0-.93-.87-1-1.55-1Z"/><path class="cls-1" d="M356.56,128.58c0,1.73,6.76,9.11,8.31,10.54.24.25.86.8.86,1.24,0,1.67-4.83,5-6.44,5a1.84,1.84,0,0,1-1.12-.5c-3.72-3.41-8.18-10-10.6-14.51a68.67,68.67,0,0,1-5.21-12.21c-.31-1-.56-1.8-2.54-1.8-.62,0-2.17.13-2.17,1,0,.38.37.69.93,1.12,6.14,4.84,8.37,13.08,8.37,20.21,0,3.66-.25,7.32-3.84,9.12-2.67,1.3-6.58,1.3-9.55,1.3-4,0-4.9-.87-5.27-4.9-.06-.62-.37-1.3-1.12-1.3a1.75,1.75,0,0,0-.8.24c-1.37.75-8.19,3.91-9.3,3.91-1.8,0-4.34-3.72-4.34-5.39,0-.56.37-.81,1.49-1.18a75.53,75.53,0,0,0,20.27-10.11c1.24-.86,1.73-1.24,1.73-2a.79.79,0,0,0-.8-.81c-.31,0-.56.19-1,.56-3.72,3.1-10.73,6.82-15.38,8.74a11.19,11.19,0,0,1-2.66.87c-1.55,0-3.6-3.84-3.6-5.27,0-.62.43-.8,1.74-1.3A86.31,86.31,0,0,0,330,123.8c1.3-.8,1.8-1.17,1.8-1.55s-.43-.62-.87-.62a1.93,1.93,0,0,0-1,.31,85.61,85.61,0,0,1-12.77,5.77,9.72,9.72,0,0,1-2.36.68c-1.67,0-3.65-4.15-3.65-5.64,0-.68.43-.87,1.86-1.24a80.47,80.47,0,0,0,10.1-3.47c1.36-.56,2.23-1.06,2.23-1.43,0-.18-.18-.31-.43-.31s-.31.07-.74.07H324c-1.24,0-2.48.06-3.72.06-1.43,0-1.86-.25-1.86-1.93V114a1.46,1.46,0,0,0-1.43-1.49H313.6c-1.12,0-2.24-.12-2.24-1.55,0-.87.25-2.29.25-3.35v-3.1c0-2-.18-3.47-.18-4.09,0-2.23,2.54-2.29,4.15-2.29,2.42,0,4.77.12,7.19.12H332a1.74,1.74,0,0,0,1.73-1.8c0-.55-.12-2.1-.18-2.66a1.54,1.54,0,0,1-.07-.56c0-.81.69-.87,1.37-.87,1.67,0,6.2.31,8.18.5,1.37.12,1.68.43,1.68.87s-.25.55-.69.86-.55,1.12-.55,2.05a1.74,1.74,0,0,0,1.67,1.61H354c2.42,0,4.77-.12,7.19-.12,1.55,0,4.15.06,4.15,2.23,0,.5-.18,2.48-.18,4.15v3.23c0,1.17.24,2.54.24,3.34,0,1.49-.8,1.62-3.41,1.62-.74,0-1.42-.06-2.1-.06-1.31,0-1.43,1-1.43,1.92v.56c0,.62,1.06,1.67,1.92,2.41s2.3,2.42,3.6,3.6c.74.68,1.24,1.3,1.24,1.73a.76.76,0,0,1-.75.75,1.76,1.76,0,0,1-.61-.13,1.52,1.52,0,0,0-.56-.12,1,1,0,0,0-.62.25c-1.18.87-2.24,1.49-3,2C357.55,127.09,356.56,127.71,356.56,128.58Zm-6.94-19.9c1.73,0,3.41-.06,5.14-.06h.37c.56,0,1.06-.25,1.06-.87v-1a.69.69,0,0,0-.68-.69h-34.1a.75.75,0,0,0-.75.69v.86c0,1.06,0,1.06,6.51,1.06Zm-11.47,28.83a.81.81,0,0,0-.75-.81,7.65,7.65,0,0,0-2.17,1.24c-.49.37-1.11.74-1.67,1.12a1.11,1.11,0,0,0-.62.8c0,.5.37.56,1.42.56C337.4,140.42,338.15,140.05,338.15,137.51Zm16.67-21.08c-.74,0-1.55-.06-2.29-.06-1.12,0-1.8.06-1.8,1a4.11,4.11,0,0,0,.37,1.24c.25.62.56,1.49,1.37,1.49s3.78-2.36,3.78-3-.68-.74-1.24-.74Z"/><path class="cls-1" d="M393.09,111c.75.34,1.3.63,1.3,1s-.46.46-.76.55a2.73,2.73,0,0,0-1.13,1.59c0,.34.21.46.5.46a19.54,19.54,0,0,0,3.41-.92,3.59,3.59,0,0,1,1.17-.29c.93,0,1.14.88,1.31,1.63a18.45,18.45,0,0,1,.5,3.41c0,.63-.38.8-2.69,1.22s-5.17.92-7.77,1.21c-1.34.17-1.43,1.1-1.43,1.14,0,.21.21.29.38.29a1.51,1.51,0,0,0,.38-.12,10.51,10.51,0,0,1,3.57-.64,6.07,6.07,0,0,1,3,.68,4.21,4.21,0,0,1,2,2.39.76.76,0,0,0,.71.51,23.59,23.59,0,0,0,3.91-2c.38-.21.67-.38.84-.46a1.56,1.56,0,0,1,.55-.21c1.05,0,2.52,4.83,2.52,5.8,0,.54-.42.67-1.26,1-2,.76-3.28,1.3-5.21,2.1-1,.42-1.18.8-1.18,1.94,0,.5,0,1.51,0,2.43,0,2.69,0,2.73-2.39,2.73-2.9,0-3.78-.12-3.78-1.43a10.92,10.92,0,0,1,.08-1.13v-.21a.54.54,0,0,0-.5-.59c-.42,0-2.52,1.35-2.52,2.82,0,2.1,3.57,2.1,5,2.1a35.71,35.71,0,0,0,7.81-1.05,4.76,4.76,0,0,1,1.05-.13c1,0,1.05,1.51,1.05,4.2,0,1.6-.08,2-1.3,2.27a57.09,57.09,0,0,1-8.15.5,15.79,15.79,0,0,1-7.35-1.34,6.83,6.83,0,0,1-4.29-6.51c0-3.95,3-6.22,6-8,.72-.43,1.56-.89,2.31-1.27.38-.16.72-.37.72-.84a1.2,1.2,0,0,0-1.3-1.09c-1.6,0-4.5,1.47-5.76,2.44a19,19,0,0,0-4.45,6,.69.69,0,0,1-.63.47c-.93,0-5.21-2.36-5.21-3.37,0-.33.25-.58.75-1.13,1.73-2,4.46-6.34,5.8-8.23a.94.94,0,0,0,.25-.59.61.61,0,0,0-.63-.59c-.5,0-1.09,0-1.63,0-1.43,0-1.56-.12-1.56-3.27,0-2.61.17-2.65,1.51-2.65.93,0,2.44.08,3.83.08,2.05,0,2.43-.16,2.77-.75a20.56,20.56,0,0,0,2-5.21c.13-.63.21-.92.63-.92A51.31,51.31,0,0,1,393.09,111Z"/><path class="cls-1" d="M425.35,109.3c.62,0,2-.06,2-1.43v-2.66c0-2.67-.12-5.34-.12-8,0-.44.06-.62.55-.62,1.24,0,5.09.25,6.7.31,2,.06,3.47.18,3.47.87a1.57,1.57,0,0,1-.37.68,2.74,2.74,0,0,0-.62,1.92v7.38a1.4,1.4,0,0,0,1.43,1.55h7.68c1.06,0,1.43-.87,1.43-1.8,0-1.74-.12-8.62-.25-10,0-.25-.06-.5-.06-.75a.85.85,0,0,1,.93-.8c.87,0,4.53.18,5.64.25,2.11.06,4.34.12,4.34.8,0,1.06-1,.13-1,3v3.47c0,1.12-.06,2.23-.06,3.41,0,1.8.37,2.36,2,2.36h.74c1.55-.06,6.58-.19,7.13-.19,1.37,0,1.68.56,1.68,3.47v2.73c0,2-.13,3-2.05,3-2.23,0-4.52-.13-6.76-.13h-.74c-1.8,0-2.17.31-2.17,2.17-.06,10.54-2,17.55-11.16,23.75-1.18.8-5.58,3.41-6.88,3.41-.81,0-2.67-1.8-3.78-3.1-1-1-2.48-2.48-2.48-3.35s1.11-1.18,2.91-1.86c9.55-4,11.91-9.18,11.91-19.16,0-1-.31-1.86-1.43-1.86h-7.56a1.44,1.44,0,0,0-1.43,1.43v3.28c0,2.55.06,6,.06,6.82,0,2.17-.06,2.61-2.29,2.61h-4.34c-2.79,0-3.16-.19-3.16-1.55,0-2.61.12-5.15.12-7.69v-3.35a1.58,1.58,0,0,0-1.61-1.55h-1.24c-2.42,0-4.84.19-6.45.19-1.86,0-1.92-1.61-1.92-3.91v-2.29c0-2.54.25-3,1.67-3s4.34.19,6.7.19Z"/><path class="cls-1" d="M496,123.37c.69.37,1.18.87,1.18,1.24s-.37.5-.62.62a4.91,4.91,0,0,0-1.74,1.61c-1.55,1.86-9.6,11.1-11.53,11.1-1.24,0-6.2-4.53-6.2-6.08,0-.62,1.06-1.36,1.55-1.73a31.71,31.71,0,0,0,8.56-9.36c.25-.44.56-1.06,1.18-1.06C489.21,119.71,493.67,122.13,496,123.37ZM498,107.62c1.61,0,1.73-1.36,1.73-2.35v-.56a57.79,57.79,0,0,0-.31-6.57c0-.25-.06-.56-.06-.87,0-.74.62-.87,1.49-.87s7.38.75,8.49.93c.38.06,1.06.19,1.06.68s-.37.75-.62,1a2.48,2.48,0,0,0-.75,2v.81c0,.93-.06,1.86-.06,2.85v.56c0,1,.19,2.35,1.68,2.35h8c2.86,0,6.45-.18,8.81-.18,1.48,0,1.73.74,1.73,3v3.16c0,2.29-.25,3.1-2,3.1-2.85,0-5.7-.07-8.56-.07H510.9a1.88,1.88,0,0,0-1.92,1.87v12.7c0,1.24.06,2.55.06,3.85,0,3.22-.31,6.32-2.48,8S499.5,146,496.89,146c-1.11,0-1.42-.37-2.35-2.11-.56-1.11-2.11-4.59-2.11-5.7,0-.93,1.36-1,2.05-1.06,4.83-.24,5.26-.86,5.26-5.45V118.54a1.88,1.88,0,0,0-1.92-1.87h-8.24c-2.73,0-5.4.13-8.12.13-1.68,0-1.93-1.12-1.93-3.22v-3c0-2.61.31-3.1,1.74-3.1.81,0,5.58.18,8.31.18Zm27.28,16.87c1.18,1.11,5.7,5.45,5.7,6.88,0,1.61-4.77,6.2-6.14,6.2-.68,0-1.61-1.18-2.91-2.85a55.73,55.73,0,0,0-7.87-8c-.44-.37-1-.81-1-1.37,0-1,1.62-2.79,2.36-3.53,1.36-1.49,2.11-2.29,3.1-2.29C520.33,119.53,524,123.18,525.29,124.49Zm7.87-25.42a6.45,6.45,0,1,1-6.45-6.45A6.46,6.46,0,0,1,533.16,99.07Zm-9.73,0a3.26,3.26,0,0,0,3.28,3.28,3.29,3.29,0,1,0-3.28-3.28Z"/><path class="cls-1" d="M581.21,115.13c3.66,0,7.63-.25,8.19-.25,1.61,0,1.85.68,1.85,2.48v3c0,3.41-.06,4.47-2,4.47-2.42,0-5.27-.19-8-.19H552.69c-2.73,0-5.64.19-7.93.19-2.11,0-2.11-1.18-2.11-4.47v-2.85c0-1.86.19-2.6,1.8-2.6.86,0,4.34.25,8.24.25Z"/><path class="cls-1" d="M627.09,138.62c0,2,.06,4.09.06,6.2,0,3-.18,3.22-4.21,3.22h-2.79c-2.48,0-3.23-.3-3.23-1.92,0-2.48.13-4.89.13-7.37V103c0-2.54-.13-5.76-.13-7.68,0-.81.13-1.18,1-1.18a90.2,90.2,0,0,1,9.54,1.24c.38.12.69.37.69.74a1.09,1.09,0,0,1-.38.75,3.22,3.22,0,0,0-.68,2.23v12c0,.32.06.87.75.87.37,0,.74-.25,1-.25a6.36,6.36,0,0,1,2.29,1c2,1.24,4.53,3.22,5.34,3.84a75.74,75.74,0,0,1,5.7,5,1.58,1.58,0,0,1,.43,1c0,1.24-4.52,6.27-5.95,6.27-.56,0-1.18-.62-1.55-1-1-1-6.14-5.58-7.13-5.58s-.93.87-.93,1.49Z"/><path class="cls-1" d="M675.73,113.36c.34.09.93.26.93.59a.41.41,0,0,1-.3.34c-.67.38-.75.88-1,1.93a78.9,78.9,0,0,0-1.35,15.71c0,3.32,0,6.72,3.37,6.72a9,9,0,0,0,6.76-3.57,13.83,13.83,0,0,0,2.69-6.09c.16-.84.29-1.6,1-1.6.92,0,2.18,1.14,2.85,1.73s2,1.8,2,2.85a15.8,15.8,0,0,1-1.81,5.17,14.91,14.91,0,0,1-13.19,8.23,10.25,10.25,0,0,1-8.11-3.44c-2.1-2.69-2.35-7.14-2.35-10.5,0-4.83.42-10,.76-14.54.08-.88.12-2.31.12-3.27s0-1.47.72-1.47C669.85,112.15,674.39,113.07,675.73,113.36Z"/><path class="cls-1" d="M723.83,111.56c.21,0,.58.08.58.42a1.39,1.39,0,0,1-.29.71,4.51,4.51,0,0,0-.67,2.65.91.91,0,0,0,.92,1c.76,0,4.83-.92,5.93-1.17a9.76,9.76,0,0,1,1.72-.34c.59,0,.8.84.88,1.3a20.76,20.76,0,0,1,.46,3.58c0,1-.5,1.17-1.85,1.42-2.1.38-4.28.72-6.42,1-1,.13-1.47.25-1.47,1.14,0,.58.29,1.05.92,1.05a37.65,37.65,0,0,0,4.45-.89,5.26,5.26,0,0,1,1-.16c.34,0,.55.33.72.88a17.74,17.74,0,0,1,.29,4c0,1.34-1.3,1.51-5.17,1.93-1.68.17-2,.38-2,1.14,0,2.31,0,2.64,1.34,3.06,1.77.59,7.4,3,7.4,5,0,.92-1.77,4.08-3.11,4.08-.59,0-1.68-.85-3.15-1.94a4.8,4.8,0,0,0-1.85-1c-.59,0-.76.47-1,.93-1.34,3.28-4.7,4.2-8,4.2a9.39,9.39,0,0,1-5.12-1.3,6,6,0,0,1-2.65-5,5.76,5.76,0,0,1,2.39-4.62,11.45,11.45,0,0,1,6.52-1.72h.46A.83.83,0,0,0,718,132a1,1,0,0,0-1-1.13c-.75,0-3.36.21-5.21.21-1.59,0-2,0-2.26-1.18A16.19,16.19,0,0,1,709,126c0-.63.08-1.22.84-1.22,1.22,0,3,.21,5,.21H716c1,0,1.85-.09,1.85-1a1,1,0,0,0-1-1c-1.43,0-4,.17-6,.17h-1.26c-1.68,0-3,0-3.28-.63a15.13,15.13,0,0,1-.46-4.41c0-.59,0-1.31.84-1.31s5.21.38,8,.38h.92c1,0,1.77-.08,1.77-1,0-.38-.21-2.73-.34-3.49a5.91,5.91,0,0,1-.12-1.18c0-.5.29-.63.79-.63C718.53,110.84,722.78,111.39,723.83,111.56Zm-10.55,27.76c0,1,1.56,1.05,2.27,1.05,1.14,0,2.52-.29,2.52-1.72,0-.59-.5-.63-1.3-.63S713.28,138.11,713.28,139.32Z"/><path class="cls-1" d="M765.66,110.55c.33,0,1,.17,1,.46,0,.13-.12.25-.29.38a1.73,1.73,0,0,0-.67,1.26c0,.42-.09,1.3-.09,1.93,0,1.09,0,1.77,1.31,1.77,3.31,0,6.63-.42,10-.42.63,0,1.18,0,1.18,3a18.54,18.54,0,0,1-.25,3.15c-.13.34-.26.5-.63.5-.21,0-4.75-.29-6-.33s-2.82,0-4.25,0a1.12,1.12,0,0,0-1.21,1.26v1a3.75,3.75,0,0,0,.58,2.31,13.83,13.83,0,0,1,1.14,5.68c0,6.76-4.66,14.95-6.81,14.95a11.83,11.83,0,0,1-3.4-1.13c-1.18-.51-2.14-1-2.14-1.56,0-.38.54-.88.88-1.17.8-.76,2.82-2.65,2.82-3.32,0-.47-.38-.55-.76-.55-3.87-.08-5.34-4.45-5.34-7.69,0-3.74,1.73-7.77,5.8-8.52.3,0,.8-.09.8-.47,0-.21-.17-.42-.55-.42s-3.53.34-4.2.42c-1,.13-6.89,1.1-7.73,1.31a5.79,5.79,0,0,1-.75.12c-.68,0-.89-1-1.1-3.49-.12-1.38-.16-2.35-.16-2.68,0-.63.21-.72,1.21-.76,3.83-.17,7.61-.46,11-.63,1.09,0,2.06-.13,2.06-1.51a33,33,0,0,0-.38-4.58,1.25,1.25,0,0,1,0-.34.57.57,0,0,1,.63-.63C759.9,109.79,764.69,110.42,765.66,110.55Zm-7.35,21c0,.76.17,2.95,1.3,2.95s1.43-2.1,1.43-2.95-.17-2.73-1.39-2.73S758.31,130.75,758.31,131.59Z"/><path class="cls-1" d="M797.58,139.91a6,6,0,1,1-6-6A6,6,0,0,1,797.58,139.91Zm-9.54,0a3.55,3.55,0,1,0,3.53-3.53A3.56,3.56,0,0,0,788,139.91Z"/></svg>