<svg id="レイヤー_1" data-name="レイヤー 1" xmlns="http://www.w3.org/2000/svg" viewBox="0 0 308.75 30.11"><defs><style>.cls-1{fill:#2b2ba2;}</style></defs><title>number</title><path class="cls-1" d="M26.12,14.36C26.12,24.28,20.2,30,12.76,30,5.56,30,0,25,0,15.52,0,7,4.52.08,13.36.08,20.4.08,26.12,4.88,26.12,14.36ZM6.84,15.72c0,5.36,2.2,8.12,5.92,8.12,3.92,0,6.56-3.68,6.56-9.24,0-5.36-2.36-8-6-8C8.72,6.64,6.84,10.88,6.84,15.72Z"/><path class="cls-1" d="M46.88,13.88c0,.16.12.24.6.4a6.3,6.3,0,0,1,4.44,6.36c0,4.44-3.44,9.47-13.2,9.47A20.45,20.45,0,0,1,30,28.35c-.6-.27-.84-.52-.84-.92a2,2,0,0,1,.16-.72l1.28-3.63c.2-.56.36-.84.64-.84a1.54,1.54,0,0,1,.76.36,13.39,13.39,0,0,0,6.88,1.76c3.76,0,6.16-1.64,6.16-3.88,0-2.52-2.2-3.32-6.92-3.32-1.12,0-2.68.08-3.2.08-.84,0-1-.24-1-1.2V12.8c0-1,.12-1.2,1-1.2.52,0,1.8.08,2.76.08,4.28,0,6.12-.92,6.12-3C43.76,7,42,6,39.24,6A11.31,11.31,0,0,0,33.4,7.68a1.63,1.63,0,0,1-.8.36c-.28,0-.48-.24-.72-.8L30.24,3.8A2.12,2.12,0,0,1,30,3c0-.36.24-.56.8-.84A19.76,19.76,0,0,1,40,0c7.6,0,10.6,3.64,10.6,7.32a7.13,7.13,0,0,1-3.2,6.12C47.08,13.64,46.88,13.76,46.88,13.88Z"/><path class="cls-1" d="M61.28,21.32c-1.4,0-3.32,0-3.84,0-.84,0-1-.24-1-1.16V16.52c0-.92.12-1.16,1-1.16.52,0,2.44,0,3.84,0h3.84c1.4,0,3.32,0,3.84,0,.84,0,1,.24,1,1.16V20.2c0,.92-.12,1.16-1,1.16-.52,0-2.44,0-3.84,0Z"/><path class="cls-1" d="M89.28,10.28c4.92,0,9.51,3,9.51,8.84,0,7-5.63,11-12.19,11-8,0-11.92-5.43-11.92-12,0-7.8,3.64-15.52,13.6-17.6A30.59,30.59,0,0,1,93,0c.8,0,1,.2,1,1.12v4c0,1-.16,1.2-1.2,1.28-3.68.16-7,1.32-9.08,3.6a4.84,4.84,0,0,0-1.2,1.88.11.11,0,0,0,.12.12,1.26,1.26,0,0,0,.6-.2A12.36,12.36,0,0,1,89.28,10.28Zm-7,7a1.69,1.69,0,0,0-1,1.76c0,2.92,1.88,5.4,5.64,5.4,3.16,0,5.24-2,5.24-4.68,0-2.12-1.8-4-4.72-4A10,10,0,0,0,82.24,17.24Z"/><path class="cls-1" d="M123.56,25.52c0,1.36.08,2.87.08,3.4,0,.75-.28.87-1.16.87H118.2c-.88,0-1.16-.12-1.16-.87,0-.53.08-2,.08-3.4,0-1-.2-1.2-1.2-1.2h-6c-2.68,0-6.72.08-7,.08-.84,0-1-.24-1-1.16V21.6a4.34,4.34,0,0,1,.56-2.32c.88-1.76,1.76-3.6,2.6-5.32L108,7.8c.8-1.72,1.8-3.84,2.84-6.36.44-1,.64-1.12,1.68-1.12h5.28c.6,0,.88.08.88.36a1.84,1.84,0,0,1-.24.72c-1.56,3-2.56,5-3.52,7l-4.44,9.24a1.5,1.5,0,0,0-.2.68c0,.32.24.4.88.4h5.12c.72,0,.84-.12.84-.84v-.92c0-2-.08-5.52-.08-5.8,0-.84.24-1,1.16-1h4.28c.92,0,1.16.16,1.16,1,0,.28-.08,3.84-.08,5.8v.56c0,1,.2,1.2,1.2,1.2,1.35,0,2.47,0,3,0,.8,0,1,.2,1,1.12v3.48c0,.92-.16,1.12-1,1.12-.52,0-1.64,0-3,0C123.76,24.32,123.56,24.52,123.56,25.52Z"/><path class="cls-1" d="M142.64,11c6.36,0,10.71,2.92,10.71,8.6,0,5-3.23,10.55-12.91,10.55a20,20,0,0,1-8.2-1.76c-.56-.27-.84-.52-.84-.88a2.51,2.51,0,0,1,.2-.76l1.4-3.63c.24-.56.4-.8.68-.8a1.71,1.71,0,0,1,.76.36,11.93,11.93,0,0,0,6.2,1.72c4.16,0,5.88-1.84,5.88-4.36s-2.44-3.72-5.44-3.72a12.24,12.24,0,0,0-3.8.52,3.9,3.9,0,0,1-1.32.28,4.64,4.64,0,0,1-1.28-.24l-.88-.24c-.8-.24-1-.44-1-1a2.66,2.66,0,0,1,0-.52c.16-1.36.28-2.52.4-4l.44-5.36c.12-1.56.24-2.84.28-4.2,0-1,.2-1.16,1-1.16.52,0,4.92.08,7,.08h2.52c2.12,0,6.72-.08,7-.08.83,0,1,.24,1,1.16v4c0,.92-.17,1.16-1,1.16-.28,0-4.88-.08-7-.08H141c-1,0-1.24.16-1.32,1.2l-.12,1.76c0,.32-.08.8-.08.92,0,.48.16.64.64.64S141.56,11,142.64,11Z"/><path class="cls-1" d="M168.88,11c6.36,0,10.71,2.92,10.71,8.6,0,5-3.24,10.55-12.91,10.55a20,20,0,0,1-8.2-1.76c-.56-.27-.84-.52-.84-.88a2.51,2.51,0,0,1,.2-.76l1.4-3.63c.24-.56.4-.8.68-.8a1.71,1.71,0,0,1,.76.36,11.93,11.93,0,0,0,6.2,1.72c4.16,0,5.88-1.84,5.88-4.36s-2.44-3.72-5.44-3.72a12.24,12.24,0,0,0-3.8.52,3.9,3.9,0,0,1-1.32.28,4.64,4.64,0,0,1-1.28-.24L160,16.6c-.8-.24-1-.44-1-1a2.66,2.66,0,0,1,0-.52c.16-1.36.28-2.52.4-4l.44-5.36c.12-1.56.24-2.84.28-4.2,0-1,.2-1.16,1-1.16.52,0,4.92.08,7,.08h2.52c2.12,0,6.72-.08,7-.08.84,0,1,.24,1,1.16v4c0,.92-.16,1.16-1,1.16-.27,0-4.87-.08-7-.08H167.2c-1,0-1.24.16-1.32,1.2l-.12,1.76c0,.32-.08.8-.08.92,0,.48.16.64.64.64S167.8,11,168.88,11Z"/><path class="cls-1" d="M189.08,21.32c-1.4,0-3.32,0-3.84,0-.84,0-1-.24-1-1.16V16.52c0-.92.12-1.16,1-1.16.52,0,2.44,0,3.84,0h3.84c1.4,0,3.32,0,3.84,0,.84,0,1,.24,1,1.16V20.2c0,.92-.12,1.16-1,1.16-.52,0-2.44,0-3.84,0Z"/><path class="cls-1" d="M213.36,11c6.35,0,10.71,2.92,10.71,8.6,0,5-3.24,10.55-12.91,10.55a20,20,0,0,1-8.2-1.76c-.56-.27-.84-.52-.84-.88a2.51,2.51,0,0,1,.2-.76l1.4-3.63c.24-.56.4-.8.68-.8a1.71,1.71,0,0,1,.76.36,11.93,11.93,0,0,0,6.2,1.72c4.16,0,5.87-1.84,5.87-4.36s-2.43-3.72-5.43-3.72a12.24,12.24,0,0,0-3.8.52,3.9,3.9,0,0,1-1.32.28,4.64,4.64,0,0,1-1.28-.24l-.88-.24c-.8-.24-1-.44-1-1a2.66,2.66,0,0,1,0-.52c.16-1.36.28-2.52.4-4l.44-5.36c.12-1.56.24-2.84.28-4.2,0-1,.2-1.16,1-1.16.52,0,4.92.08,7,.08h2.52c2.11,0,6.71-.08,7-.08.84,0,1,.24,1,1.16v4c0,.92-.16,1.16-1,1.16-.28,0-4.88-.08-7-.08h-3.52c-1,0-1.24.16-1.32,1.2l-.12,1.76c0,.32-.08.8-.08.92,0,.48.16.64.64.64S212.28,11,213.36,11Z"/><path class="cls-1" d="M239.6,11c6.35,0,10.71,2.92,10.71,8.6,0,5-3.24,10.55-12.91,10.55a20,20,0,0,1-8.2-1.76c-.56-.27-.84-.52-.84-.88a2.51,2.51,0,0,1,.2-.76l1.4-3.63c.24-.56.4-.8.68-.8a1.71,1.71,0,0,1,.76.36,11.93,11.93,0,0,0,6.2,1.72c4.15,0,5.87-1.84,5.87-4.36S241,16.28,238,16.28a12.24,12.24,0,0,0-3.8.52,3.9,3.9,0,0,1-1.32.28,4.64,4.64,0,0,1-1.28-.24l-.88-.24c-.8-.24-1-.44-1-1a2.66,2.66,0,0,1,0-.52c.16-1.36.28-2.52.4-4l.44-5.36c.12-1.56.24-2.84.28-4.2,0-1,.2-1.16,1-1.16.52,0,4.92.08,7,.08h2.52c2.11,0,6.71-.08,7-.08.84,0,1,.24,1,1.16v4c0,.92-.16,1.16-1,1.16-.28,0-4.88-.08-7-.08h-3.52c-1,0-1.24.16-1.32,1.2l-.12,1.76c0,.32-.08.8-.08.92,0,.48.16.64.64.64S238.52,11,239.6,11Z"/><path class="cls-1" d="M280.79,14.36c0,9.92-5.92,15.67-13.36,15.67-7.19,0-12.75-5-12.75-14.51C254.68,7,259.2.08,268,.08,275.07.08,280.79,4.88,280.79,14.36Zm-19.27,1.36c0,5.36,2.2,8.12,5.91,8.12,3.92,0,6.56-3.68,6.56-9.24,0-5.36-2.36-8-6-8C263.4,6.64,261.52,10.88,261.52,15.72Z"/><path class="cls-1" d="M296.83,0c8,0,11.92,5.44,11.92,12,0,7.84-3.72,15.67-13.87,17.63a26.07,26.07,0,0,1-4.4.48c-.8,0-1-.19-1-1.11V25.44c0-1,.16-1.2,1.2-1.28A13.3,13.3,0,0,0,299.35,21,6.36,6.36,0,0,0,301,18.68a.11.11,0,0,0-.12-.12,1.26,1.26,0,0,0-.6.2,12.36,12.36,0,0,1-6.12,1.48c-4.91,0-9.51-2.88-9.51-9.24C284.64,4,290.16,0,296.83,0Zm-.32,6.12c-3.16,0-5.23,2-5.23,4.68,0,2.12,1.8,4,4.71,4a10,10,0,0,0,5.2-1.48,1.69,1.69,0,0,0,1-1.76C302.15,8.6,300.27,6.12,296.51,6.12Z"/></svg>