<svg xmlns="http://www.w3.org/2000/svg" viewBox="0 0 325 88.5"><defs><style>.cls-1{isolation:isolate;}.cls-2{fill:#8932d8;}.cls-3{fill:#51e0c0;mix-blend-mode:multiply;}.cls-4{fill:#fff;}</style></defs><title>rec-2s</title><g class="cls-1"><g id="レイヤー_1" data-name="レイヤー 1"><polygon id="Rectangle-13" class="cls-2" points="6.1 20.3 325 10.1 325 78.3 6.1 88.5 6.1 20.3"/><polygon id="Rectangle-13-Copy" class="cls-3" points="0 11.1 318.9 0 318.9 68.2 0 79.4 0 11.1"/><path class="cls-4" d="M23.82,56.74c0,1.1-1.64,1.8-2.32,1.8-.44,0-.58-.32-.8-.78-.32-.66-1.22-1.66-1.68-1.66a1.14,1.14,0,0,0-.68.36c-.16.14-.4.36-.52.36-.44,0-1.62-2.22-1.62-2.68,0-.24.18-.32.42-.44.5-.26,3.74-2.2,4-2.46a1.2,1.2,0,0,0,.16-.72v-.78a.46.46,0,0,0-.46-.5c-.08,0-.56.08-.68.1a7.55,7.55,0,0,1-1.12.16c-.4,0-.8,0-.8-2.1,0-.76,0-.8.78-.84q.87,0,1.74-.12a.65.65,0,0,0,.52-.28,7.05,7.05,0,0,0,.14-1.8V44c0-.42,0-.86,0-1a.28.28,0,0,1,.3-.32c.44,0,2.4.42,3,.52.18,0,.38.1.38.26s-.12.18-.2.22a1.06,1.06,0,0,0-.42.72c-.08.44-.12.74-.12.8a.4.4,0,0,0,.38.4,4.45,4.45,0,0,0,.64-.18,2.16,2.16,0,0,1,.54-.14c.34,0,.52.44.6,1.22a11.74,11.74,0,0,1,.1,1.18c0,.5-.22.52-1.9.8-.34.06-.6.22-.6.64s.08.52.4.52a2,2,0,0,0,.46-.12A8.75,8.75,0,0,1,27,49.12c2.47,0,4.79,1.38,4.79,4.08a4,4,0,0,1-1.62,3.2,8.08,8.08,0,0,1-4.33,1.06c-.54,0-1,0-1.12-.3a5.57,5.57,0,0,1-.34-1.88c0-.36,0-.76.48-.76.12,0,.56.06.7.08s.62,0,.84,0c.87,0,2.33-.24,2.33-1.34a1.63,1.63,0,0,0-1.81-1.46,7,7,0,0,0-3.08.84.86.86,0,0,0-.26.68c0,.24,0,.86.06,1.1C23.68,54.86,23.82,56.5,23.82,56.74Zm-3-1.52c0-.24,0-.5-.2-.5a.89.89,0,0,0-.46.26c-.08.06-.16.12-.16.24s.06.22.42.46a.62.62,0,0,0,.24.12c.14,0,.16-.12.16-.24Zm10.29-8.76c.46.38,1.18,1,1.6,1.4a.59.59,0,0,1,.26.4c0,.52-1.2,1.9-1.7,1.9-.18,0-.32-.14-.48-.28A34.49,34.49,0,0,0,28,47.58c-.22-.16-.45-.3-.45-.52s.56-.94.77-1.14l.12-.14c.26-.28.54-.6.78-.6A8,8,0,0,1,31.15,46.46Z" transform="translate(0 0)"/><path class="cls-4" d="M39.16,48.84a.59.59,0,0,0-.56.56V56c0,1,.06,2,.06,3.08,0,.5-.2.56-.82.56H36.58c-.64,0-.84,0-.84-.56,0-1,0-2.06,0-3.08V45.24c0-.72,0-1.44,0-2.14S36,42,36.82,42s1.3.06,1.94.06H40.6c.64,0,1.28-.06,1.92-.06s1.1.18,1.1,1.12c0,.7,0,1.42,0,2.14v.4c0,.72,0,1.44,0,2.14s-.28,1.12-1.08,1.12c-.64,0-1.28-.06-1.94-.06Zm1.68-4.56a.26.26,0,0,0-.26-.26H38.86a.26.26,0,0,0-.26.26v.06a.26.26,0,0,0,.26.26h1.72a.25.25,0,0,0,.26-.26Zm0,2.22a.25.25,0,0,0-.26-.26H38.86a.26.26,0,0,0-.26.26v.1a.26.26,0,0,0,.26.26h1.72a.26.26,0,0,0,.26-.26Zm2.92,10.08c-.26,0-.46.12-.46.4v.14c0,.46-.18.5-.86.5h-1c-.6,0-.84,0-.84-.44s.06-1.22.06-1.86V52.6c0-.46,0-.94,0-1.4,0-.76.62-.8,1.22-.8s1.18,0,1.76,0h1.22c.6,0,1.19,0,1.79,0s1.2,0,1.2.8c0,.44,0,.9,0,1.4v2.72c0,1.34,0,1.56.44,1.56h.1l1.06,0c.48,0,.5-.34.5-.84V49.4a.56.56,0,0,0-.56-.56H47.81c-.64,0-1.28.06-1.92.06s-1.11-.18-1.11-1.12c0-.7,0-1.42,0-2.14v-.4c0-.72,0-1.44,0-2.14S45.06,42,45.87,42c.64,0,1.3.06,1.94.06h1.86C50.31,42,51,42,51.59,42s1.1.2,1.1,1.12c0,.7,0,1.42,0,2.14v9.64c0,.64,0,1.3,0,2A2.27,2.27,0,0,1,51.81,59a5,5,0,0,1-2.74.66c-.86,0-1.16-.16-1.32-1.6a.41.41,0,0,0-.4-.42l-.42,0h-.6c-1,0-1.16,0-1.16-.46a1.55,1.55,0,0,1,0-.18.39.39,0,0,0-.44-.4Zm1.47-3.28a.58.58,0,0,0-.56-.56H43.8a.57.57,0,0,0-.56.56v.44a.57.57,0,0,0,.56.56h.87a.56.56,0,0,0,.56-.56Zm4.6-9a.25.25,0,0,0-.26-.26H47.83a.26.26,0,0,0-.26.26v.06a.26.26,0,0,0,.26.26h1.74a.24.24,0,0,0,.26-.26Zm0,2.26a.24.24,0,0,0-.26-.26H47.83a.26.26,0,0,0-.26.26v.06a.26.26,0,0,0,.26.26h1.74a.25.25,0,0,0,.26-.26Z" transform="translate(0 0)"/><path class="cls-4" d="M60,45.42c.2,0,.42.1.42.28s-.06.14-.2.24a1.41,1.41,0,0,0-.38.88,14.74,14.74,0,0,0-.26,2.8,9.31,9.31,0,0,0,.72,3.84c.16.34.52,1,1,1s.92-.82,1.1-1.14.32-.5.62-.5c.6,0,2.08,1.14,2.08,1.62s-.91,1.54-1.26,1.92a3.33,3.33,0,0,1-2.5,1.44,4.24,4.24,0,0,1-3.22-2c-1.48-2.08-1.62-5-1.62-7.46,0-.38.08-2.8.1-3.08s.12-.32.34-.32S59.54,45.32,60,45.42Zm7.33-.64c.54,0,2.12,1.24,3,2.66a10.88,10.88,0,0,1,1.48,4.1c0,.32.1.8.1,1,0,.42-.1.6-.5.72a6.91,6.91,0,0,1-1.9.34c-.74,0-.76-.26-.82-1A7.12,7.12,0,0,0,65.81,47c-.12-.1-.21-.18-.21-.34C65.6,46.16,66.77,44.78,67.37,44.78Z" transform="translate(0 0)"/><path class="cls-4" d="M81.44,50.18c-.64,0-1.36,0-1.92,0-.34,0-.44-.12-.44-.84v-.16c0-.14,0-.36-.24-.36s-.24.12-.34.18a10.22,10.22,0,0,1-2.4,1.52c-.52,0-1.82-1.56-1.82-2.1,0-.24.26-.34.54-.48a18,18,0,0,0,7-6.46c.1-.18.16-.26.37-.26s2.7.38,3,.46c.16,0,.32.12.32.32a.26.26,0,0,1-.11.2c0,.06-.11.14-.11.24a3.33,3.33,0,0,0,.56.82,16.49,16.49,0,0,0,6.16,4.56c.4.18.44.22.44.4a4.65,4.65,0,0,1-.64,1.62c-.18.34-.44.78-.74.78A16,16,0,0,1,88,48.8a.47.47,0,0,0-.2-.1c-.24,0-.26.2-.26.5v.4c0,.46-.1.62-.44.62-.54,0-1.1,0-1.93,0Zm-1,8.28a.32.32,0,0,0-.36.3v.16c0,.62-.16.62-1.4.62h-.64c-.72,0-1,0-1-.56,0-.28.06-1.08.06-1.78V53.88c0-.54,0-1.1,0-1.64,0-1,.78-1.08,1.58-1.08.64,0,1.28.08,1.94.08H86c.64,0,1.3-.08,1.94-.08s1.58.08,1.58,1.06c0,.48,0,1,0,1.66V57.2c0,.74.06,1.54.06,1.76,0,.54-.28.58-1,.58H87.35c-.66,0-.92,0-.92-.56,0-.08,0-.14,0-.2a.32.32,0,0,0-.34-.32ZM85.93,56a.55.55,0,0,0,.56-.56v-1a.55.55,0,0,0-.56-.56H80.62a.56.56,0,0,0-.56.56v1a.55.55,0,0,0,.56.56Zm-.54-8.42c.26,0,.48,0,.48-.22a.61.61,0,0,0-.29-.46c-.54-.5-1.37-1.44-1.86-2-.1-.12-.23-.3-.42-.3a.48.48,0,0,0-.38.24c-.56.68-1.32,1.44-1.94,2.06a.72.72,0,0,0-.3.46c0,.22.06.24.76.24Z" transform="translate(0 0)"/><path class="cls-4" d="M102,42.26c.2,0,.32.1.32.26a.26.26,0,0,1-.12.24c-.32.26-.32.32-.4,1.12,0,.2-.06.58-.12,1,0,.08,0,.16,0,.24,0,.28.12.38.32.56s.68.68.68,1-.3.48-.6.82-.54.68-.54.78a.11.11,0,0,0,.1.12,3.39,3.39,0,0,0,.56-.44l.14-.12a6.11,6.11,0,0,1,4-1.62,5.06,5.06,0,0,1,5,5.26c0,2.7-1.6,4.54-3.9,5.76a8.6,8.6,0,0,1-3,1c-.85,0-1.44-1.8-1.44-2.3s.34-.52.71-.6a9.89,9.89,0,0,0,2.58-.9,3.33,3.33,0,0,0,1.88-2.84,2.26,2.26,0,0,0-2.13-2.46,6.54,6.54,0,0,0-4.52,2.72,1.31,1.31,0,0,0-.14.66v.18c0,1.06,0,2.12.06,3.16,0,.36.18,2.7.18,2.78s-.06.22-.36.26a17.41,17.41,0,0,1-1.78.08c-.84,0-1.12,0-1.12-.4a1.62,1.62,0,0,1,0-.32c.08-.6.12-2.08.12-2.72,0-.16,0-.38-.26-.38s-1,1.18-1.16,1.44-.18.32-.36.32a4.87,4.87,0,0,1-2.08-2.18c0-.22.22-.42.42-.6l.12-.12a20.72,20.72,0,0,0,3.3-4.28,1.11,1.11,0,0,0,.16-.42c0-.2-.06-.4-.28-.4a1.19,1.19,0,0,0-.34.08,11,11,0,0,1-1.92.42c-.34,0-.46-.36-.54-.64a18.32,18.32,0,0,1-.42-2.14c0-.42.3-.46.6-.46h.28a6.81,6.81,0,0,0,2.52-.34.78.78,0,0,0,.2-.64c0-.78,0-1.56,0-2.34v-.48c0-.26.14-.34.38-.34S101.64,42.18,102,42.26Z" transform="translate(0 0)"/><path class="cls-4" d="M120.21,44.28c.12,0,.32.1.32.24s-.15.28-.23.38a3.38,3.38,0,0,0-.32,2c0,.2,0,.64.43.64.2,0,1.94-.3,2.32-.36s.56-.2.56-.58a23.92,23.92,0,0,0-.34-3.14,2.25,2.25,0,0,1-.06-.36.29.29,0,0,1,.32-.3c.24,0,2.3.32,3.08.5.2,0,.32.12.32.24s-.1.16-.22.28a2.94,2.94,0,0,0-.18,1.32v.62c0,.08,0,.18,0,.28,0,.3.12.54.46.54s1-.1,1.38-.16a14.8,14.8,0,0,1,1.5-.2c.38,0,.5.12.5,1.62s0,1.64-.7,1.64h-.44c-.38,0-2.06.06-2.34.12s-.44.32-.48.7c-.28,2.62-1.06,4.08-4,4.08-.32,0-.57,0-.73-.32a8,8,0,0,1-.38-2.14.37.37,0,0,1,.37-.42l.59,0c.51,0,.87-.1,1.07-.62a2.69,2.69,0,0,0,.14-.54.28.28,0,0,0-.3-.28c-.12,0-.5.06-1.6.24-1.39.22-1.4.32-1.4,1v.24a19.67,19.67,0,0,0,.15,2.58c.31,1.12,1.31,1.16,2.56,1.16a23.56,23.56,0,0,0,3.57-.3c.14,0,.56-.08.7-.08.3,0,.38.26.38,1a4.48,4.48,0,0,1-.26,2c-.3.28-3.32.36-3.88.36a12.48,12.48,0,0,1-3.57-.42,3.58,3.58,0,0,1-2.2-2.2A14.16,14.16,0,0,1,117,51.9c0-.3-.06-.64-.46-.64-.24,0-2.2.54-2.64.66a1.17,1.17,0,0,1-.26,0c-.28,0-.36-.12-.48-1.58,0-.48-.08-1-.08-1.38s.22-.52.66-.52,2-.22,2.42-.28.74-.22.74-.76a26,26,0,0,0-.16-2.8c0-.1,0-.24,0-.34,0-.26.16-.36.4-.36C117.48,43.94,119.83,44.2,120.21,44.28Z" transform="translate(0 0)"/><path class="cls-4" d="M142.51,44.16c.48,0,1.8,0,2.2,0l.44-.06c.28,0,.54.2.84.54l.32.36c.3.32.56.6.56.82a6.89,6.89,0,0,1-.24.82c-.1.36-.16.74-.24,1.12a12.88,12.88,0,0,1-7,9.36,11.53,11.53,0,0,1-3,1.24c-.44,0-.92-.86-1.14-1.24a3.73,3.73,0,0,1-.52-1.24c0-.22.22-.26.4-.3a13.14,13.14,0,0,0,5.77-3.34,8.93,8.93,0,0,0,2.18-4.58c0-.34-.38-.4-.9-.4H136c-.84,0-1.7,0-2.54,0s-.8-.1-.8-1V45.06c0-.82.12-.94.68-.94.9,0,1.82,0,2.72,0Z" transform="translate(0 0)"/><path class="cls-4" d="M155.75,49.18c.44,0,.54-.36.54-.72v-.22c0-.62,0-1.24-.1-1.86,0-.08,0-.18,0-.28,0-.26.22-.32.44-.32s1.64.14,2,.18.4.1.4.3-.08.2-.16.3a.65.65,0,0,0-.16.54c0,.4,0,.82,0,1.22v.18a.55.55,0,0,0,.54.62h.34l2.2-.08c.5,0,.54.26.54,1.48,0,.62,0,1-.6,1H161c-.44,0-.88,0-1.34,0h-.32a.56.56,0,0,0-.54.56l0,2.88c0,.42,0,.84,0,1.26a2.05,2.05,0,0,1-.76,1.9,4.44,4.44,0,0,1-2.28.5h-.1c-.32,0-.66,0-.82-.32a5.76,5.76,0,0,1-.44-1.84c0-.22.1-.38.32-.38s.68.1,1.1.1.58-.12.58-.64v-.42l0-1.36c0-.16,0-.3-.24-.3a.47.47,0,0,0-.36.22c-.58.64-3.55,3.54-4.27,3.54-.33,0-1.72-1.1-1.72-1.58,0-.2.2-.3.34-.38a19.52,19.52,0,0,0,3.69-2.72c.14-.14.52-.5.52-.68s-.14-.24-.29-.24l-1.25,0c-.41,0-1.83.08-2,.08-.52,0-.56-.44-.56-.86V50c0-.5.06-.76.5-.76l.8,0C153,49.24,154.83,49.18,155.75,49.18Z" transform="translate(0 0)"/><path class="cls-4" d="M177.83,48.72c1.18,0,2.46-.08,2.64-.08.52,0,.6.22.6.8v1c0,1.1,0,1.44-.66,1.44s-1.7-.06-2.58-.06h-9.21c-.88,0-1.82.06-2.56.06s-.68-.38-.68-1.44v-.92c0-.6.06-.84.58-.84.28,0,1.4.08,2.66.08Z" transform="translate(0 0)"/><path class="cls-4" d="M192.53,43.74l.18.08c.3.12.62.24.62.44s-.16.2-.26.26a2,2,0,0,0-.76.92l-.12.2c-1.24,2.28-2.33,4.62-3.55,6.92a.6.6,0,0,0-.1.32.36.36,0,0,0,.38.36l.48,0c1.1-.1,2.22-.22,3.35-.34.4,0,.74-.08.74-.38a.82.82,0,0,0-.28-.46c-.4-.42-.84-.8-1.26-1.18a.54.54,0,0,1-.22-.38c0-.34.66-.9.92-1.12s.74-.72,1-.72a.8.8,0,0,1,.54.28,33.79,33.79,0,0,1,2.86,3c.42.5,2.26,2.7,2.26,3.22s-.58.92-.92,1.18a2.73,2.73,0,0,1-1.26.7c-.26,0-.46-.34-.84-1-.08-.12-.16-.26-.24-.4a.74.74,0,0,0-.62-.4l-.92.12c-1.26.14-9.53,1.14-10.21,1.26a.56.56,0,0,0-.44.28c-.08.08-.14.16-.26.16s-.32-.38-.42-.8c-.16-.66-.28-1.32-.44-2a2.14,2.14,0,0,1-.06-.5c0-.28.26-.28.46-.28l.66,0h.38c.78,0,.82-.08,1.4-1.28.12-.26.28-.56.46-.92.8-1.58,3.24-6.6,3.71-8.06.05-.22.11-.44.38-.44A15.83,15.83,0,0,1,192.53,43.74Z" transform="translate(0 0)"/><path class="cls-4" d="M210,43c.3.08.51.14.51.32s-.15.22-.29.28c-.34.16-.42.7-.5,1.28l-.06.4c0,.12,0,.22,0,.26a.41.41,0,0,0,.2.38,1.08,1.08,0,0,0,.48.1,3.73,3.73,0,0,1,1.68.42,3.51,3.51,0,0,1,1.66,3.42,14.55,14.55,0,0,1-1.26,6.22,4.48,4.48,0,0,1-4.23,2.24c-.58,0-.84-.06-1-.56a7.75,7.75,0,0,1-.43-2c0-.26.09-.46.37-.46l.84,0c1.23,0,1.49-.1,1.91-.86a11.41,11.41,0,0,0,.9-4.42c0-.94-.15-1.22-.9-1.22s-.87.08-1,.74a25.75,25.75,0,0,1-3.09,6.64,15,15,0,0,1-1.42,2,.52.52,0,0,1-.34.14c-.44,0-2.36-1.06-2.36-1.72,0-.2.22-.42.4-.6a15.8,15.8,0,0,0,3.58-5.6,1.1,1.1,0,0,0,.1-.36.28.28,0,0,0-.32-.3,13.16,13.16,0,0,0-1.7.58.85.85,0,0,1-.38.12c-.34,0-.56-.76-.72-1.46-.1-.46-.3-1.26-.3-1.46s.22-.34.74-.38a19.81,19.81,0,0,0,3.08-.52c.4-.08.62-.22.68-.66a27.19,27.19,0,0,0,.16-2.88v-.3c0-.2,0-.38.28-.38S209.65,42.92,210,43Zm5.34,1.64a17,17,0,0,1,1.56,2c0,.08.12.18.2.32a11.92,11.92,0,0,1,1.36,2.5c0,.64-1.84,1.7-2.38,1.7-.28,0-.42-.32-.52-.54a16.89,16.89,0,0,0-2.78-4.5c-.08-.08-.22-.22-.22-.34,0-.46,1.68-1.54,2.18-1.54A.86.86,0,0,1,215.37,44.66Z" transform="translate(0 0)"/><path class="cls-4" d="M225.41,46.06c.48.16.9.28.9.5s-.14.2-.24.24c-.26.12-.28.22-.4.7s-.22,1.14-.34,1.72a3.2,3.2,0,0,0-.06.46c0,.18.1.36.28.36a6.11,6.11,0,0,0,1.2-.6,6.72,6.72,0,0,1,3-.7,4.64,4.64,0,0,1,3.54,1.5,4.1,4.1,0,0,1,1.06,3,4.28,4.28,0,0,1-1.08,3.1,8.21,8.21,0,0,1-3.52,2,13.33,13.33,0,0,1-2.88.56.74.74,0,0,1-.76-.4,6.11,6.11,0,0,1-.64-2.22c0-.38.28-.44.54-.44,1.56,0,5.34-.42,5.34-2.54a1.75,1.75,0,0,0-2-1.62c-1.92,0-4,1.82-5.12,3.26-.18.24-.34.44-.67.44s-2.08-.28-2.08-1a1.42,1.42,0,0,1,.08-.42,31.14,31.14,0,0,0,1.1-7.38c0-.74,0-1.08.44-1.08A15.55,15.55,0,0,1,225.41,46.06Zm.36-4.26a2.2,2.2,0,0,1,.7.26,28.44,28.44,0,0,1,2.8,1.7c.42.3.72.5.72.72,0,.44-1.18,2.18-1.76,2.18a.89.89,0,0,1-.52-.28,20.27,20.27,0,0,0-3-2.06c-.3-.18-.5-.28-.5-.5S225.11,41.8,225.77,41.8Z" transform="translate(0 0)"/></g></g></svg>