<svg xmlns="http://www.w3.org/2000/svg" viewBox="0 0 325 88.5"><defs><style>.cls-1{isolation:isolate;}.cls-2{fill:#8932d8;}.cls-3{fill:#51e0c0;mix-blend-mode:multiply;}.cls-4{fill:#fff;}</style></defs><title>rec-2</title><g class="cls-1"><g id="レイヤー_1" data-name="レイヤー 1"><polygon id="Rectangle-13" class="cls-2" points="6.1 20.3 325 10.1 325 78.3 6.1 88.5 6.1 20.3"/><polygon id="Rectangle-13-Copy" class="cls-3" points="0 11.1 318.9 0 318.9 68.2 0 79.4 0 11.1"/><path class="cls-4" d="M26.52,43.72a.25.25,0,0,0-.26.26V44a.25.25,0,0,0,.26.24h4.57c.52,0,1,0,1.54,0,.76,0,.92.1.92.74v2.2c0,.34,0,.7,0,.94,0,.4-.24.44-.78.44H31.65c-.56,0-.8,0-.8-.44,0-.24,0-.56,0-.94v-.62a.54.54,0,0,0-.54-.54H26.82a.56.56,0,0,0-.56.56v1.24c0,.7.06,1.48.06,2.08s-.24.52-.84.52H24.1c-.6,0-.82-.06-.82-.54s.06-1.3.06-2.06V46.58a.56.56,0,0,0-.56-.56H19.22a.57.57,0,0,0-.56.54v.62c0,.34,0,.7,0,.94,0,.4-.24.44-.8.44H16.74c-.54,0-.78,0-.78-.44,0-.24,0-.56,0-.94V45c0-.64.12-.76.9-.76.52,0,1,0,1.56,0h4.62a.25.25,0,0,0,.26-.24V44a.26.26,0,0,0-.26-.26H20.74c-.74,0-1.48,0-2.24,0-.42,0-.46-.14-.46-.56v-.7c0-.44,0-.56.48-.56.74,0,1.48,0,2.22,0h8.11c.74,0,1.48,0,2.22,0,.44,0,.48.12.48.56v.7c0,.42,0,.56-.46.56-.74,0-1.48,0-2.24,0ZM26,59.4c-1.5,0-2.46-.14-2.46-1.9v-.1c0-.48-.28-.68-.58-.68H21c-.36,0-.5,0-.5.24,0,.46-.16.5-1,.5h-1c-.48,0-.76,0-.76-.56s0-1.18,0-1.78V53.2c0-.54,0-1.1,0-1.64s.12-.76.8-.76H31.23c.7,0,.76.18.76.76v3.32c0,.5.06.68.54.7s1.58.26,1.58.9a4.86,4.86,0,0,1-.78,2.14,1.81,1.81,0,0,1-1.82.78ZM21.2,46.62c.42,0,.9,0,1.16,0s.32.16.32.5v.54c0,.38,0,.5-.36.5s-.68,0-1.12,0h-.58c-.44,0-.92,0-1.12,0-.36,0-.38-.14-.38-.52V47c0-.38.08-.46.38-.46s.54,0,1,0Zm0,2.06,1.16,0c.3,0,.32.16.32.5v.5c0,.42,0,.54-.36.54s-.68,0-1.12,0h-.58c-.44,0-.92,0-1.12,0-.36,0-.38-.16-.38-.56v-.56c0-.36.08-.44.36-.44s.52,0,1,0ZM23.26,53a.26.26,0,0,0,.26-.26v0a.26.26,0,0,0-.26-.26H20.8a.25.25,0,0,0-.24.26v0a.25.25,0,0,0,.24.26Zm-2.48,1.46a.23.23,0,0,0-.22.24v.1a.22.22,0,0,0,.22.22H23.3a.22.22,0,0,0,.22-.22v-.1a.22.22,0,0,0-.22-.24ZM29,53a.26.26,0,0,0,.26-.26v0a.26.26,0,0,0-.26-.26H26.48a.26.26,0,0,0-.26.26v0a.26.26,0,0,0,.26.26Zm-2.57,1.46a.23.23,0,0,0-.22.24v.1a.22.22,0,0,0,.22.22H29a.23.23,0,0,0,.24-.22v-.1a.23.23,0,0,0-.24-.24Zm.14,2.24a.32.32,0,0,0-.32.32c0,.34.44.38.7.38h3.81c.24,0,.68,0,.68-.36s-.22-.32-.48-.32h-.06l-2,0ZM29,46.62c.42,0,.92,0,1.16,0s.34.16.34.52v.56c0,.34,0,.46-.36.46s-.68,0-1.14,0h-.6c-.45,0-.91,0-1.12,0s-.37-.14-.37-.54v-.52c0-.4.08-.48.41-.48s.52,0,1,0Zm0,2.06,1.16,0c.32,0,.34.16.34.5v.54c0,.38,0,.5-.36.5s-.68,0-1.14,0h-.6c-.45,0-.91,0-1.12,0s-.37-.16-.37-.54V49.1c0-.4.08-.46.41-.46s.5,0,.94,0Z" transform="translate(0 0)"/><path class="cls-4" d="M41.22,44.8c.62,0,1.24,0,1.88,0,.42,0,.46.16.46.64v1c0,.44,0,.6-.46.6-.64,0-1.26,0-1.88,0h-2.9c-.64,0-1.26,0-1.88,0-.44,0-.48-.18-.48-.7v-.82c0-.52,0-.7.46-.7.64,0,1.26,0,1.9,0ZM39.78,58.52a.22.22,0,0,0-.22.22c0,.12,0,.22,0,.34,0,.48-.26.52-.94.52h-1c-.7,0-1,0-1-.52s.06-1.24.06-1.88V55.38c0-.52,0-1.06,0-1.58,0-.76.46-.92,1.12-.92s1.16,0,1.72,0h.7c.52,0,1.06,0,1.58,0S43,53,43,53.8c0,.52,0,1,0,1.58V57.2c0,.64,0,1.26,0,1.88s-.24.52-.86.52h-.86c-.62,0-.88,0-.88-.52,0-.12,0-.22,0-.34a.22.22,0,0,0-.22-.22Zm.72-11c.56,0,1.14,0,1.72,0s.48.16.48.58V49c0,.48,0,.66-.46.66-.58,0-1.16,0-1.74,0H39.28c-.58,0-1.16,0-1.72,0s-.48-.16-.48-.7v-.82c0-.52,0-.66.48-.66s1.16,0,1.72,0Zm0,2.68c.6,0,1.2,0,1.7,0s.5.16.5.6v1c0,.5,0,.66-.48.66s-1.16,0-1.72,0H39.28c-.58,0-1.14,0-1.72,0s-.48-.14-.48-.7v-.86c0-.54,0-.68.5-.68s1.1,0,1.7,0Zm0-8.2c.58,0,1.14,0,1.72,0s.48.18.48.68v1c0,.5,0,.68-.5.68s-1.08-.06-1.7-.06H39.38c-.62,0-1.22.06-1.72.06s-.5-.18-.5-.78V42.7c0-.56,0-.74.5-.74s1.14,0,1.72,0Zm-1,14.1a.37.37,0,0,0,.38.38h.18a.37.37,0,0,0,.38-.38v-.76a.38.38,0,0,0-.38-.4H39.9a.38.38,0,0,0-.38.4ZM50,46.16a.57.57,0,0,0,.56.56h.74c.68,0,1.36-.06,2-.06s.62.26.62.88v1c0,.62-.06.86-.62.86s-1.36-.06-2-.06h-.74a.57.57,0,0,0-.56.56v1.06a.57.57,0,0,0,.56.56c.4,0,.82,0,1.22,0,.58,0,1.3,0,1.3.8,0,.44,0,.9,0,1.4v3.6c0,.6.06,1.54.06,1.86s-.22.44-.84.44H51c-.62,0-.88,0-.88-.44V59a.31.31,0,0,0-.3-.32H47.42a.32.32,0,0,0-.32.32v.1c0,.42-.22.46-.88.46H45.14c-.7,0-1,0-1-.46s.06-1.18.06-1.84v-3.6c0-.48,0-.94,0-1.4,0-.76.7-.8,1.28-.8.4,0,.78,0,1.18,0a.58.58,0,0,0,.57-.56V49.88a.58.58,0,0,0-.57-.56H46.3c-.68,0-1.36.06-2,.06s-.64-.22-.64-.86v-1c0-.64.06-.86.64-.86s1.34.06,2,.06h.54a.4.4,0,0,0,.39-.38V45.6a.38.38,0,0,0-.41-.38c-.16,0-1.36.1-1.72.1a.88.88,0,0,1-.86-.52,8.06,8.06,0,0,1-.4-1.8c0-.3.16-.34.38-.34h.62a17.26,17.26,0,0,0,6.89-1.14.74.74,0,0,1,.28-.08c.22,0,.38.28.64.68q.12.21.3.48A5.62,5.62,0,0,1,53.79,44a.2.2,0,0,1-.18.2,1.05,1.05,0,0,1-.36-.08.87.87,0,0,0-.76.06,17,17,0,0,1-1.92.5c-.4.08-.6.16-.6.6Zm-2.91,9.5a.55.55,0,0,0,.56.56h2a.57.57,0,0,0,.56-.56V54.42a.56.56,0,0,0-.56-.56h-2a.55.55,0,0,0-.56.56Z" transform="translate(0 0)"/><path class="cls-4" d="M56.3,45.48c0-.62.22-.64,2.42-.76l1.42-.08c2.52-.16,8.33-.82,10.77-1.28a.75.75,0,0,1,.2,0c.36,0,.42.28.5.66a14,14,0,0,1,.26,2.22c0,.38-.22.38-1.08.4a8.15,8.15,0,0,0-2.86.36,6.21,6.21,0,0,0-4.15,5.84c0,1.9,1,2.42,2.76,2.42.5,0,1.17-.06,1.45-.06s.52.06.52.44A9.06,9.06,0,0,1,68.17,58c-.16.4-.44.46-.86.46-3.71,0-6.81-1-6.81-5.28A8.39,8.39,0,0,1,62.22,48a.56.56,0,0,0,.12-.3c0-.18-.14-.3-.36-.3a7.16,7.16,0,0,0-1.08.18c-1.06.2-2.44.5-3.48.8a1.35,1.35,0,0,1-.28,0c-.42,0-.56-.9-.66-1.52A10.87,10.87,0,0,1,56.3,45.48ZM69.59,48.8a8.9,8.9,0,0,1,1.36,2c0,.4-1.08,1-1.28,1s-.14-.06-.4-.46c-.38-.58-.78-1.1-1.22-1.66a.34.34,0,0,1-.1-.22c0-.28,1.12-.88,1.34-.88S69.51,48.7,69.59,48.8Zm4,.74c0,.4-1.06,1-1.28,1s-.24-.18-.3-.28a15.57,15.57,0,0,0-1.28-1.74.63.63,0,0,1-.16-.3c0-.26,1.1-.88,1.34-.88A7.55,7.55,0,0,1,73.57,49.54Z" transform="translate(0 0)"/><path class="cls-4" d="M82.84,56.74c0,1.1-1.64,1.8-2.32,1.8-.44,0-.58-.32-.8-.78C79.4,57.1,78.5,56.1,78,56.1a1.14,1.14,0,0,0-.68.36c-.16.14-.4.36-.52.36-.44,0-1.62-2.22-1.62-2.68,0-.24.18-.32.42-.44.5-.26,3.74-2.2,4-2.46a1.2,1.2,0,0,0,.16-.72v-.78a.46.46,0,0,0-.46-.5c-.08,0-.56.08-.68.1a7.55,7.55,0,0,1-1.12.16c-.4,0-.8,0-.8-2.1,0-.76,0-.8.78-.84q.87,0,1.74-.12a.65.65,0,0,0,.52-.28,7.05,7.05,0,0,0,.14-1.8V44c0-.42,0-.86,0-1a.28.28,0,0,1,.3-.32c.44,0,2.4.42,3,.52.18,0,.38.1.38.26s-.12.18-.2.22a1.06,1.06,0,0,0-.42.72c-.08.44-.12.74-.12.8a.4.4,0,0,0,.38.4,4.45,4.45,0,0,0,.64-.18,2.16,2.16,0,0,1,.54-.14c.34,0,.53.44.6,1.22a11.74,11.74,0,0,1,.1,1.18c0,.5-.21.52-1.9.8-.34.06-.6.22-.6.64s.08.52.4.52a2,2,0,0,0,.46-.12A8.75,8.75,0,0,1,86,49.12c2.47,0,4.79,1.38,4.79,4.08a4,4,0,0,1-1.62,3.2,8.1,8.1,0,0,1-4.33,1.06c-.54,0-1,0-1.12-.3a5.57,5.57,0,0,1-.34-1.88c0-.36,0-.76.48-.76.12,0,.56.06.7.08s.62,0,.85,0c.85,0,2.32-.24,2.32-1.34A1.64,1.64,0,0,0,86,51.84a7,7,0,0,0-3.08.84.86.86,0,0,0-.26.68c0,.24,0,.86.06,1.1C82.7,54.86,82.84,56.5,82.84,56.74Zm-3-1.52c0-.24,0-.5-.2-.5a.89.89,0,0,0-.46.26c-.08.06-.16.12-.16.24s.06.22.42.46a.62.62,0,0,0,.24.12c.14,0,.16-.12.16-.24Zm10.29-8.76c.46.38,1.18,1,1.6,1.4a.59.59,0,0,1,.26.4c0,.52-1.2,1.9-1.7,1.9-.18,0-.32-.14-.48-.28A34.49,34.49,0,0,0,87,47.58c-.23-.16-.45-.3-.45-.52s.57-.94.77-1.14a1.34,1.34,0,0,0,.11-.14c.27-.28.55-.6.79-.6A8,8,0,0,1,90.17,46.46Z" transform="translate(0 0)"/><path class="cls-4" d="M98.18,48.84a.59.59,0,0,0-.56.56V56c0,1,.06,2,.06,3.08,0,.5-.2.56-.82.56H95.6c-.64,0-.84,0-.84-.56,0-1,0-2.06,0-3.08V45.24c0-.72,0-1.44,0-2.14S95.06,42,95.84,42s1.3.06,1.94.06h1.84c.64,0,1.28-.06,1.92-.06s1.1.18,1.1,1.12c0,.7,0,1.42,0,2.14v.4c0,.72,0,1.44,0,2.14s-.28,1.12-1.08,1.12c-.64,0-1.28-.06-1.94-.06Zm1.68-4.56A.26.26,0,0,0,99.6,44H97.88a.26.26,0,0,0-.26.26v.06a.26.26,0,0,0,.26.26H99.6a.25.25,0,0,0,.26-.26Zm0,2.22a.25.25,0,0,0-.26-.26H97.88a.26.26,0,0,0-.26.26v.1a.26.26,0,0,0,.26.26H99.6a.26.26,0,0,0,.26-.26Zm2.92,10.08c-.26,0-.46.12-.46.4v.14c0,.46-.18.5-.86.5h-1c-.6,0-.84,0-.84-.44s.06-1.22.06-1.86V52.6c0-.46,0-.94,0-1.4,0-.76.62-.8,1.22-.8s1.18,0,1.76,0h1.22c.6,0,1.18,0,1.78,0s1.21,0,1.21.8c0,.44,0,.9,0,1.4v2.72c0,1.34,0,1.56.44,1.56h.1l1.06,0c.48,0,.5-.34.5-.84V49.4a.56.56,0,0,0-.56-.56h-1.46c-.65,0-1.29.06-1.93.06s-1.1-.18-1.1-1.12c0-.7,0-1.42,0-2.14v-.4c0-.72,0-1.44,0-2.14s.28-1.12,1.08-1.12c.64,0,1.3.06,2,.06h1.86c.64,0,1.28-.06,1.92-.06s1.1.2,1.1,1.12c0,.7,0,1.42,0,2.14v9.64c0,.64,0,1.3,0,2a2.27,2.27,0,0,1-.88,2.12,5,5,0,0,1-2.75.66c-.85,0-1.16-.16-1.32-1.6a.39.39,0,0,0-.39-.42l-.42,0h-.61c-1,0-1.16,0-1.16-.46a1.55,1.55,0,0,1,0-.18.39.39,0,0,0-.44-.4Zm1.46-3.28a.57.57,0,0,0-.56-.56h-.86a.57.57,0,0,0-.56.56v.44a.57.57,0,0,0,.56.56h.86a.56.56,0,0,0,.56-.56Zm4.61-9a.25.25,0,0,0-.27-.26h-1.74a.27.27,0,0,0-.26.26v.06a.27.27,0,0,0,.26.26h1.74a.24.24,0,0,0,.27-.26Zm0,2.26a.24.24,0,0,0-.27-.26h-1.74a.27.27,0,0,0-.26.26v.06a.27.27,0,0,0,.26.26h1.74a.25.25,0,0,0,.27-.26Z" transform="translate(0 0)"/><path class="cls-4" d="M119.06,45.42c.2,0,.42.1.42.28s-.06.14-.2.24a1.41,1.41,0,0,0-.38.88,14.74,14.74,0,0,0-.26,2.8,9.31,9.31,0,0,0,.72,3.84c.16.34.52,1,1,1s.92-.82,1.1-1.14.32-.5.62-.5c.6,0,2.08,1.14,2.08,1.62s-.92,1.54-1.26,1.92a3.33,3.33,0,0,1-2.5,1.44,4.24,4.24,0,0,1-3.22-2c-1.48-2.08-1.62-5-1.62-7.46,0-.38.08-2.8.1-3.08s.12-.32.34-.32S118.56,45.32,119.06,45.42Zm7.32-.64c.54,0,2.13,1.24,3,2.66a10.88,10.88,0,0,1,1.48,4.1c0,.32.1.8.1,1,0,.42-.1.6-.5.72a6.91,6.91,0,0,1-1.9.34c-.74,0-.76-.26-.82-1A7.12,7.12,0,0,0,124.83,47c-.12-.1-.21-.18-.21-.34C124.62,46.16,125.79,44.78,126.38,44.78Z" transform="translate(0 0)"/><path class="cls-4" d="M140.46,50.18c-.63,0-1.36,0-1.92,0-.34,0-.44-.12-.44-.84v-.16c0-.14,0-.36-.24-.36s-.24.12-.34.18a10.22,10.22,0,0,1-2.4,1.52c-.52,0-1.82-1.56-1.82-2.1,0-.24.26-.34.54-.48a18.14,18.14,0,0,0,7-6.46c.09-.18.16-.26.36-.26s2.7.38,3,.46c.16,0,.32.12.32.32a.28.28,0,0,1-.1.2.46.46,0,0,0-.12.24,3.33,3.33,0,0,0,.56.82,16.49,16.49,0,0,0,6.16,4.56c.4.18.44.22.44.4a4.65,4.65,0,0,1-.64,1.62c-.18.34-.44.78-.74.78A16,16,0,0,1,147,48.8a.47.47,0,0,0-.2-.1c-.24,0-.26.2-.26.5v.4c0,.46-.1.62-.44.62-.54,0-1.1,0-1.92,0Zm-1,8.28a.32.32,0,0,0-.36.3v.16c0,.62-.16.62-1.4.62h-.64c-.72,0-1,0-1-.56,0-.28.06-1.08.06-1.78V53.88c0-.54,0-1.1,0-1.64,0-1,.78-1.08,1.58-1.08.64,0,1.28.08,1.94.08H145c.64,0,1.3-.08,1.94-.08s1.58.08,1.58,1.06c0,.48,0,1,0,1.66V57.2c0,.74.06,1.54.06,1.76,0,.54-.28.58-1,.58h-1.18c-.66,0-.92,0-.92-.56,0-.08,0-.14,0-.2a.32.32,0,0,0-.34-.32ZM145,56a.55.55,0,0,0,.56-.56v-1a.55.55,0,0,0-.56-.56h-5.31a.56.56,0,0,0-.56.56v1a.55.55,0,0,0,.56.56Zm-.54-8.42c.26,0,.48,0,.48-.22a.63.63,0,0,0-.28-.46,25.58,25.58,0,0,1-1.86-2c-.1-.12-.24-.3-.42-.3a.46.46,0,0,0-.38.24c-.57.68-1.33,1.44-1.95,2.06a.71.71,0,0,0-.29.46c0,.22,0,.24.75.24Z" transform="translate(0 0)"/><path class="cls-4" d="M161,42.26c.2,0,.32.1.32.26a.26.26,0,0,1-.12.24c-.31.26-.31.32-.39,1.12,0,.2-.07.58-.12,1,0,.08,0,.16,0,.24,0,.28.12.38.32.56s.68.68.68,1-.3.48-.6.82-.54.68-.54.78a.11.11,0,0,0,.1.12,3.77,3.77,0,0,0,.57-.44c0-.06.12-.1.13-.12a6.15,6.15,0,0,1,4-1.62,5.06,5.06,0,0,1,5,5.26c0,2.7-1.6,4.54-3.9,5.76a8.53,8.53,0,0,1-3,1c-.85,0-1.43-1.8-1.43-2.3s.34-.52.7-.6a9.64,9.64,0,0,0,2.58-.9,3.33,3.33,0,0,0,1.88-2.84,2.26,2.26,0,0,0-2.12-2.46,6.54,6.54,0,0,0-4.53,2.72,1.31,1.31,0,0,0-.14.66v.18c0,1.06,0,2.12.06,3.16,0,.36.18,2.7.18,2.78s-.05.22-.36.26a17.41,17.41,0,0,1-1.78.08c-.84,0-1.12,0-1.12-.4a1.62,1.62,0,0,1,0-.32c.08-.6.12-2.08.12-2.72,0-.16,0-.38-.26-.38s-1,1.18-1.16,1.44-.18.32-.36.32a4.87,4.87,0,0,1-2.08-2.18c0-.22.22-.42.42-.6l.12-.12a20.72,20.72,0,0,0,3.3-4.28,1.11,1.11,0,0,0,.16-.42c0-.2-.06-.4-.28-.4a1.19,1.19,0,0,0-.34.08,11,11,0,0,1-1.92.42c-.34,0-.46-.36-.54-.64a18.32,18.32,0,0,1-.42-2.14c0-.42.3-.46.6-.46h.28a6.81,6.81,0,0,0,2.52-.34.78.78,0,0,0,.2-.64c0-.78,0-1.56,0-2.34v-.48c0-.26.14-.34.38-.34S160.67,42.18,161,42.26Z" transform="translate(0 0)"/><path class="cls-4" d="M179.22,44.28c.12,0,.32.1.32.24s-.14.28-.22.38a3.38,3.38,0,0,0-.32,2c0,.2,0,.64.42.64.2,0,2-.3,2.33-.36s.55-.2.55-.58a22.32,22.32,0,0,0-.34-3.14c0-.12-.05-.24-.05-.36a.28.28,0,0,1,.31-.3c.24,0,2.31.32,3.09.5.2,0,.32.12.32.24s-.1.16-.22.28a2.94,2.94,0,0,0-.18,1.32v.62c0,.08,0,.18,0,.28,0,.3.12.54.46.54s1-.1,1.38-.16a14.8,14.8,0,0,1,1.5-.2c.38,0,.5.12.5,1.62s0,1.64-.7,1.64h-.44c-.38,0-2.06.06-2.34.12s-.44.32-.48.7c-.28,2.62-1.06,4.08-4,4.08-.32,0-.56,0-.72-.32a8,8,0,0,1-.38-2.14c0-.22.1-.42.36-.42l.6,0c.51,0,.86-.1,1.06-.62a2.72,2.72,0,0,0,.15-.54.29.29,0,0,0-.31-.28c-.12,0-.5.06-1.59.24-1.39.22-1.41.32-1.41,1v.24a18.06,18.06,0,0,0,.16,2.58c.3,1.12,1.3,1.16,2.56,1.16a23.56,23.56,0,0,0,3.57-.3c.14,0,.56-.08.7-.08.3,0,.38.26.38,1a4.48,4.48,0,0,1-.26,2c-.3.28-3.32.36-3.88.36a12.43,12.43,0,0,1-3.57-.42,3.58,3.58,0,0,1-2.2-2.2A14.16,14.16,0,0,1,176,51.9c0-.3-.06-.64-.46-.64-.24,0-2.2.54-2.64.66a1.17,1.17,0,0,1-.26,0c-.28,0-.36-.12-.48-1.58,0-.48-.08-1-.08-1.38s.22-.52.66-.52,2-.22,2.42-.28.74-.22.74-.76a26,26,0,0,0-.16-2.8c0-.1,0-.24,0-.34,0-.26.16-.36.4-.36C176.5,43.94,178.84,44.2,179.22,44.28Z" transform="translate(0 0)"/></g></g></svg>