<svg id="レイヤー_1" data-name="レイヤー 1" xmlns="http://www.w3.org/2000/svg" viewBox="0 0 802.77 353.95"><defs><style>.cls-1{fill:#fff;}</style></defs><title>top-text</title><path class="cls-1" d="M312.81,18.56c.32-1.16.65-2.06.94-3.25.07-.32.18-.68.54-.68s4.57,1.87,5.22,2.16.86.5.86.72-.14.29-.32.36c-.94.36-1.19.9-1.66,1.84a27.55,27.55,0,0,0-2.16,10.76c0,.76,0,1.51.36,1.51s.4-.25.5-.47c.36-.86.58-1.29.9-1.29.51,0,2.34,1.18,2.34,1.72s-2,4.61-2,7.06c0,.4.07,1,.11,1.44a5,5,0,0,1,0,.65c0,1-1.11,1.51-1.91,1.83a6.16,6.16,0,0,1-1.83.47c-.65,0-1-.57-1.37-1.37a26.44,26.44,0,0,1-2.23-11.55A45.92,45.92,0,0,1,312.81,18.56ZM333,15.39c.18,0,.47.1.47.36a1.22,1.22,0,0,1-.29.64,5.7,5.7,0,0,0-.65,3.17c0,.51.25.87.79.87a21.86,21.86,0,0,0,2.67-.62,5.72,5.72,0,0,1,.93-.21c.54,0,.69.72.8,1.26a15.73,15.73,0,0,1,.43,3c0,.9-.33,1.08-4.29,1.62-.79.1-1.18.28-1.18,1.18,0,.47.21,5.37.25,5.87.07.87.39.94,1.29,1.4a21.41,21.41,0,0,1,3.86,2.74,2.13,2.13,0,0,1,.82,1.51c0,1-1.76,3.31-2.84,3.31-.54,0-1.08-.46-1.84-1.18-.14-.15-.28-.26-.43-.4a1.06,1.06,0,0,0-.72-.43c-.32,0-.43.18-.68.57-1.12,1.8-3.64,2.38-5.62,2.38-3.27,0-6.55-1.62-6.55-5.33,0-3.53,3-5.15,6.19-5.15h.83a.79.79,0,0,0,.87-.89c0-.83-.19-2.52-.19-3.1,0-1.22-.14-1.8-.93-1.8s-3.13.14-4.64.14h-.54a2.78,2.78,0,0,1-1.8-.36c-.29-.36-.33-3.38-.33-4,0-.47.11-1,.69-1,.21,0,1.33.11,1.65.14a43.6,43.6,0,0,0,4.39.22c.58,0,1.05-.22,1.05-.86s-.4-4.32-.4-5.12c0-.43.15-.61.58-.61C328.43,14.7,332.14,15.24,333,15.39ZM324.91,37.2c0,.72,1.15,1.08,1.9,1.08s1.62-.29,1.62-1.26c0-.72-1.11-.76-1.65-.76S324.91,36.41,324.91,37.2Z"/><path class="cls-1" d="M6.86,108.55c1.16.28,1.88.43,1.88,1,0,.34-.24.48-.48.58-.68.24-.63.43-1.06,2.35a33.87,33.87,0,0,1-1.82,5.76c-.2.39-.44.77-1,.77C3.7,119,0,117.91,0,117a4.62,4.62,0,0,1,.34-1,40.6,40.6,0,0,0,2.25-7.68c.05-.29.05-.63.53-.63S6.19,108.4,6.86,108.55ZM6.48,89.63c-1.68,0-3.22.1-4.37.1-.91,0-1-.53-1-1.54V85.46c0-1.44.1-1.92.87-1.92,1.53,0,3,.14,4.51.14h1c.91,0,1.58-.38,1.58-1.39,0-.72,0-1.49-.09-2.26a.88.88,0,0,1,0-.33c0-.58.53-.63,1-.63.81,0,3.31.19,4.22.29.58,0,.72,0,1.11.1.86.09,1.39.14,1.39.62,0,.24-.14.34-.34.48-.76.48-.81.53-.81,1.78s1.2,1.34,1.82,1.34h.39c1.2,0,2.44-.14,3.69-.14.77,0,.87.48.87,1.87v2.93c0,1-.1,1.39-1,1.39-1.2,0-2.64-.1-4.37-.1Zm-3.41,7c0-1.2-.14-2.11-.14-2.88,0-1.68,1.73-1.78,3-1.78s2.5.1,3.75.1h4.7c1.25,0,2.5-.1,3.75-.1s3,.1,3,1.78c0,.62-.09,1.68-.09,2.88v5.28c0,1.2.09,2.21.09,2.88,0,1.59-1.58,1.78-2.83,1.78-.38,0-.81,0-1.25,0-1,0-1.58.29-1.58,1.39v6.39c0,1,.1,2,.1,3,0,2-.1,3.55-2,4.66a9,9,0,0,1-4.37.86c-1.82,0-3.07,0-3.07-4.41v-.58c0-.81,0-1.58.72-1.58.14,0,1.1.14,1.58.14.82,0,.87-.43.87-2v-6.48c0-1.1-.53-1.39-1.54-1.39-.62,0-1.2,0-1.78,0-1.24,0-3-.1-3-1.78,0-.81.14-1.73.14-2.88Zm11,4.8a1.33,1.33,0,0,0,1.34-1.34V98.42A1.38,1.38,0,0,0,14,97.07H9.94a1.38,1.38,0,0,0-1.35,1.35v1.68a1.28,1.28,0,0,0,1.35,1.34Zm21.26-5.66c-.72,0-1.77.09-1.77,1s1.1.87,2.45,1,3,.1,3,.77c0,.34-.48.48-.72.58-.53.24-.53.38-.53,1.92v14.16c0,.33,0,.38.34.38h.24c.14,0,.24,0,.38-.43A21.8,21.8,0,0,0,39,112c0-.91.19-1.15.81-1.15a15.25,15.25,0,0,1,3.75.58c.91.28,1,.81,1,1.77a23.67,23.67,0,0,1-1.39,7.06c-.91,1.92-2.11,2.16-4.13,2.16H36.34c-3.41,0-4.9-.38-4.9-4.18V112c0-.38,0-.86-.33-.86s-.48.57-.58.86a47.52,47.52,0,0,1-3.41,7.59,24,24,0,0,1-1.77,2.78,1.18,1.18,0,0,1-1,.58c-1.54,0-5.43-1.68-5.43-3a3.21,3.21,0,0,1,.68-1.29,8.45,8.45,0,0,0,1.1-1.83.4.4,0,0,0-.43-.43,5.66,5.66,0,0,0-.91.19,2.06,2.06,0,0,1-.53.1c-.39,0-.43-.29-.53-.58A46.63,46.63,0,0,0,16.18,110a2.15,2.15,0,0,1-.24-.58c0-.43.86-.72,1.44-.91a13.11,13.11,0,0,1,3.17-.82c.67,0,1,.77,2,3.31.2.44.29.72.58.72s.48-.28.62-.62c.44-1.06.82-2.16,1.16-3.26a51.22,51.22,0,0,0,2-10.56,1.42,1.42,0,0,0-1.34-1.44c-.29,0-.87,0-1.44,0-1.44,0-1.63-.43-1.63-2v-2.6c0-1.58.19-2,1.63-2,.67,0,1.39,0,1.68,0,.72,0,1.34-.48,1.34-1.59V85c0-1.92-.09-4.84-.09-4.89,0-.72.48-.87,1-.87s5.47.29,6.05.39c.38,0,.77.14.77.62s-.29.48-.53.58a1.13,1.13,0,0,0-.67,1.25v6A1.33,1.33,0,0,0,35,89.39h2c.67,0,1.25,0,1.25-.57,0-.77-2.69-4.8-3.31-5.62a.85.85,0,0,1-.24-.53c0-1,4-3,4.61-3s2.35,2.64,2.73,3.26S44,86.08,44,86.66c0,.76-2,1.63-2.54,1.92-.19.09-.39.24-.39.38s.29.34.48.34.53,0,.82,0c1.34,0,1.44.67,1.44,2.11v2.4c0,1.49-.14,2.11-1.49,2.11-1.63,0-3.26-.09-4.89-.09Z"/><path class="cls-1" d="M73.59,106.53c-1.16,0-1.64.24-2,1.39a20,20,0,0,1-4.51,7.78,25.35,25.35,0,0,1-11.53,6.86,4.83,4.83,0,0,1-1.44.24c-2.11,0-4.22-4.22-4.22-5.42,0-.72.67-.82,1.25-1,4.56-1,9.21-3,11.95-6.91a6.86,6.86,0,0,0,1.11-2.21c0-.63-.63-.77-1.35-.77H60.72c-1.78,0-3.55.14-5.33.14-1.2,0-1.29-.48-1.29-2v-1.92c0-1.06-.63-1.44-1.59-1.44h-.24c-1.39,0-2.21,0-2.21-1.54,0-1,.15-2.16.15-3.31v-1.2c0-1.49-.1-3.17-.1-3.89,0-2,1.63-2.16,3.22-2.16.67,0,1.44,0,1.68,0,.48,0,1-.19,1-.72,0-.72-2.21-4.47-2.69-5.28a1.31,1.31,0,0,1-.38-.82c0-1.1,4.27-2.64,5-2.64s1.58,1.35,2.54,3.17c.1.14.19.38.34.62a13.83,13.83,0,0,1,1.53,3.65c0,.67-1.05,1.11-1.58,1.35-.19.09-.53.19-.53.48s.43.28.62.28H77.43c.14,0,.52,0,.52-.28a.27.27,0,0,0-.19-.29c-.33-.24-.86-.63-.86-1.06a2.12,2.12,0,0,1,.43-.86,45.59,45.59,0,0,0,3.74-6.72c.2-.43.34-.91.87-.91a16,16,0,0,1,3,1.15c.24.09.39.19.53.24,2.45,1.1,3.22,1.34,3.22,2,0,.38-.34.48-.67.52-.48,0-.72.05-.92.44a36.26,36.26,0,0,1-2.06,3.84,2.56,2.56,0,0,0-.43,1.15c0,.53.57.77,1,.77.71,0,1.39-.1,2.06-.1,1.54,0,3,.24,3,2.11,0,.82-.09,2.45-.09,3.94v1.2c0,1.15.14,2.35.14,3.31,0,1.44-.77,1.49-2,1.49h-.33c-.53,0-1.2,0-1.2.77v.24a10.71,10.71,0,0,1,0,1.29c0,4-.72,12-2.55,15.56s-5.28,3.74-9.74,3.74c-3.51,0-4.18-.14-4.18-5.38,0-1.43.29-1.72,1-1.72,1.3,0,2.54.19,3.84.19,2.54,0,2.88-.34,3.36-1.73a23,23,0,0,0,1.1-6.48c0-1.06-.28-1.2-3.07-1.2Zm.91-6.29h6c2.93,0,3.36,0,3.36-3.21a1.34,1.34,0,0,0-1.49-1.4H58.61c-1.06,0-1.59.63-1.59,1.35,0,2.49.2,3.21,1.88,3.21H59c.58,0,1.16,0,1.73,0h3.6a1.35,1.35,0,0,0,1.49-1.34c0-.48,0-1,0-1.4,0-.71.29-.91,1-.91s4.27.2,5.18.24,2.21.15,2.21.72c0,.39-.57.63-.81.82A.58.58,0,0,0,73,99C73,100.24,74,100.24,74.5,100.24ZM69.94,79.07c.81,0,1.25.43,2.69,4.13a20.44,20.44,0,0,1,1.15,3.41c0,1.39-4.61,2.21-5.14,2.21A1.1,1.1,0,0,1,67.49,88a36.53,36.53,0,0,0-2.26-5.61,2.11,2.11,0,0,1-.28-.87C65,80.22,69.41,79.07,69.94,79.07Z"/><path class="cls-1" d="M114.19,115.55c0,.68.15.82,1,.82h7.44c1.15,0,1.54-.24,1.92-2.35.15-.87.15-1.25,1.15-1.25a11.41,11.41,0,0,1,3.75.77,2.07,2.07,0,0,1,1.53,1.92,9.37,9.37,0,0,1-1.77,5c-1.2,1.63-2.88,1.63-4.75,1.63h-13c-2.36,0-4.42-.43-4.42-3.26,0-.62.09-1.25.09-1.87v-2.5c0-1-.09-1.06-.48-1.06-.62,0-.81.58-1,1.06a43.41,43.41,0,0,1-2.88,6.58c-.28.48-.67,1-1.29,1-1.15,0-4.56-1.49-4.56-2.88a2.37,2.37,0,0,1,.48-1.06,30.49,30.49,0,0,0,3.07-6.91c.14-.48.34-.87.91-.87a27.43,27.43,0,0,1,4.47,1.44,2.8,2.8,0,0,0,.62.15c.48,0,.53-.29.53-.72s.43-.58.81-.58,4.76.24,5.24.29c1,0,2.3,0,2.3.77,0,.38-.43.57-1,1-.24.24-.24,1.1-.24,1.44Zm16.52-25.73c0,.34.52.39.77.39h1.1c2,0,4-.15,5.95-.15,1.25,0,1.35.34,1.35,1.59v1.68c0,1.15-.1,1.49-1.3,1.49-2,0-4-.15-6-.15H104.45c-2,0-3.94.15-6,.15-1.25,0-1.35-.29-1.35-1.54V91.65c0-1.25.1-1.59,1.35-1.59,2,0,4,.15,6,.15h2.4c.29,0,.67-.1.67-.48A6.56,6.56,0,0,0,106.8,88a1,1,0,0,0-1.15-.77c-1.11,0-2.21.1-3.27.1C101,87.33,101,86.75,101,86V83.92c0-1.1.1-1.39,1.34-1.39,2,0,4,.09,6,.09h5.33c.57,0,1-.09,1-.72,0-.43-.15-1.63-.15-2,0-.72.39-.82,1-.82,1,0,3.6.19,4.66.29,1.77.19,2.73.19,2.73,1,0,.28-.14.38-.48.67s-.48.43-.48.81.58.72,1,.72h5.86c2,0,3.93-.09,6-.09,1.25,0,1.34.29,1.34,1.39v1.87c0,1.11,0,1.54-1.44,1.54h-1.15c-.48,0-.57.19-.57.62s-.44.67-1,.77a1.43,1.43,0,0,0-1.06.67A.6.6,0,0,0,130.71,89.82Zm-20.6,19.73c-1.44,0-2.88.15-4.37.15s-2.49-.34-2.49-2.07c0-1.15.14-2.49.14-3.84v-1.92c0-1.34-.14-2.64-.14-3.84,0-1.68,1-2,2.49-2s2.93.09,4.37.09h16.71c1.44,0,2.83-.09,4.27-.09s2.59.24,2.59,2c0,1.2-.09,2.5-.09,3.84v1.92c0,1.35.09,2.69.09,3.84,0,1.68-1,2.07-2.45,2.07s-2.92-.15-4.41-.15h-4c-.24,0-.68,0-.68.39a1.85,1.85,0,0,0,.44.81A7.71,7.71,0,0,1,124,113.3c0,1.15-3.93,2.74-4.7,2.74-.58,0-.91-.68-1.15-1.11a22.08,22.08,0,0,0-2.59-3.6c-.29-.29-.58-.53-.58-.91s.1-.29.1-.43c0-.44-.53-.44-.82-.44Zm15.65-8.35a.64.64,0,0,0,.63-.62v-.15a.64.64,0,0,0-.63-.62H111.17a.6.6,0,0,0-.58.62v.15a.63.63,0,0,0,.58.62Zm-14.59,3.07a.6.6,0,0,0-.58.63v.33a.6.6,0,0,0,.58.63h14.59a.64.64,0,0,0,.63-.63v-.33a.64.64,0,0,0-.63-.63Zm3.36-17c-.34,0-.77.1-.77.48a8.51,8.51,0,0,0,.67,1.78c.2.48.39.72,1,.72h7.11c.57,0,1-.63,1.2-1.3a6.4,6.4,0,0,0,.29-1.15c0-.43-.44-.53-.82-.53Zm19.87,22.66a1.18,1.18,0,0,1,.92.43,28.18,28.18,0,0,1,2.49,3.84c.53,1,2.16,4,2.16,4.8,0,1.06-1.49,1.54-2.3,1.87a9,9,0,0,1-2.4.77c-.63,0-.82-.57-1.06-1.1a43,43,0,0,0-3.65-7.11,2.07,2.07,0,0,1-.43-1C130.13,111.33,133.92,109.89,134.4,109.89Z"/><path class="cls-1" d="M155,81.62c.38.19,1.3.62,1.3,1.15,0,.33-.39.38-.67.43-.73,0-.77.24-1.16.91-.72,1.35-4.46,7.39-5.81,7.39-1.15,0-4.36-2.35-4.36-3.45,0-.34.28-.58.52-.82a28.74,28.74,0,0,0,5.14-7c.14-.34.29-.68.62-.68C151.3,79.5,154.27,81.18,155,81.62Zm.24,38.25a1.14,1.14,0,0,0-1.15,1.16v1c0,.57-.29.77-1.39.77h-3.51c-1.1,0-1.63-.05-1.63-.77,0-.39.1-2.4.1-3.51v-9.93c0-2.79,0-3.32-1.68-4.76-.58-.52-1.64-1.58-1.64-2.4,0-.38.24-.57.53-.81,2.74-2.07,7.59-8.21,8.83-11.38.29-.72.39-.86.77-.86a5,5,0,0,1,1.59.48c.81.33,2.25.86,2.54,1,1,.34,1.78.68,1.78,1.25s-.43.58-.77.58c-.05,0-.34,0-.34.29s.05.19.2.38a41.74,41.74,0,0,0,7.15,8c.33.24,1,.72,1,1.2,0,1-1.35,2.21-2,2.83a3.84,3.84,0,0,0-1.44,3.41v8.35c0,.24,0,.77.39.77.91,0,4-3.89,5.52-7.34,1.58-3.6,2.16-9.8,2.16-13.78,0-.15,0-.43-.24-.43s-.44.38-.82,1c-1.3,2.45-1.73,3.36-2.54,3.36-1,0-4.47-2.59-4.47-3.6a4.84,4.84,0,0,1,.63-1.24,47.17,47.17,0,0,0,6-14.84.7.7,0,0,1,.72-.67c.39,0,4.37,1.2,5.09,1.39.43.1,1.35.34,1.35.91s-.63.68-1,.77-.44.39-.58.72c-.34,1.25-.77,2.45-1.15,3.65a.59.59,0,0,0-.05.29c0,.57.53.77,1,.77h3.12c1.34,0,2.64-.1,4-.1s1.68.19,2.88,1.34c.53.48,1.3,1.25,1.3,2a38.47,38.47,0,0,1-1.44,6.72,19.36,19.36,0,0,1-1.25,3.56c-.24.43-.43.62-.91.62-1.82,0-4.8-1.1-4.8-2.16a1.36,1.36,0,0,1,.14-.43,14.91,14.91,0,0,0,1.35-4.13c0-.43-.39-.63-.77-.63a1.18,1.18,0,0,0-1.3,1.25v.24c0,.82-.05,1.88-.05,2.93a11.63,11.63,0,0,0,.2,2.4,24.61,24.61,0,0,0,1.15,3.46,41.24,41.24,0,0,0,8.35,12.86c.29.29.67.63.67,1.06,0,1.44-4.12,3.89-4.94,3.89-.48,0-1-.67-1.49-1.35a48,48,0,0,1-5.18-8.59c-.24-.58-.39-.82-.77-.82s-.77.82-.91,1.16c-1.92,4.56-6.1,9.6-7.4,9.6-1,0-2.88-2.26-3.45-3.08-.1-.14-.15-.19-.29-.19s-.24.15-.24.29.1.91.1,1.39-.39.82-1.3.82h-4c-.92,0-1.35-.14-1.35-.82v-.33a.89.89,0,0,0-.91-.92Zm3.26-15.74c2,0,2.36-.14,2.36-.48s-.24-.43-.53-.77a32.3,32.3,0,0,1-3.51-4.51c-.24-.34-.52-.87-1-.87s-.68.39-.92.73c-1.2,1.72-2.54,3.36-3.88,4.94a.71.71,0,0,0-.29.48c0,.34.53.48,1.68.48ZM154,113a1.32,1.32,0,0,0,1.35,1.35h1.05a1.38,1.38,0,0,0,1.35-1.35v-1.73a1.38,1.38,0,0,0-1.35-1.34h-1.05a1.38,1.38,0,0,0-1.35,1.34Zm4.28-31.44c.19-.1.43-.24.76-.38a17.28,17.28,0,0,1,3.22-1.49c.34,0,.67.62,1.15,1.58.15.24.29.58.48.87a39.06,39.06,0,0,0,3.7,5.18A1.53,1.53,0,0,1,168,88c0,1-3.41,3.12-4.51,3.12-.82,0-2.93-3.17-3.41-3.94s-2.59-4-2.59-4.84C157.49,82,158,81.66,158.31,81.52Z"/><path class="cls-1" d="M228.67,89.25a16.88,16.88,0,0,1,5.09,12.34,18,18,0,0,1-9.65,15.93c-1.2.68-4.36,2.16-5.71,2.16-1.68,0-4.22-4.41-4.22-5.76,0-.43.43-.62,1.82-1,5.57-1.44,10.13-4.94,10.13-11.09,0-7.53-5.76-10.51-7.2-10.51-.82,0-.91.86-1,1.73-.53,6.67-2.45,14.83-6.86,20.11-1.78,2.16-4.09,4-7,4-3.22,0-5.86-2.21-7.3-5a16.17,16.17,0,0,1-1.59-7.2,20.35,20.35,0,0,1,20.45-20.69C220.61,84.35,225.22,85.79,228.67,89.25ZM202.42,105c0,1.15.28,4.65,2,4.65,1.16,0,2.79-3.17,3.27-4.17a43.38,43.38,0,0,0,3-12.29c0-.39-.19-.72-.62-.72C208.66,92.42,202.42,96.83,202.42,105Z"/><path class="cls-1" d="M264.77,82.53c.58.14,1.06.33,1.06.67s-.34.43-.53.53a1.88,1.88,0,0,0-1,1.15,6,6,0,0,0-.39,1.25.66.66,0,0,0,.68.67,28.24,28.24,0,0,0,5.56-1.68,1.57,1.57,0,0,1,.63-.19c.57,0,.91.57,1.1,1.15a27.57,27.57,0,0,1,1,4.27c0,.91-.81,1.15-1.87,1.4-2.3.52-4.75.91-7.15,1.29-.39,0-1.11.24-1.11.62s.48.44.77.44,1.54,0,2.5,0c7.87,0,14.83,4.08,14.83,12.72,0,6.19-4,10.42-9.12,13.25a23.44,23.44,0,0,1-7,2.59c-1.34,0-2.93-4.46-2.93-5.57,0-.57.48-.67,1-.81a51.94,51.94,0,0,0,5.19-1.88c3.16-1.39,5.71-3.74,5.71-7.39,0-3-1.73-5.28-2.59-5.28-.48,0-.72.29-1,.82a51.05,51.05,0,0,1-6.58,8.69,1,1,0,0,0-.38.81c0,.29.19.82.19,1.3,0,1.1-3.7,3.89-5.38,3.89a1.14,1.14,0,0,1-.76-.34c-.2-.14-.29-.24-.53-.24a.68.68,0,0,0-.34.1,16.35,16.35,0,0,1-6.34,1.63,6.43,6.43,0,0,1-6.33-6.67c0-4.8,3.31-9.51,6.91-12.39a24.2,24.2,0,0,1,4.9-3,1.28,1.28,0,0,0,.77-1.15c0-.53-.34-.77-.87-.77a10.66,10.66,0,0,0-1.25.09,41.89,41.89,0,0,1-4.37.24c-2.64,0-2.78,0-2.78-2.4,0-3.93.24-4.13,1.1-4.13s2.16.15,3.51.15c4.8,0,5.28-.05,5.47-1.87,0-.48.63-4.76.67-4.9a.83.83,0,0,1,.87-.62C259.06,80.9,263.86,82.29,264.77,82.53Zm-14.21,27.94c0,.57.38.81.91.81a8.1,8.1,0,0,0,3.75-1.44,1.53,1.53,0,0,0,.48-1.39c0-.58,0-1.2,0-1.78s0-.91,0-1.34-.1-.91-.63-.91C254.06,104.42,250.56,108.88,250.56,110.47Zm11.52-8.84c0,.34.15,1.16.63,1.16s1.77-1.78,1.77-2.21-.38-.53-.72-.53C262.08,100.05,262.08,101.15,262.08,101.63Z"/><path class="cls-1" d="M320.64,87.86c0,.28-.29.52-.53.67a41.34,41.34,0,0,0-5.9,4.85,1.26,1.26,0,0,0-.43.86,1.07,1.07,0,0,0,1.1,1c.15,0,.34,0,.53,0a15.8,15.8,0,0,1,3.36.58,11.31,11.31,0,0,1,8.4,11.18c0,9.17-7.92,13.73-16.27,13.73-4.51,0-10.61-1.82-10.61-7.34,0-3.84,3.5-6.68,7.2-6.68a8.07,8.07,0,0,1,7.78,5.48,1.33,1.33,0,0,0,1.15.91c1.15,0,3.45-2.4,3.45-5.57,0-4.08-3.31-5.9-7-5.9a13.72,13.72,0,0,0-9.27,3.69,63.52,63.52,0,0,0-5.9,6c-.68.86-1.06,1.2-1.25,1.2-1.11,0-4.85-3.94-4.85-4.85,0-.57.48-1,1.49-1.77,1.2-1,9.17-8.88,10.85-10.52.91-.91,1.63-1.77,2.45-2.68.33-.34.67-.63.67-1.11s-.77-.67-1-.67-5.38,1-6.63,1.15a2.2,2.2,0,0,1-.57,0c-1.11,0-1.4-5.43-1.4-6.34v-.48c0-.72.15-.72,1.54-.72h1.11c3.12,0,10-.57,12.72-1.73a7.53,7.53,0,0,1,2.06-.76C317,82.1,320.64,86.8,320.64,87.86ZM307.54,112a1.38,1.38,0,0,0-1.54,1.3c0,1.29,1.63,1.92,2.74,1.92a1.13,1.13,0,0,0,1.2-1.06A2.39,2.39,0,0,0,307.54,112Z"/><path class="cls-1" d="M371.62,113.35c0,2.83.09,5.66.09,8.49,0,.92-.48,1-2,1h-3.07c-1.4,0-1.92-.09-1.92-1,0-2.83.14-5.66.14-8.49v-9.7a3.53,3.53,0,0,0-.91-2.59c-1-1-2.69-3-3.55-4.13-.2-.24-.44-.58-.77-.58-.53,0-.63.63-.72,1A43,43,0,0,1,350,115.51c-1.16,1.39-6.68,7.2-8.26,7.2-1.15,0-4.18-3.84-4.18-4.75,0-.49.44-.77,1.11-1.16a2.59,2.59,0,0,1,.33-.24c4.23-2.73,8.07-8,8.07-8.69s-.43-.86-2.55-2.49a1.23,1.23,0,0,1-.62-1c0-.91,2.45-5,3.36-5,.53,0,1.87,1.06,2.3,1.39a1.36,1.36,0,0,0,.73.29c.62,0,.81-.82,1.1-1.68a27.86,27.86,0,0,0,1-4.42.58.58,0,0,0,.05-.29c0-.38-.43-.43-1.11-.43H349c-1.06,0-1.54.19-2,1.2a64.82,64.82,0,0,1-4.94,9c-.29.48-.82,1.34-1.44,1.34-1,0-4.23-2.88-4.23-3.88,0-.58,1-1.88,1.64-2.79.19-.29.38-.53.48-.67a44.52,44.52,0,0,0,2.16-4.08,47.54,47.54,0,0,0,2.92-7.59A51.26,51.26,0,0,0,345.12,80c0-.33.14-.67.53-.67A57.69,57.69,0,0,1,352,81.09c.34.09.58.19.58.57a1,1,0,0,1-.77.87c-.57.19-.67.48-1,1.53-.14.48-.34,1.16-.62,2.07a2.25,2.25,0,0,0-.15.62c0,.72.72.77,1.25.77h1.35c1.15,0,2.25,0,3.4,0a4.39,4.39,0,0,1,2.74,1.06,1.19,1.19,0,0,0,.77.38,1.6,1.6,0,0,0,.77-.33,2.37,2.37,0,0,1,1.34-.68c.53,0,.72.29,1.39,1.3.15.24.34.48.53.82s.48.57.77.57.43-.29.43-.91V85a45.68,45.68,0,0,0-.14-4.66,1.74,1.74,0,0,1,0-.53c0-.48.29-.53,1.15-.53s4.94.15,5.81.2c.34,0,1.2.09,1.2.57s-.29.48-.48.63a1.35,1.35,0,0,0-.67,1.34c-.05,1.73-.05,3.46-.05,5.23V97.6a2.34,2.34,0,0,0,.77,2,51.85,51.85,0,0,0,7.39,5.09c.48.29,1.06.53,1.06,1,0,.81-3.17,5.28-4.47,5.28a13.21,13.21,0,0,1-3.17-1.68,2.66,2.66,0,0,0-.43-.29,1,1,0,0,0-.62-.29c-.53,0-.53.29-.53,1.2Z"/><path class="cls-1" d="M394.61,120.74c-1,0-1.3.43-1.39,1.34s-.82.87-2.07.87h-2.88c-1.77,0-2.3-.1-2.3-1.3,0-2.35.14-4.7.14-7.06V88.43c0-1.68-.14-3.41-.14-5.13,0-2,.86-2.64,2.73-2.64,1.64,0,3.27.09,4.9.09h25.54c1.63,0,3.21-.09,4.85-.09s2.78.28,2.78,2.64c0,1.72-.09,3.45-.09,5.13v26.16c0,2.31.14,4.66.14,7,0,1.2-.48,1.35-2.11,1.35h-3c-1.63,0-2.11-.1-2.2-1.15-.1-.82-.58-1.06-1.3-1.06Zm-1.49-7.68a1.38,1.38,0,0,0,1.34,1.49h23.81a1.35,1.35,0,0,0,1.35-1.35v-25a1.34,1.34,0,0,0-1.35-1.34H394.46a1.33,1.33,0,0,0-1.34,1.34ZM410.69,94a1.17,1.17,0,0,0-1.15,1.15v1.11a.54.54,0,0,0,.53.53h.72c1.53,0,3-.1,4.51-.1,1.1,0,1.2.48,1.2,1.87v1.92c0,.67-.05,1.25-.53,1.49a.33.33,0,0,0-.24.34c0,.09,0,.19.19.38.43.53,2,2.64,2,3.17a1.35,1.35,0,0,1-.43.81c-.1.1-.2.2-.2.29s.1.24.39.29c.62.1.67.82.67,1.73v2c0,1.25-.1,1.88-1.15,1.88-1.63,0-3.31-.1-5-.1H400.61c-1.68,0-3.31.1-5,.1-1.06,0-1.16-.63-1.16-1.92v-1.11c0-2.16.05-2.64,1.25-2.64,1.64,0,3.27.1,4.9.1h.58a1.38,1.38,0,0,0,1.48-1.49v-2.3a1.35,1.35,0,0,0-1.34-1.49c-1.3,0-2.59.09-3.89.09-.58,0-1.2,0-1.2-1.68V98.51c0-1.34.14-1.82,1.25-1.82,1.3,0,2.59.1,3.94.1h.38c.62,0,.86-.39.86-1V94.77a.82.82,0,0,0-.76-.77h-1.06c-1.68,0-3.31.15-5,.15-1,0-1.11-.58-1.11-1.69V90.35c0-1.29.1-1.82,1.2-1.82,1.63,0,3.27.09,4.9.09h11.09c1.68,0,3.36-.09,5-.09,1.06,0,1.15.62,1.15,1.82v1.92c0,1.3-.09,1.88-1.15,1.88-1.68,0-3.31-.15-5-.15Zm-.62,8a.53.53,0,0,0-.53.53v3.6a1.17,1.17,0,0,0,1.15,1.15H411a.57.57,0,0,0,.62-.58,8.09,8.09,0,0,0-1.34-2.06.76.76,0,0,1-.29-.58c0-.48,1.1-1.25,1.49-1.49.14-.09.24-.19.24-.33s-.19-.24-.34-.24Z"/><path class="cls-1" d="M458.31,82.38v4.85c0,12.92,6.48,22.76,17.09,29,.43.24.86.53.86,1,0,1.87-3.07,5.47-4.75,5.47s-7.35-5.42-8.6-6.72a36.34,36.34,0,0,1-7.24-10.75c-.15-.34-.39-.77-.82-.77s-.58.43-.67.77c-2,4.84-5.86,9.5-9.79,12.91-1.16,1-5.43,4.51-6.73,4.51-1.68,0-4.7-3.74-4.7-5.33,0-.53.48-.81,1-1.1a35.83,35.83,0,0,0,11.52-10.27c4.08-5.57,5.42-12.34,5.42-19.16,0-1.92-.19-4.08-.19-5.71,0-1.06.39-1.49,1.49-1.49.86,0,4,.24,5,.34,1.49.14,2.45.09,2.45.81,0,.44-.48.63-.82.77A1.24,1.24,0,0,0,458.31,82.38Z"/><path class="cls-1" d="M491.25,91.41a25.27,25.27,0,0,1,2.92-.28c1,0,1,.07,1.3,2.77a27.28,27.28,0,0,0,.61,4.35c.11.44.29.94.83.94s3.88-1.91,4.67-2.38a13.39,13.39,0,0,1,2.85-1.44c.39,0,1.15,1.12,1.65,1.95a10.53,10.53,0,0,1,1.48,3.09c0,.4-.4.54-1.15.8-.15.07-.33.1-.51.18a61.83,61.83,0,0,0-11.33,5.68c-1.73,1.08-4.22,2.7-4.22,4.57,0,2.42,4.58,2.42,6.23,2.42a46.44,46.44,0,0,0,5.47-.29c.76-.11,3.24-.51,3.82-.69l.36,0c.36,0,.47.61.5.9a32.53,32.53,0,0,1,.15,3.27c0,1.08,0,1.41-1,1.66-1.65.43-7.88.61-9.86.61-2.84,0-5.33-.18-7.85-1.62a7,7,0,0,1-3.59-6.15c0-3.57,2.55-6.56,5.39-8.39.54-.33.87-.5.87-1.12a2.94,2.94,0,0,0-.22-.86c-.29-1-.54-2-.79-3a53.06,53.06,0,0,0-1.51-5.51,1.82,1.82,0,0,1-.11-.43C488.23,92,488.66,91.74,491.25,91.41Z"/><path class="cls-1" d="M26.31,159.38v4.85c0,12.92,6.48,22.76,17.09,29,.43.24.86.53.86,1,0,1.87-3.07,5.47-4.75,5.47s-7.35-5.42-8.6-6.72a36.22,36.22,0,0,1-7.24-10.75c-.15-.34-.39-.77-.82-.77s-.58.43-.67.77c-2,4.84-5.86,9.5-9.8,12.91-1.15,1-5.42,4.51-6.72,4.51-1.68,0-4.7-3.74-4.7-5.33,0-.52.48-.81,1-1.1a35.7,35.7,0,0,0,11.52-10.27c4.08-5.57,5.42-12.34,5.42-19.16,0-1.92-.19-4.08-.19-5.71,0-1.06.39-1.49,1.49-1.49.86,0,4,.24,5,.34,1.49.14,2.45.09,2.45.81,0,.44-.48.63-.82.77A1.24,1.24,0,0,0,26.31,159.38Z"/><path class="cls-1" d="M74.31,168a1.33,1.33,0,0,0,1.34,1.34h5.42c2,0,4-.14,6-.14,1.34,0,1.44.53,1.44,2.16V174c0,1.58-.1,2.06-1.44,2.06-2,0-4-.09-6-.09H75.65a1.3,1.3,0,0,0-1.34,1.34v1.39A1.34,1.34,0,0,0,75.65,180h8.11c2.21,0,4.37-.15,6.53-.15,1.25,0,1.35.58,1.35,2.16v2.69c0,1.54-.1,2.11-1.35,2.11-2.16,0-4.32-.14-6.53-.14H75.65A1.33,1.33,0,0,0,74.31,188v2.5c0,1.3.09,2.59.09,3.84,0,5.09-6.05,5.47-9.84,5.47-1.44,0-2.54,0-3.17-1.25a10.66,10.66,0,0,1-.91-4.22c0-.72.14-1.78,1.15-1.78.82,0,1.64.24,3,.24,2.21,0,2.35-.38,2.35-2.45V188a1.34,1.34,0,0,0-1.34-1.34h-8.6c-2.16,0-4.32.14-6.53.14-1.2,0-1.29-.53-1.29-2.06V182c0-1.53.09-2.11,1.29-2.11,2.21,0,4.37.15,6.53.15h8.6A1.35,1.35,0,0,0,67,178.68v-1.39A1.31,1.31,0,0,0,65.67,176h-6c-2,0-4,.09-6,.09-1.34,0-1.49-.53-1.49-2.21v-2.44c0-1.68.15-2.21,1.49-2.21,2,0,4,.14,6,.14h6A1.34,1.34,0,0,0,67,168v-1.83a.92.92,0,0,0-.86-1c-.87,0-6.29.34-9.7.34-1.59,0-2.11-.58-2.59-2.3a9.93,9.93,0,0,1-.29-2.41c0-1.72.67-1.72,2-1.72.57,0,1.92.09,2.92.09,8.07,0,18.15-.81,23.53-2.64a3.22,3.22,0,0,1,1-.24c.57,0,1,.63,1.34,1,.19.19,3,4.32,3.41,4.9a.71.71,0,0,1,.14.43.56.56,0,0,1-.52.53,4.35,4.35,0,0,1-1.06-.34,1.63,1.63,0,0,0-.82-.19,5.14,5.14,0,0,0-.86.14,67.22,67.22,0,0,1-8.74,1.59c-1.1.14-1.53.38-1.53,1.53Z"/><path class="cls-1" d="M122.21,193.18c0,1.78.14,3.7.14,5.28,0,1.25-.62,1.39-2.25,1.39h-3.46c-1.68,0-2.3-.14-2.3-1.39,0-1.44.19-3.46.19-5.28V181c0-.38,0-1.05-.53-1.05s-1,.62-1.29.91a48.52,48.52,0,0,1-6.53,5.52c-.92.67-4.61,3.17-5.57,3.17-1.68,0-4-4.13-4-5.14,0-.38.28-.62,1.15-1.15a50.12,50.12,0,0,0,15.17-14c.48-.67,2.21-3.26,2.21-3.93,0-.29-.34-.49-.72-.49H105c-2.16,0-4.32.1-6.43.1-1.29,0-1.39-.53-1.39-2.06V160.2c0-1.63.1-2.16,1.3-2.16,2.2,0,4.36.14,6.52.14h26.84c2.16,0,4.37-.14,6.53-.14,1.2,0,1.34.58,1.34,2.16v2.93c0,1.39-.19,1.87-1.39,1.87-2.16,0-4.32-.1-6.48-.1h-8.21c-.24,0-.86,0-.86.34s.48.39.67.43.77.34.77.77c0,.58-.48.82-1,.87-.68.09-.92.33-1.06.62s-.34.72-.67,1.3a3.32,3.32,0,0,0-.58,1.44c0,.76.87.72,1,.76.43,0,1.15.1,1.15.68,0,.33-.24.48-.48.81-.33.48-.43.77-.43,2Zm12.1-15.89c1,1,5.9,6.1,5.9,7.15a1.25,1.25,0,0,1-.29.72,16,16,0,0,1-3.26,2.93,2.29,2.29,0,0,1-1.15.43c-.39,0-.53-.19-.72-.48-2.55-3.84-7.59-8.59-11.19-11.52a1.26,1.26,0,0,1-.57-.91c0-.82,3.36-3.94,4.51-3.94S133.3,176.28,134.31,177.29Z"/><path class="cls-1" d="M158.79,175.56c-1.25,0-1.21,0-1.64.63s-.86.57-3.07.57h-1.44c-2,0-2.64-.09-2.64-1.2,0-.43.14-2.25.14-3.74v-9c0-1-.09-2.11-.09-3.17,0-1.92,1.73-2.11,3.6-2.11,1.53,0,3,.1,4.51.1h16.56c1.49,0,3-.1,4.51-.1,2.12,0,3.6.29,3.6,2.16,0,1.06-.09,2.07-.09,3.12v9c0,1.39.14,3.31.14,3.69,0,1.16-.57,1.25-2.59,1.25h-1.44c-2.21,0-2.83,0-3.12-.72-.14-.38-.38-.48-1.1-.48h-3.22a1.38,1.38,0,0,0-1.34,1.35v1.82a1.37,1.37,0,0,0,1.34,1.34H177c1.87,0,3.69-.14,5.57-.14,1.15,0,1.25.48,1.25,1.87v2.69c0,1.44-.1,1.87-1.25,1.87-1.88,0-3.7-.09-5.57-.09h-5.57a1.33,1.33,0,0,0-1.34,1.34v2.83A1.43,1.43,0,0,0,171.7,192h4.37c2.4,0,7.53-.1,9.79-.39.34,0,.86-.09,1.15-.09,1,0,1.11,1,1.11,1.77a11.06,11.06,0,0,1-.63,3.75,2.39,2.39,0,0,1-2.73,1.82h-.39c-.77,0-1.54.05-2.3.05h-5.33c-5.09,0-13.73-.14-17.14-1.92a15.35,15.35,0,0,1-3.74-2.69,1.44,1.44,0,0,0-.87-.48c-.48,0-.81.67-1,1.06a21.54,21.54,0,0,1-2,3.36,2.31,2.31,0,0,1-1.68,1.15c-1.2,0-5.57-1.82-5.57-3.12a3.51,3.51,0,0,1,.81-1.63c.15-.19.29-.39.39-.53a33.48,33.48,0,0,0,5.66-14.26c.15-1,.15-1.58,1-1.58a42.51,42.51,0,0,1,6.34,1.39c.57.14,1.39.43,1.39,1,0,.29-.38.48-.67.57-.77.24-.87.53-1.2,1.83-.15.57-.29,1-.48,1.73a4.21,4.21,0,0,0-.24,1.34c0,2.59,3.6,4.75,4.27,4.75s.67-.57.67-1.2V176.91a1.43,1.43,0,0,0-1.44-1.35Zm-1.69-7.68a1.29,1.29,0,0,0,1.35,1.35h16a1.35,1.35,0,0,0,1.35-1.35v-2.45a1.34,1.34,0,0,0-1.35-1.34h-16a1.34,1.34,0,0,0-1.35,1.34Z"/><path class="cls-1" d="M199.44,163.8c.24-.91.48-1.82.62-2.59s.2-1.35.82-1.35a61.42,61.42,0,0,1,7.11,2.6c1,.43,1.24.72,1.24,1s-.14.28-.33.38a2.89,2.89,0,0,0-1.78,2,38.74,38.74,0,0,0-2.93,13.63c0,2.64,0,3.94.63,3.94.33,0,.57-.39.81-.77s.58-1,1.11-1,2.49,1.63,2.49,2.35-2.11,4.37-2.11,7c0,.33.1,1.53.19,2.25a13.4,13.4,0,0,1,.15,1.39c0,1.78-3.56,3.17-5,3.17-.92,0-1.35-.62-2.21-2.35-2.35-4.75-3.07-10.13-3.07-15.41A59,59,0,0,1,199.44,163.8Zm13.73,20.59c2,2.4,3.6,3.22,6.72,3.22a39,39,0,0,0,10.51-1.54,5.2,5.2,0,0,1,1.16-.19c.62,0,.91.63,1,1.06a47.74,47.74,0,0,1,.24,5c0,.63,0,1-.68,1.25-1.68.82-9.69,1.54-11.85,1.54-7.73,0-11.14-3.84-11.14-4.95,0-.91,2.4-5.76,3.5-5.76C212.83,184,213,184.25,213.17,184.39Zm-.1-20.78a9.19,9.19,0,0,1,1.49.19,34.63,34.63,0,0,0,6.34.67,29.2,29.2,0,0,0,7.1-1,4.59,4.59,0,0,1,1-.14c.92,0,1.2,1,1.3,1.73a37.1,37.1,0,0,1,.29,3.93c0,1.16-.15,1.49-1.4,1.68a55.93,55.93,0,0,1-8.06.58c-1.44,0-8.06-.24-9-1-.38-.33-.38-1.77-.38-2.3C211.73,164.43,211.92,163.61,213.07,163.61Z"/><path class="cls-1" d="M263,197.6c-.76,0-1.05.43-1.05,1.15,0,1.15-.48,1.25-2,1.25h-2.54c-1.44,0-2-.1-2-1.2,0-1.88.14-3.7.14-5.52V177.34c0-1.15-.09-1.83-.91-1.83-.14,0-.38.05-.48.05-.67,0-.77-.48-1.06-2.06-.14-.67-.28-1.59-.57-2.79-.05-.24-.24-.81-.53-.81s-.24.38-.24.57v20.26c0,2.74.1,5.47.1,8.21,0,.91-.39,1-1.49,1h-2.83c-1.3,0-1.68-.1-1.68-1.06,0-2.73.14-5.42.14-8.16V168.55c0-.57-.05-1-.38-1-.58,0-.58.39-.63,1.59-.09,2-.43,6.77-.67,8.64-.1.53-.19,1.25-.82,1.25-.43,0-3.45-.48-3.45-1.64,0-.19,0-.38,0-.52a60.34,60.34,0,0,0,.86-8.21c0-.68,0-1.2,0-1.64.05-1.39.05-1.53.67-1.53a24.14,24.14,0,0,1,2.59.29,3.28,3.28,0,0,0,.63,0c1,0,1.1-.62,1.1-1.43v-3.56a27.86,27.86,0,0,0-.14-3.41v-.38c0-.48.33-.58.76-.58.87,0,3.89.15,4.76.2.43,0,1.53.09,1.53.72,0,.28-.19.38-.53.62-.62.43-.62,1.54-.62,3.7v2.64c0,.48.1,1.2.72,1.2a2.47,2.47,0,0,0,.87-.24,2.63,2.63,0,0,1,.86-.2c.77,0,1,1,1.25,1.78.43,1.3.91,2.93,1.2,4.23s.57,1.77,1.92,1.82c.53.05,1.05.05,1.49.05,1.72.09,2.64.09,2.64.72,0,.33-.24.48-.44.67a1.92,1.92,0,0,0-.43,1.34c0,.2.1.39.29.39s.53-.43.67-.63c.43-.48,1.25-1.53,2-1.53a1.75,1.75,0,0,1,1,.53c.38.33,1.29,1.1,1.77,1.1s.72-.48.82-.86c.24-1.06.48-2.12.67-3.22,0-.29,0-.67.39-.67a16.25,16.25,0,0,1,3.26.62c1.87.48,3,.72,3,1.35,0,.28-.33.52-.57.67-.48.24-.53.43-.77,1.39s-.58,2.45-.91,3.41a3.16,3.16,0,0,0-.24,1.15c0,1.06.57,1.58,1.39,2.35a9.78,9.78,0,0,1,.72.72c.15.19.43.48.67.48s.44-.29.44-.77V177a25.11,25.11,0,0,0-.1-2.83,1.27,1.27,0,0,1,0-.43c0-.58.48-.62.91-.62.72,0,5.09.14,5.62.24.34,0,1,.24,1,.67,0,.24-.24.38-.43.62-.43.39-.48,1.44-.48,2.64v16c0,1.82.09,3.64.09,5.52,0,1.1-.48,1.2-2,1.2h-2.6c-1.48,0-2.06-.1-2.06-1.2v-.29c0-.48-.38-.91-1.11-.91ZM261.51,162a26,26,0,0,1,1.72,4.28c0,1.29-3.6,2.54-4.36,2.54s-.92-.53-1.16-1.05a52.44,52.44,0,0,0-3.5-6.73c-.1-.24-.29-.43-.29-.72,0-1.1,3.51-2.49,4.51-2.49C259.25,157.85,259.68,158.33,261.51,162Zm.28,23.77c0,.38,0,.86.44.86.62,0,2.92-3.5,2.92-4.46s-2.16-2.26-2.59-2.26c-.72,0-.77.67-.77,1.25Zm0,4.75a1.17,1.17,0,0,0,1.16,1.15h12.14a1.32,1.32,0,0,0,1.35-1.34v-1.78c0-.34-.05-.58-.39-.58s-.48.29-.67.53-1.15,1.35-1.59,1.35-.67-.48-.91-.77c-.38-.53-1.87-2.35-2.49-2.35-.44,0-.77.52-1,.86-.34.67-2.4,3.89-3,3.89-.81,0-3-1.39-3.65-2a.89.89,0,0,0-.62-.34c-.29,0-.34.29-.34.58Zm8.69-29.86a33.47,33.47,0,0,1,.87,3.84c0,.82-1,1.11-1.59,1.34a21.32,21.32,0,0,1-3.36.77c-.43,0-.57-.19-.77-1a36.44,36.44,0,0,0-1.92-6.34,3.65,3.65,0,0,1-.28-.91c0-1.25,3.79-2,4.51-2C269,156.36,269.38,156.55,270.48,160.68Zm11.43-1.78c1,.58,2.11,1.25,2.11,1.92s-.43.63-.86.63H283c-.53,0-.91.62-1.58,1.63a8.66,8.66,0,0,1-.53.86c-.72,1.16-5,7-6.1,7s-4.56-2.3-4.56-3.12c0-.24.43-.72.63-.91a46.53,46.53,0,0,0,6.28-9.31c.2-.34.34-.72.82-.72A28.86,28.86,0,0,1,281.91,158.9Z"/><path class="cls-1" d="M308.64,158.52c.29,0,.82.14.82.53a.76.76,0,0,1-.39.57,3.52,3.52,0,0,0-.86,2.36.78.78,0,0,0,.82.81,10.62,10.62,0,0,0,2.06-.57,5.51,5.51,0,0,1,1.49-.44c.57,0,.81.53,1,1.06a29.54,29.54,0,0,1,.62,4.61c0,1.2-.62,1.39-4.8,2.16-1.63.29-1.92.72-2,2.11,0,1-.28,5-.28,5.62a5.8,5.8,0,0,0,.14,1.34,8.18,8.18,0,0,1,.14,1.59,16.27,16.27,0,0,1-.76,4.51,22.84,22.84,0,0,0-1,4.22c0,1.78,2.59,1.78,5,1.78,1.87,0,6.09-.05,7.25-1.68.72-1,.91-3.31,1-4.42,0-1.39.09-2.35,1.77-2.35a9,9,0,0,1,3.32.82c1.05.48,2.06,1,2.06,2.11a16.55,16.55,0,0,1-2.64,8.06,9.19,9.19,0,0,1-6.19,3.51,42.38,42.38,0,0,1-7.83.67c-2.49,0-5.33-.14-7.53-1.39a5.49,5.49,0,0,1-2.69-4.85,9.22,9.22,0,0,1,.14-1.54c0-.48-.38-.67-.77-.67h-.38a4.5,4.5,0,0,1-3.27-1.44c-1.48-1.54-2-4.17-2-6.19,0-4.66,2.16-8.64,7.29-8.64a.74.74,0,0,0,.67-.77.76.76,0,0,0-.67-.82c-.09,0-2.21.29-2.54.34-.67.1-2.35.29-3,.29-1,0-1.24-.48-1.48-1.35a31.42,31.42,0,0,1-.68-4.75c0-.86.39-.91,1.44-.91h.92c4.65,0,6-.19,6-1.83a25.85,25.85,0,0,0-.28-4.32,1.7,1.7,0,0,1-.05-.48c0-.48.43-.52.82-.52S307.87,158.38,308.64,158.52Zm-10,22.71c0,.57.09,1.82.86,1.82,1,0,1.44-2.4,1.44-3.17,0-.57-.24-1.34-1-1.34C298.94,178.54,298.66,180.46,298.66,181.23Zm22.13-16c1.24,0,5,3.41,6,4.42.62.62,2.21,2.25,2.73,2.93a1.37,1.37,0,0,1,.39.86c0,1-3.94,4.27-4.9,4.27-.53,0-.77-.33-1.68-1.53a33.85,33.85,0,0,0-5.86-5.86c-.28-.24-.62-.53-.62-.91C316.85,168.55,319.49,165.24,320.79,165.24Z"/><path class="cls-1" d="M361.59,183.53c-1.16,0-1.64.24-2,1.39a20,20,0,0,1-4.51,7.78,25.27,25.27,0,0,1-11.53,6.86,4.83,4.83,0,0,1-1.44.24c-2.11,0-4.22-4.22-4.22-5.42,0-.72.67-.82,1.25-1,4.56-1,9.21-3,11.95-6.91a6.86,6.86,0,0,0,1.11-2.21c0-.63-.63-.77-1.35-.77h-2.16c-1.78,0-3.55.14-5.33.14-1.2,0-1.29-.48-1.29-2v-1.92c0-1.06-.63-1.44-1.59-1.44h-.24c-1.39,0-2.21-.05-2.21-1.54,0-1,.15-2.16.15-3.31v-1.2c0-1.49-.1-3.17-.1-3.89,0-2,1.63-2.16,3.22-2.16.67,0,1.44.05,1.68.05.48,0,1-.19,1-.72,0-.72-2.21-4.47-2.69-5.28a1.31,1.31,0,0,1-.38-.82c0-1.1,4.27-2.64,5-2.64s1.58,1.35,2.54,3.17c.1.14.19.38.34.62a13.83,13.83,0,0,1,1.53,3.65c0,.67-1.05,1.11-1.58,1.35-.19.09-.53.19-.53.48s.43.29.62.29h16.57c.14,0,.52,0,.52-.29a.27.27,0,0,0-.19-.29c-.33-.24-.86-.63-.86-1.06a2.12,2.12,0,0,1,.43-.86,45.59,45.59,0,0,0,3.74-6.72c.2-.43.34-.91.87-.91a16,16,0,0,1,3,1.15c.24.09.39.19.53.24,2.45,1.1,3.22,1.34,3.22,2,0,.38-.34.48-.67.52-.48,0-.72.05-.92.44a36.26,36.26,0,0,1-2.06,3.84,2.56,2.56,0,0,0-.43,1.15c0,.53.57.77,1,.77.71,0,1.39-.1,2.06-.1,1.54,0,3,.24,3,2.11,0,.82-.09,2.45-.09,3.94v1.2c0,1.15.14,2.35.14,3.31,0,1.44-.77,1.49-2,1.49h-.33c-.53,0-1.2.05-1.2.77v.24a10.71,10.71,0,0,1,.05,1.29c0,4-.72,12-2.55,15.56s-5.28,3.74-9.74,3.74c-3.51,0-4.18-.14-4.18-5.37,0-1.44.29-1.73,1-1.73,1.3,0,2.54.19,3.84.19,2.54,0,2.88-.34,3.36-1.73a23,23,0,0,0,1.1-6.48c0-1.06-.28-1.2-3.07-1.2Zm.91-6.29h5.95c2.93,0,3.36-.05,3.36-3.21a1.34,1.34,0,0,0-1.49-1.4H346.61c-1.06,0-1.59.63-1.59,1.35,0,2.49.2,3.21,1.88,3.21H347c.58,0,1.16.05,1.73.05h3.6a1.35,1.35,0,0,0,1.49-1.34c0-.48-.05-1-.05-1.39,0-.72.29-.92,1-.92s4.27.2,5.18.24,2.21.15,2.21.72c0,.39-.57.63-.81.82a.58.58,0,0,0-.39.62C361,177.24,362,177.24,362.5,177.24Zm-4.56-21.17c.81,0,1.25.43,2.69,4.13a20.44,20.44,0,0,1,1.15,3.41c0,1.39-4.61,2.21-5.14,2.21a1.1,1.1,0,0,1-1.15-.87,36.53,36.53,0,0,0-2.26-5.61,2.11,2.11,0,0,1-.28-.87C353,157.22,357.41,156.07,357.94,156.07Z"/><path class="cls-1" d="M400.66,190.73c0-.48-.15-.67-.67-.67h-.48c-1.3,0-2.6.05-3.89.05-.87,0-.92-.58-.92-1.63v-1c0-1.54.05-1.83,1.25-1.83.72,0,1.83.1,3.56.1H400c.44,0,.63-.24.63-.68V185c0-.24,0-.67-.53-.67-.91,0-1.82.14-2.74.14-1.34,0-2-.43-2-2.11,0-1.1,0-2.21,0-3.31V174.7c0-1.11,0-2.21,0-3.31,0-1.44.48-2.07,2-2.07.91,0,1.87.1,2.78.1.38,0,.53-.24.53-.63v-.09c0-.43-.15-.68-.58-.68-1.29,0-2.59.1-3.89.1-.86,0-1.05-.38-1.05-1.15,0-.19-.05-.53-.29-.53s-.53,1-1,2.11l-.43,1.16a1.07,1.07,0,0,0-.1.38c0,.38.38.48.62.58s.24.28.24.43-.24.43-.43.62c-.43.39-.48,1.44-.48,2.59v18.92c0,1.87.1,3.74.1,5.66,0,1-.43,1.06-1.78,1.06h-2.25c-1.35,0-1.83-.1-1.83-1.06,0-1.87.1-3.79.1-5.66V181.9c0-.72,0-1-.63-1.35a6.49,6.49,0,0,1-1.92-2.2,7.45,7.45,0,0,0-.52-.82,3.71,3.71,0,0,1-.87-2.06,2.48,2.48,0,0,1,.53-1.44A44,44,0,0,0,390,158.09c.1-.58.19-1.44,1-1.44a20.05,20.05,0,0,1,2.64.67c.34.1,2,.58,2.21.58a1.4,1.4,0,0,0,1-.44,1,1,0,0,1,.48-.14h.48a47.57,47.57,0,0,0,11.38-1.1,1,1,0,0,1,.38-.1c.53,0,.91.72,1.34,1.63.15.24.29.53.44.82a1.75,1.75,0,0,0,.19.33,8.8,8.8,0,0,1,.86,2.12.57.57,0,0,1-.57.52,2,2,0,0,1-.77-.24,1.29,1.29,0,0,0-.58-.19l-3.12.48c-.62.1-.72.24-.72.72v.63c0,.43.19.62.63.62h.33c1.44,0,2.83-.1,4.27-.1,1,0,1.06.48,1.06,1.4,0,.48,0,.67.38.67h.15c.57,0,1.34.1,1.34-1.15v-2.07c0-1.82-.09-4.56-.09-5,0-.77.48-.81,1-.81s4.85.24,5.37.33.72.19.72.63-.19.48-.48.62a1.29,1.29,0,0,0-.62,1.34v4.52c0,1.2.48,1.68,1.68,1.68.72,0,1.39-.05,2.11-.05,2.55,0,3.12,1.25,3.12,3.55v3.46c0,4.85-.19,19.54-1.68,23.52-1.15,3-3.21,3.7-6.24,3.7-2,0-2.54,0-2.83-2.12-.05-.28-.15-.86-.53-.86s-.72.82-.86,1.15c-1,1.92-1.2,2-1.64,2-1,0-4.51-1.2-4.51-2.4,0-.1.05-.24.05-.34a.56.56,0,0,0-.62-.52c-.15,0-.39,0-.58,0-3.46.48-7,.72-10.47,1.06-.62,0-.86.1-1.1.67-.14.39-.24.53-.67.53s-.67-.38-.91-1.39-.48-2-.82-3.22a5.73,5.73,0,0,1-.14-.91c0-.67.48-.72,2.88-.77.72,0,1.29-.05,2.2-.09,1.11-.05,1.64-.15,1.64-1Zm0-28c0-.43-.1-.67-.53-.67s-.86.05-1.3.05c-1.05,0-1.25-.38-1.73-1.63a.56.56,0,0,0-.52-.53c-.34,0-.43.53-.58,1.39-.1.34-.14.72-.24,1.11a2.77,2.77,0,0,0-.14.62c0,.38.14.48,4.37.48.52,0,.67-.14.67-.67ZM401,175a.57.57,0,0,0,.58-.62v-.67a.6.6,0,0,0-.58-.63h-.43a.64.64,0,0,0-.62.63v.67a.6.6,0,0,0,.62.62Zm-.43,3.51a.64.64,0,0,0-.62.62V180a.59.59,0,0,0,.62.57H401a.55.55,0,0,0,.58-.57v-.87a.6.6,0,0,0-.58-.62Zm6.15-3.51a.57.57,0,0,0,.57-.62v-.67a.6.6,0,0,0-.57-.63h-.48a.64.64,0,0,0-.63.63v.67a.61.61,0,0,0,.63.62Zm-.48,3.51c-.34.05-.63.24-.63.62V180a.6.6,0,0,0,.63.57h.48a.55.55,0,0,0,.57-.57v-.87a.59.59,0,0,0-.57-.62Zm1-10.52c-.39,0-.63.15-.63.63v.1c0,.38.15.67.58.67.91,0,1.77-.1,2.69-.1,1.34,0,2.06.43,2.06,2.07,0,1.1-.1,2.2-.1,3.31V179c0,1.1.1,2.21.1,3.31,0,1.44-.53,2.11-2,2.11-.91,0-1.87-.14-2.73-.14a.55.55,0,0,0-.58.62v.19c0,.44.19.68.63.68h.48c1.29,0,2.54-.1,3.84-.1.81,0,.91.38,1,1.1,0,.15,0,.44.24.44.38,0,.72-2.21.91-3.22,0-.19.05-.34.05-.43.33-2.83,1-8.21,1-11,0-.29-.1-.63-.48-.63-.15,0-.29,0-.44,0-.86,0-1-.34-1-1.63v-1.59c0-.72,0-.77-5.14-.77Zm0,22c-.44,0-.63.19-.63.67v.62c0,.39.19.68.77.68.14,0,1.82-.19,2.11-.19a3.57,3.57,0,0,1,.72-.1.62.62,0,0,1,.63.34.53.53,0,0,0,.38.09c.58,0,.77-1.06.77-1.34,0-.72-.48-.77-3.41-.77Zm13.2-16.27a78.28,78.28,0,0,1-2.64,17.9,1.86,1.86,0,0,0-.15.72c0,.53.48.58,1.35.58,1.34,0,1.58-.15,2-3.12.53-3.84.82-12.15.82-16.13,0-.91-.05-1.83-.77-1.83S420.44,172.49,420.39,173.79Z"/><path class="cls-1" d="M468.68,166.25a16.91,16.91,0,0,1,5.08,12.34,18,18,0,0,1-9.65,15.93c-1.2.68-4.36,2.16-5.71,2.16-1.68,0-4.22-4.41-4.22-5.76,0-.43.43-.62,1.82-1,5.57-1.44,10.13-4.94,10.13-11.09,0-7.53-5.76-10.51-7.2-10.51-.82,0-.91.87-1,1.73-.53,6.67-2.45,14.83-6.86,20.11-1.78,2.16-4.09,4-7,4-3.22,0-5.86-2.21-7.3-4.95a16.17,16.17,0,0,1-1.59-7.2,20.35,20.35,0,0,1,20.45-20.69C460.61,161.35,465.22,162.79,468.68,166.25ZM442.42,182c0,1.15.28,4.65,2,4.65,1.15,0,2.78-3.16,3.26-4.17a43.38,43.38,0,0,0,3-12.29c0-.39-.19-.72-.62-.72C448.66,169.42,442.42,173.83,442.42,182Z"/><path class="cls-1" d="M485.86,178.06a1.23,1.23,0,0,0-1.2-1.25c-.53,0-1.11.05-1.64.05-1,0-1-.58-1-1.87v-2.55c0-1.44.09-1.92,1.15-1.92.48,0,1.2,0,1.49,0a1.28,1.28,0,0,0,1.25-1.3v-3a1.26,1.26,0,0,0-1.35-1.35c-.81,0-1.63.1-2.45.1s-1-.53-1-1.63v-3.08c0-1.29.09-1.77,1.1-1.77s2.74.14,4.42.14h4.94c1.68,0,3.36-.14,4.37-.14s1.15.48,1.15,2.06V163c0,1.49-.1,2-1.06,2-.76,0-1.48-.05-2.25-.05a1.19,1.19,0,0,0-1.15,1.25v3.07a1.26,1.26,0,0,0,1.1,1.3c.24,0,.72-.1,1.1-.1,1.35,0,1.45.19,1.45,2V175c0,1.39-.1,1.87-1.11,1.87-.43,0-.81-.05-1.25-.05a1.19,1.19,0,0,0-1.29,1.3V181c0,.48.09,1.16.77,1.16a16.53,16.53,0,0,0,1.63-.48,4.73,4.73,0,0,1,1.15-.29c.91,0,1.06,1.05,1.06,3.31,0,1.83,0,2.21-1.11,2.69a103.27,103.27,0,0,1-10.94,3.74c-1,.29-1.2.48-1.44,1.11-.15.38-.39.72-.82.72s-.72-.68-1.3-2.69l-.72-2.5a9.47,9.47,0,0,1-.43-1.92c0-.72.77-.81,1.44-.91,3.12-.53,4-.48,4-2.5Zm14.06,19c-1.49.86-5.28,2.49-7,2.49-1.49,0-3.07-3.45-3.07-5.13,0-.67.38-.67,1.2-.91,3.31-.92,6.62-2.31,8.78-5.14a6.69,6.69,0,0,0,1.25-2.5c0-.72-.67-.72-1.2-.77-1.2-.09-1.53-1.2-1.53-2.25,0-1.39,0-2.79,0-4.13V163.8c0-1.39,0-2.78,0-4.13,0-1.63.57-2.3,2.2-2.3,1.3,0,2.6.09,3.89.09h11.71c1.3,0,2.6-.09,3.89-.09,1.64,0,2.26.62,2.26,2.3,0,1.39-.1,2.74-.1,4.13v14.93c0,1.34.1,2.74.1,4.13,0,1.77-.72,2.3-2.26,2.3-1,0-2-.09-3-.09a1.35,1.35,0,0,0-1.44,1.29v5.14c0,.58,0,.81.72.81h.38c.82,0,.87-1.05,1.2-3.21.15-.91.39-1.11,1.3-1.11a8,8,0,0,1,3.5.77c.92.43,1.54.82,1.54,1.92a15.43,15.43,0,0,1-1.82,6.53c-1,1.63-1.92,2-3.8,2h-5.33c-3.5,0-4.51-.67-4.51-4.27v-8.5a1.3,1.3,0,0,0-1.34-1.34h-2.11c-.29,0-.68,0-.68.28s1,.72,2.16,1.21c.77.33,1.44.52,1.44,1.05,0,.38-.62.58-.91.77a1.3,1.3,0,0,0-.57.67A16,16,0,0,1,499.92,197.07Zm14.64-31.93a.76.76,0,0,0,.77-.76v-.29a.76.76,0,0,0-.77-.77h-8.45a.79.79,0,0,0-.76.77v.29a.77.77,0,0,0,.76.76Zm-8.45,5.09a.83.83,0,0,0-.76.77v.34a.79.79,0,0,0,.76.77h8.45a.76.76,0,0,0,.77-.77V171a.79.79,0,0,0-.77-.77Zm0,7.11a.78.78,0,0,0-.76.77v.33a.79.79,0,0,0,.76.77h8.45a.76.76,0,0,0,.77-.77v-.33a.76.76,0,0,0-.77-.77Z"/><path class="cls-1" d="M533.57,173.35c0-1.24-.72-1.58-1.25-1.58s-1.25,0-1.87,0c-.91,0-1-.53-1-1.78v-2.93c0-1.34.1-1.87,1.06-1.87.52,0,1.2,0,1.72,0a1.29,1.29,0,0,0,1.35-1.44v-4.51c0-.63-.15-1.78-.15-2.4s.39-.68.92-.68,5.47.29,6.24.34c.48.05,1,.14,1,.67s-.39.53-.82.87a1,1,0,0,0-.48,1.05v4.66c0,1.1.67,1.49,1.3,1.49.81,0,1.63-.1,2.44-.1,1,0,1.06.48,1.06,2v2.54c0,1.54-.1,2-1.06,2-.81,0-1.58-.1-2.4-.1-.67,0-1.34.48-1.34,1.63v5.14c0,.82.1,1.44.77,1.44a12.32,12.32,0,0,0,1.58-.58c.91-.38,1.63-.91,1.63-2v-1.2c0-1.3.1-1.83,1.11-1.83,1.77,0,3.55.1,5.37.1h14.89c1.77,0,3.55-.1,5.32-.1,1,0,1.11.43,1.11,1.83v2.25c0,1.11-.19,1.54-1.11,1.54-1.77,0-3.55-.1-5.32-.1h-9.13c-1.53,0-1.68,1-1.68,1.11,0,.38.48.43.77.43h8c1.44,0,2.88-.1,4.32-.1,2.3,0,2.45,1.15,2.45,3.12,0,2.88-.29,8.84-1.2,11.48-1.25,3.55-4.23,4.08-7.59,4.08-2.88,0-3.17-.29-3.5-3.6-.05-.44-.15-.58-.39-.58s-.43.24-.57.38c-.72.82-3.94,4.08-4.9,4.08s-3.26-1.82-3.26-2.59c0-.43.57-.81.91-1.05,3.07-2.12,8.11-8.12,8.11-9.12a.34.34,0,0,0-.38-.34h-.29c-.53,0-.77.34-1,.72a30.2,30.2,0,0,1-3.26,4.13,33.18,33.18,0,0,1-6.58,5.52,1.68,1.68,0,0,1-.86.24c-1,0-3.12-1.92-3.12-2.74,0-.33.43-.53.67-.67,4-2.26,8.06-6.24,8.06-7,0-.24-.33-.24-.52-.24a1.49,1.49,0,0,0-1.3.58A29.17,29.17,0,0,1,543,193a2.67,2.67,0,0,1-1.2.53c-1,0-3.26-2.41-3.26-3.27,0-.43.43-.62.82-.86a30.67,30.67,0,0,0,7.44-6.39,10,10,0,0,0,1.68-2.49c0-.44-.48-.58-.87-.58-1.53,0-2.69.1-2.69,1.34,0,.39,0,1.3,0,1.92,0,1-.09,1.49-1,2-2.73,1.4-8,3.56-10.89,4.66a1.72,1.72,0,0,0-1.15,1c-.2.33-.34.72-.72.72s-.53-.24-.72-.77c-.29-.77-.68-2.21-1.25-4a7.81,7.81,0,0,1-.48-2c0-1,.77-1,2.06-1.29,2.5-.63,2.74-.77,2.74-2.21Zm27.36-15.79c1.63,0,3.26-.19,5-.19s2.88.53,2.88,2.54c0,1.11-.15,2.21-.15,3.55V167c0,1.29.15,2.45.15,3.55,0,2-1.06,2.5-2.84,2.5s-3.36-.15-5-.15h-6.29c-1.63,0-3.26.15-4.94.15-1.83,0-2.88-.48-2.88-2.5,0-1.1.14-2.26.14-3.55v-3.56c0-1.34-.14-2.44-.14-3.55,0-2,1-2.54,2.83-2.54s3.36.19,5,.19Zm.67,5.9a.59.59,0,0,0,.63-.57v-.39a.64.64,0,0,0-.63-.62H554a.63.63,0,0,0-.62.62v.39a.58.58,0,0,0,.62.57ZM554.11,167a.76.76,0,0,0-.76.77v.09a.75.75,0,0,0,.76.77h7.35a.76.76,0,0,0,.77-.77v-.09a.73.73,0,0,0-.77-.77Zm8.74,20.88a29.12,29.12,0,0,1-2.78,4.66c-.1.14-.2.24-.2.38,0,.43.39.43.87.48a5.56,5.56,0,0,0,.91,0,1.22,1.22,0,0,0,1.39-.91,11.8,11.8,0,0,0,.58-4.42c0-.24,0-.62-.34-.62S563,187.66,562.85,187.85Z"/><path class="cls-1" d="M594.67,167.84c.65.29,1.11.54,1.11.86s-.39.4-.64.47a2.33,2.33,0,0,0-1,1.37c0,.29.18.4.43.4a16.34,16.34,0,0,0,2.91-.8,3.19,3.19,0,0,1,1-.25c.79,0,1,.76,1.12,1.4a16,16,0,0,1,.43,2.92c0,.54-.33.68-2.3,1s-4.43.8-6.66,1.05c-1.16.14-1.23.93-1.23,1s.18.25.33.25a1,1,0,0,0,.32-.11,9,9,0,0,1,3.06-.54,5.3,5.3,0,0,1,2.59.58,3.61,3.61,0,0,1,1.73,2.05.63.63,0,0,0,.61.43,20.63,20.63,0,0,0,3.35-1.69c.32-.18.57-.32.72-.39a1.09,1.09,0,0,1,.47-.18c.9,0,2.16,4.14,2.16,5,0,.47-.36.58-1.08.83-1.73.65-2.81,1.12-4.47,1.8-.86.36-1,.68-1,1.66,0,.43,0,1.29,0,2.08,0,2.31,0,2.34-2.05,2.34-2.48,0-3.24-.1-3.24-1.22a7.91,7.91,0,0,1,.07-1V189a.46.46,0,0,0-.43-.51c-.36,0-2.16,1.16-2.16,2.42,0,1.8,3.06,1.8,4.32,1.8a30.42,30.42,0,0,0,6.69-.9,3.92,3.92,0,0,1,.9-.11c.87,0,.9,1.29.9,3.6,0,1.37-.07,1.73-1.11,1.94a48.34,48.34,0,0,1-7,.43,13.49,13.49,0,0,1-6.29-1.15,5.84,5.84,0,0,1-3.68-5.58c0-3.38,2.56-5.32,5.19-6.87.61-.36,1.33-.76,2-1.08.32-.15.61-.33.61-.72a1,1,0,0,0-1.12-.94,11.11,11.11,0,0,0-4.93,2.09,16.21,16.21,0,0,0-3.81,5.11.59.59,0,0,1-.54.4c-.8,0-4.47-2-4.47-2.88,0-.29.22-.51.65-1,1.48-1.7,3.82-5.44,5-7.06a.78.78,0,0,0,.21-.5.53.53,0,0,0-.54-.51c-.43,0-.93,0-1.4,0-1.22,0-1.33-.11-1.33-2.81,0-2.23.14-2.27,1.3-2.27.79,0,2.08.08,3.27.08,1.76,0,2.09-.15,2.38-.65a17.91,17.91,0,0,0,1.69-4.47c.11-.54.18-.79.54-.79A45.5,45.5,0,0,1,594.67,167.84Z"/><path class="cls-1" d="M34.27,244a34.51,34.51,0,0,0,3.94-.15,2.6,2.6,0,0,1,.58,0c.81,0,1.92,1.24,2.93,2.44a9.75,9.75,0,0,1,1.58,2.5c0,.29-.48.72-1.25,1.39-.48.43-1,1-1.63,1.59-3.89,3.84-7.92,7.58-12.1,11a2,2,0,0,0-1,1.48,2.14,2.14,0,0,0,.53,1.16,15.62,15.62,0,0,1,1.73,2.93c0,1-4.51,4-5.76,4-.43,0-.82-.63-1.06-1a52.09,52.09,0,0,0-8.83-10.66c-.34-.33-1.06-1-1.06-1.44,0-.81,4.13-4,5.29-4,.81,0,2.64,1.87,3.26,2.5a1.29,1.29,0,0,0,1.06.52,1.88,1.88,0,0,0,1.29-.67c1.68-1.44,3.41-2.78,5-4.32.29-.29.82-.77.82-1.25s-.72-.67-1.58-.67H10.8c-2.11,0-4.56.1-6.48.1-1.34,0-1.44-.87-1.44-2.59v-2.31c0-2.3.1-2.64,1.25-2.64,2.25,0,4.46.1,6.67.1Z"/><path class="cls-1" d="M65.14,255.49a3.07,3.07,0,0,1,.38,1.06c0,1.2-4.22,3.07-4.94,3.07-.53,0-.82-.58-1-1a60,60,0,0,0-3.79-6.34,1.87,1.87,0,0,1-.44-1c0-1,3.94-2.78,4.81-2.78a1.52,1.52,0,0,1,1,.67A39.26,39.26,0,0,1,65.14,255.49ZM83,248.1c1.44.48,2.83.91,2.83,1.63,0,.24-.24.48-.63.77s-.52.33-.76,1.2c-1.64,5.37-2.84,9-6.53,13.44-3.84,4.56-8,6.86-13.54,8.74a6.64,6.64,0,0,1-1.58.43c-.77,0-2-1.78-2.5-2.45-.05-.1-.14-.19-.24-.34a5,5,0,0,1-1-2c0-.63.34-.82.86-1a33.9,33.9,0,0,0,7.83-3.27,19.11,19.11,0,0,0,7.06-6.77,28.08,28.08,0,0,0,3.55-10.7c.09-.43.24-1.06.72-1.06A31.12,31.12,0,0,1,83,248.1Zm-12.63-1.63A40.51,40.51,0,0,1,74.5,253a2.4,2.4,0,0,1,.29.91c0,1.15-4.18,3-4.9,3-.53,0-.82-.53-1.06-1A50,50,0,0,0,65,249.44a1.21,1.21,0,0,1-.34-.81c0-.92,3.94-2.74,4.85-2.74A1.42,1.42,0,0,1,70.32,246.47Z"/><path class="cls-1" d="M115.2,250.64c1.25,0,1.35-1,1.35-2.54v-.39c0-.48-.1-1.29-1.11-1.29-.19,0-.91.05-1.2.09-1.87.2-5.66.44-7.54.44-1.44,0-1.68-.24-2.11-1.4a18.35,18.35,0,0,1-1.2-5c0-.62.34-.77,1-.77s2.79.15,4.42.15c5.14,0,15.46-1,19.73-3.7a.73.73,0,0,1,.43-.14c.48,0,2,1.53,2.45,2s2.88,3,3.22,3.36a1.26,1.26,0,0,1,.19.53c0,.34-.34.48-.63.48h-.43a1.13,1.13,0,0,0-.38,0,4.92,4.92,0,0,0-1.59.39c-1.77.57-4.56,1.53-6.33,1.92-1.16.24-1.49.72-1.49,1.87v2.69a1.23,1.23,0,0,0,1.25,1.34h5.47c2.49,0,5-.09,6.77-.09,1.15,0,1.39.28,1.39,2.4v2.4c0,2-.29,2.44-1.58,2.44-2.21,0-4.37-.09-6.58-.09H124.8c-1.58,0-1.92.14-2.4,1.68a25.4,25.4,0,0,1-9,13.06c-1,.76-4.18,3.21-5.33,3.21s-4.95-3.93-4.95-4.85c0-.43.53-.67,1.11-1a20.51,20.51,0,0,0,9.55-9.26,8.63,8.63,0,0,0,.77-2,.91.91,0,0,0-.91-.91h-7.83c-2.45,0-5.09.14-6.24.14s-1.49-.77-1.49-2.21V253c0-2.06.15-2.49,1.3-2.49.81,0,4.17.14,6.43.14Z"/><path class="cls-1" d="M186,247.71c.1.15.15.34.29.53a7.55,7.55,0,0,1,.82,2.26c0,1.15-3.89,4.85-4.9,5.81-7.73,7.53-15.46,11.85-25.06,16.46a2.07,2.07,0,0,0-1.29,1.25.43.43,0,0,1-.39.29c-.38,0-.67-.43-.86-.77a40.7,40.7,0,0,1-2.26-3.7A12.21,12.21,0,0,1,151,267c0-.43.53-.67.91-.77a50.19,50.19,0,0,0,12.29-5.28c5.91-3.5,13.3-9.5,17.33-15l.29-.38c.43-.63.82-1.16,1.34-1.16C184.08,244.35,185.57,247,186,247.71Zm-28.9-9.79a54.26,54.26,0,0,1,8.45,6.05,1,1,0,0,1,.44.86c0,1.4-3.41,5.28-4.52,5.28a2.1,2.1,0,0,1-1.2-.72,49,49,0,0,0-8.06-5.61c-.39-.24-.87-.53-.87-1,0-1,2.88-5.52,4.28-5.52A4.91,4.91,0,0,1,157.1,237.92Z"/><path class="cls-1" d="M222.87,242.72a8,8,0,0,0,1.82-.14,1.57,1.57,0,0,1,.48-.05c1.58,0,4.8,4,4.8,4.9a3.61,3.61,0,0,1-.67,1.34c-.29.53-.67,1.15-1.11,1.92-4.94,9.36-9.4,16.13-18.48,22-1.2.76-5.61,3.5-6.77,3.5-.91,0-2.78-1.68-3.55-2.35-.57-.53-1.82-1.63-1.82-2.35s.91-1,1.73-1.35c8.06-3.89,15.21-9.79,19.58-17.66a6.66,6.66,0,0,0,.87-2.21c0-.63-.68-.67-1.25-.67h-6.87c-.81,0-1.2.57-1.63,1.15-1,1.34-3.07,3.74-4.22,5a4.72,4.72,0,0,0-.39.43c-.91.91-2.59,2.64-3.26,2.64-1,0-4.42-2.3-5.23-3a1.54,1.54,0,0,1-.63-1.11,1,1,0,0,1,.48-.76,40.41,40.41,0,0,0,7.59-8,45.67,45.67,0,0,0,5.57-9.7c.19-.53.48-1.34.86-1.34a39.58,39.58,0,0,1,4.66,2.16c.81.38,1.48.72,1.72.81s1,.48,1,.82c0,.19-.29.33-.43.43a4.55,4.55,0,0,0-1.92,2.74c0,.53.38.76.86.86Zm10.41-.77c0,1-2.64,2.5-3.07,2.5-.24,0-.38-.24-.53-.43a51.13,51.13,0,0,0-3.36-4.47A1,1,0,0,1,226,239c0-.77,2.73-2.21,3.16-2.21S233.28,241.28,233.28,242Zm5-3.5c0,.86-2.44,2.49-3,2.49-.24,0-.43-.28-.58-.48a50.35,50.35,0,0,0-3.4-4.41c-.15-.19-.29-.34-.29-.53,0-.72,2.69-2.21,3.17-2.21S238.32,237.73,238.32,238.45Z"/><path class="cls-1" d="M258.31,248.22c.4.72.61,1.12,1.19,1.12a7.22,7.22,0,0,0,2.3-1.12,4.86,4.86,0,0,1,1.91-1c.75,0,1.47.94,2.12,1.76a4.61,4.61,0,0,1,1.26,2.24c0,.46-.79.82-1.65,1.22s-1.66.76-2.49,1.12c-.54.21-1.08.39-1.08,1.08a3.54,3.54,0,0,0,.58,1.29,46.8,46.8,0,0,0,3.45,5.65c.9,1.16,2,2.09,2,2.67,0,1-2.74,3.13-3.53,3.13a2.15,2.15,0,0,1-1-.43c-1.69-1.41-6-3.32-8.56-3.32-1.3,0-2.92.8-2.92,2.27,0,3.13,5.15,3.67,7.42,3.67.71,0,1.44-.07,2.08-.07,1.08,0,1.15.9,1.15,1.77a11.77,11.77,0,0,1-.39,2.95c-.18.65-.51.83-1.4.83a33,33,0,0,1-6.74-.94c-4-1-7.52-3.38-7.52-8s3.85-7.45,8.21-7.45a16.25,16.25,0,0,1,2.55.29c.29,0,.58-.14.58-.47A5.2,5.2,0,0,0,257,257c-.36-.61-.57-.94-1.22-.94a2.57,2.57,0,0,0-.5.08,50.14,50.14,0,0,1-8.1,1.29c-1,0-1.12-.32-1.41-1.19A14.14,14.14,0,0,1,245,253c0-.46,0-.93,1.11-1a52.33,52.33,0,0,0,6.05-.54c.54-.11.94-.29.94-.83a7.35,7.35,0,0,0-1.34-2.23c-.39-.54-1.29-1.47-1.29-2,0-.36.39-.68.79-.86a13.76,13.76,0,0,1,4.14-1.37c.76,0,1,.58,2.12,2.59C257.77,247.21,258,247.68,258.31,248.22Z"/><path class="cls-1" d="M289.74,248.47c.21,0,.57.18.57.44s-.25.5-.39.68c-.47.54-.58,1.69-.58,3.53,0,.36,0,1.15.76,1.15.36,0,3.49-.54,4.17-.65s1-.36,1-1a43.17,43.17,0,0,0-.61-5.65,3.68,3.68,0,0,1-.11-.65.52.52,0,0,1,.58-.54c.43,0,4.14.57,5.54.9.36.07.58.21.58.43s-.18.29-.4.5a5.32,5.32,0,0,0-.32,2.38v1.12c0,.14,0,.32,0,.5,0,.54.22,1,.83,1,.39,0,1.8-.18,2.48-.29s2.23-.36,2.7-.36c.69,0,.9.22.9,2.92,0,2.95,0,2.95-1.26,2.95h-.79c-.68,0-3.71.11-4.21.22s-.79.57-.87,1.26c-.5,4.71-1.9,7.34-7.12,7.34-.58,0-1,0-1.3-.58a13.64,13.64,0,0,1-.68-3.85c0-.39.18-.75.65-.75l1.08,0c.9,0,1.54-.18,1.9-1.11a4.33,4.33,0,0,0,.25-1,.51.51,0,0,0-.54-.51c-.21,0-.89.11-2.87.43-2.49.4-2.52.58-2.52,1.84v.43a33.34,33.34,0,0,0,.28,4.64c.54,2,2.34,2.09,4.61,2.09a41.69,41.69,0,0,0,6.41-.54c.25,0,1-.14,1.26-.14.54,0,.68.47.68,1.8,0,1.55-.11,3.2-.47,3.56-.54.51-6,.65-7,.65a22.09,22.09,0,0,1-6.41-.76,6.45,6.45,0,0,1-4-4,25.27,25.27,0,0,1-.64-6.69c0-.54-.11-1.15-.83-1.15-.43,0-4,1-4.75,1.19a2.67,2.67,0,0,1-.47.07c-.5,0-.65-.22-.86-2.85-.08-.86-.15-1.8-.15-2.48,0-.9.4-.94,1.19-.94s3.56-.39,4.35-.5c.94-.14,1.34-.4,1.34-1.37a46.86,46.86,0,0,0-.29-5c0-.18,0-.43,0-.61,0-.47.29-.65.72-.65C284.84,247.86,289.05,248.33,289.74,248.47Z"/><path class="cls-1" d="M336.07,249.77c0,.22-.22.4-.4.5a30.77,30.77,0,0,0-4.42,3.64.92.92,0,0,0-.33.65.8.8,0,0,0,.83.75c.11,0,.25,0,.4,0a11.58,11.58,0,0,1,2.51.43,8.49,8.49,0,0,1,6.3,8.39c0,6.87-5.94,10.29-12.2,10.29-3.38,0-7.95-1.37-7.95-5.51a5.26,5.26,0,0,1,5.4-5,6.31,6.31,0,0,1,4.85,2.3,6.61,6.61,0,0,1,1,1.8,1,1,0,0,0,.86.69c.86,0,2.59-1.8,2.59-4.18,0-3.06-2.48-4.42-5.25-4.42a10.25,10.25,0,0,0-6.95,2.77,47.32,47.32,0,0,0-4.43,4.53c-.5.65-.79.9-.93.9-.83,0-3.64-2.95-3.64-3.63,0-.43.36-.76,1.12-1.33.9-.73,6.87-6.66,8.13-7.89.69-.68,1.23-1.33,1.84-2,.25-.26.5-.47.5-.83s-.57-.51-.72-.51-4,.72-5,.87a2,2,0,0,1-.43,0c-.83,0-1-4.06-1-4.75v-.36c0-.54.11-.54,1.15-.54h.83c2.34,0,7.49-.43,9.54-1.29a5.43,5.43,0,0,1,1.55-.58C333.33,245.45,336.07,249,336.07,249.77Zm-9.83,18.11a1,1,0,0,0-1.15,1c0,1,1.22,1.44,2.05,1.44a.85.85,0,0,0,.9-.79A1.79,1.79,0,0,0,326.24,267.88Z"/><path class="cls-1" d="M359.54,271.22c0,1-2.59,3.82-3.6,3.82-.36,0-.61-.36-.79-.61a28.58,28.58,0,0,0-5.9-5.29.66.66,0,0,1-.36-.51c0-.68,2.59-3.49,3.38-3.49S359.54,270.32,359.54,271.22Z"/><path class="cls-1" d="M12.67,326.06a.33.33,0,0,0,.34.29,2.15,2.15,0,0,0,.38-.1,6.38,6.38,0,0,1,1.35-.24c.91,0,1,.19,2.11,4.7.19.77,1.1,4.8,1.1,5.38,0,1.15-2.64,1.54-3.5,1.54-.67,0-1-.24-1-.82a.48.48,0,0,0-.48-.53.66.66,0,0,0-.67.67v8.12c0,2.49.09,5,.09,7.44,0,1.34-.38,1.44-1.77,1.44H9.46c-2.55,0-2.84-.05-2.84-1.39,0-2.5.1-5,.1-7.49v-3.55c0-.29,0-.77-.38-.77s-.44.43-.48,1c-.15,1.69-.92,8-1.2,9.37-.1.52-.2,1.1-.77,1.1-.29,0-3.46-.86-3.46-1.92,0-.19.34-2.11.39-2.5.33-2.3.62-4.61.81-6.91a5.69,5.69,0,0,0,.05-.82c0-.86.1-1.24.53-1.24s3.07.57,3.6.67a1.13,1.13,0,0,0,.38.05.56.56,0,0,0,.53-.63v-.38c0-.82-.29-1.3-1.1-1.3-.29,0-1.59.1-1.83.15a.66.66,0,0,0-.57.48.7.7,0,0,1-.68.43c-.57,0-.81-.82-1.24-2.83-.15-.77-.34-1.73-.63-2.88a2.87,2.87,0,0,1-.09-.68c0-.52.52-.52.91-.52H2a1.66,1.66,0,0,0,1.39-.68,4.64,4.64,0,0,0,.29-.48,7.8,7.8,0,0,0,1.2-2.54,2.17,2.17,0,0,0-1-1.54c-1.16-1-2.07-1.87-3.32-2.83a.68.68,0,0,1-.43-.62c0-.77,1.92-5.09,2.64-5.09h.29c.53,0,.67-.58,1-1.35.62-1.53,1.2-3.12,1.73-4.75.24-.81.29-1.25.67-1.25s4,1.54,4.46,1.73,1,.43,1,.87-.28.52-.53.57c-.57.1-.67.24-.91.77C9.7,316,8.88,317.75,8,319.48a3.72,3.72,0,0,0-.53,1.34c0,.58.38.87.62.87s.58-.43.68-.63c.67-1.29,1.29-2.64,1.92-4,.19-.43.33-.91.67-.91a51,51,0,0,1,4.9,2.4c.52.24,1,.48,1,.91s-.24.48-.57.53a1.12,1.12,0,0,0-.91.57c-.2.29-.44.73-.82,1.44C14,323.61,12.67,325.91,12.67,326.06Zm-1.87,2.83c-.19.29-.43.62-.58.86s-.38.53-.38.77.24.29.38.29h.24c1.06-.1,1.49-.1,1.49-.62,0-.29-.33-1.92-.62-1.92S10.9,328.75,10.8,328.89Zm9.75,7a.75.75,0,0,1-.72.43c-.63,0-.87-.81-1.4-2.83-.19-.72-.48-1.73-.86-2.88a1.54,1.54,0,0,1-.14-.58c0-.57.72-.62,1.34-.62h.38c1.83,0,3.08-.05,3.7-1.39a82.54,82.54,0,0,0,3.36-8.26c.14-.43.24-1,.77-1s5,1.54,5.71,1.78c.48.14.82.24.82.67s-.24.57-.72.62-.48.1-.63.44c-.62,1.2-1.29,2.87-2,4.22a4.23,4.23,0,0,0-.58,1.58c0,.63.53.77,1.06.77s2.49,0,2.49-.62c0-.34-1-1.44-1.25-1.78a1.45,1.45,0,0,1-.38-.81c0-.77,3.46-2.74,4.22-2.74a1.12,1.12,0,0,1,.82.53c1.2,1.48,2.3,3,3.46,4.7.57.82,3.17,4.56,3.17,5.23,0,1-3.6,3-4.47,3-.53,0-.62-.43-.91-1S37.11,334,36.19,334c-.38,0-1.58.19-2,.24s-1,.19-1,.77a1.59,1.59,0,0,0,.33.81c.48.77,2.6,4.37,2.6,5,0,1.3-3.22,2.31-3.75,2.31s-.67-.48-.86-.92c-.58-1.34-1.06-2.49-1.54-2.49s-.48.72-.48,1.05v5.28c0,1.11.24,1.16,1.25,1.16h.48c1.63,0,1.82-.53,1.92-1.68s.14-1.64,1.25-1.64a11.9,11.9,0,0,1,3.12.58c1,.34,1.34.67,1.34,1.49a13.47,13.47,0,0,1-1.73,6c-1,1.49-2.49,1.68-4.8,1.68H29.14c-2.45,0-5.33-.38-5.33-3.5,0-.82.05-1.59.05-2.36v-5.71c0-.91,0-1.44-.39-1.44s-.48.43-.52,1.15A51.69,51.69,0,0,1,21.22,351c-.24.63-.39.72-.67.72a12.68,12.68,0,0,1-3.7-.86c-.38-.15-.72-.29-.72-.77a4,4,0,0,1,.14-.67,2.11,2.11,0,0,0,.15-.53c0-.29-.19-.38-.48-.38a1.57,1.57,0,0,0-.48.09,2.77,2.77,0,0,1-.67.1c-.58,0-.73-.63-.77-1.11a60.34,60.34,0,0,0-1.3-7.92v-.24c0-.77,2.35-1,2.93-1a1,1,0,0,1,1,.43,17.86,17.86,0,0,1,.57,2.55c.05.29.15.57.34.57s.19-.38.24-.91.05-.48.1-1c.09-1.15.09-1.44.67-1.44a43.21,43.21,0,0,1,4.41.77,1.93,1.93,0,0,0,.48.05c.24,0,.29-.1.29-.43v-.58c0-.48.29-.58.72-.58s3.36.15,3.84.2h.29c.34,0,.48-.2.48-.39a1.88,1.88,0,0,0-.34-.81,1.16,1.16,0,0,1-.24-.53c0-.43.63-.91,1-1.11.19-.09.39-.24.39-.33s-.2-.19-.34-.19-7.2.57-8.3.57A.77.77,0,0,0,20.55,335.85ZM26.16,313c.58.29,2.69,1.15,2.69,1.82,0,.39-.38.68-.82.77s-.67.39-1.05,1.11a39.54,39.54,0,0,1-5.76,8.73c-.24.29-.67.72-1.06.72-1,0-4.32-2.64-4.32-3.6,0-.38.43-.81.72-1.1a32.65,32.65,0,0,0,5.91-9.07c.14-.34.28-.58.67-.58A11.19,11.19,0,0,1,26.16,313Zm12.29-.34a27,27,0,0,0,5.81,8.6,1.73,1.73,0,0,1,.62,1.05c0,1.2-3.36,3.79-4.51,3.79-1.44,0-7.82-10.46-7.82-11.8,0-1,3.36-2.69,4.65-2.69C37.92,311.61,38.16,312.09,38.45,312.66Zm2.64,25.21c.72,1.24,1.39,2.49,2,3.79a47.16,47.16,0,0,1,2.11,5.14c0,1.1-3.12,2.35-4.13,2.35-.53,0-.67-.53-.86-1.11A51.91,51.91,0,0,0,37,340.51a4.26,4.26,0,0,1-.38-1c0-1,2.88-2.36,3.6-2.36A1,1,0,0,1,41.09,337.87Z"/><path class="cls-1" d="M66,331.29c-1.53,0-3.26.1-4.61.1-.81,0-1-.29-1-2V329c0-.34-.1-.87-.58-.87-.29,0-.58.29-.82.43-.91.72-4.8,3.65-5.76,3.65-1.24,0-4.36-3.74-4.36-5,0-.57.62-.81,1.29-1.15,6.34-3.27,13.35-9.27,16.85-15.51.24-.43.39-.62.87-.62s6.48.91,7.29,1.1c.39.1.77.29.77.77a.68.68,0,0,1-.24.48,1.1,1.1,0,0,0-.29.58,8.16,8.16,0,0,0,1.35,2c4.12,5.08,9,8.2,14.78,10.94,1,.43,1.06.53,1.06,1,0,1.11-1,2.88-1.54,3.89-.43.82-1.05,1.87-1.77,1.87-1.11,0-6.49-3.65-7.64-4.46a1,1,0,0,0-.48-.24c-.57,0-.62.48-.62,1.2v1c0,1.1-.24,1.49-1.06,1.49-1.29,0-2.64-.1-4.61-.1Zm-2.3,19.87a.78.78,0,0,0-.87.72v.39c0,1.49-.38,1.49-3.36,1.49H57.94c-1.73,0-2.4-.1-2.4-1.35,0-.67.14-2.59.14-4.27v-8c0-1.3-.1-2.64-.1-3.94,0-2.4,1.88-2.59,3.8-2.59,1.53,0,3.07.19,4.65.19H76.85c1.54,0,3.12-.19,4.66-.19,1.87,0,3.79.19,3.79,2.55,0,1.15-.1,2.49-.1,4v8c0,1.78.15,3.7.15,4.22,0,1.3-.68,1.4-2.36,1.4H80.16c-1.58,0-2.21-.1-2.21-1.35,0-.19,0-.33,0-.48a.77.77,0,0,0-.81-.77Zm13-6a1.31,1.31,0,0,0,1.35-1.34v-2.35a1.32,1.32,0,0,0-1.35-1.35H64a1.34,1.34,0,0,0-1.34,1.35v2.35A1.31,1.31,0,0,0,64,345.21ZM75.46,325c.62,0,1.15-.05,1.15-.53a1.52,1.52,0,0,0-.67-1.1,62.62,62.62,0,0,1-4.47-4.85c-.24-.29-.57-.72-1-.72a1.14,1.14,0,0,0-.92.58c-1.34,1.63-3.16,3.45-4.65,4.94a1.72,1.72,0,0,0-.72,1.11c0,.52.14.57,1.82.57Z"/><path class="cls-1" d="M132,334.31l-.52.39c-.77.53-1.11.77-1.11,1.29s.24.63.53.92c.62.72,1.29,1.34,2,2a46.16,46.16,0,0,0,6.48,5.33,1,1,0,0,1,.57.77c0,1.25-3.74,4.94-5,4.94-1,0-5.38-4.65-6.24-5.61a70.75,70.75,0,0,1-5.62-7c-.28-.48-.48-.72-.72-.72-.43,0-.43.43-.43.81V344c0,1.3.1,2.59.1,3.89a4.85,4.85,0,0,1-2.74,4.66c-2.25,1.05-5.33,1.15-7.77,1.15-1.25,0-3.13,0-3.13-6.15,0-.67.15-1.29,1-1.29a9.46,9.46,0,0,1,1.24.14,14,14,0,0,0,2.07.15c1.82,0,1.82-.44,1.82-2.21v-2.5c0-.38,0-1-.53-1a1.87,1.87,0,0,0-1,.48,102.18,102.18,0,0,1-10.7,6.24c-.82.43-.77.48-.91,1.11a.76.76,0,0,1-.68.67c-1,0-4.17-5.28-4.17-6.05,0-.43.19-.53,1.2-.91.24-.1.53-.24.91-.39a76.82,76.82,0,0,0,13-7.1,1,1,0,0,1,.48-.19c.67,0,1.11.76,1.68,1.82.15.29.29.43.43.43.29,0,.29-.33.29-.77V325.48a1.37,1.37,0,0,0-1.34-1.34h-8.45c-2.11,0-4.23.14-6.34.14-1.1,0-1.2-.57-1.2-1.92v-2.69c0-1.34.1-1.92,1.2-1.92,2.11,0,4.23.1,6.34.1h8.11c.91,0,1.68-.39,1.68-1.39v-1.59c0-1.05,0-2.3-.09-2.73a8.77,8.77,0,0,1-.1-1c0-.67.48-.77,1-.77s5,.38,6.86.58c.43,0,1.15.09,1.15.67,0,.33-.33.57-.62.72-.77.48-.77,1.05-.77,4.17,0,1,.67,1.35,1.54,1.35H127c.14,0,.72,0,.72-.24s-2.78-2.16-3.26-2.45c-.29-.19-.58-.38-.58-.77,0-.86,2.64-4.13,3.55-4.13.72,0,3.94,2.36,4.71,2.93,1.25,1,2.35,1.78,2.35,2.4a1.85,1.85,0,0,1-.53,1.06,1.41,1.41,0,0,0-.43.77c0,.38.48.43.72.43,1.44,0,2.83-.1,4.22-.1,1.11,0,1.2.58,1.2,1.92v2.64c0,1.4-.09,2-1.2,2-2.11,0-4.22-.14-6.33-.14h-7.78c-.62,0-1.44-.05-1.44.81a20.86,20.86,0,0,0,1.92,3.89c.67,1.11,1,1.54,1.44,1.54s.77-.29,1.44-.91a40.2,40.2,0,0,0,4.23-4.33,1,1,0,0,1,.91-.57c.53,0,.81.29,1.44.86,1.15,1.06,2.16,2,3.5,3.22.48.43.87.82.87,1.15s-.39.53-.68.53c-.14,0-.52-.05-.72-.05a1.15,1.15,0,0,0-.72.34C134.55,332.25,134.93,332.15,132,334.31Zm-30.24-8.49c.91-.92,1.54-1.35,2.21-1.35.86,0,3.65,2.79,4.37,3.51.57.57,3.12,3.17,3.12,3.79,0,.77-3.41,4.32-4.47,4.32-.33,0-.67-.29-1.39-1.1a44.83,44.83,0,0,0-5-4.95c-.43-.33-1-.77-1-1.29C99.6,327.93,100.46,327.11,101.76,325.82Z"/><path class="cls-1" d="M170.31,313.38v4.85c0,12.92,6.48,22.76,17.09,28.95.43.24.86.53.86,1,0,1.87-3.07,5.47-4.75,5.47s-7.35-5.43-8.6-6.72a36.34,36.34,0,0,1-7.24-10.75c-.15-.34-.39-.77-.82-.77s-.58.43-.67.77c-2,4.84-5.86,9.5-9.8,12.91-1.15,1-5.42,4.51-6.72,4.51-1.68,0-4.7-3.74-4.7-5.33,0-.52.48-.81,1-1.1a35.7,35.7,0,0,0,11.52-10.27c4.08-5.57,5.42-12.34,5.42-19.16,0-1.92-.19-4.08-.19-5.71,0-1.06.39-1.49,1.49-1.49.86,0,4,.24,5,.34,1.49.14,2.45.09,2.45.81,0,.44-.48.63-.82.77A1.24,1.24,0,0,0,170.31,313.38Z"/><path class="cls-1" d="M222.82,318.62c1.44,0,2.88-.05,4.32-.05,1.92,0,3,.57,3,2.64,0,1.63,0,3.26,0,4.85v16.22c0,1.4.09,2.79.09,4.23,0,2-.05,2.25-2.3,2.25h-2.74c-1.82,0-2-.19-2.21-1-.29-1.05-1-1.05-2.54-1.05H201.55c-.62.05-1.29.09-2,.09-1.15,0-1.29-.62-1.29-2.3v-3.41c0-1.44.09-1.87,1.1-1.87.63,0,1.59.09,2.31.09,1.48,0,3,0,4.51,0h15a1.49,1.49,0,0,0,1.49-1.49V327.45a1.49,1.49,0,0,0-1.49-1.49H206.16c-1.39,0-2.78,0-4.13.05-.86,0-1.68.09-2.49.09-1.06,0-1.3-.43-1.3-2.59v-2.88c0-1.82.24-2.11,1.1-2.11s1.44.1,2.12.1Z"/><path class="cls-1" d="M282,324.71c.1.15.15.34.29.53a7.55,7.55,0,0,1,.82,2.26c0,1.15-3.89,4.85-4.9,5.81-7.73,7.53-15.46,11.85-25.06,16.46a2.07,2.07,0,0,0-1.29,1.25.43.43,0,0,1-.39.29c-.38,0-.67-.43-.86-.77a40.7,40.7,0,0,1-2.26-3.7A12.21,12.21,0,0,1,247,344c0-.43.53-.67.91-.77a50.19,50.19,0,0,0,12.29-5.28c5.91-3.5,13.3-9.5,17.33-15,.1-.15.19-.24.29-.38.43-.63.82-1.16,1.34-1.16C280.08,321.35,281.57,323.94,282,324.71Zm-28.9-9.79a54.26,54.26,0,0,1,8.45,6.05,1,1,0,0,1,.44.86c0,1.4-3.41,5.28-4.52,5.28a2.1,2.1,0,0,1-1.2-.72,49,49,0,0,0-8.06-5.61c-.39-.24-.87-.53-.87-1,0-1,2.88-5.52,4.28-5.52A4.91,4.91,0,0,1,253.1,314.92Z"/><path class="cls-1" d="M297.17,323.27c.48,0,1.58,0,1.58-1.1V320.1c0-2.06-.09-4.12-.09-6.19,0-.33,0-.48.43-.48,1,0,3.93.19,5.18.24,1.54.05,2.69.15,2.69.67a1.07,1.07,0,0,1-.29.53,2.16,2.16,0,0,0-.48,1.49v5.71a1.09,1.09,0,0,0,1.11,1.2h5.95c.82,0,1.1-.67,1.1-1.39,0-1.34-.09-6.67-.19-7.73,0-.19-.05-.38-.05-.57a.66.66,0,0,1,.72-.63c.68,0,3.51.15,4.37.19,1.63.05,3.36.1,3.36.63,0,.81-.77.09-.77,2.35v2.69c0,.86,0,1.73,0,2.64,0,1.39.28,1.82,1.53,1.82h.58c1.2,0,5.09-.14,5.52-.14,1.06,0,1.3.43,1.3,2.69v2.11c0,1.58-.1,2.3-1.59,2.3-1.73,0-3.5-.09-5.23-.09h-.58c-1.39,0-1.68.24-1.68,1.68C321.55,340,320,345.4,313,350.2c-.91.63-4.32,2.64-5.33,2.64-.62,0-2.06-1.39-2.92-2.4-.77-.76-1.92-1.92-1.92-2.59s.86-.91,2.25-1.44c7.39-3.07,9.22-7.1,9.22-14.83,0-.77-.24-1.44-1.11-1.44H307.3a1.12,1.12,0,0,0-1.11,1.1v2.55c0,2,.05,4.65.05,5.28,0,1.68-.05,2-1.77,2H301.1c-2.16,0-2.44-.14-2.44-1.2,0-2,.09-4,.09-5.95v-2.59a1.23,1.23,0,0,0-1.25-1.2h-1c-1.87,0-3.74.14-5,.14-1.44,0-1.49-1.25-1.49-3v-1.78c0-2,.2-2.35,1.3-2.35s3.36.14,5.18.14Z"/><path class="cls-1" d="M352.08,317.37c.91.09,1.68.19,1.68.57a.76.76,0,0,1-.29.48c-.43.48-.52.82-.52,1.83,0,.57,0,1.15,0,1.73a65.5,65.5,0,0,1-.91,12.29,26.53,26.53,0,0,1-7.15,13.34c-.53.53-1.35,1.39-2,1.39-1,0-3.7-1.68-4.66-2.3-.48-.29-1.29-.77-1.29-1.39,0-.44.38-.77.72-1.06,7-6.05,7.87-12.48,7.87-21.22,0-2.21-.19-5.52-.19-5.71,0-.43.24-.48.62-.48C347,316.84,350.83,317.22,352.08,317.37Zm11.86,17.33c0,2,.09,2.64,1,2.64,1.73,0,9.26-7.11,10.8-8.64.24-.24.58-.63,1-.63.67,0,1.49,1.49,2.11,2.6a9,9,0,0,1,1.25,3c0,.87-1.39,2.07-2.26,2.83-.14.15-.33.29-.43.39-2.26,2-4.51,3.89-6.87,5.76-2,1.58-4,3.07-5.95,4.75-.48.43-1.2,1.11-1.77,1.11a18.4,18.4,0,0,1-4.32-1.88c-.82-.43-2.07-1.15-2.07-2.25s.15-3.12.15-5.81V323.47c0-1,0-2.55,0-4,0-1.1,0-2.16-.09-2.78a1,1,0,0,1-.05-.39c0-.33.24-.38.53-.38.09,0,2.06.19,2.45.24.76.1,4.12.48,4.8.58.38.09.67.14.67.52s-.24.48-.43.68a2.46,2.46,0,0,0-.48,1.82c-.05,1.44-.05,2.88-.05,4.32Z"/><path class="cls-1" d="M416.35,318.52a13.12,13.12,0,0,0,2.69-.24,1.38,1.38,0,0,1,.44-.09c1,0,3.07,3,3.07,4a.8.8,0,0,1-.2.57,18.92,18.92,0,0,0-1.1,2.36,80.83,80.83,0,0,1-4.18,8.45,2.12,2.12,0,0,0-.43,1.15,1.6,1.6,0,0,0,.82,1.29c.53.39,2.49,1.83,2.49,2.45,0,.87-3.26,5.09-4.46,5.09a1.05,1.05,0,0,1-.77-.43c-.48-.48-2-2-2.59-2a1.37,1.37,0,0,0-1,.58,39.67,39.67,0,0,1-8.69,7.05c-1.44.92-6.33,3.51-7.92,3.51-1.1,0-2.25-1.44-2.88-2.21s-1.87-2.4-1.87-3,.58-.73,1.68-1c.24-.1.48-.15.77-.24,6.14-1.78,13.58-7.4,13.58-8.74a1,1,0,0,0-.62-.86,32.17,32.17,0,0,0-3.94-2c-.43-.19-1.44-.63-1.44-1.15,0-.77,2.64-5.14,4.13-5.14.67,0,4.42,2.06,5.23,2.54a2.26,2.26,0,0,0,1,.34c.82,0,1.2-.77,1.64-1.68a14.12,14.12,0,0,0,1.2-3.07c0-.82-1.06-.92-1.68-.92h-6.53c-1.35,0-1.73.1-2.4,1a76.13,76.13,0,0,1-5.67,6.68c-.57.57-1.63,1.68-2.45,1.68a9.88,9.88,0,0,1-3.4-1.88c-1.2-.86-2.21-1.82-2.21-2.2s.57-.87.91-1.11c5.09-3.69,10.85-11.52,13-17.47.15-.43.39-1.2.91-1.2A42.93,42.93,0,0,1,409,312.9c.87.34,1.54.68,1.83.82s.33.19.33.34-.09.33-.53.52c-.76.29-1,.68-1.44,1.54a4,4,0,0,0-.76,1.63c0,.58.43.72.91.77Z"/><path class="cls-1" d="M473.57,324.71c.1.15.15.34.29.53a7.55,7.55,0,0,1,.82,2.26c0,1.15-3.89,4.85-4.9,5.81-7.73,7.53-15.46,11.85-25.06,16.46a2.07,2.07,0,0,0-1.29,1.25.44.44,0,0,1-.39.29c-.38,0-.67-.43-.86-.77a40.7,40.7,0,0,1-2.26-3.7,11.84,11.84,0,0,1-1.39-2.88c0-.43.53-.67.91-.77a50.36,50.36,0,0,0,12.29-5.28c5.9-3.5,13.3-9.5,17.33-15,.1-.15.19-.24.29-.38.43-.63.81-1.16,1.34-1.16C471.65,321.35,473.14,323.94,473.57,324.71Zm-28.9-9.79a54.26,54.26,0,0,1,8.45,6.05,1,1,0,0,1,.43.86c0,1.4-3.4,5.28-4.51,5.28a2.1,2.1,0,0,1-1.2-.72,49.42,49.42,0,0,0-8.06-5.61c-.39-.24-.87-.53-.87-1,0-1,2.88-5.52,4.28-5.52A4.91,4.91,0,0,1,444.67,314.92Z"/><path class="cls-1" d="M502.9,346c0,1.58.05,3.17.05,4.8,0,2.3-.15,2.5-3.27,2.5h-2.16c-1.92,0-2.49-.24-2.49-1.49,0-1.92.09-3.79.09-5.72V318.38c0-2-.09-4.47-.09-6,0-.62.09-.91.76-.91a73.23,73.23,0,0,1,7.4,1,.67.67,0,0,1,.52.58.82.82,0,0,1-.28.57,2.51,2.51,0,0,0-.53,1.73v9.32c0,.23.05.67.57.67.29,0,.58-.2.82-.2a5.06,5.06,0,0,1,1.78.77c1.53,1,3.5,2.5,4.12,3a53,53,0,0,1,4.42,3.89,1.25,1.25,0,0,1,.34.77c0,1-3.51,4.84-4.61,4.84-.43,0-.91-.48-1.2-.76-.82-.77-4.75-4.32-5.52-4.32s-.72.67-.72,1.15Z"/><path class="cls-1" d="M536.74,323.27c.48,0,1.58,0,1.58-1.1V320.1c0-2.06-.09-4.12-.09-6.19,0-.33,0-.48.43-.48,1,0,3.93.19,5.18.24,1.54.05,2.69.15,2.69.67a1.07,1.07,0,0,1-.29.53,2.16,2.16,0,0,0-.48,1.49v5.71a1.09,1.09,0,0,0,1.11,1.2h6c.81,0,1.1-.67,1.1-1.39,0-1.34-.09-6.67-.19-7.73,0-.19-.05-.38-.05-.57a.66.66,0,0,1,.72-.63c.67,0,3.51.15,4.37.19,1.63.05,3.36.1,3.36.63,0,.81-.77.09-.77,2.35v2.69c0,.86-.05,1.73-.05,2.64,0,1.39.29,1.82,1.54,1.82h.58c1.2,0,5.09-.14,5.52-.14,1,0,1.29.43,1.29,2.69v2.11c0,1.58-.09,2.3-1.58,2.3-1.73,0-3.5-.09-5.23-.09h-.58c-1.39,0-1.68.24-1.68,1.68,0,8.16-1.58,13.58-8.64,18.38-.91.63-4.32,2.64-5.33,2.64-.62,0-2.06-1.39-2.93-2.4-.76-.76-1.92-1.92-1.92-2.59s.87-.91,2.26-1.44c7.39-3.07,9.22-7.1,9.22-14.83,0-.77-.24-1.44-1.11-1.44h-5.85a1.12,1.12,0,0,0-1.11,1.1v2.55c0,2,0,4.65,0,5.28,0,1.68,0,2-1.78,2h-3.36c-2.16,0-2.44-.14-2.44-1.2,0-2,.09-4,.09-5.95v-2.59a1.23,1.23,0,0,0-1.25-1.2h-1c-1.87,0-3.74.14-5,.14-1.44,0-1.49-1.25-1.49-3v-1.78c0-2,.19-2.35,1.3-2.35s3.36.14,5.18.14Z"/><path class="cls-1" d="M609,327.79c2.83,0,5.9-.2,6.34-.2,1.24,0,1.44.53,1.44,1.92v2.31c0,2.64,0,3.45-1.59,3.45-1.87,0-4.08-.14-6.19-.14H586.9c-2.12,0-4.37.14-6.15.14s-1.63-.91-1.63-3.45v-2.21c0-1.44.14-2,1.39-2,.68,0,3.36.2,6.39.2Z"/><path class="cls-1" d="M638.55,337.24c0,4.51,0,4.61,5.28,4.61,4.41,0,12.77-.1,16.89-1a2.84,2.84,0,0,1,.63-.1c1.15,0,1.25,1.73,1.25,3.17v1c0,2.11-.1,3.17-1.83,3.41-3,.43-13.82.58-17.28.58s-8.93,0-10.94-3c-1.35-2-1.45-6-1.45-8.35V321.55c0-2.07,0-5.09-.19-7.11v-.38a.63.63,0,0,1,.67-.58c.68,0,5.91,1,7.11,1.2.38.05.86.19.86.62,0,.2-.14.34-.33.53-.34.29-.67.72-.67,2v7.58a1,1,0,0,0,1.1,1.11,33.93,33.93,0,0,0,7.73-1.49,49.59,49.59,0,0,0,8.49-3.65,2.81,2.81,0,0,1,.77-.29c.72,0,2.93,3.7,4.23,5.86a2.76,2.76,0,0,1,.38.91c0,.39-.48.43-.77.43s-.67,0-.91,0a5.2,5.2,0,0,0-2.06.52,53.34,53.34,0,0,1-17.24,4.56c-.57,0-1.63,0-1.72,1.35Zm26-16.32c0,1-2.59,2.5-3.07,2.5-.29,0-.53-.39-.72-.68a50.88,50.88,0,0,0-3.21-4.32,1,1,0,0,1-.25-.52c0-.77,2.74-2.16,3.17-2.16S664.56,320.3,664.56,320.92Zm5.33-3.31c0,.91-2.54,2.49-3,2.49-.29,0-.58-.38-1.11-1.2-.81-1.2-1.82-2.44-2.78-3.6-.14-.19-.38-.43-.38-.62,0-.82,2.73-2.26,3.16-2.26S669.89,317,669.89,317.61Z"/><path class="cls-1" d="M699.41,316.94a24.45,24.45,0,0,0,3.31-.15,9.84,9.84,0,0,1,1.2-.09c1.49,0,4.13,3.6,4.13,4.27a5.56,5.56,0,0,1-.72,1.49,89.09,89.09,0,0,1-6.67,10.37,1.29,1.29,0,0,0-.39.91,1.1,1.1,0,0,0,.68,1,98.38,98.38,0,0,1,8.73,6.81c.48.43,2.16,1.92,2.5,2.35a.71.71,0,0,1,.29.58c0,1.35-4,5.57-5.38,5.57-.72,0-1.34-.77-1.87-1.39a1,1,0,0,0-.24-.34,52.07,52.07,0,0,0-8.45-7.73,3.9,3.9,0,0,0-1.58-.81,1.69,1.69,0,0,0-1.2.57,54.67,54.67,0,0,1-7.54,5.76c-1.06.68-5.71,3.41-6.67,3.41s-2.64-2.64-3.17-3.41a7.31,7.31,0,0,1-1.2-2.59c0-.72.67-1,1.25-1.2,7.44-2.64,15.41-9.12,19.73-15.74a3.32,3.32,0,0,0,.67-1.45c0-.81-.82-.91-1.63-.91h-7.3c-2.16,0-4.37.1-6.58.1-1.2,0-1.29-.58-1.29-2.31v-3.21c0-1.68.09-2,1.25-2,2.2,0,4.41.15,6.62.15Z"/><path class="cls-1" d="M721.34,327.63c0-1.11.4-1.15,4.36-1.36.72,0,1.55-.08,2.55-.15,4.54-.29,15-1.47,19.37-2.3a1.2,1.2,0,0,1,.36,0c.65,0,.75.51.9,1.19a24.79,24.79,0,0,1,.47,4c0,.68-.4.68-2,.72a14.68,14.68,0,0,0-5.14.64,11.19,11.19,0,0,0-7.45,10.51c0,3.42,1.79,4.36,5,4.36.9,0,2.09-.11,2.59-.11.69,0,.94.11.94.79a16.36,16.36,0,0,1-.61,4.22c-.29.71-.79.82-1.55.82-6.66,0-12.24-1.72-12.24-9.5a15.08,15.08,0,0,1,3.1-9.18,1.06,1.06,0,0,0,.21-.54c0-.32-.25-.54-.64-.54a12.82,12.82,0,0,0-2,.33c-1.91.36-4.39.9-6.26,1.44a3,3,0,0,1-.51.07c-.75,0-1-1.62-1.18-2.74A19.72,19.72,0,0,1,721.34,327.63Zm23.9,6c.47.54,2.45,3,2.45,3.53,0,.72-1.94,1.83-2.3,1.83-.18,0-.25-.11-.72-.83-.69-1-1.41-2-2.2-3a.64.64,0,0,1-.18-.4c0-.5,2-1.58,2.41-1.58C744.88,333.18,745.1,333.43,745.24,333.61Zm7.17,1.33c0,.72-1.91,1.87-2.31,1.87s-.43-.32-.54-.5a27.07,27.07,0,0,0-2.3-3.13c-.11-.15-.29-.36-.29-.54,0-.47,2-1.59,2.41-1.59S752.41,334.47,752.41,334.94Z"/><path class="cls-1" d="M775.41,321.44c.29,0,.83.15.83.4s-.11.22-.25.32a1.49,1.49,0,0,0-.58,1.08c0,.36-.07,1.12-.07,1.66,0,.93,0,1.51,1.12,1.51,2.84,0,5.68-.36,8.53-.36.54,0,1,0,1,2.56a15.6,15.6,0,0,1-.22,2.7c-.11.28-.22.43-.54.43s-4.07-.25-5.18-.29-2.42,0-3.64,0a1,1,0,0,0-1,1.08v.87a3.19,3.19,0,0,0,.5,2,11.89,11.89,0,0,1,1,4.86c0,5.79-4,12.81-5.83,12.81a10.07,10.07,0,0,1-2.91-1c-1-.43-1.84-.83-1.84-1.33,0-.33.47-.76.76-1,.68-.65,2.41-2.27,2.41-2.84,0-.4-.33-.47-.65-.47-3.31-.07-4.57-3.82-4.57-6.59,0-3.2,1.47-6.66,5-7.31.25,0,.68-.07.68-.39s-.14-.36-.47-.36-3,.29-3.6.36c-.86.11-5.9.93-6.62,1.11a4.42,4.42,0,0,1-.65.11c-.58,0-.76-.83-.93-3-.11-1.18-.15-2-.15-2.3,0-.54.18-.61,1-.65,3.28-.14,6.52-.39,9.4-.54.94,0,1.76-.11,1.76-1.29a28.53,28.53,0,0,0-.32-3.93.87.87,0,0,1,0-.28.49.49,0,0,1,.54-.54C770.48,320.8,774.58,321.34,775.41,321.44Zm-6.3,18c0,.64.15,2.52,1.12,2.52s1.22-1.8,1.22-2.52-.14-2.34-1.18-2.34S769.11,338.76,769.11,339.48Z"/><path class="cls-1" d="M802.77,346.6a5.13,5.13,0,1,1-5.14-5.14A5.14,5.14,0,0,1,802.77,346.6Zm-8.17,0a3,3,0,1,0,3-3A3,3,0,0,0,794.6,346.6Z"/><g id="レイヤー_2" data-name="レイヤー 2"><g id="レイヤー_1-2" data-name="レイヤー 1-2"><path class="cls-1" d="M35,28a19.6,19.6,0,0,1-1.12,6.7,14.47,14.47,0,0,1-8.7,8.86,20.12,20.12,0,0,1-7.48,1.29,20.27,20.27,0,0,1-7.51-1.29A15,15,0,0,1,4.74,40a15,15,0,0,1-3.26-5.33A19.83,19.83,0,0,1,.37,28V2.79h9V27.63A10.13,10.13,0,0,0,10,31.16,8.37,8.37,0,0,0,11.72,34a7.8,7.8,0,0,0,2.63,1.85,8.39,8.39,0,0,0,3.35.67A8.12,8.12,0,0,0,21,35.8,7.87,7.87,0,0,0,23.61,34a8.71,8.71,0,0,0,1.71-2.79,9.89,9.89,0,0,0,.6-3.53V2.79h9Z"/><path class="cls-1" d="M39.37,15.63h8v3.7h.11a9.86,9.86,0,0,1,1.36-1.53,10.16,10.16,0,0,1,2-1.42,11.57,11.57,0,0,1,2.46-1,9.43,9.43,0,0,1,2.84-.41A14.6,14.6,0,0,1,61.76,16a12.65,12.65,0,0,1,4.38,3,13.4,13.4,0,0,1,2.79,4.6,16.92,16.92,0,0,1,1,5.85,17.43,17.43,0,0,1-.9,5.64,15.49,15.49,0,0,1-2.54,4.78,12.53,12.53,0,0,1-4,3.35,11.28,11.28,0,0,1-5.38,1.24A15.06,15.06,0,0,1,52,43.66a8.11,8.11,0,0,1-3.85-2.87H48V57H39.37Zm8,14.08a7.25,7.25,0,0,0,1.82,5.16,6.64,6.64,0,0,0,5.13,2,6.63,6.63,0,0,0,5.12-2,7.22,7.22,0,0,0,1.82-5.16,7.21,7.21,0,0,0-1.82-5.15,6.62,6.62,0,0,0-5.12-2,6.63,6.63,0,0,0-5.13,2A7.25,7.25,0,0,0,47.37,29.71Z"/><path class="cls-1" d="M72.55,15.63h8v3.7h.11A9.49,9.49,0,0,1,82,17.8a9.8,9.8,0,0,1,2-1.42,11.65,11.65,0,0,1,2.47-1,9.37,9.37,0,0,1,2.83-.41A14.52,14.52,0,0,1,95,16a12.81,12.81,0,0,1,4.37,3,13.45,13.45,0,0,1,2.79,4.61,16.92,16.92,0,0,1,1,5.85,17.71,17.71,0,0,1-.9,5.64,15.34,15.34,0,0,1-2.5,4.79,12.42,12.42,0,0,1-4,3.35,11.28,11.28,0,0,1-5.38,1.24,15.06,15.06,0,0,1-5.07-.83,8.15,8.15,0,0,1-3.85-2.87h-.11V57H72.55Zm8,14.07a7.21,7.21,0,0,0,1.82,5.15,7.62,7.62,0,0,0,10.25,0,7.23,7.23,0,0,0,1.83-5.16,7.22,7.22,0,0,0-1.83-5.15,7.65,7.65,0,0,0-10.25,0,7.25,7.25,0,0,0-1.82,5.15Z"/><path class="cls-1" d="M132.79,38.92A13.89,13.89,0,0,1,127.51,43a15.78,15.78,0,0,1-6.59,1.45,17.86,17.86,0,0,1-6.14-1,14.53,14.53,0,0,1-5-3,13.84,13.84,0,0,1-3.35-4.66,14.73,14.73,0,0,1-1.16-6.08,14.79,14.79,0,0,1,1.22-6.08A14,14,0,0,1,109.86,19a14.86,14.86,0,0,1,4.92-3,17.85,17.85,0,0,1,6.14-1,13.83,13.83,0,0,1,5.47,1,11.39,11.39,0,0,1,4.16,3,13.71,13.71,0,0,1,2.65,4.65,19,19,0,0,1,.93,6.08v2.72H114a6.92,6.92,0,0,0,2.26,4,6.38,6.38,0,0,0,4.29,1.47,6.46,6.46,0,0,0,3.61-.95,9.59,9.59,0,0,0,2.58-2.46Zm-7.36-12.4A5,5,0,0,0,124,22.76a5.09,5.09,0,0,0-3.88-1.56,6.55,6.55,0,0,0-2.55.46,6.18,6.18,0,0,0-1.88,1.19,5,5,0,0,0-1.21,1.67,5.56,5.56,0,0,0-.5,2Z"/><path class="cls-1" d="M137.71,15.63h8.68v4.51h.12a10.64,10.64,0,0,1,3.3-3.9,8.34,8.34,0,0,1,4.81-1.31,12.54,12.54,0,0,1,1.5.06,7.2,7.2,0,0,1,1.39.23v8a13,13,0,0,0-1.82-.44,12,12,0,0,0-1.89-.14,9.13,9.13,0,0,0-3.93.69,5.18,5.18,0,0,0-2.23,1.94,7.24,7.24,0,0,0-1,3,28.81,28.81,0,0,0-.24,3.82V43.78h-8.68Z"/><path class="cls-1" d="M175.23,2.79h27.51v8.33H184.27v8.34h17.08V27.8H184.27v16h-9Z"/><path class="cls-1" d="M205,6.78a4.89,4.89,0,0,1,1.47-3.57,5,5,0,0,1,7.11,0l0,0a4.89,4.89,0,0,1,1.47,3.57,4.89,4.89,0,0,1-1.47,3.56,5,5,0,0,1-7.1,0l0,0A4.89,4.89,0,0,1,205,6.78Zm.69,8.85h8.69V43.78h-8.69Z"/><path class="cls-1" d="M245.19,38.92A13.86,13.86,0,0,1,239.92,43a15.83,15.83,0,0,1-6.6,1.45,17.69,17.69,0,0,1-6.11-1,14.53,14.53,0,0,1-5-3,13.84,13.84,0,0,1-3.35-4.66,14.79,14.79,0,0,1-1.22-6.08,14.79,14.79,0,0,1,1.22-6.08A14,14,0,0,1,222.23,19a14.85,14.85,0,0,1,5-3,17.92,17.92,0,0,1,6.11-1,13.83,13.83,0,0,1,5.47,1A11.31,11.31,0,0,1,243,19a13.56,13.56,0,0,1,2.64,4.66,18.73,18.73,0,0,1,.92,6.08v2.72H226.37a6.88,6.88,0,0,0,2.23,4,6.38,6.38,0,0,0,4.29,1.47,6.51,6.51,0,0,0,3.62-1,9.9,9.9,0,0,0,2.58-2.46Zm-7.36-12.4a5,5,0,0,0-1.44-3.76,5.14,5.14,0,0,0-3.88-1.56,6.55,6.55,0,0,0-2.55.46,6.18,6.18,0,0,0-1.88,1.19,5.14,5.14,0,0,0-1.22,1.67,5.76,5.76,0,0,0-.49,2Z"/><path class="cls-1" d="M249.46,0h8.69V43.78h-8.69Z"/><path class="cls-1" d="M291.37,43.78h-8v-3.7h-.12a9.42,9.42,0,0,1-1.36,1.53,10.16,10.16,0,0,1-2,1.42,11.88,11.88,0,0,1-2.49,1.06,9.81,9.81,0,0,1-2.79.41A14.52,14.52,0,0,1,269,43.43a12.81,12.81,0,0,1-4.37-3,13.45,13.45,0,0,1-2.79-4.61,16.6,16.6,0,0,1-1-5.84,18.05,18.05,0,0,1,.9-5.65,15.39,15.39,0,0,1,2.52-4.79,12.34,12.34,0,0,1,4-3.34,11.48,11.48,0,0,1,5.39-1.25,15.11,15.11,0,0,1,5.07.84,8.2,8.2,0,0,1,3.85,2.87h.11V0h8.69Zm-8-14.07a7.26,7.26,0,0,0-1.83-5.15,7.65,7.65,0,0,0-10.25,0,7.3,7.3,0,0,0-1.82,5.15,7.29,7.29,0,0,0,1.82,5.16,7.65,7.65,0,0,0,10.25,0A7.3,7.3,0,0,0,283.38,29.71Z"/></g></g></svg>