<svg xmlns="http://www.w3.org/2000/svg" viewBox="0 0 702.36 158.23"><defs><style>.a{fill:#fff;}</style></defs><title>top-c</title><path class="a" d="M17.21,147.39c8.42-2.95,17.5-6.63,26.57-6.63C49,140.76,54.22,142.2,58,146a18.6,18.6,0,0,1,4.9,12.67c0,11.09-8.78,18.87-18.43,22.83-3.1,1.22-10.8,3.6-14,3.6-1.23,0-1.73-.72-2.31-1.73a15.5,15.5,0,0,1-1.65-4.82c0-1.3,1.51-1.44,2.44-1.52,10.09-.79,25.85-6.19,25.85-18.5,0-6.41-5-10-11-10-10,0-21.17,5.33-30,9.87a4.14,4.14,0,0,1-1.87.57c-2.23,0-5.47-5.18-5.47-7.2,0-.94.86-1.22,3.89-2.16C12,149.12,14.19,148.47,17.21,147.39Z" transform="translate(-6.41 -33.73)"/><path class="a" d="M107.57,131.4c.36.15,1.15.36,1.15.87s-.5.79-1.15,1.29-1.08,3-1.3,3.82a24.35,24.35,0,0,0-.79,3.24.84.84,0,0,0,.79.94,35.92,35.92,0,0,0,4.11-1.08,2.32,2.32,0,0,1,.72-.15c.86,0,.94,1.3,1.08,2.16a35.23,35.23,0,0,1,.36,3.82c0,1.58-.86,1.73-7.49,2.95-2.59.43-2.52.94-3.38,3.31a183.91,183.91,0,0,1-11.74,25.64c-.43.72-.65,1-1.44,1-1.58,0-6.41-2.08-6.41-3.59a8,8,0,0,1,1.3-2.6A134.7,134.7,0,0,0,92,156.39,28.21,28.21,0,0,0,93.6,152a1,1,0,0,0-1-.94c-.57,0-6.12.72-7.77.72-1.23,0-1.51-.65-1.8-2.3-.15-.87-.51-3.46-.51-4.18,0-.94.51-1.15,1.3-1.15h3.31a63.56,63.56,0,0,0,7.42-.36,2.5,2.5,0,0,0,2.16-1.15c1.08-1.8,2.3-9.8,2.3-12.1,0-.5,0-1.23.65-1.23S106.42,131,107.57,131.4Zm10.37,21.46c.79.22,1.44.65,1.44,1.51,0,.15-.14,2.31-.14,3.82,0,2.09.36,12.46.72,14,.21,1.08,1.15,1.37,2.23,1.8.21.07.5.21.72.29,1.65.64,10.15,4.61,10.15,6.33,0,1.16-2.66,5.26-4.46,5.26-.72,0-1.37-.65-1.88-1-1.08-.79-4.6-3.31-5.76-3.31-.79,0-1.08,1-1.15,1.66-.86,5.25-5.11,7-10,7-5.83,0-12.67-3.09-12.67-9.79s6.26-8.93,12-8.93H111c.86,0,1.51-.36,1.51-1.22,0-2.31-1.08-12.75-1.3-15.56,0-.36-.07-.65-.07-1,0-1.15.65-1.58,1.73-1.58A30,30,0,0,1,117.94,152.86Zm-13.47,27.43c0,2.24,2.88,3.39,4.76,3.39,2.59,0,3.74-1.37,3.74-3.89,0-1.44-.07-2.23-3.67-2.23C107.57,177.56,104.47,178,104.47,180.29Zm31.47-27.5c0,1.73-4.1,5-5.4,5-.72,0-1.22-.8-1.58-1.3a41.1,41.1,0,0,0-9-9.29c-.29-.21-.94-.65-.94-1.15,0-1,3.31-5,4.82-5C125.64,141.05,135.94,150.92,135.94,152.79Z" transform="translate(-6.41 -33.73)"/><path class="a" d="M166.11,137.16c1.08.29,2.44.65,2.44,1.44,0,.44-.36.58-.64.8A4.11,4.11,0,0,0,165.6,142c-2.45,5.61-3.89,14.11-3.89,20.23,0,1.37.44,9.72,1.88,9.72.57,0,1.65-3.17,1.94-4,.58-1.58.94-2.52,1.66-2.52s3,1.3,3,2.16-2.74,7.85-2.74,12.6c0,1.08.15,2.23.15,3.39,0,2.8-4.83,3.81-5.55,3.81-1.08,0-1.58-.65-2.44-2.23-3.82-6.7-5.12-15.12-5.12-22.75a85.06,85.06,0,0,1,3.6-23.62,17,17,0,0,0,.51-2c.07-.65.29-1.73,1.15-1.73a53.15,53.15,0,0,1,5.4,1.8C165.6,137,165.89,137.09,166.11,137.16Zm26.57-3c2.44.22,4.17.22,4.17,1.08s-.65,1-.65,3.24.15,4.46.29,6.7c0,.5,0,2.59,1.73,2.59a50.45,50.45,0,0,0,5-1,11.05,11.05,0,0,1,1.37-.22c1.66,0,1.66,4.47,1.66,5.62,0,1.94-.65,1.94-5.12,2.45-1.65.21-4.1.21-4.1,2.52,0,1.87.07,3.74.07,5.54,0,9.8-2.74,18.37-9.58,25.57-.79.86-2.23,2.44-3.45,2.44s-5.26-3.45-5.26-4.82c0-.65.5-.94,1.51-1.8a26.2,26.2,0,0,0,8.28-12.39c1-3.31,1.08-7.27,1.08-10.72V159.7c0-1.8-.14-3.17-1.8-3.17-.64,0-8.92,1.37-10.29,1.59-.8.07-1.66.21-2.52.21s-2-.14-2-5c0-2.53.43-2.45,2.74-2.6,3.67-.14,7.34-.57,11-1,1.23-.14,2.16-.64,2.16-2,0-.36-.07-1-.07-1.37a88.11,88.11,0,0,0-1.65-10.73,3.84,3.84,0,0,1-.15-.93c0-.65.65-.94,1.23-.94C189.65,133.78,191.52,134.07,192.68,134.14Zm13.17,1.73c.44.72,2.16,3.67,2.16,4.39,0,1.15-3.09,2.45-4,2.45-.57,0-.86-.43-1.36-1.66a39.78,39.78,0,0,0-3.25-6,2.6,2.6,0,0,1-.43-1c0-.94,3.17-2.09,3.89-2.09S204.05,132.84,205.85,135.87Zm5.91-6.84c.65.93,4,6.48,4,7.27,0,1.22-3.31,2.45-4,2.45s-.72-.43-1-1.08c-.94-1.87-2.52-4.75-3.6-6.55a2.22,2.22,0,0,1-.5-1c0-1,3.16-2.09,4-2.09C211.18,128,211.4,128.52,211.76,129Z" transform="translate(-6.41 -33.73)"/><path class="a" d="M255.24,131.83c1.88.22,2.88.37,2.88,1.16,0,1.37-1.22.14-1.36,6,0,1,.21,2.09,1.51,2.09.29,0,3.09-.43,3.6-.5a72.52,72.52,0,0,0,7.85-1.66,18.67,18.67,0,0,1,2.73-.57c1.59,0,1.8,4.68,1.8,5.9,0,1.44-.65,1.58-2,1.87-3.75.79-8.21,1.44-12,1.87-1.51.22-3.24.15-3.24,2.16a24.26,24.26,0,0,0,.36,3.82c.15.43.29,1.15,1.15,1.15a61.34,61.34,0,0,0,9.22-1.72,4.48,4.48,0,0,1,1.37-.29c1,0,1.22,1.58,1.22,4.32,0,2.37-.07,3.09-1.37,3.38a63.26,63.26,0,0,1-7.41,1.23c-2.74.28-4.18.28-4.18,2.3,0,7.49.29,6.91,3.39,7.92,2.37.79,11.88,4.82,11.88,7.42,0,1.58-2.38,5.25-4.11,5.25a3.92,3.92,0,0,1-2.23-1.15c-1.3-1-6.05-4.39-7.49-4.39-1.15,0-1.29,1.08-1.44,1.58-1.51,6.2-7.2,8-13,8s-12-2.67-12-9.36c0-7.28,7.85-9.58,13.83-9.58.86,0,2.52.14,3,.14,1.22,0,1.22-1.29,1.22-2,0-2.31.15-5-1.65-5-1.51,0-5.55.29-8.64.29s-4.32.07-4.9-1.23a15,15,0,0,1-.93-5c0-.86.21-1.51,1.22-1.51.86,0,4.9.36,7.63.36h3.24c2.67,0,3.68-.22,3.68-1.8,0-2.09-.08-5-1.95-5-2.52,0-8.28.36-12.17.36h-2.16c-1.94,0-3.74-.07-4.17-.65-.72-1.08-.8-4-.8-5.26,0-1,.08-2,1.3-2,1.51,0,7.56.57,11.09.57,6.33,0,8.13.15,8.13-1.8,0-1.15-.43-6-.64-7.2a5.67,5.67,0,0,1-.15-1.15c0-.72.43-.86,1.08-.86C250.56,131.19,254,131.69,255.24,131.83Zm-16.05,47.82c0,2.45,3.24,2.88,5.11,2.88,3.31,0,6.12-.94,6.12-4.83,0-1.37-1.73-1.37-3.39-1.37C244.8,176.33,239.19,176.55,239.19,179.65Z" transform="translate(-6.41 -33.73)"/><path class="a" d="M326.38,130.11c1.73.14,3.89.36,3.89,1a1.12,1.12,0,0,1-.43.79c-.51.36-1.08.93-1.16,3-.07,1.51-.07,3.1-.07,4.61a1.9,1.9,0,0,0,2.09,2.09c.58,0,3.38-.22,4.18-.22,3.52-.14,11.23-.57,14.33-.57,1.15,0,1.65.43,1.65,3.67,0,4.39-.86,4.32-1.58,4.32-1,0-6.41-.36-10.44-.36-1.3,0-8,.07-8.79.29a2.31,2.31,0,0,0-1.37,2.37v2.52c0,2,.08,2.6.72,3.75a22.11,22.11,0,0,1,2.24,10.08c0,11.59-7.71,24.48-10.88,24.48-.86,0-6.69-1.8-6.69-3.1,0-.57,1.22-1.58,1.65-2,2.74-2.59,3.39-3.82,5.19-7a2.82,2.82,0,0,0,.36-1.08.55.55,0,0,0-.51-.5,1.6,1.6,0,0,0-.57.07,6.68,6.68,0,0,1-1.66.36c-6.26,0-8.57-6.77-8.57-12,0-6.63,2.88-13,10.15-13.61.36-.08.87-.29.87-.87,0-2.66-.51-3-1.3-3-.57,0-3.89.36-4.75.43-3.74.36-13,1.37-16.49,2.09a5.71,5.71,0,0,1-1.08.14c-1.15,0-1.22-1-1.44-1.94a41.62,41.62,0,0,1-.58-5.19c0-1.44.65-1.29,4.18-1.44,2-.07,18.87-1,19.51-1.15a2.12,2.12,0,0,0,1.59-2.23,61.69,61.69,0,0,0-.72-8.93,1.65,1.65,0,0,1-.07-.58.81.81,0,0,1,.93-.86C322.42,129.53,324.65,130,326.38,130.11Zm-9.51,36.07c0,2.16.51,6.12,3.39,6.12s3.74-3.67,3.74-5.9-.65-6.34-3.6-6.34S316.87,164,316.87,166.18Z" transform="translate(-6.41 -33.73)"/><path class="a" d="M384.84,180.22a10,10,0,1,1-10-10A10,10,0,0,1,384.84,180.22Zm-16.42,0a6.41,6.41,0,0,0,12.82,0,6.33,6.33,0,0,0-6.41-6.41A6.44,6.44,0,0,0,368.42,180.22Z" transform="translate(-6.41 -33.73)"/><path class="a" d="M47,92.63H25c-1.16,0-1.66.51-1.66,1.66V95c0,2-.72,2-4.1,2-3.1,0-4.11,0-4.11-1.94,0-3,.22-6,.22-9V49.86c0-2.3-.15-4.54-.15-6.84,0-2.88,1.16-3.74,4-3.74,2.09,0,4.18.14,6.34.14h21c2.08,0,4.17-.14,6.26-.14,2.74,0,4,.72,4,3.67,0,2.3-.14,4.61-.14,6.91V85.94c0,3,.21,6,.21,9,0,2-.86,1.94-4.1,1.94s-4.11,0-4.11-1.94a1.79,1.79,0,0,1,.08-.65C48.6,93.14,48.1,92.63,47,92.63ZM46.8,62a2.06,2.06,0,0,0,2-2V48.42a2.07,2.07,0,0,0-2-2H25.13a2.08,2.08,0,0,0-2,2V59.94a2.07,2.07,0,0,0,2,2ZM23.11,83.49a2.07,2.07,0,0,0,2,2H46.8a2.05,2.05,0,0,0,2-2V70.81a2.05,2.05,0,0,0-2-2H25.13a2.07,2.07,0,0,0-2,2Z" transform="translate(-6.41 -33.73)"/><path class="a" d="M112.25,62.17c-.29,0-.43.29-.43.58v14.4c0,1.44.58,2,1.94,2h1c2.23,0,4.47-.15,6.7-.15,2,0,1.87.94,1.87,3.6,0,2.45.14,3.53-1.8,3.53-2.23,0-4.54-.14-6.77-.14h-1c-1.29,0-1.94.5-1.94,1.87-.07,2.88.14,5.76.14,8.71,0,2.23-.79,2.31-4,2.31s-4-.08-4-2.31c0-3,.22-5.83.15-8.71,0-1.37-.65-1.87-2-1.87h-.86c-2.31,0-4.54.14-6.77.14-2,0-1.8-1.08-1.8-3.53s-.15-3.6,1.8-3.6c2.23,0,4.46.15,6.77.15h.86c1.44,0,2-.58,2-2V62.46c0-.29-.15-.5-.44-.5a.48.48,0,0,0-.43.29A88.91,88.91,0,0,1,83.09,87.66c-.65.58-1.73,1.52-2.59,1.52-1.52,0-4.76-3.46-4.76-4.83,0-.79.94-1.44,1.52-1.87a76.28,76.28,0,0,0,21.45-25,1.86,1.86,0,0,0,.15-.65c0-1-1-1.08-1.3-1.08H87c-2.81,0-5.62.15-8.43.15-1.8,0-1.73-.87-1.73-3.46s-.07-3.6,1.73-3.6c2.81,0,5.62.22,8.43.22h15.19c1.44,0,2-.65,2-2v-5.9A38.29,38.29,0,0,0,104,36a2,2,0,0,1-.07-.65c0-.86.57-1,1.29-1,1.16,0,5.48.28,6.85.43.5.07,1.51.14,1.51.86,0,.51-.36.72-.94,1.15s-.79,2-.79,4.25v6c0,1.37.58,1.87,1.94,2H129.1c2.81,0,5.62-.22,8.43-.22,1.8,0,1.72.87,1.72,3.53s.08,3.53-1.72,3.53c-2.81,0-5.62-.15-8.43-.15h-11c-.57.08-1.22.29-1.22,1a2.1,2.1,0,0,0,.14.65,81.63,81.63,0,0,0,21.53,24.2c.94.64,1.8,1.15,1.8,2,0,1.66-2.73,5.11-4.46,5.11s-7.78-6.19-9.15-7.63a95.27,95.27,0,0,1-14-18.65A.76.76,0,0,0,112.25,62.17Z" transform="translate(-6.41 -33.73)"/><path class="a" d="M155.74,47.05c10.51-.65,21-1.73,31.46-2.95,5.48-.65,11-1.37,16.35-2.23a4.26,4.26,0,0,1,.94-.07c1.08,0,1.22.93,1.36,1.8a32.47,32.47,0,0,1,.65,5.25c0,1.59-1.51,1.44-3.24,1.51-4.18.08-7.85.08-11.95,1.52a21.83,21.83,0,0,0-12.24,10.73,26.92,26.92,0,0,0-3.46,12.67c0,8.35,5.33,10.37,12.67,10.37,1.23,0,2.81-.07,3.6-.07,1.08,0,1.66.07,1.66,1.22a20.18,20.18,0,0,1-1.08,5.9c-.5,1.08-1.08,1.23-2.3,1.23C177.92,93.93,167.4,90,167.4,76a32,32,0,0,1,7.92-20.67c.79-.86,1.23-1.37,1.23-1.73,0-.64-.58-.86-1.08-.86s-3.82.58-4.54.65c-4.82.72-11.3,1.73-15.91,3a5.71,5.71,0,0,1-1.08.14c-1,0-1.37-1.58-1.59-2.37a32.1,32.1,0,0,1-.79-5.19C151.56,47.05,152.57,47.27,155.74,47.05Zm47.81,17.57c0,1.08-2.88,3-3.67,3-.51,0-.72-.51-1-.87-1.44-2.09-3-4.1-4.61-6.05-.22-.21-.65-.65-.65-1,0-.86,2.88-2.66,3.67-2.66S203.55,63.76,203.55,64.62Zm8.71-4c0,1-2.81,3-3.67,3-.5,0-.79-.58-1.08-.94a61.14,61.14,0,0,0-4.68-6,1.68,1.68,0,0,1-.5-.93c0-.87,2.8-2.74,3.67-2.74C206.72,53.1,212.26,59.8,212.26,60.66Z" transform="translate(-6.41 -33.73)"/><path class="a" d="M251.14,43.74c0,1.44.57,2,2,2h.36c2.16,0,4.24-.15,6.4-.15,1.59,0,1.44,1,1.44,2.74s.15,2.66-1.44,2.66c-2.16,0-4.24-.14-6.4-.14h-1a1.19,1.19,0,0,0-1.37,1.37v.64c0,1,.43,1.37,1.37,1.37h.65c1.29,0,2.66-.07,4-.07,2.08,0,2.88.72,2.88,2.81,0,1.3-.08,2.52-.08,3.74v8.93c0,1.23.08,2.45.08,3.67,0,2-.65,3-2.74,3-1.37,0-2.74-.15-4.1-.15h-.65a1.19,1.19,0,0,0-1.37,1.37v.72c0,1,.43,1.37,1.37,1.37h.93c2.09,0,4.11-.07,6.2-.07,1.44,0,1.36.93,1.36,2.59s0,2.59-1.36,2.59c-2.09,0-4.11-.14-6.2-.14h-.57c-1.23,0-1.73.5-1.73,1.72v.94c0,.87.36,1.51,1.37,1.51h.21c.87-.14,4.54-.72,5-.72,1.15,0,1.3,1.3,1.37,2.24a.26.26,0,0,0,.29.28.4.4,0,0,0,.29-.14c4.39-10.8,5.47-21.6,5.83-33.12,0-1.08-.51-1.52-1.59-1.52h-.72c-1.65,0-1.58-.93-1.58-3.45s-.07-3.53,1.58-3.53h.72c1.16,0,1.66-.5,1.66-1.58V41.29c0-1.65-.07-3.31-.22-5,0-.21-.07-.5-.07-.72,0-.86.51-1.08,1.3-1.08,1,0,5.11.29,6.12.44.5.07,1.08.21,1.08.86s-.43.72-.79,1c-.87.5-.94,1.22-.94,3.53V47c0,1.3.5,1.94,1.87,1.94s2.88-.07,4.32-.07c3,0,4.4,1.3,4.47,4.32.29,7.28-.43,21.32-1.08,28.66-.36,4.11-.87,12.24-4,15-2.09,1.8-4.11,2.09-6.77,2.09-2.45,0-3.17-.15-3.6-1.37a16.2,16.2,0,0,1-.58-3.75c0-1.15.07-2.3,1.3-2.3h1.72c3.32,0,3.89-.22,4.76-4,1.29-5.83,1.87-23,1.87-29.45,0-2.38-.79-2.45-2.81-2.45-1.15,0-1.58.65-1.58,1.66v1.08c0,11.16-2.67,28.3-8.07,38.09-.93,1.65-1.22,2.3-2,2.3-1.3,0-4.83-1.58-4.83-3a2.2,2.2,0,0,1,.36-.94,1,1,0,0,0,.15-.43c0-.57-.44-.79-1-.72-2.67.43-5.33.79-8,1.15-3,.44-6.12.72-9.21,1.16-1.51.21-1.87.36-2.09,1.08-.14.43-.29.72-.79.72-.79,0-.94-.65-1.51-2.52a25.87,25.87,0,0,1-.94-4c0-.94.94-.94,3.67-1.08,1.3-.08,3.1-.08,5.33-.36,1.37-.15,1.87-.87,1.87-2.24V86.58c0-1.37-.57-2-2-2h-.58c-2,0-4.1.14-6.19.14-1.37,0-1.3-1-1.3-2.66s0-2.52,1.37-2.52c2.09,0,4.1.07,6.12.07h1.22c.94,0,1.37-.36,1.37-1.3v-.79c0-.94-.36-1.37-1.37-1.37h-.79c-1.29,0-2.66.15-4,.15-2.09,0-2.81-.8-2.81-2.88,0-1.23.08-2.52.08-3.75V60.73c0-1.22-.08-2.44-.08-3.74,0-2,.72-2.81,2.74-2.81,1.37,0,2.74.07,4,.07h.79c.94,0,1.37-.36,1.37-1.37v-.64c0-.94-.36-1.37-1.37-1.37H243c-2.09,0-4.25.14-6.33.14-1.59,0-1.52-.79-1.52-2.66s-.07-2.74,1.44-2.74c2.16,0,4.32.22,6.48.15,1.23,0,1.73-.51,1.73-1.66v-.5A1.38,1.38,0,0,0,243.22,42a22.62,22.62,0,0,1-3.17.22c-1.37,0-1.94-.79-2.52-3.31-.07-.29-.29-.72-.65-.72a.73.73,0,0,0-.5.28,9.18,9.18,0,0,0-.58,1.8,89.65,89.65,0,0,1-4.17,12.82c-.08.07-.08.07-.08.22s.22.5.58.57,1.37.15,1.37.87c0,.43-.43.64-.79.93-.8.58-.87,1.87-.87,4.39V87.74c0,3,.15,5.9.15,8.85,0,2.09-.65,2.16-3.24,2.16-2.74,0-3.32-.07-3.32-2.16,0-3,.15-5.9.15-8.85v-21c0-.29-.15-.58-.43-.58a.74.74,0,0,0-.51.29c-1.3,2.09-2.16,2.74-2.74,2.74-.93,0-1.8-1.3-3.31-3.39a3,3,0,0,1-.57-1.51,4.65,4.65,0,0,1,1.15-2.3,73.76,73.76,0,0,0,10.37-25.49c.21-.94.36-2.09,1.29-2.09.65,0,6.27,1.44,7,2.09a1.24,1.24,0,0,0,.65.36c1.65-.22,2.95-.29,4.53-.36,1.37-.08,2.88-.22,5-.51a40.87,40.87,0,0,0,8.35-1.87,2.46,2.46,0,0,1,.65-.21c.58,0,1.08.71,2.45,3.31a9.77,9.77,0,0,1,1,2.3.79.79,0,0,1-.79.72,2.36,2.36,0,0,1-1-.36,2.71,2.71,0,0,0-.79-.14c-.22,0-4.18.86-4.83,1-1.37.36-1.87.86-1.87,2.37Zm-5.62,16.63a1.67,1.67,0,0,0-1.73-1.73h-1a1.67,1.67,0,0,0-1.73,1.73v.94A1.66,1.66,0,0,0,242.79,63h1a1.66,1.66,0,0,0,1.73-1.73Zm-2.73,6.92A1.66,1.66,0,0,0,241.06,69v1a1.63,1.63,0,0,0,1.73,1.73h1A1.63,1.63,0,0,0,245.52,70V69a1.66,1.66,0,0,0-1.73-1.72ZM253.08,63a1.61,1.61,0,0,0,1.66-1.73v-.94a1.61,1.61,0,0,0-1.66-1.73h-.93a1.67,1.67,0,0,0-1.73,1.73v.94A1.66,1.66,0,0,0,252.15,63Zm-2.66,7a1.63,1.63,0,0,0,1.73,1.73h.93A1.57,1.57,0,0,0,254.74,70V69a1.61,1.61,0,0,0-1.66-1.72h-.93A1.66,1.66,0,0,0,250.42,69Z" transform="translate(-6.41 -33.73)"/><path class="a" d="M322.56,40.14c.58,1.66,1,3.17,2.45,3.17,1,0,4.47-1.87,5.55-2.45a6.06,6.06,0,0,1,1.8-.72c1.29,0,3.16,4.39,3.16,5.62,0,.86-.86,1.29-1.51,1.72a46.47,46.47,0,0,1-5.18,2.38c-.72.29-1.66.5-1.66,1.44a2.82,2.82,0,0,0,.36,1.08c.79,2,1.3,2.95,2.16,2.95,1.51,0,7.06-3.24,8.57-4.17a4.13,4.13,0,0,1,1.73-.8c1.22,0,3.67,4.47,3.67,5.55s-1.58,1.73-3,2.52c-1.88.94-3.82,1.8-5.76,2.59-.87.36-2,.72-2,1.94,0,1.59,6,10.88,7.27,12.53.58.8,1.73,2.16,1.73,3.1,0,1.66-4.25,4.68-5.83,4.68a1.52,1.52,0,0,1-1.15-.57,19.22,19.22,0,0,0-13.25-5.12c-3,0-7.13,1.15-7.13,4.9,0,5.18,7.34,6.34,11.23,6.34a30.94,30.94,0,0,0,4.39-.36,17.26,17.26,0,0,1,2.09-.15c1.44,0,1.73,1.23,1.73,3.31,0,4.47-.72,4.61-4.1,4.61-4.68,0-9.51-.14-13.9-1.87-5-1.94-8.64-6-8.64-11.59C307.3,74.92,313.71,71,321,71a21.89,21.89,0,0,1,7.13,1.22,2.26,2.26,0,0,0,.72.15.65.65,0,0,0,.65-.65,54.33,54.33,0,0,0-2.74-5.26c-.43-.86-.86-1.72-1.94-1.72a2.34,2.34,0,0,0-1,.21c-3.75,1.15-15.48,3.6-19.16,3.6-1.22,0-1.51-.72-1.87-1.8a18.26,18.26,0,0,1-.86-4.39c0-1.37,1.29-1.22,3.17-1.37a74,74,0,0,0,15.33-2.45c.72-.21,1.59-.57,1.59-1.36,0-.15-1.3-4.18-2.74-4.18-.36,0-1.73.36-2.23.43a66.89,66.89,0,0,1-8.21,1.3c-.94,0-1.22-.44-1.58-1.23A17.11,17.11,0,0,1,306,48.92c0-1.51,1.87-1.44,2.88-1.51a44.24,44.24,0,0,0,5.55-.72c.93-.14,1.87-.5,1.87-1.65,0-.72-1.59-3.68-2-4.4a5.32,5.32,0,0,1-.86-1.87c0-1.51,5-2.52,6.26-2.52C321.41,36.25,321.55,37.4,322.56,40.14Z" transform="translate(-6.41 -33.73)"/><path class="a" d="M396.58,36.32c.65.22,2.66.72,2.66,1.51,0,.37-.43.58-.64.73-1.08.64-1.16.93-1.66,2.52-.22.79-1.73,6-1.73,6.4a1.06,1.06,0,0,0,1.08,1.08c1.3,0,6.91-2.08,8.35-2.66a3.84,3.84,0,0,1,1.52-.36c1.44,0,1.44,4.39,1.44,5.47,0,1.23-.15,2.23-1.37,2.59a106.77,106.77,0,0,1-11.81,2.81c-2.09.43-2.31.8-2.95,2.81A223.85,223.85,0,0,1,378.07,91c-.93,1.72-1.51,2.73-2.59,2.73s-6.12-2.3-6.12-3.89a5.33,5.33,0,0,1,1.22-2.37c4.54-6.48,9.94-19,12.75-26.65a11.31,11.31,0,0,0,.58-1.87c0-.72-.58-1.08-1.3-1.08-1,0-4.18.36-6.41.36-1.44,0-2.59.08-3-1.29a30.8,30.8,0,0,1-.58-5.26c0-.79.22-1.3,1.08-1.3.65,0,3.67.29,6.77.29,4.61,0,5.69-.07,6.34-1.15.86-1.44,2.59-11,2.66-13.11.07-1.08.07-1.8.79-1.8S395.64,36,396.58,36.32Zm-1,46.45c3.17,3.52,8.64,4.17,13,4.17a32.54,32.54,0,0,0,10.23-1.44,2.55,2.55,0,0,1,.72-.14c1.22,0,1.22,1.66,1.22,4.54,0,1.44.08,3.09-.79,3.6-1.29.57-9.43.93-11.23.93-4.75,0-11.38-.57-15.41-3.24-1.15-.79-3.53-2.59-3.53-4.1,0-1.08,3.31-5.33,4.46-5.33C394.78,81.76,395.28,82.41,395.57,82.77Zm8.79-23.26c3.81,0,10.87.65,14.47,2a1.34,1.34,0,0,1,1,1.43A18.31,18.31,0,0,1,418.47,68a1.25,1.25,0,0,1-1.3.93,3.83,3.83,0,0,1-1.51-.36,32.28,32.28,0,0,0-11.45-1.8c-.93,0-1.8.07-2.73.07-1.44,0-1.8-.36-1.8-1.58C399.68,59.08,401,59.51,404.36,59.51Z" transform="translate(-6.41 -33.73)"/><path class="a" d="M452,48.71c.57.14,1.58.29,1.58,1,0,.43-.29.57-.72.93-1,.79-1.08,2.23-1.3,3.46a53.65,53.65,0,0,0-.57,7.63c0,4.83.43,10.51,2.3,15.05.87,2,3.24,6.26,5.76,6.26,2,0,4.11-3.16,5-4.75.43-.72,1-1.8,1.95-1.8,1.51,0,5.18,3,5.18,4.25s-3.24,5.11-4.25,6.27c-2.09,2.37-4.32,4.53-7.7,4.53-5.33,0-9.51-4.82-11.88-9.22-3.6-6.76-4.18-15.84-4.18-23.47,0-1.15.22-10.3.36-10.94a.9.9,0,0,1,1-.8C445.39,47.12,450.72,48.49,452,48.71Zm29.3-1.44c1.59,0,7.63,4.53,11.09,11.16,2,3.82,4.25,10.66,4.25,15,0,1.36-.72,1.72-1.94,2.08a15.3,15.3,0,0,1-4,.65c-2.3,0-2.23-1-2.37-2.73-.87-8.43-3.82-15.27-10.66-20.53a1.18,1.18,0,0,1-.65-1.08C476.93,50.44,479.81,47.27,481.25,47.27Z" transform="translate(-6.41 -33.73)"/><path class="a" d="M527.76,57.13c-.43,0-.5.36-.57.72v4.9c0,2.59.21,5.26.21,7.92,0,1.73-.79,1.8-3.53,1.8s-3.67-.07-3.67-1.8c0-2.66.22-5.33.22-7.92V59.37c-.07-.29-.15-.58-.51-.58a.48.48,0,0,0-.43.29,51.82,51.82,0,0,1-5.9,8.42,2,2,0,0,1-1.59.94c-1.22,0-4.1-2.74-4.1-4a2.94,2.94,0,0,1,.93-1.66,54.71,54.71,0,0,0,8.93-12.53,1.56,1.56,0,0,0,.15-.58c0-.79-.65-1-1.3-1.08h-.79c-2.09,0-4.11.15-5.26.15-1.58,0-1.51-.87-1.51-3.17s-.07-3.17,1.51-3.17c1.37,0,3.31.15,5.26.15h2.59c1.44,0,2-.58,2-2a33.16,33.16,0,0,0-.22-5.33,1.82,1.82,0,0,1-.07-.58c0-.71.58-.86,1.15-.86,1.08,0,5.11.36,6.34.5.5.08,1.44.08,1.44.8,0,.43-.58.72-1,.93-.86.51-.94,1.08-.86,4.54,0,1.44.57,2,2,2h1.51c1.88,0,3.75-.15,5.26-.15s1.51.79,1.51,3.17,0,3.17-1.51,3.17c-1.22,0-3.24-.15-5.26-.15h-.57c-.51,0-1.08.22-1.08.8a.93.93,0,0,0,.29.72,44,44,0,0,0,7,7.13c.79.64,1.3,1,1.3,1.72,0,1.3-2.59,4.25-3.75,4.25-1.36,0-4.82-4.54-5.61-5.76C528.12,57.28,528,57.13,527.76,57.13Zm-5.61,22.76c-.72.21-.8.43-1,1.22a66.47,66.47,0,0,1-6,13,2.29,2.29,0,0,1-2,1.37c-1.3,0-5-1.15-5-2.74a4.35,4.35,0,0,1,1.08-2.16c2.16-3,4.68-9.21,5.68-12.81.22-.72.44-1.37,1.23-1.37.58,0,4,1.08,4.82,1.29s2.09.51,2.09,1.3C523.08,79.53,522.58,79.74,522.15,79.89Zm25.34,10.37c3.6,0,3.82-.87,4.68-5.26.36-2,.43-2.45,1.66-2.45.57,0,5.47.58,5.47,3.24a19.33,19.33,0,0,1-3.17,8.71c-1.94,2.38-4.32,2.38-8,2.38H534.31c-5.83,0-9.07-.14-9.07-5.9,0-1.08.07-2.09.07-3.17V80.75c0-2.09-.21-4.82-.21-5.62s.5-.93,1.15-.93,6.62.36,7.27.5c.36.07.87.29.87.79s-.44.65-.72.87c-1.37.79-1.3,1.73-1.3,4.39V88c0,2.09,1.66,2.31,3.38,2.31Zm-3.81-18.44a.84.84,0,0,0-.94.79,1,1,0,0,0,.22.65c1,1.15,6,7.56,6,8.71,0,1.37-3.53,3.32-4.68,3.32-.86,0-1.29-.87-1.73-1.51a77.29,77.29,0,0,0-5.76-7.93c-.43-.5-1.15-1.22-1.15-1.94s2-1.94,2.66-2.3a2.25,2.25,0,0,0,1.37-2.16c.07-1.73.07-3.46.07-5.12V43.74c0-1.66-.07-3.24-.07-4.9,0-2.37,1.3-2.88,3.39-2.88,1.65,0,3.31.08,5,.08h11.73c1.66,0,3.24-.08,4.9-.08,2.16,0,3.53.43,3.53,2.88,0,1.66-.15,3.24-.15,4.9V64.33c0,2,.15,3.89.15,5.84,0,1.72-.87,1.65-3.75,1.65s-3.6,0-3.67-1.58a.83.83,0,0,0-.94-.79H548.64c-1.08,0-1.36.72-1.72,1.58S545.91,71.82,543.68,71.82Zm17.2-28.22a1.66,1.66,0,0,0-1.72-1.73H548.64a1.66,1.66,0,0,0-1.72,1.73V44a1.66,1.66,0,0,0,1.72,1.72h10.52A1.65,1.65,0,0,0,560.88,44Zm-14,9.21a1.66,1.66,0,0,0,1.72,1.73h10.52a1.66,1.66,0,0,0,1.72-1.73v-.36a1.59,1.59,0,0,0-1.72-1.65H548.64a1.6,1.6,0,0,0-1.72,1.65Zm0,9.22a1.66,1.66,0,0,0,1.72,1.73h10.52A1.66,1.66,0,0,0,560.88,62v-.65a1.66,1.66,0,0,0-1.72-1.73H548.64a1.66,1.66,0,0,0-1.72,1.73Zm19.44,33c-.94,0-1.08-.72-1.51-1.87a97.18,97.18,0,0,0-7.35-14.41,2.65,2.65,0,0,1-.72-1.58c0-1.51,3.74-3,4.82-3a1.79,1.79,0,0,1,1.59.93c1.08,1.59,3.53,6.12,4.46,7.92s4,7.57,4,9.15C571.61,93.57,567.44,95,566.36,95Z" transform="translate(-6.41 -33.73)"/><path class="a" d="M596,48.71c.57.14,1.58.29,1.58,1,0,.43-.29.57-.72.93-1,.79-1.08,2.23-1.3,3.46a53.65,53.65,0,0,0-.57,7.63c0,4.83.43,10.51,2.3,15.05.87,2,3.24,6.26,5.76,6.26,2,0,4.11-3.16,5-4.75.43-.72,1-1.8,1.95-1.8,1.51,0,5.18,3,5.18,4.25s-3.24,5.11-4.25,6.27c-2.09,2.37-4.32,4.53-7.7,4.53-5.33,0-9.51-4.82-11.88-9.22-3.6-6.76-4.18-15.84-4.18-23.47,0-1.15.22-10.3.36-10.94a.9.9,0,0,1,1-.8C589.39,47.12,594.72,48.49,596,48.71Zm29.3-1.44c1.59,0,7.63,4.53,11.09,11.16,2,3.82,4.25,10.66,4.25,15,0,1.36-.72,1.72-1.94,2.08a15.3,15.3,0,0,1-4,.65c-2.3,0-2.23-1-2.37-2.73-.87-8.43-3.82-15.27-10.66-20.53a1.18,1.18,0,0,1-.65-1.08C620.93,50.44,623.81,47.27,625.25,47.27Z" transform="translate(-6.41 -33.73)"/><path class="a" d="M689,38.7c0,.43-.5.72-.86.86-1.15.44-1.44.8-2.38,2.45a5,5,0,0,0-.72,1.66.7.7,0,0,0,.8.72c1.44,0,6.84-1.51,8.35-2a5.56,5.56,0,0,1,1.8-.43c1.22,0,1.58,1.15,1.8,2.16A23.68,23.68,0,0,1,698.4,48c0,1.22-2.3,1.51-3.81,1.8-4.54.93-9.07,1.73-13.61,2.23a2.54,2.54,0,0,0-2.16,1.15c-.43.58-2.45,3.67-2.45,4.18a.55.55,0,0,0,.58.5,2.71,2.71,0,0,0,1.29-.43,20,20,0,0,1,7.85-1.87c4.61,0,7.27,1.94,8.21,6.48.14.65.36,1.22,1.08,1.22s7.27-3.45,8.42-4.1a5.9,5.9,0,0,1,1.88-.72c1.36,0,3.09,5.54,3.09,6.77,0,.86-.79,1.15-2.16,1.58a10.54,10.54,0,0,1-1,.36c-2.88,1.08-5.68,2.31-8.49,3.53-1.3.5-1.87.94-1.87,2.38V74c0,2.23.07,4.4.07,6.63,0,2.59-.36,2.88-3.1,2.88-3.09,0-4.39-.15-4.39-2,0-1.58.14-3.17.14-4.68,0-.65-.21-1.22-.93-1.22-.36,0-7.78,3.16-7.78,7.63,0,4.82,7,5.26,10.44,5.26a52.68,52.68,0,0,0,13.39-1.8,8.16,8.16,0,0,1,1.44-.15c.94,0,1.44.79,1.44,4.9,0,2.16-.07,2.73-1.65,3.09-2.74.65-10.73.94-13.83.94-4.1,0-7.56-.22-11.37-1.87-4.4-1.95-7.2-5.4-7.2-10.3,0-6.48,5.25-10,10.22-13,1.44-.86,3-1.66,4.47-2.38.72-.36,1.29-.79,1.29-1.65a9.53,9.53,0,0,0-.36-2,3,3,0,0,0-3.17-2.45c-4,0-10.65,3.46-13.46,6.34a47.12,47.12,0,0,0-6,8.42,1.2,1.2,0,0,1-1,.72c-1.29,0-6.12-2.88-6.12-4.17,0-.58.58-1.15.94-1.59,1.65-1.8,12.09-16.27,12.09-17.64,0-.65-.57-.86-1.58-.86s-2.81.21-5,.21c-1.58,0-1.87-.36-1.87-4,0-2.88.29-3.31,2.09-3.31,1.22,0,3.09.14,5.18.14h2.09c1.87,0,3.81-.07,4.46-.93,1.23-1.59,3.39-7.2,3.89-9.29.14-.79.29-1.51,1-1.51S689,37.62,689,38.7Z" transform="translate(-6.41 -33.73)"/></svg>